<svg id="Layer_1" data-name="Layer 1" xmlns="http://www.w3.org/2000/svg" viewBox="0 0 120 120"><defs><style>.cls-1,.cls-2{stroke:#fff;stroke-miterlimit:10;stroke-width:3px}.cls-2{stroke:#000}.cls-3{fill:#39b54a}.cls-4{fill:#fff}</style></defs><title>back-to-school</title><path class="cls-1" d="M114.8 78L104 25.8a9.34 9.34 0 0 0-11-7.25l-22.42 4.64a19.74 19.74 0 0 0-35.93 7.46l-22.34 4.64a9.35 9.35 0 0 0-7.24 11l10.84 52.27A9.34 9.34 0 0 0 25 106a9.63 9.63 0 0 0 1.92-.2l80.61-16.73a9.33 9.33 0 0 0 7.24-11zM63.3 24.7l-21.37 4.44a13.11 13.11 0 0 1 9.5-7.93 12.75 12.75 0 0 1 2.67-.28 13.15 13.15 0 0 1 9.2 3.77z"/><path class="cls-2" d="M113.4 78.19L102.56 26a7.85 7.85 0 0 0-9.27-6.08l-23.37 4.81a18.23 18.23 0 0 0-33.87 7l-23.37 4.88a7.83 7.83 0 0 0-6.08 9.26l10.84 52.24a7.84 7.84 0 0 0 9.27 6.07l80.61-16.73a7.83 7.83 0 0 0 6.08-9.26zm-62.21-58.6a14.62 14.62 0 0 1 14.94 5.92L39.84 31a14.61 14.61 0 0 1 11.35-11.41z"/><path class="cls-3" d="M50.45 16A18.25 18.25 0 1 0 72 30.2 18.23 18.23 0 0 0 50.45 16zm6.69 32.19a14.63 14.63 0 1 1 11.34-17.3 14.62 14.62 0 0 1-11.34 17.34z"/><rect class="cls-3" x="11" y="27.52" width="98" height="69.01" rx="7.83" ry="7.83" transform="rotate(-11.73 59.982 62.04)"/><rect x="15.24" y="30.86" width="89.51" height="62.33" rx="5.37" ry="5.37" transform="rotate(-11.73 59.982 62.04)"/><path class="cls-4" d="M48.51 61.89a5.783 5.783 0 0 1 .48 1.32 2.86 2.86 0 0 1-.18 1.9 2.35 2.35 0 0 1-1.71 1.09l-5.57 1.17a6.23 6.23 0 0 1-.51-.71 3.42 3.42 0 0 1-.38-1 2.21 2.21 0 0 1 .15-1.66 1.76 1.76 0 0 1 1.21-.79l1-.21a3.18 3.18 0 0 1-.7-.82 3.67 3.67 0 0 1-.51-1.18 4.33 4.33 0 0 1 0-1.93 4.65 4.65 0 0 1 .83-1.72 5.48 5.48 0 0 1 1.59-1.37 7.29 7.29 0 0 1 2.27-.85A7.46 7.46 0 0 1 49.6 55a6.12 6.12 0 0 1 2.46 1.09 6.43 6.43 0 0 1 1.75 2 9.1 9.1 0 0 1 1 2.67 12.75 12.75 0 0 1 .13 4.61 10.92 10.92 0 0 1-1.65 4.34 12.84 12.84 0 0 1-3.59 3.57 16.09 16.09 0 0 1-5.7 2.3 16.26 16.26 0 0 1-5.84.27 13.15 13.15 0 0 1-4.77-1.63 10.92 10.92 0 0 1-3.5-3.22A11.91 11.91 0 0 1 28 66.58a9.24 9.24 0 0 1-.17-3.23 6.92 6.92 0 0 1 .87-2.57A5.38 5.38 0 0 1 30.41 59a7.58 7.58 0 0 1 5.1-1.1 5.73 5.73 0 0 1 2.11.8 5 5 0 0 1 1.48 1.49 5.81 5.81 0 0 1 .79 1.91 5.36 5.36 0 0 1 0 2 4.64 4.64 0 0 1-.67 1.76 5.1 5.1 0 0 1-1.35 1.35 5.68 5.68 0 0 1-2 .8 7.61 7.61 0 0 1-1.12.14 4.79 4.79 0 0 1-1.23-.1 5.39 5.39 0 0 0 1.53 1.81 7.79 7.79 0 0 0 2.22 1.2 9.58 9.58 0 0 0 2.68.5A11.66 11.66 0 0 0 43 71.3a10.62 10.62 0 0 0 3.6-1.39 7.44 7.44 0 0 0 2.3-2.23 7 7 0 0 0 1-2.84 9 9 0 0 0-.13-3.22q-.63-3-2.46-2.61a1.24 1.24 0 0 0-.87.59 1.43 1.43 0 0 0-.16 1.11 1.57 1.57 0 0 0 .7 1.07 1.55 1.55 0 0 0 1.15.19zm-14.3 3a1.49 1.49 0 0 0 1-.65 1.56 1.56 0 0 0 .17-1.18 1.6 1.6 0 0 0-.64-1 1.48 1.48 0 0 0-1.18-.21 1.46 1.46 0 0 0-1 .67 1.61 1.61 0 0 0-.16 1.2 1.44 1.44 0 0 0 1.8 1.2zm40.38-5.05a6.59 6.59 0 0 1-1.12.14 5.18 5.18 0 0 1-1.23-.09 5.49 5.49 0 0 0 1.53 1.81A7.88 7.88 0 0 0 76 62.89a9.24 9.24 0 0 0 2.68.5 11.55 11.55 0 0 0 3-.25 13.15 13.15 0 0 0 3-1A7.43 7.43 0 0 0 86.49 61a3.34 3.34 0 0 0 1-1.33 2.36 2.36 0 0 0 .12-1.27 1.74 1.74 0 0 0-.38-.72c-.47.14-.89.25-1.28.35l-1 .23-4.74 1a3.7 3.7 0 0 1-.52-.72 3.65 3.65 0 0 1-.36-1 2.18 2.18 0 0 1 .15-1.67 1.77 1.77 0 0 1 1.18-.75l.83-.17a7.39 7.39 0 0 1 .82-.14 4.61 4.61 0 0 1-.88-1 3.68 3.68 0 0 1-.51-1.3 3.84 3.84 0 0 1 0-1.91 4.23 4.23 0 0 1 .88-1.64 5.46 5.46 0 0 1 1.61-1.28 8 8 0 0 1 2.17-.78 8.14 8.14 0 0 1 2.42-.22 5.49 5.49 0 0 1 2.08.61 4.62 4.62 0 0 1 1.54 1.31 4.72 4.72 0 0 1 .86 1.93 4.52 4.52 0 0 1-.09 2.38 4.75 4.75 0 0 1-1.24 1.91 4.05 4.05 0 0 1 1.07 1 4.22 4.22 0 0 1 .65 1.57 5.74 5.74 0 0 1-.16 2.83A7.55 7.55 0 0 1 91 63.14a12.3 12.3 0 0 1-3.33 2.51 18.58 18.58 0 0 1-5.09 1.77 16.36 16.36 0 0 1-5.86.27A13.36 13.36 0 0 1 72 66.07a11.06 11.06 0 0 1-3.47-3.2 11.78 11.78 0 0 1-1.9-4.44 9.26 9.26 0 0 1-.17-3.23 6.9 6.9 0 0 1 .86-2.58A5.6 5.6 0 0 1 69 50.8a7 7 0 0 1 2.43-1 7.16 7.16 0 0 1 2.67-.09 5.62 5.62 0 0 1 2.11.8 4.83 4.83 0 0 1 1.5 1.49 5.54 5.54 0 0 1 .79 1.92 5.31 5.31 0 0 1 .06 2 4.43 4.43 0 0 1-.68 1.76A4.78 4.78 0 0 1 76.54 59a5.32 5.32 0 0 1-1.95.84zm-1.76-3.12a1.46 1.46 0 0 0 1-.64 1.55 1.55 0 0 0 .17-1.19 1.6 1.6 0 0 0-.63-1 1.62 1.62 0 0 0-2.17.46 1.63 1.63 0 0 0-.17 1.2 1.56 1.56 0 0 0 .64 1 1.45 1.45 0 0 0 1.16.17zm12.51-4.42a1.79 1.79 0 0 0 .54 1 2 2 0 0 0 1.07.52 2.13 2.13 0 0 0 1-.9 1.67 1.67 0 0 0 .18-1.15 1.43 1.43 0 0 0-.56-.88 1.27 1.27 0 0 0-1.09-.19 1.33 1.33 0 0 0-1.11 1.65z"/></svg>