<svg viewBox="0 0 120 120" xmlns="http://www.w3.org/2000/svg"><path d="m67.26 4.08a4.13 4.13 0 0 1 3.65 2.13l1.31 2.37a75.12 75.12 0 0 1 9.22 30.94l1 14.13 31.56 38.68a5.76 5.76 0 0 1 -.45 7.76l-14.55 14.18a6.43 6.43 0 0 1 -4.54 1.65 7.07 7.07 0 0 1 -5.3-2.12l-.69-.79v-.76l-19.47-36.4-1.15-2.16-.21-.1h-.07c-2.46-1.31-6.43-4.86-6.47-14.59l-.1-18.34a7.14 7.14 0 0 1 2.06-5.16v-27.38a4.06 4.06 0 0 1 4.17-4m0-2.74a6.78 6.78 0 0 0 -6.92 6.78v26.31a10 10 0 0 0 -2.06 6.19l.1 18.34c0 10.71 4.52 15.06 7.45 16.76l.74 1.4 19.17 35.81v.03a2.71 2.71 0 0 0 .67 1.8l.69.79a9.85 9.85 0 0 0 7.37 3.06 9.11 9.11 0 0 0 6.46-2.43l14.53-14.18a8.49 8.49 0 0 0 .67-11.44l-30.95-38-1-13.27a77.86 77.86 0 0 0 -9.53-32.08l-1.31-2.37a6.83 6.83 0 0 0 -6-3.54z" fill="#fff"/><path d="m52.74 4.08a4.06 4.06 0 0 1 4.17 4v27.42a7.18 7.18 0 0 1 2.09 5.17l-.1 18.33c0 9.77-4 13.32-6.38 14.56h-.11l-.18.08-1.23 2.21-19.48 36.4v.75l-.69.78a7.07 7.07 0 0 1 -5.3 2.12 6.43 6.43 0 0 1 -4.53-1.62l-14.51-14.19a5.76 5.76 0 0 1 -.49-7.76l31.52-38.68 1-14.13a75.23 75.23 0 0 1 9.26-30.95l1.31-2.37a4.13 4.13 0 0 1 3.65-2.12m0-2.74a6.82 6.82 0 0 0 -6.05 3.53l-1.31 2.38a77.71 77.71 0 0 0 -9.56 32.07l-1 13.27-30.93 38a8.5 8.5 0 0 0 .66 11.46l14.54 14.19a9.09 9.09 0 0 0 6.45 2.42 9.9 9.9 0 0 0 7.36-3l.68-.78a2.72 2.72 0 0 0 .69-1.82v-.08l19.18-35.83.75-1.42c3-1.75 7.39-6.11 7.44-16.75l.07-18.3a10.19 10.19 0 0 0 -2.06-6.22v-26.34a6.77 6.77 0 0 0 -6.91-6.78z" fill="#fff"/><path d="m94.44 114.54a5.69 5.69 0 0 1 -4.27-1.65l-.35-.39v-.59l-19.64-36.71-1.38-2.59-.56-.23-.13-.07c-2.11-1.1-5.6-4.31-5.64-13.31l-.07-18.3a5.74 5.74 0 0 1 1.83-4.35l.23-.17v-28a2.7 2.7 0 0 1 2.8-2.66 2.77 2.77 0 0 1 2.45 1.41l1.29 2.31a73.63 73.63 0 0 1 9.06 30.38l1.07 14.56 31.75 39a4.44 4.44 0 0 1 -.34 5.91l-14.54 14.2a5 5 0 0 1 -3.56 1.25z" fill="#eeaf85"/><path d="m67.26 6.83a1.39 1.39 0 0 1 1.25.71l1.3 2.36a72.83 72.83 0 0 1 8.9 29.82l1.09 15 32 39.35a3 3 0 0 1 -.23 4.06l-14.51 14.18a3.81 3.81 0 0 1 -2.62.86 4.42 4.42 0 0 1 -3.24-1.17.76.76 0 0 0 -.06-.51l-19.75-36.93-1.39-2.56-.15-.28a.67.67 0 0 0 -.46-.34 3.27 3.27 0 0 1 -.57-.22h-.08c-1.46-.77-4.88-3.46-4.92-12.15l-.07-18.29a4.35 4.35 0 0 1 1.36-3.31 2.43 2.43 0 0 1 .7-.4 3.51 3.51 0 0 1 1.36-.26 4.22 4.22 0 0 1 2 .51 4.93 4.93 0 0 1 2.45 3.91l1.5 15.83.26 2.76a.7.7 0 0 0 .73.61.69.69 0 0 0 .61-.75l-.48-5-.72-7.68-.52-5.94a6.18 6.18 0 0 0 -3.18-5 5.53 5.53 0 0 0 -2.62-.68 4.89 4.89 0 0 0 -1.35.19v-27.39a1.34 1.34 0 0 1 1.43-1.29m0-2.75a4.06 4.06 0 0 0 -4.17 4v27.42a7.14 7.14 0 0 0 -2.11 5.16l.1 18.34c0 9.77 4 13.32 6.37 14.56h.07l.21.1 1.25 2.19 19.48 36.4v.75l.69.79a7.07 7.07 0 0 0 5.3 2.12 6.43 6.43 0 0 0 4.53-1.64l14.53-14.18a5.76 5.76 0 0 0 .45-7.76l-31.5-38.68-1-14.13a75.12 75.12 0 0 0 -9.26-30.94l-1.31-2.37a4.13 4.13 0 0 0 -3.65-2.13z"/><path d="m70 44.54h-4.17v-3.43a2.06 2.06 0 0 1 2.06-2.06 2.06 2.06 0 0 1 2.11 2.06z" fill="#fff"/><path d="m25.56 114.54a5 5 0 0 1 -3.56-1.25l-14.55-14.19a4.4 4.4 0 0 1 -.34-5.9l31.75-39 1.06-14.56a73.78 73.78 0 0 1 9.08-30.4l1.31-2.36a2.75 2.75 0 0 1 2.45-1.42 2.7 2.7 0 0 1 2.8 2.66v28l.21.17a5.72 5.72 0 0 1 1.85 4.36l-.09 18.35c-.05 9-3.53 12.21-5.65 13.31l-.13.07c-.2.09-.38.17-.55.23l-1.38 2.59-19.65 36.71v.58l-.34.4a5.69 5.69 0 0 1 -4.27 1.65z" fill="#eeaf85"/><path d="m52.74 6.83a1.34 1.34 0 0 1 1.42 1.29v27.38a4.82 4.82 0 0 0 -1.34-.19 5.5 5.5 0 0 0 -2.62.69 6.19 6.19 0 0 0 -3.2 5l-.56 5.88-.73 7.68-.48 5a.71.71 0 0 0 .62.75.71.71 0 0 0 .73-.61l.3-2.7 1.49-15.84a4.94 4.94 0 0 1 2.46-3.91 4.22 4.22 0 0 1 2-.51 3.42 3.42 0 0 1 1.35.26 2.3 2.3 0 0 1 .7.4 4.32 4.32 0 0 1 1.36 3.31l-.09 18.29c0 8.69-3.45 11.38-4.91 12.15h-.08a2.9 2.9 0 0 1 -.58.22.67.67 0 0 0 -.45.34l-.13.29-1.37 2.58-19.75 36.9a.7.7 0 0 0 -.06.51 4.44 4.44 0 0 1 -3.24 1.19 3.8 3.8 0 0 1 -2.62-.86l-14.55-14.2a3 3 0 0 1 -.24-4.06l32-39.35 1.1-15a72.82 72.82 0 0 1 8.91-29.81l1.31-2.36a1.39 1.39 0 0 1 1.25-.71m0-2.75a4.13 4.13 0 0 0 -3.65 2.12l-1.31 2.37a75.23 75.23 0 0 0 -9.23 31l-1 14.13-31.55 38.63a5.76 5.76 0 0 0 .45 7.76l14.55 14.19a6.43 6.43 0 0 0 4.54 1.64 7.07 7.07 0 0 0 5.3-2.12l.69-.78v-.77l19.47-36.4 1.14-2.16.18-.08h.11c2.36-1.24 6.33-4.79 6.38-14.56l.19-18.38a7.18 7.18 0 0 0 -2.06-5.17v-27.38a4.06 4.06 0 0 0 -4.17-4z"/><path d="m50.05 44.54h4.11v-3.43a2.05 2.05 0 0 0 -2-2.06 2.06 2.06 0 0 0 -2.06 2.06z" fill="#fff"/></svg>