<svg id="Layer_1" data-name="Layer 1" xmlns="http://www.w3.org/2000/svg" viewBox="0 0 120 120"><defs><style>.cls-1,.cls-3{fill:none}.cls-2{stroke:#fff;stroke-miterlimit:10;stroke-width:4.75px}.cls-3{stroke:#000;stroke-linecap:round;stroke-linejoin:round;stroke-width:7.13px}.cls-4{fill:#fd4b2d}.cls-5{fill:#c0392b}.cls-6{fill:#fff8e6}.cls-7{fill:#e6dbc3}.cls-8{fill:#f2e7ce}.cls-9{fill:#f2cf8e}.cls-10{fill:#d8a964}.cls-11{fill:#af9e68}.cls-12{clip-path:url(#clip-path)}.cls-13{fill:#f8a13b}.cls-14{fill:#ffde3a}.cls-15{fill:#a375c3}.cls-16{fill:#ff5a7e}.cls-17{fill:#58d0ff}</style><clipPath id="clip-path"><path class="cls-1" d="M-21.36 78.92v4.64c-1.14.6-1.86.07-2.46-.88-1-1.62-1.94-2-3.33-1.18s-1.63 1.78-.79 3.46c.25.5.85 1.05.07 1.52-.63.38-1.06 1.21-1.6 1.34-2.93.7-3.22 2-1.48 4.33.7.95-.63 1.53-1.24 2s-.9-.16-1-.73a2.92 2.92 0 0 0-2.37-2.57c-1.57-.28-2.16.84-2.67 2a5.75 5.75 0 0 1-.55-.34c-2.77-2.07-4-1.55-4.45 2-.15 1 .11 2.32-.39 3.14-1 1.56-1.2 2.89-.11 4.42.43.61.18 1.14-.49 1.44s-1.3 1-2.25 1a1.13 1.13 0 0 0-1.28 1c-.15 1.61-1 1.63-2.22 1.14a2.79 2.79 0 0 0-1.57-.13 5 5 0 0 1-4.46-1.45c-1.18-1-2.54-1.66-3.85-.07-.32.39-.73.33-1.14.29a9 9 0 0 1-3.48-.73c-1.51-.76-2.59-.5-3.66.93s-2.2 3.42-4 4.2c-1.38.6-2.33 1.17-2.26 2.84-2.58-1.85-2.64-2-1.3-4.52a11.47 11.47 0 0 0 1.09-1.83c.41-1.29.47-2.67-.67-3.62s-1.52.37-2.2.81c-.07 0-.21 0-.39-.06v-.69c.29-3 .16-3.16-3-3.42-.41 0-.47-.24-.52-.55-.22-1.49-1.41-1.82-2.59-2-1.46-.27-2.91-.54-4.36-.85-1.29-.27-2.88-.76-3.81 1-.41.76-.89.17-1.33 0a7.57 7.57 0 0 0-5.69-.79 5.64 5.64 0 0 1-4-.27 10.06 10.06 0 0 0-6.07-.75 7.15 7.15 0 0 1-4.89-1.08h-.07c-.91-.61-.18-2.14-.4-3.23-.07-.4 0-.83-.08-1.24a5.13 5.13 0 0 0 1.73-3.77c.12-2-.11-4 .2-6.06a1.88 1.88 0 0 0-.76-1.9c-.86-.62-.92-1.14.23-1.29a4 4 0 0 0 3.18-2.54c.23-.46.38-1.11 1-1.08 2.79.15 3.35-2 4.05-3.95.21-.59.38-1.18 1-1.34 2.75-.65 4.4-2.89 6.52-4.44s3.82-4.14 6.63-5a3.54 3.54 0 0 0 2.64-3.25c.17-1.65-1-2.56-2.22-3.14-1.75-.83-1.28-2-.8-3.25a5.27 5.27 0 0 1 1.1-1.38 6.25 6.25 0 0 0 .65-7.35c-.2-.33-.37-.62-.16-1 1.11-1.86.44-3.7-.13-5.5a2.18 2.18 0 0 1 .34-2.26c1.36-1.81 3.78-2.52 4.74-4.7.08-.18.57-.32.81-.26 2 .5 2.92-.68 3.71-2.22.4-.79.89-1.73 2-1.46 2 .51 4.15.25 6.21.54a3 3 0 0 0 3.27-1.55c1-1.48 1.71-3.15 3.71-3.81a3 3 0 0 0 1.8-3.23c-.18-2 .86-2.19 2.36-1.76 1.25.36 2-.06 2.16-1.33.13-1 .72-1.28 1.59-1.3.72 0 1.43-.05 2.14-.06 1.46 0 2.24-.65 2.07-2.19h1.07c.16.25.32.5.47.76 1.24 2 1.24 2.27-.81 3.41a4 4 0 0 0-2 2.56c-.15.55-.17 1.15-1.12.94-1.6-.36-2.28.76-2.61 2s0 2.91-2 3.08c-.44 0-.51.77-.44 1.25a2.15 2.15 0 0 0 2.06 1.91c4 .41 6 3.32 8 6.23.26.38.46.7 0 1.05-.84.61-.53 1.39-.23 2.09s.65 1.49 1 2.2a11.43 11.43 0 0 0 2.77 3.55 4.77 4.77 0 0 1 1.18 1.72 10.57 10.57 0 0 1 .78 6.43c-.21 1.57.46 2.29 2 2.53a4.65 4.65 0 0 0 4.93-2 5.14 5.14 0 0 0 3.61 3.07c2.86.85 4.44 2.56 3.53 5.76v.35c-.93 2.58.45 3.87 2.57 4.9.8.39 2.14.88 2 1.78-.16 1.44.65 2.42 1.21 3.8-1.47-.2-2.71 0-2.79 1.55-.07 1.26.18 2.86 1.11 3.45 2.75 1.64 3.74 4.45 5.25 6.94z"/></clipPath></defs><title>education and agriculture</title><path class="cls-2" d="M60 109.24c-4.9 0-8.92-1.89-10.75-4.74H10.43a5.94 5.94 0 0 1-5.93-5.93v-78a5.93 5.93 0 0 1 4.9-5.87 3.55 3.55 0 0 1 2.68-2.39c1-.19 2-.42 3.07-.66a106.68 106.68 0 0 1 24.78-3 80 80 0 0 1 11.65.76h.17a41.93 41.93 0 0 1 5.3 1.12h.14c.74.22 1.31.41 1.8.6l.76.31.27.12c3.53-1.62 10-3 20-3a106.86 106.86 0 0 1 24.79 3c1.09.24 2.11.47 3.06.66a3.55 3.55 0 0 1 2.68 2.39 5.93 5.93 0 0 1 4.9 5.84v78a5.92 5.92 0 0 1-5.93 5.93H70.75c-1.83 2.97-5.85 4.86-10.75 4.86zm-4.73-8.38c.39.47 2.09 1.4 4.73 1.4s4.34-.93 4.73-1.4a3.56 3.56 0 0 1 3.55-3.36h40.22v-76h-1.17a3.58 3.58 0 0 1-3.53-3.05l-.37-.09a100.79 100.79 0 0 0-23.32-2.81c-11.55 0-16.79 1.95-17.71 2.63a3.4 3.4 0 0 1-4.87-.07l-.24-.11-.68-.3c-.57-.22-1-.36-1.5-.51a33.26 33.26 0 0 0-4.44-.93 73.65 73.65 0 0 0-10.75-.7 99.22 99.22 0 0 0-23.31 2.81l-.45.47a3.57 3.57 0 0 1-3.45 2.67H11.5v76h40.22a3.56 3.56 0 0 1 3.55 3.35zm54.47-79.36zm-97.11-6z"/><path class="cls-3" d="M109.13 18.5h-1.63v-2.37c-5.94-1.18-14.2-3.55-27.31-3.55S61.19 15 60 16.13a1.84 1.84 0 0 0-.25-.21l-.07-.05-.33-.22-.09-.05-.34-.18-.19-.1a3.52 3.52 0 0 0-.39-.17l-.41-.15-.23-.08c-.47-.18-1-.36-1.6-.53h-.06a39.59 39.59 0 0 0-4.93-1 78 78 0 0 0-11.26-.73C26.7 12.58 18.44 15 12.5 16.13v2.37H9.87a2.38 2.38 0 0 0-2.37 2.37v78.26a2.38 2.38 0 0 0 2.37 2.37h41.36c0 2.62 3.7 4.75 8.27 4.75s8.27-2.13 8.27-4.75h41.36a2.38 2.38 0 0 0 2.37-2.37V20.87a2.38 2.38 0 0 0-2.37-2.37z"/><path class="cls-4" d="M109.64 18H10.37A2.38 2.38 0 0 0 8 20.37v78.26a2.38 2.38 0 0 0 2.37 2.37h41.36c0 2.62 3.7 4.75 8.27 4.75s8.27-2.13 8.27-4.75h41.36a2.38 2.38 0 0 0 2.37-2.37V20.37a2.37 2.37 0 0 0-2.36-2.37zm.09.22"/><path class="cls-5" d="M63 18H110V97H63z"/><path class="cls-5" d="M109.73 99H68.29c0 2.23-3.71 4.35-8.29 4.35s-8.29-2.12-8.29-4.35H10.26A2.86 2.86 0 0 1 8 96.24v2.37a2.26 2.26 0 0 0 2.26 2.39h41.45c0 2.6 3.71 4.72 8.29 4.72s8.29-2.12 8.29-4.72h41.44a2.26 2.26 0 0 0 2.27-2.39v-2.37a2.23 2.23 0 0 1-2.27 2.37zm0-.39"/><path class="cls-6" d="M40 12.05c-13 0-21.14 2.37-27 3.55V96h47V15.6c-1.17-1.18-7-3.55-20-3.55zm-.15.24"/><path class="cls-7" d="M60 96c0-3.27-7-5.92-20.13-5.92S15 93.63 12.63 96zm0 .24"/><path class="cls-6" d="M80 12.05c13 0 21.15 2.37 27 3.55V96H60V15.6c1.17-1.18 7-3.55 20-3.55zm.16.24"/><path class="cls-7" d="M60 96c0-3.27 7-5.92 20.13-5.92S105 93.63 107.37 96zm0 .24"/><path class="cls-8" d="M60 89.14V15.85c-.76-.77-3.52-2-8.9-2.83zm0 0"/><path class="cls-5" d="M14 96H63V97H14z"/><path class="cls-8" d="M103 34H65V19.71a113.26 113.26 0 0 1 38 0zm-.37-6.31"/><path class="cls-8" d="M71 39.5H103V47.5H71z"/><path class="cls-8" d="M65 54H103V62H65z"/><path class="cls-8" d="M65 69H97V77H65z"/><path class="cls-9" d="M27.67 32.5a.83.83 0 0 1 .33-1.31 1 1 0 0 1 1.4.36C36.42 43 42.18 55.62 45.23 68.8a1 1 0 0 1-.76 1.3c-.54.16-1 0-1.14-.72-3.01-13.04-8.71-25.49-15.66-36.88zm15.66 36.92"/><path class="cls-10" d="M29.34 31.5a1 1 0 0 0-1.34-.32.85.85 0 0 0-.3 1.31c6.83 11.25 13.17 23.84 15.67 36.93"/><path class="cls-11" d="M43.4 69.74a1 1 0 0 1 .76-1.29.82.82 0 0 1 1.15.72c.79 4.15 1.18 8.77 2.13 12.89a.85.85 0 0 1-.73 1.16.94.94 0 0 1-1.2-.77c-1-4.05-1.35-8.61-2.11-12.71zm2.11 12.75"/><path class="cls-10" d="M20.25 20.22c3.35 1.13 7.7 2.53 9.68 5.31s.63 4.91-1 7.06c-2.76-4.26-6-8.1-8.66-12.37zm0 0"/><path class="cls-9" d="M20.66 20.16c-.43 3.29-.26 7.46 1.59 10.12s4.31 2.64 7.08 2.28c-2.7-4.29-6-8.12-8.67-12.4zm0 0"/><path class="cls-10" d="M36.88 25.31c1.42 2.65 2.84 6.45 2 9.24s-3 3.07-5.38 3.25c1.24-4.16 2.27-8.32 3.33-12.49zm0 0"/><path class="cls-9" d="M36.87 25.31c-2.45 1.6-5.14 3.93-5.87 6.69s.71 4.29 2.52 5.79c1.3-4.14 2.29-8.31 3.35-12.48zM18.84 35.55c1.64 2.35 4 5.14 6.7 6s4.3-.6 5.81-2.43c-4.17-1.32-8.35-2.43-12.51-3.57zm0 0"/><path class="cls-10" d="M18.4 35.58c2.68-1.14 6.22-2.36 9-1.65s3.36 2.76 3.54 5.16c-4.18-1.22-8.34-2.36-12.51-3.51zM42 34c1.27 2.76 2.36 6.65 1.4 9.42s-3.16 2.91-5.54 3c1.5-4.1 2.9-8.21 4.14-12.42zm0 0"/><path class="cls-9" d="M42 34c-2.5 1.57-5.5 3.79-6.46 6.5s.59 4.28 2.31 5.9c1.54-4.07 2.91-8.19 4.15-12.4zm-19.09 9.55c1.58 2.39 3.71 5.29 6.34 6.26s4.31-.42 5.9-2.17c-4-1.57-8.13-2.86-12.24-4.09zm0 0"/><path class="cls-10" d="M22.91 43.53c2.74-1.08 6.41-2.21 9.15-1.33s3 3 3.1 5.41C31.1 46.1 27 44.77 22.91 43.53zm23.47-.45c1 2.87 1.95 6.74.9 9.48s-3.28 2.88-5.64 2.85c1.67-4.1 3.25-8.2 4.74-12.33zm0 0"/><path class="cls-9" d="M46.37 43.07c-2.56 1.45-5.73 3.58-6.79 6.24s.38 4.35 2 6.09c1.73-4.08 3.28-8.19 4.76-12.33zM27 51.74c1.45 2.47 3.37 5.51 5.95 6.63s4.31-.19 6-1.88C35 54.72 31 53.16 27 51.74zm0 0"/><path class="cls-10" d="M27 51.73c2.75-1 6.48-1.91 9.14-.88S39 54.1 38.9 56.46C35 54.75 31 53.15 27 51.73zm23.29.56c.93 3 1.6 7 .36 9.75S47.2 65 44.74 64.73a126.49 126.49 0 0 0 5.55-12.44zm0 0"/><path class="cls-9" d="M50.28 52.29c-2.65 1.38-5.85 3.46-7.06 6.11s0 4.37 1.49 6.31a109.33 109.33 0 0 0 5.57-12.42zm-19.81 7.88c1.25 2.54 2.86 5.67 5.31 7s4.34 0 6.11-1.5a111.85 111.85 0 0 0-11.42-5.49zm0 0"/><path class="cls-10" d="M30.48 60.16c2.84-.75 6.53-1.57 9.15-.39s2.61 3.55 2.28 5.86c-3.75-2-7.54-3.84-11.43-5.47zm0 0"/><path class="cls-11" d="M44.76 78.21c.26.47 2.33 2.44.22 2.47S40.06 76 37 75a10.72 10.72 0 0 1-7-6.71c1.67 3.23 3.37 4.52 7.26 3.73s6.45 2.39 7.45 6.19zm0 0"/><g class="cls-12"><path class="cls-13" d="M-91.55 35.78c-1.29-.17-2.57-.44-3.86-.67 10.73 3 22 4.8 32.83 6.24s21.49 2.81 31.16 5.22c1.2.56 3.58 1.68 4.74 2.26 9.67 2.16 21.5 3 30.89 3.4a10.82 10.82 0 0 0 6.25-2 19.79 19.79 0 0 0 2-1.52c.48-.4.75-.67.75-.67 1.31-.69 2.82-2.29 1.82-3.44-1.11-.49-3.17-.93-4.91-1.49s-3.16-1.26-3-2.18c.07-.46 1.27-.27 2.47-.08.28-1.83 4.54-5 5.76-4.73 1.35-.68 9.23-2 10.69-2.64 2-.28.63-2.73-1.94-5.36a41.13 41.13 0 0 0-4.42-3.9 43.62 43.62 0 0 0-2.31-1.63 18.45 18.45 0 0 0-2-1.1c-2.41-1.32.38-2.3.62-3.67-2.66.05-3.73-1.53-6.4-1.48 0-.21-1.89-.82-4.27-1.27s-5.28-1-7.21-1.2a6 6 0 0 1-1.15.09 35.47 35.47 0 0 1-4-.2c-1.28-.13-1.33.33-1.38.8l.1-.93c-1.38.79-3.83-.39-5.16-.06l.09-.93c-2.64.66-5.06-.45-7.63-.22l.08-.92c-1.27-.11-2.53-.22-2.49-.69l.08-.93c-1.24-.58-3.83.15-3.75-.77l-.07.92a93 93 0 0 1-12.39-1.9c-9.81-2.61-21.94-2.65-32.65-3-1.17-.14-2.47.64-1.4 1.7l-3.55-.42c-2.34-.32-1.35 1.22-3.69.88q-3.57-.1-7.12-.39c-2.32-.27-4.64-.6-7-1-1.15-.19-2.33-.34-3.45-.6l-3.38-.78-3.37-.8c-1.12-.26-2.25-.53-3.33-.89l-6.54-2c-1.1-.3-2.15-.71-3.21-1.1l-3.18-1.15-3.19-1.1c-1.07-.36-2.07-.84-3.12-1.23Q-130.85-5-134-6.09c2 1.09 3.62 2.19 5.33 3.2.86.5 1.73 1 2.65 1.42a19.86 19.86 0 0 0 3.08 1c-.16.44-.49 1.31.59 1.7 1.59.68 3.27 1.32 4.94 1.93l5 1.49a41.81 41.81 0 0 1 4.33 1.57A10.61 10.61 0 0 1-105 7.91c1 .71 1.87 2.34 5.35 3.16l-3.48-.81-.31 1.36 3.61 1.2c1.25.41 2.58.74 3.89 1.11 2.64.71 5.25 1.51 7.63 2.1l-.23 1.38 2.42.36c.48.89 0 1.41-1.06 1.68a14.5 14.5 0 0 1-4.68.1c-3.84-.39-8.72-1.19-11.75-1.76l-.41 1.82 2.43.57-.2.91c-3.64-.88-7-1.6-10.32-2.47l-5-1.46-2.57-.74c-.86-.25-1.75-.5-2.63-.84l1.07.38 1.32.39 2.4.69c-.13.45-.27.9.94 1.25-4.88-1.28-10.58-3.95-15.65-4.81-1.32-.1-.73 1.8 2.74 3.49l4.81 1.72 2.3.82 2.57.74-.28.89c-2.49-.63-5.93-2.46-8.52-2.87-1.38 0 2 2.19.59 2.19a11.22 11.22 0 0 0-3.84-.88c3.7 1.3 8.71 2.74 12.34 4.15 1.11.81 2.23 1.62 2 2.52a39.67 39.67 0 0 1 4.48 1.26 28.79 28.79 0 0 1 3.9 1.53A25.39 25.39 0 0 1-103 33.2c1.05 1.14 7.6 1.96 11.45 2.58z"/><path class="cls-14" d="M-.72 45.21l.71.14v-.26a7.37 7.37 0 0 0-.71.12zm.72-.13a6.87 6.87 0 0 1 .61-2.86l1.59.31c.51-.44.22-1 .34-1.56.39.08.79.16.85-.1.4-.63.08-1.17-.66-1.49C.39 42-4.11 42.16 0 45.08z"/><path class="cls-15" d="M8.85 45.31c-.06-.15-.06-.25.36-.17l-.36.17c.06.14.17.33 0 .49a30.7 30.7 0 0 1 3.94-2.45c.07-.34.12-.67.17-1C9.5 44 6 45.64 3.53 48.13c2.12-.79 3.35-1.93 5.32-2.82zm3.73-4.54l.35-.16c-.42-.08-.42.01-.35.16zm-23.53 7.31q-2.9 1.37-5.73 2.85c-1.91.9-3.8 1.79-5.67 2.72l-3 .77-1.48.4-1.47.35c-2 .48-3.88 1-5.76 1.58-1 .29-1.88.59-2.8.91s-1.83.59-2.73.92a54.18 54.18 0 0 0-5.26 2.16 22.52 22.52 0 0 1-2.45 1.06c-.88.31-1.83.59-2.81.87l-6.21 1.67c-4.24 1.15-8.45 2.45-11.41 4.9a12.81 12.81 0 0 0 2 0 19.16 19.16 0 0 0-2.49 1.51 329.477 329.477 0 0 1-30.69 4c-1.54.11-2.6 1-4.13 1.15l-4.55.55a.25.25 0 0 0 .07.17c-3.14.42-6.15 1-9.22 1.57s-6.11 1.32-9.19 2.15a41.33 41.33 0 0 1-4.42.66c-1.45.18-2.91.35-4.36.58-1.09.17-1.25-.88-2-1-1.56-.43-2.95-.83-4.36-1.1a21.88 21.88 0 0 0-4.49-.3l-.15-.78a3.63 3.63 0 0 1-1.32.25c.95-3.23 4.85-5.09.15-6.27.22-.13.42-.25.61-.38h.07a5.09 5.09 0 0 0 1.91-2.24l-2 .39a2.38 2.38 0 0 0-.07-1.13c0-.08.08-.16.13-.24l.54-.11a3 3 0 0 0 .1-.65 27.48 27.48 0 0 1 2.58-2c.77-.56 1.26-1.07.9-1.57s-1.72.19-3.11.83a1.48 1.48 0 0 0-.34-.21c1.87-.64-.33-1.83.77-2.32 1.54-.31 3.05-.77 4.6-1 6.32-1.06 11.61-2 17.75-3.51l.81-.18a49.11 49.11 0 0 1 8.81-1.09 7.41 7.41 0 0 1-.54.58 31.75 31.75 0 0 0 7.12-.82 120.66 120.66 0 0 1 17.64-3.97 167.77 167.77 0 0 0 19.08-3.22 53 53 0 0 1-8 2c-1.24.08-2.46.17-3.65.32a25.79 25.79 0 0 0 3.65-.32 59 59 0 0 0 7-.65 12.72 12.72 0 0 0 6-2.6c.41.18.44.45.81.41 1.34-.13 2.68-.19 3.95-.39a9.55 9.55 0 0 0 3.54-1.22c0-.27 1.1-.4.67-.89 2.21-.55 4.86-.82 7-1.67a8.53 8.53 0 0 0 2.69-1.73l5.86-1.96 5.65-2.14c3.82-1.35 7.51-3 11.38-4.62.48-.18 1-.34 1.51-.5s1-.37 1.54-.54c1-.34 2.1-.65 3.08-.93-1.32.84-2.69 1.67-4.09 2.47s-2.91 1.44-4.41 2.14a27.44 27.44 0 0 0-4.44 1 11.81 11.81 0 0 0-3.81 1.93c-.52.36-1.05.7-1.59 1l5-1.86q2.43-1.06 4.8-2.14c1.82-.34 3.75-.52 5.52-1l-.09.09c-1.29.76-2.69 1.34-4.06 2a32.06 32.06 0 0 0-4 .9 15.65 15.65 0 0 0-3.5 1.58 7.22 7.22 0 0 0-.77.56c-.53.35-1.06.7-1.6 1 2.1-.77 4.19-1.5 6.18-2.42l3.7-1.6 2.47-.4a2.56 2.56 0 0 0-.2.26c-.64.42-1.91 3.93-.64 4.45a55.23 55.23 0 0 0 8.49-3l3.11-1.28c.78-.29 1.22-.53 1.24-.45s-.23.71-1 1.2a32.17 32.17 0 0 1-2.83 1.68c-2.11 1.16-4.28 2.22-4.07 2.3.56 0 1.12-.1 1.68-.17-.45.36-.88.72-1.27 1.09a11.4 11.4 0 0 1-1.72.68 3 3 0 0 0-1.42.71c-2.2 2.15-5.28 2.33-8 4.06C-29.88 50-31.94 51.51-34 53c.09.52-1.1.48-.62.93a20.48 20.48 0 0 0-3.22.79A3.32 3.32 0 0 0-40 56.4l-.15.07a1.43 1.43 0 0 0-.57.3 12.75 12.75 0 0 0-4.77 1.35c-.72.34-1.42.72-2.14 1.11s-1.47.74-2.27 1.09a29.39 29.39 0 0 1-3.46.65 9.68 9.68 0 0 0 2.73-.33l.73-.32a71.51 71.51 0 0 0 8.33-2.83 8.75 8.75 0 0 1 .85-.72h.61c0-.11.07-.22.11-.33 2.55-1.1 5.49-2 7.59-3.17a23 23 0 0 1 3.13-1c1.07-.28 2.16-.52 3.24-.78 2.17-.49 4.39-.86 6.54-1.29q-3 1.41-6 2.89c2.5-1.06 4.83-2.08 7.07-3.11l1.09-.24 2.23-.65c-.72.09-1.44.2-2.14.33 1.31-.71 2.59-1.41 3.83-2.14 1.77-.84 3.55-1.65 5.35-2.41s3.53-1.7 5.32-2.48c.9-.39 1.8-.77 2.7-1.13l1.36-.54c.45-.18.88-.4 1.32-.59Q5.32 38.84 8 37.82a10.13 10.13 0 0 1 0 1.09c-1.69.82-3.39 1.61-5 2.51-.77.47-1.55.89-2.27 1.36a12.44 12.44 0 0 0-2 1.59A47.85 47.85 0 0 0 4 41.81c0 .15.16.34 0 .5a27.43 27.43 0 0 1 3.81-2.39c-.17.82-.4 1.67-.63 2.52a10 10 0 0 1-2.57 2A27.83 27.83 0 0 1 1.17 46l-3.44 1.4-6.9 2.87-6.47 1.75c-2.15.57-4.33 1-6.45 1.54 2-.88 4-1.67 5.83-2.59s3.6-1.89 5.31-2.89zm-127.82 23.86c.37-.17.75-.36 1.12-.56l-.21-.16a1.48 1.48 0 0 0-.91.72zm8.82-1.06a14.23 14.23 0 0 0-4.37.58c-1.56.39-3.18.91-4.78 1.37a.74.74 0 0 0 0 .21 24.15 24.15 0 0 0 4.45-.86c1.55-.43 3.14-.94 4.7-1.3zm11 4.23L-119 75v.12zm46.12-12.45c-3 1.58-6.9 1.92-10.72 2.74-1.17.09-2.25 1.25-3.8 1.37-1.92.41-3 1-4.56 1.42l1.2.44c-2.72 0-4.14 1.66-6.88 1.34a1 1 0 0 1-.7.86c-1.91.41-3.86 0-5.35.72a29.88 29.88 0 0 0-5.28 1.26c-.38 0-1.07.89-1.8 1.23-.91.2-1.83.36-2.74.53l.13.2a9.31 9.31 0 0 0 2.25-.43 62.85 62.85 0 0 1 7.13-2c5.67-1 11-2.49 16.34-4 1.14-.36 2.26-1 3.4-1.33 3.41-1.33 7.71-1.42 9.89-3.48.32-.24 1.13-.31 1.48-.87zm3.3-11.88a39.26 39.26 0 0 1-12.27 2.46c-3.09.24-11.86 2.52-10.07 5.59 1.7-3 8.09-3.56 13.65-4.08s10.29-1.04 8.68-3.97zM-38.81 42a15.73 15.73 0 0 1-4.67 1.53c1.56-.53 3.14-.94 4.67-1.53zm-14.48 13c4.78-2.38 10-3.52 14.79-5.29 3.6-1.51 8-.91 11-3.46l-.17-.78-.31.35a27.67 27.67 0 0 1-3.6-.12l.18-.1-.32.1a5.59 5.59 0 0 0-2.35.48l-1.14.59-3.44 1c-1.16.3-2.32.62-3.46 1a33.86 33.86 0 0 0-6.52 2.73c-2.56 1.11-4.7 2.71-7.3 3.83a9.36 9.36 0 0 0 2.64-.28z"/><path class="cls-15" d="M-18 49.44c1.55-.72 3.06-1.53 4.61-2.25a78.6 78.6 0 0 0 3.43-2.11c5.41-3.19 12.24-5.17 17.9-8.49a4.64 4.64 0 0 0-1-2.19A41.36 41.36 0 0 0 2 36.22c-.8.33-1.56.75-2.38 1.06l-2.41 1c-3.22 1.33-6.39 2.85-9.86 3.53l-.14.13a16.12 16.12 0 0 1-5 2.8 32.83 32.83 0 0 0-5.73 2.52 35.21 35.21 0 0 1-5.2 3.06C-30.44 51.16-32.25 52-34 53c1.37-.26 2.73-.55 4.07-.85s2.66-.59 4-1A68.37 68.37 0 0 1-18 49.44z"/><path class="cls-16" d="M15.78 69.43c-4.74.43-10.19-2-14.8.26 1.35.32 2.82.59 4.28.87s2.9.66 4.2 1.06c2.6.8 4.58 1.84 4.89 3.57s-1.5 1.73-3.89 1.32S5.05 75.22 3 75.36l1.09.72c-.54-.36-1.09-.72-1.58-.32 1.09.74 3.2 1.37 3.77 2.55-.32.26-.64.51-1 .79 2.7 2.64 7.76 3.39 10.29 6A31.66 31.66 0 0 0 5 80.56a51.81 51.81 0 0 0-6-.86 47.27 47.27 0 0 0-6.21-.21 118.08 118.08 0 0 0-12.77 1l-6.35.82c-2.11.3-4.2.58-6.25.82C-41.67 84-50 87.77-57.86 91.81c-1.51.56-5.24.61-7.92.53-2.32.48-4.7.89-7 1.43s-4.67 1.18-7 1.94a64.53 64.53 0 0 1-15.29.9c-5.15-.09-10.49-.68-16.08-.61a3.1 3.1 0 0 1-2.71-1.88c-.31-1 .38-2 3.11-2.34a51.38 51.38 0 0 1 6.77-1c1.13-.1 2.25-.16 3.38-.19s2.23-.12 3.35-.13c-.52 1-2.64.47-3.65 1.25a37.19 37.19 0 0 0 9.31.69l-6.51.33c2.71-.13 5.57-.18 8.49-.28s5.83-.42 8.75-.84c2.15-.16 4.19 3.08 7.06.48l-5.77-.54c-1.95-.21-3.9-.41-5.86-.56-3.9-.27-7.87-.59-11.82-.53a.3.3 0 0 0 0-.08c-3.5.23-6.73-.06-10.15-.09a10.11 10.11 0 0 1 3.09-.08 74 74 0 0 0-7.43-1.21c-2.46-.36-4.92-.63-7.37-.9 7.08-1.22 14.3-1.28 21.53-1.31s14.46 0 21.24-1.05c-3.9-1.5-8.93 1.13-12.35-.88q4.69-.19 9.43-.18c3.15-.06 6.32-.07 9.53 0a10.59 10.59 0 0 0-1.37.55c4.06 1 8.18-.37 12.15-.37h1.06-1.06c-3.66-.1-7.23-.14-10.78-.18a16 16 0 0 1 5.36-.58 12.76 12.76 0 0 0-4.39-1c-2.1.07-4.21.15-6.3.17a35 35 0 0 0 9.19-2c-4.38-.38-8.88-.21-13.26-.34L-72 80c4 .14 8.11.11 12.21 0l-.46.1.93-.11c1.61 0 3.21-.11 4.83-.19a13.54 13.54 0 0 0 4.18-1.39l.72-.08c-.43.37-.62.72.27.83 3.8.69 7.68-1.33 12-.32a9.91 9.91 0 0 0 4.32-.43.6.6 0 0 0 .87-.21l1-.26a10.73 10.73 0 0 0 2.56-.49 21.73 21.73 0 0 0-2.56.49c-.32 0-.64.08-1 .14a1.27 1.27 0 0 1 .89-.72c-6 .18-12.18.32-18.39 1 .35-.3.85-.62 1.06-.82-.59.31-1.18.61-1.78.9-2 .23-4 .51-6 .88a5.14 5.14 0 0 0 1.58-1c-2.87.16-5.75.39-8.62.69L-72 80l-8.15-.24c-2.71-.12-5.41-.23-8.09-.29a38.11 38.11 0 0 0 9.08 1.37c-4.1.37-8.21.76-12.33.83q-3.11 0-6.19-.1c-1-.05-2.06-.1-3.09-.2s-2.06-.24-3.08-.4c1.51-1.17 3.54-2 4.46-3.56 0-.39-.69-.64-1.16-.85s-.74-.42 0-.63c5.51-2.23 9.48-.29 11.61-4.71.35-1.13-5.78-5.19-3.83-6.08 1.6-.36 4.5-.86 7.63-1.26.92.08 1.86.09 2.83.08.13.08.32-.17.57-.46a58.14 58.14 0 0 1 8.56-.5l2 .16a3 3 0 0 1 1 .89 5.39 5.39 0 0 1 1.18-.74c1.82.08 3.61.11 5.39.11 1 .29 2 .64 3 .88 0-.27-.23-.62-.06-.9 2.22 0 4.46-.14 6.68-.25a7.05 7.05 0 0 1 2.59 1.37c2.19-2.59 7.94-1.55 11.8-2.21v-.09c2-.14 4-.23 6-.32a5.94 5.94 0 0 1 1 .76c.47-.44 1-.5 1.22-.72a25.56 25.56 0 0 1 4.42 1c.24-.22.66-1 1.19-1.08a24.06 24.06 0 0 0 3.1-.17c1.18 0 2.38.05 3.59.1 1 0 2 .1 3 .17l3.05.3q3 .31 6 .74a3.83 3.83 0 0 1 .21 1.07c.61-.51 1.48-.16 2-.42a.66.66 0 0 0-.15.49c1.82-.66 2.18.29 3.82.6.37 0 .71-.4 1.08-.52l.54.11c1.86 1.73 3.69 1.12 5.76 1.21l6.14 1.56c1.76.42 2.33 1.56 3.41 2.33z"/><path class="cls-17" d="M-4.7 100.56a12.8 12.8 0 0 0-2.72 1.52.61.61 0 0 1-.49.07c.11.27 0 .55-.4.73a36.82 36.82 0 0 1-5.46 2.32c-1.87.67-3.79 1.28-5.74 1.86s-3.91 1-5.89 1.44l-6 1.31a1.46 1.46 0 0 1-.31.67 3.08 3.08 0 0 1-2.77 1l-.87-.15-5.27-.42-2.61-.21-2.59-.33a6.93 6.93 0 0 1-2.41.56 81.48 81.48 0 0 1-9.06 2.12.92.92 0 0 1 .29.68c-.08.59-.8 1-1.62 1h-1.25c1.19.19 2.38.39 3.56.6a1.71 1.71 0 0 1 .47.12c1.3.09 2.65.09 4 0 3-.11 5.91-.31 8.8-.62s5.81-.89 8.65-1.45 5.67-1.34 8.45-2.1l4.14-1.21c1.38-.4 2.75-1 4.11-1.43a.61.61 0 0 1 .64 0 .25.25 0 0 1-.06.42c-3.37 2-6.53 3.9-9.88 5.75-1.68.91-3.41 1.83-5.22 2.61a48.4 48.4 0 0 1-5.71 2 184.85 184.85 0 0 1-28.87 5.33c-5-.32-9.85-.21-14.56-.1l-14.4.52c-13.21.38-25.1-.36-36.89-.68a9.51 9.51 0 0 1-5.9-1.46 6.27 6.27 0 0 1-3-4.28 5.75 5.75 0 0 1 2.57-5.48l-1.09-.06-1.71-.42a7 7 0 0 1-3.9-2.5l-1.23-1.47a30.62 30.62 0 0 0-3-4 21.6 21.6 0 0 1-2.8-4l.27-1.11-.33-.31a5.26 5.26 0 0 1-2.14-2.91l.05-1.34a10.53 10.53 0 0 1 1.51-4.36 3.5 3.5 0 0 1 .26-1.66 4.94 4.94 0 0 1-.66-4.36.76.76 0 0 1 .13-1.31 1.63 1.63 0 0 1 .65-.23 9.33 9.33 0 0 0-.71-.81c-.47-.1-.74-.18-.74-.18-1.25-.19-1.25-.19-2.34-.38a5.58 5.58 0 0 1-1.55-1.07c-1.15-2.34-1.16-2.34-1.05-3.37a1.53 1.53 0 0 1 .19-.3c-.86-.31-.92-.34-1.15-.44a2.17 2.17 0 0 1-.42-.38c-.07-.55-.07-.55-.23-.74a1.79 1.79 0 0 1-.06-.42c.44-.63.44-.63.44-.81a3.1 3.1 0 0 1 .25-.31l.86-.32c1.25 1.39 1.26 1.39 1.26 1.39l.23-.5.31.65-.19-.6.62.34-.71-.5a7.82 7.82 0 0 0 2 .13 3.1 3.1 0 0 0 1.15-.13 1.45 1.45 0 0 1-.07-.32c1.53.18 1.53.18 3 .39a4.19 4.19 0 0 1 .36.38.83.83 0 0 1 .71-.24l.78.08.16-.09.64-.29.13-.06 2.8-1.21a11 11 0 0 1 1.28.28c-.13-.09-.25-.17-.37-.27s0-.72-.16-.77a29.52 29.52 0 0 0-5-1.28c-1.75-.27-3.53-.47-5.31-.71a1.19 1.19 0 0 1-1.35-.63c-.1-.44.34-.85 1-.93a28.35 28.35 0 0 1 5.73-1.81 31.06 31.06 0 0 1 5.94-.47 38.28 38.28 0 0 1 6 .51 38.44 38.44 0 0 1 5.53 1.51c1.89.34 3.78.64 5.67.93l-.26-.27c.49.15 1 .32 1.44.48h.16l-1.06-1a7.12 7.12 0 0 0-.76-.31 41 41 0 0 1-6.38-1.44c-2.09-.61-4.14-1.33-6.34-1.79-2.35-.53-4.37-1.45-6.62-2.14-.58-.06-1-.41-.92-.8s.6-.65 1.17-.6c7.56-.74 16 .18 21.64 3.75a7.6 7.6 0 0 1 3.57 1.09l-.76-.85c1 .26 1.46 1 2.33 1.28l-.27-1.12c4.83.93 9.92 1 14.2 2.93.18 0 .34.09.5.14a17.32 17.32 0 0 1 6.07-1.14l-2.19-.53a15.54 15.54 0 0 1 5-.34c4.64.47 9.53 2.58 11.74 5.65 8.79.33 17.49.72 25.92.33a.82.82 0 0 1 .89.55.68.68 0 0 1-.71.66c-1.52.22-3.05.42-4.6.57s-3.12.23-4.69.31c-3.12.18-6.28.26-9.49.26l4 .71 3.94.61c2.62.37 5.3.74 7.95.9l2-.07a7.58 7.58 0 0 1 2 .26c1.69.06 3.38.16 5 .21s3.28 0 4.92 0 3.3 0 4.94-.14 3.29-.33 5-.58l4.16-.65c1.33-.27 2.63-.57 3.93-.86l3.9-.92c.65-.16 1.32-.3 2-.5l2-.62 5.44-1.74c.44-.15.89-.27 1.32-.42l1.28-.49 2.54-.93c1.68-.61 3.39-1.1 5.07-1.64s3.33-1.13 5.07-1.57a1.78 1.78 0 0 1 2.26.8 1.57 1.57 0 0 1-1 2L-5.46 72c-1.81.76-3.69 1.38-5.55 2.08a107.62 107.62 0 0 1-11.6 3.51c-.5.12-1 .26-1.49.37l-1.53.29-3.07.56-3.09.51c-1 .18-2.08.32-3.15.4a94.26 94.26 0 0 1-13 .47l-5.64-.19a1.27 1.27 0 0 1 0 .34 1.86 1.86 0 0 1-.51 1.21c2.14.17 4.28.34 6.44.62l4.51-.66c1.49-.25 3-.49 4.48-.68s3-.33 4.54-.4 3-.22 4.6-.19c2.14 0 4.22.24 6.24.45s4 .37 6 .58c1.22-.3 2.46-.55 3.66-.89l3.62-1.17 3.57-1.08c.59-.19 1.19-.35 1.78-.54l1.74-.59a.37.37 0 0 1 .5.06c.11.14 0 .32-.14.43-.76.46-1.52.94-2.33 1.34s-1.62.75-2.45 1.12c-1.65.72-3.34 1.42-5.05 2.1a2.38 2.38 0 0 1 1.17 1.75 2.64 2.64 0 0 1-.85 2.12l2.48-.4c.51-.07 1 .14 1 .52a.82.82 0 0 1-.78.86c-3.37.68-6.83 1-10.26 1.33l-3.06.7c-1 .19-2.06.34-3.09.51l-6.22.95a3.92 3.92 0 0 1 1.32 1.74l1.95-.2 35-8.84a.41.41 0 0 1 .51.2.32.32 0 0 1-.29.39q-2.67.59-5.3 1.28l-2.63.71c-.87.26-1.74.51-2.63.69a.26.26 0 0 1 .1.42.55.55 0 0 1-.56.12.26.26 0 0 1-.1-.42q-2.48.57-4.93 1.23c-1.64.42-3.26.94-4.92 1.28s-3.31.79-5 1.22-3.29.93-4.95 1.28q9.42-1.2 18.63-2.61l1.87-1a.51.51 0 0 1 .55.13.31.31 0 0 1-.2.41l-.53.26a2.06 2.06 0 0 1 2.41 1.27c.15.95-.71 1.85-1.95 2-1.64.4-3.27.77-4.91 1.13s-3.27.75-4.94.94l-1 .29-1 .57 3.93-.21 3.91-.41 3.92-.4c1.31-.14 2.63-.22 3.91-.47.44-.12.87 0 1 .35s-.2.67-.64.79a34.56 34.56 0 0 1-3.31 1.2l-3.37 1.07-3.4 1c-.57.16-1.14.34-1.71.49l-1.73.4q-3.46.78-7 1.5l-1.76.35-1.76.26-3.53.49-4.58 2.44c-1.54.8-3.1 1.51-4.69 2.26h1.23a35.61 35.61 0 0 0 7.57-1 70.29 70.29 0 0 0 7.13-2c4.66-1.73 9.19-3.32 14-4.78a.42.42 0 0 1 .54.17c0 .15-.08.35-.34.39-4.73 1.57-9 3.33-13.82 4.92l-1.49.48-1.47.4-2.9.82c-1.92.56-3.82 1.14-5.7 1.8A91.05 91.05 0 0 0-20.21 105l5.59-1.57c1.85-.54 3.72-.94 5.58-1.54a1.1 1.1 0 0 1 .91 0 .36.36 0 0 1 .15-.26 19.68 19.68 0 0 1 2.85-1.59.5.5 0 0 1 .6.07c.13.13.04.31-.17.45zm-129.82-20.93l-.18-.2.65.35.89 1.35zm-11.7 4.7l-.54-.75zm73.55-7.14a53.19 53.19 0 0 1-11.28-2h2.78c2.82.59 5.67 1.29 8.5 2zm-69.66-2.71a12.71 12.71 0 0 1 2.67 2.42 6.93 6.93 0 0 1 2.18-.14q3 .24 5.8.71c-.23-.47.23-.4.46-.45l.72-.09c-2-.4-4-.83-6.11-1.29-1.85-.44-3.92-.64-5.72-1.16zm-14.42 2l-.18-.17.36-.7zm-.56 1.2l.3.08c-.09.29-.19.24-.3-.06zm2.75.78a1.73 1.73 0 0 0-.4-.36zm2.46 20.41l.89-3.52-1 3.39z"/></g></svg>