<svg id="Layer_1" data-name="Layer 1" xmlns="http://www.w3.org/2000/svg" viewBox="0 0 120 120"><defs><style>.cls-1{fill:#eeaf85}.cls-2{fill:#ff5a7e}.cls-3{fill:#bb4563}.cls-4{fill:#f4c3a8}.cls-5{fill:#210a68}.cls-6{fill:#f48794}.cls-7{fill:#ff6270}.cls-8{fill:#ffd91d}.cls-9{fill:#662d91}.cls-10{fill:#dfa775}.cls-11{fill:#fff}.cls-12{fill:#39b54a}.cls-13{fill:#f5b680}.cls-14{fill:#006837}.cls-15{fill:#7babf1}.cls-16{fill:#4c4372}.cls-17{fill:#a4cff2}.cls-18{fill:#d2e5f7}.cls-19{fill:#e8677d}.cls-20{fill:#f08a96}.cls-21{fill:#f0c48a}</style></defs><title>friendship</title><path d="M34.45 24.7q5.29 6.68 11 13.52 6.21 7.41 12.34 14.26l-28.5 14.64a79.25 79.25 0 0 0-4-14.17A79.67 79.67 0 0 0 17.7 38z"/><path class="cls-1" d="M13.15 42.32a8 8 0 0 1-.44 2.41c.35.34.21.73.15 1.15a1.33 1.33 0 0 0 .19 1.23c.43.75 6.85 10.17 6.91 10.14l-3.86 2.34-6.62-10.9a2.41 2.41 0 0 1-1.79-1.16L6 44.78a12 12 0 0 1-1.52-2.5c-.15-.51.22-1.18.81-1.09s1.18 1.62 1.57 2.1a13.13 13.13 0 0 1-1-1.73c-.22-.38-.12-1 .38-1.13.77-.16 1.58 1.66 1.89 2.19L7.22 41a1.41 1.41 0 0 1-.22-.67.66.66 0 0 1 1.19-.33l1.15 1.9.09-.06c-.22.15-.92-1.54-1-1.7-.14-.35-.34-.63-.09-1a.67.67 0 0 1 1.1.07l2.16 3.59s-.24-1.38 1-1.2c.4.05.53.34.55.72z"/><path class="cls-1" transform="rotate(-31.28 69.378 77.24)" d="M66.8 63.62H71.91V90.85H66.8z"/><path class="cls-2" d="M58.57 54.35l6.94 11.42-4.36 2.65 13.19 21.71-19.84 12.06L35.31 70.6A24.16 24.16 0 0 1 24 66.74c-.27-.17-.52-.33-.76-.51l-.53-.37-.71-.5A34.11 34.11 0 0 1 16.36 60c-.61-.75-.94-1.22-.94-1.22l3.95-2.4.09.14a14.57 14.57 0 0 0 3.28 3.64 9.93 9.93 0 0 0 1.14.77h.05A7.28 7.28 0 0 0 28.5 62a4.51 4.51 0 0 0 .53-.1l.22-.06h.05a5.67 5.67 0 0 0 3-2.4l3.7-2.26 1.06-.65 4.68-2.89 1.09-.64 1.71-1a9.51 9.51 0 0 1 1.64-.65c1.66-.55 4.35-1.45 7.2-.68l.3.09a5 5 0 0 1 .5.18 8.55 8.55 0 0 1 1.85 1 4 4 0 0 1 .33.24 11.56 11.56 0 0 1 2.21 2.17z"/><path class="cls-1" d="M33.31 49.3l5 8.19a3 3 0 1 0 5.09-3.1l-5-8.19z"/><path class="cls-3" d="M42.6 53.1s2.59 3-.05 5.29l.81 1.34s3.83-2.78.39-7.33zm-5.09 3.1s1.47 4 4.71 2.39l.78 1.34s-4.23 2.12-6.69-3z"/><path class="cls-1" d="M21.16 43.24h1.39a2 2 0 0 1 2 2 2 2 0 0 1-2 2h-1.39v-4z" transform="rotate(148.72 22.862 45.238)"/><path class="cls-1" d="M38.74 32.56h1.39a2 2 0 0 1 2 2 2 2 0 0 1-2 2h-1.39v-4z" transform="rotate(-31.28 40.441 34.549)"/><path class="cls-4" d="M20.56 33.14a4.68 4.68 0 0 0-2.17 3.15L17.58 35zM36 27.2l1.44 2.37a5.71 5.71 0 0 0-7.83-1.91L32 26.22a2.92 2.92 0 0 1 4 1z"/><path class="cls-1" d="M37.41 29.57l4.79 7.89c2.6 4.28 2.31 10.12-1.46 13.65a10.48 10.48 0 0 1-10.55 2.24c-4.61-1.59-6.65-6.29-9-10.17L19 39.57a4.69 4.69 0 0 1 1.57-6.43l9-5.48a5.71 5.71 0 0 1 7.83 1.91z"/><path class="cls-1" d="M20.56 33.14a4.68 4.68 0 0 0-2.17 3.15L17.58 35zm13.29-8.07l1.54 2.53a5.68 5.68 0 0 0-5.81.06z"/><ellipse class="cls-5" cx="36.49" cy="40.7" rx=".74" ry="1.41" transform="rotate(-23.9 36.506 40.702)"/><ellipse class="cls-5" cx="30.29" cy="44.24" rx=".74" ry="1.41" transform="rotate(-24.5 29.563 43.88)"/><path d="M40 35.1a.27.27 0 0 1 .06.24c-.17.48-2.69.22-4.65-.57a9.94 9.94 0 0 1-3.1-2 20.55 20.55 0 0 1-2.83 6.82 21.35 21.35 0 0 1-9.14 7.8 26.83 26.83 0 0 0-1-2.93 25.49 25.49 0 0 0-1.47-3.16 11.59 11.59 0 0 1-1.92-8.59c1.12-5.65 6.5-7.83 7.35-8.29 3.68-2 12.88-2.5 15.49 6.72a9 9 0 0 0 .33 1.86 13 13 0 0 0 .88 2.1z"/><path class="cls-5" d="M37 49.37l.27-.18a4.14 4.14 0 0 0 1.52-2.67.19.19 0 0 0-.17-.21.2.2 0 0 0-.21.17 3.77 3.77 0 0 1-1.41 2.4 4.3 4.3 0 0 1-3.49.53.19.19 0 0 0-.22.15.19.19 0 0 0 .15.23 4.9 4.9 0 0 0 3.56-.42z"/><ellipse class="cls-6" cx="29.85" cy="48.22" rx="1.43" ry=".7" transform="rotate(-25.65 29.844 48.215)"/><ellipse class="cls-6" cx="40.47" cy="42.91" rx="1.41" ry=".75" transform="rotate(-23.41 40.466 42.916)"/><path class="cls-7" d="M39.54 33.08s-5.7-3.56-11.78-.8-9.24 10.29-9.24 10.29l-1.16-2.09a15.33 15.33 0 0 1 2.25-5c.39-.57 4.33-6.1 10.25-6.45 4.18-.24 8.92 2.12 8.92 2.12z"/><path class="cls-8" d="M20.78 34.61a1.77 1.77 0 0 0 1.89 1 2 2 0 0 0 1.38-1.2l.54-1.22a1.74 1.74 0 0 0 1.63.26 1.8 1.8 0 0 0 1.08-1l1.19.47a2.42 2.42 0 0 0 1.21.26 1.6 1.6 0 0 0 .47-.08 1.5 1.5 0 0 0 .94-1.89 1.68 1.68 0 0 0-.19-.38 3 3 0 0 0-.48-.62 3.15 3.15 0 0 0 0-.83 1.85 1.85 0 0 0-.07-.38 1.72 1.72 0 0 0-1.88-1 1.75 1.75 0 0 0-1.29 1.28l-.48 1a1.75 1.75 0 0 0-1.63-.28A1.79 1.79 0 0 0 24 31.17l-1.13-.51a2 2 0 0 0-1.87-.15 1.77 1.77 0 0 0-1 1.89c0 .09.11.23.18.35a2.45 2.45 0 0 0 .53.64 2.64 2.64 0 0 0-.05.8 3.16 3.16 0 0 0 .12.42z"/><circle class="cls-7" cx="25.43" cy="31.85" r="1.33"/><path class="cls-7" d="M23.64 31.83s-1.36-.52-1.38-.5a2.3 2.3 0 0 0-.08.25l1.41.4zm.36 1.05s-.78 1.22-.81 1.22A1.27 1.27 0 0 1 23 34l.89-1.17z"/><path class="cls-7" d="M22.36 32.85L23.71 32.4 23.7 32.36 22.3 32.66 22.36 32.85z"/><path class="cls-7" d="M27.48 30.55s.78-1.23.81-1.22a1.27 1.27 0 0 1 .21.15l-.89 1.16zm.35 1.05s1.36.51 1.38.49a1 1 0 0 0 .08-.25l-1.41-.4z"/><path class="cls-7" d="M29.12 30.6L27.77 31.05 27.76 31.01 29.06 30.41 29.12 30.6z"/><path class="cls-1" d="M102.51 82.57a43.4 43.4 0 0 1-5.34 15.78h-.1c-.51 1.35-.91 2.78-1.44 4.13-1.28 2.44-3.26 3.9-5 3.62a3 3 0 0 1-1.24-.54 4 4 0 0 1-.85-.8 4.46 4.46 0 0 1-.76-1.69 5.16 5.16 0 0 1 1.4-4.19c-1 .25-1.77.12-1.93-.24s.17-.73.41-1c.67-.63 1.54-.43 2.38-.54a4.54 4.54 0 0 0 2.38-1.06A32.33 32.33 0 0 0 98 78.78a30.07 30.07 0 0 0-.94-8l5.53 1.13a42.88 42.88 0 0 1-.08 10.66zm-8.84-59.35c-.69.64-1.44.45-2.36.61a5.13 5.13 0 0 0-2.54 1.24c-.17.15-.37.39-.64.68A53.52 53.52 0 0 0 81.56 34a45.63 45.63 0 0 0-5.66 14.78l-4.52-2a50.59 50.59 0 0 1 4.52-12.67 56.94 56.94 0 0 1 8.39-11.3c.54-1.23.79-3 1.35-4.1 1-2.11 2.41-3.66 4.79-3.76h.23a2.71 2.71 0 0 1 1 .47c.31.27.55.28.88.79a3.35 3.35 0 0 1 .85 1.79 5.64 5.64 0 0 1-1.25 4.07c.47-.16 1.65-.28 1.88.17s-.08.76-.35.98z"/><path class="cls-9" d="M101 65.44s3.79.83 2 12.07l-5.2 3.39-3.55-5.9zM82.33 54.3a7.43 7.43 0 0 1-3.27-2.3 8.21 8.21 0 0 1-1.3-6.87l-6.4 1a46.71 46.71 0 0 0-1 10.7 48 48 0 0 0 .58 6.17z"/><path class="cls-9" d="M64.9 89.39l9.91 5.9A5.93 5.93 0 0 0 82.44 94l19.28-23.43a3.75 3.75 0 0 0-1-5.62L79.06 52a3.76 3.76 0 0 0-5.41 1.82L62.42 82.09a5.94 5.94 0 0 0 2.48 7.3z"/><path class="cls-10" d="M111.28 42.34h1.27v7.83h-1.27a3.92 3.92 0 0 1-3.92-3.92 3.92 3.92 0 0 1 3.92-3.91z" transform="rotate(-149.21 109.964 46.255)"/><path class="cls-10" d="M93.14 31.53h1.27v7.83h-1.27a3.92 3.92 0 0 1-3.92-3.92 3.92 3.92 0 0 1 3.92-3.91z" transform="rotate(30.79 91.806 35.437)"/><path class="cls-1" d="M114.49 38.66l-8.4 14.08a10.82 10.82 0 0 1-11 5.15l-2.37 4a4 4 0 1 1-6.86-4.1l2.35-3.94a10.86 10.86 0 0 1-.72-12.18l8.38-14.08z"/><path d="M108.54 39.88a5 5 0 0 1-2 2.19 6.33 6.33 0 0 1-7.07-1.22 23.55 23.55 0 0 0-2.09-2.37 18.33 18.33 0 0 0-1.74-1.36c-1.46-1-2.06-1-2.21-1.48s.1-1.19 1.82-2.53c0 0-.88-.17-5.09 4.35-.07.08-.21 0-.18-.08.28-1.08 1-4.1.7-4.68 0 0 2.58-14.8 17.74-5.38s1.42 19 1.42 19q-.9.88-1.38.69c-.78-.31-.75-2.69.08-7.13z"/><path class="cls-11" d="M94.5 47.68a5.24 5.24 0 0 1 5.24 5.24v.86H89.26v-.86a5.24 5.24 0 0 1 5.24-5.24z" transform="rotate(-149.3 94.429 50.818)"/><path d="M95.43 44.58h-.15a.6.6 0 0 1-.42-.72c.19-.75.27-1.93-.1-2.19-.09-.06-.61-.31-2.32.83a.61.61 0 0 1-.83-.17.6.6 0 0 1 .17-.82c1.68-1.11 2.88-1.37 3.67-.8 1.17.84.67 3 .56 3.45a.6.6 0 0 1-.58.42zm7.93 4.72h-.15a.61.61 0 0 1-.43-.73c.2-.74.27-1.91-.1-2.18-.09-.06-.61-.31-2.32.83a.6.6 0 0 1-.82-.17.58.58 0 0 1 .16-.82c1.68-1.11 2.88-1.37 3.67-.8 1.18.84.67 3 .56 3.45a.6.6 0 0 1-.57.42z"/><path class="cls-12" d="M69 93.33H56.56a6.44 6.44 0 0 1-6.37-5.44l-5-32.37a4.05 4.05 0 0 1 4-4.69l27.26-.08a4.06 4.06 0 0 1 4 4.67L75.29 87.9A6.43 6.43 0 0 1 69 93.33z"/><path class="cls-13" d="M52.41 23.46h.88v8.84h-.88A4.42 4.42 0 0 1 48 27.88a4.42 4.42 0 0 1 4.42-4.42z" transform="rotate(-.18 50.885 28.728)"/><path class="cls-13" d="M75.42 23.44h.88v8.84h-.88A4.42 4.42 0 0 1 71 27.87a4.42 4.42 0 0 1 4.42-4.43z" transform="rotate(179.82 73.646 27.86)"/><path class="cls-13" d="M67.45 46.71V52a4.43 4.43 0 0 1-8.86 0v-5.27a11.78 11.78 0 0 1-8-10.88l-.06-17.71 23.94-.06v17.7a11.73 11.73 0 0 1-7.02 10.93z"/><path d="M70.05 23.46a23.85 23.85 0 0 1-3.27 2.75c-1 .67-4.4 3.07-5.16 2.36-1-.95 3.41-6.85 2.82-7.31s-6.87 7.22-8 6.49c-.58-.38.32-2.91 1.88-6.3-2.84 3.49-4.51 5.09-5 4.78s-.13-1.31.63-3.3c0 0-1 .23-3 6.58 0 .11-.19.12-.21 0-.22-1.19-.88-4.49-1.46-4.9 0 0-4.24-15.67 14.9-13.39s10.09 17.95 10.09 17.95-1.19-6.88-4.22-5.71z"/><circle cx="67" cy="31.85" r="1.33"/><circle cx="58.16" cy="31.85" r="1.33"/><path class="cls-14" d="M85.09 66l-10.65-.2.9-14.91h1.83c3.37 0 7.31 3.34 7.31 6.71zm-43.38 0l10.65-.2-.91-14.91h-1.82c-3.38 0-7.31 3.34-7.31 6.71z"/><circle class="cls-15" cx="81.6" cy="51.76" r="5.31"/><path class="cls-16" d="M81.9 57.88A5.85 5.85 0 1 1 87.75 52a5.86 5.86 0 0 1-5.85 5.88zm0-10.35A4.5 4.5 0 1 0 86.4 52a4.51 4.51 0 0 0-4.5-4.47z"/><circle class="cls-15" cx="46.22" cy="51.76" r="5.31"/><path class="cls-16" d="M46 57.88A5.85 5.85 0 1 1 51.89 52 5.85 5.85 0 0 1 46 57.88zm0-10.35a4.5 4.5 0 1 0 4.5 4.5 4.51 4.51 0 0 0-4.5-4.5z"/><path class="cls-15" d="M90.31 68.56H81.6V65h8.71a2.45 2.45 0 0 1 1.6 2 1.47 1.47 0 0 1-1.6 1.56z"/><path class="cls-16" d="M89.72 69.45h-9V65h9.16a2.22 2.22 0 0 1 2.2 2.42 2.33 2.33 0 0 1-2.36 2.03zm-8.12-1.77h8.66a.89.89 0 0 0 0-1.77H81.6z"/><path class="cls-15" d="M90.31 68.56H81.6V65h8.71a2.45 2.45 0 0 1 1.6 2 1.47 1.47 0 0 1-1.6 1.56z"/><path class="cls-16" d="M52.53 65.91a.67.67 0 0 1-.67-.67c0-.08-.14-8.53-3.39-11a.66.66 0 0 1-.13-.94.67.67 0 0 1 .94-.13C53.06 56 53.2 64.85 53.2 65.23a.67.67 0 0 1-.66.68zm22.88 0a.69.69 0 0 1-.67-.68c0-.38.15-9.19 3.92-12.06a.68.68 0 0 1 .95.13.67.67 0 0 1-.13.94c-3.25 2.47-3.39 10.92-3.39 11a.67.67 0 0 1-.68.67z"/><path class="cls-15" d="M38.63 65H48v3.54h-9.37A1.47 1.47 0 0 1 37 67.05 2.45 2.45 0 0 1 38.63 65z"/><path class="cls-16" d="M48 69.45h-9a2.33 2.33 0 0 1-2.36-2A2.22 2.22 0 0 1 38.82 65H48zm-9.55-3.54a.89.89 0 0 0 0 1.77h8.65v-1.77z"/><path class="cls-15" d="M38.63 65H48v3.54h-9.37A1.47 1.47 0 0 1 37 67.05 2.45 2.45 0 0 1 38.63 65z"/><path class="cls-15" d="M58.6 69.45H70.98V87.14H58.6z"/><path class="cls-17" d="M58.6 69.45H68.33V87.14H58.6z"/><path class="cls-16" d="M57.79 67.68v19.46h14.15V67.68zm12.38 17.69H59.56V69.45h10.61z"/><path class="cls-17" d="M80.11 72.1h-6.47V61.49h6.5a4.13 4.13 0 0 1 4.11 4.13V68a4.12 4.12 0 0 1-4.14 4.1z"/><path class="cls-16" d="M80.26 60.63h-7.51V73h7.45a4.44 4.44 0 0 0 1.8-.37A5 5 0 0 0 85.14 68v-2.48a4.91 4.91 0 0 0-4.88-4.89zm3.11 7.76a3.21 3.21 0 0 1-3.17 2.8h-5.68v-8.84h5.5a3.38 3.38 0 0 1 3.35 3.37z"/><path class="cls-16" d="M83.37 65.57v.17A3.38 3.38 0 0 0 80 62.37h.15a3.2 3.2 0 0 1 3.22 3.2z"/><path class="cls-18" d="M77.44 71.22L71 71.2v-8.83h6.48c2.28 0 4.13 1.55 4.13 3.45v1.93c-.01 1.93-1.88 3.47-4.17 3.47zm-22.38.88h-6.47a4.12 4.12 0 0 1-4.14-4.1v-2.39a4.12 4.12 0 0 1 4.11-4.12h6.5z"/><path class="cls-15" d="M84.36 113.12H44.41l4.5-25.47a8.36 8.36 0 0 1 .81-2.28A8.27 8.27 0 0 1 57 81h14.72a8.3 8.3 0 0 1 8.14 6.7l1.56 7.18z"/><path class="cls-17" d="M79 112.23H45.28l4.26-24.14a7.81 7.81 0 0 1 7.68-6.26H67a8.17 8.17 0 0 1 1.11.08 7.42 7.42 0 0 1 2.55.83 7.68 7.68 0 0 1 4 5.35l.13.61 1.48 6.71z"/><path class="cls-19" d="M75.41 110.67v2.45H53.29v-2.45c0-2.06 1.69-8.49 3.75-8.49h14.62c2.06 0 3.75 6.43 3.75 8.49z"/><path class="cls-16" d="M76.29 114H52.41v-3.46c0-2.48 2-9.25 4.5-9.25h14.88c2.49 0 4.5 6.76 4.5 9.25zm-22.11-1.77h20.34v-1.44c0-1.64-1.34-7.73-3-7.73H57.16c-1.65 0-3 6.08-3 7.73z"/><path class="cls-20" d="M71 110.48v1.75H54.18v-1.75c0-1.47 1.43-7.42 3.19-7.42h10.42c1.77 0 3.21 5.94 3.21 7.42z"/><path class="cls-13" d="M93.45 63.25a1.43 1.43 0 0 1 1.42 1.42V67a1.54 1.54 0 0 1-1.53 1.53h-5.52a1.51 1.51 0 0 1-1.4-.94 1.72 1.72 0 0 1 0-3.43 1.54 1.54 0 0 1 1.4-.94zm-48.69 2.66a1.72 1.72 0 0 1-1.59 1.71 1.53 1.53 0 0 1-1.41.94h-5.62a1.43 1.43 0 0 1-1.42-1.42v-2.47a1.42 1.42 0 0 1 1.41-1.42h5.63a1.55 1.55 0 0 1 1.41.94 1.72 1.72 0 0 1 1.59 1.72z"/><path class="cls-16" d="M43.64 65.52V68a5 5 0 0 0 3.09 4.64 4.48 4.48 0 0 0 1.84.36H56V60.6h-7.51a4.91 4.91 0 0 0-4.85 4.92zm1.76.22a3.39 3.39 0 0 1 3.36-3.37h5.49v8.87h-5.64a3.21 3.21 0 0 1-3.18-2.8z"/><circle class="cls-21" cx="64.42" cy="67.24" r="10.17"/><path class="cls-16" d="M64 78.09a10.87 10.87 0 1 1 10.91-10.87A10.88 10.88 0 0 1 64 78.09zm0-20.22a9.35 9.35 0 1 0 9.35 9.35A9.35 9.35 0 0 0 64 57.87z"/><circle class="cls-11" cx="64.42" cy="67.24" r="6.63"/><path class="cls-16" d="M64 74.74a7.52 7.52 0 1 1 7.52-7.52A7.53 7.53 0 0 1 64 74.74zm0-13.52a6 6 0 1 0 6 6 6 6 0 0 0-6-6zm16.35 26.87a8.74 8.74 0 0 0-8.6-7.09H57.1a8.75 8.75 0 0 0-8.61 7.14L43.64 114h41.57zM50.48 89A7.65 7.65 0 0 1 58 82.72h12.84A7.65 7.65 0 0 1 78.36 89l4.36 23.26h-36.6z"/><path class="cls-11" d="M58.67 37.6h8v1.33a4 4 0 0 1-4 4 4 4 0 0 1-4-4V37.6z"/><path d="M60.6 11a29.31 29.31 0 0 1 3.58.23c13.4 1.59 13 9.73 11.53 14.48a4.36 4.36 0 0 1-1.15 5.65v4.42a9.39 9.39 0 0 1-.05 1.22c.43-1 .88-1.92 1.39-2.86a56.94 56.94 0 0 1 8.39-11.3c.54-1.23.79-3 1.35-4.1 1-2.11 2.41-3.66 4.79-3.76l.18.05a2.71 2.71 0 0 1 1 .47c.31.27.55.28.88.79a3.35 3.35 0 0 1 .9 1.71 5.64 5.64 0 0 1-1.25 4.07 3.73 3.73 0 0 1 1-.14c.39 0 .77.08.89.31.23.46-.08.75-.35 1-.69.64-1.44.45-2.36.61a5.13 5.13 0 0 0-2.54 1.24c-.17.15-.37.39-.64.68A53.52 53.52 0 0 0 81.56 34a42.36 42.36 0 0 0-4.8 11.32l1-.16a9 9 0 0 0-.21 3 5.82 5.82 0 0 1 8.39-.32 10.75 10.75 0 0 1 1.51-6.18l2.12-3.57a3.85 3.85 0 0 1 1.17-5.15.89.89 0 0 0-.06-.21s1.49-8.51 8.82-8.51c2.33 0 5.26.86 8.92 3.13 10.61 6.59 7.06 13.26 4 16.67a3.88 3.88 0 0 1-.21 3.59 3.87 3.87 0 0 1-3.35 1.9 3.81 3.81 0 0 1-.75-.07l-2 3.33A10.82 10.82 0 0 1 96.77 58a10 10 0 0 1-1.72-.14l-1.6 2.67 7.3 4.35a3.6 3.6 0 0 1 1.39 1.51c.93 1.3 1.89 4.28.8 11.09h-.07a41.16 41.16 0 0 1-.36 5 43.4 43.4 0 0 1-5.34 15.78h-.1c-.51 1.35-.91 2.78-1.44 4.13-1.18 2.24-2.93 3.65-4.54 3.65a3 3 0 0 1-.43 0 3 3 0 0 1-1.24-.54 4 4 0 0 1-.85-.8 4.46 4.46 0 0 1-.76-1.69 5.16 5.16 0 0 1 1.4-4.19 4.06 4.06 0 0 1-1 .13c-.51 0-.86-.14-1-.37s.17-.73.41-1c.67-.63 1.54-.43 2.38-.54a4.54 4.54 0 0 0 2.38-1.06 32.72 32.72 0 0 0 5.42-15.2l-.07.05-2-3.23L82.44 94a5.36 5.36 0 0 1-.83.82l3.6 19.18H43.64l4.25-22.7-12.58-20.7A24.16 24.16 0 0 1 24 66.74c-.27-.17-.52-.33-.76-.51l-.53-.37-.71-.5A34.11 34.11 0 0 1 16.36 60c-.61-.75-.94-1.22-.94-1.22l.15-.09-6-10a2.41 2.41 0 0 1-1.79-1.16L6 44.78a12 12 0 0 1-1.52-2.5.85.85 0 0 1 .7-1.1h.12c.41.07.8.79 1.14 1.4-.18-.36-.34-.73-.52-1s-.12-1 .38-1.13h.1c.31 0 .61.29.89.67L7.22 41a1.41 1.41 0 0 1-.22-.67.6.6 0 0 1 .64-.63.66.66 0 0 1 .58.31L9 41.28c-.24-.46-.48-1-.52-1.13-.14-.35-.34-.63-.09-1a.6.6 0 0 1 .5-.25.69.69 0 0 1 .6.32l2.11 3.58s-.21-1.22.81-1.22h.22c.36 0 .5.33.52.72a8 8 0 0 1-.44 2.41c.35.34.21.73.15 1.15a1.33 1.33 0 0 0 .19 1.23c.34.6 4.6 6.87 6.25 9.24l.09.14a14.57 14.57 0 0 0 3.28 3.64 9.93 9.93 0 0 0 1.14.77h.05a7.63 7.63 0 0 0 3.86 1.16h.44A78.57 78.57 0 0 0 25.33 53c-.81-2.11-1.67-4.07-2.55-5.91a2 2 0 0 1-1-.44c-.59.32-1.12.58-1.54.77a26.83 26.83 0 0 0-1-2.93c-.28-.72-.57-1.37-.87-2l-1.1-2a11.32 11.32 0 0 1-1.42-7.79c1.12-5.65 6.5-7.83 7.35-8.29a11.54 11.54 0 0 1 5.25-1.19 10.85 10.85 0 0 1 5.8 1.58l.11-.09.27.34A10 10 0 0 1 38 29.23l3 3.75a2.09 2.09 0 0 1 .75.7 2.35 2.35 0 0 1 .19.43c1.13 1.37 2.25 2.74 3.41 4.12Q51 44.75 56.39 50.85h2.21v-4.12a11.78 11.78 0 0 1-8-10.88v-3.94a4.41 4.41 0 0 1-1.28-7.22.16.16 0 0 0-.07-.07S45.59 11 60.6 11M9.34 41.91l.09-.06c-.05 0-.12-.06-.19-.15l.12.2m58.11 8.91h3.18a45.33 45.33 0 0 1 .73-4.72h.2c.28-1.17.59-2.33.93-3.47a11.39 11.39 0 0 1-5 4.12v4.11M6.86 43.28L6.69 43l.17.25M60.6 9c-5.24 0-9.08 1.54-11.4 4.57-2.86 3.75-2.41 8.6-2.05 10.62a6.32 6.32 0 0 0-1.15 3.7 6.41 6.41 0 0 0 2.64 5.17v2.8a13 13 0 0 0 .51 3.6L47 36.93c-.87-1-1.73-2.07-2.58-3.11l-.61-.74a4.53 4.53 0 0 0-.23-.44 3.79 3.79 0 0 0-1.11-1.18l-2.69-3.3a11.87 11.87 0 0 0-3.69-4.58l-.09-.12a2 2 0 0 0-1.23-.73 13 13 0 0 0-6.25-1.52 13.51 13.51 0 0 0-6.21 1.43l-.23.12C17.52 25 14.78 28.22 14 32.3a13.35 13.35 0 0 0 1.65 9.18l1.06 1.9c.31.65.56 1.22.78 1.78.34.89.64 1.8.89 2.72a2 2 0 0 0 1.07 1.3 2.15 2.15 0 0 0 .86.19 2 2 0 0 0 .82-.18l.37-.19c.72 1.56 1.36 3.09 2 4.65q1.09 2.85 2 5.81l-.5-.22-.18-.11a6.23 6.23 0 0 1-.9-.61 12.59 12.59 0 0 1-2.82-3.13.35.35 0 0 0-.05-.08 1.93 1.93 0 0 0-.28-.36c-1.8-2.58-5.39-7.88-5.94-8.76v-.13a3.4 3.4 0 0 0 0-1.53 7.06 7.06 0 0 0 .31-2.34 2.62 2.62 0 0 0-2.23-2.56 3 3 0 0 0-.5 0 2.77 2.77 0 0 0-.42 0c-.54-.88-.75-1.24-.85-1.39a2.71 2.71 0 0 0-2.31-1.28 2.61 2.61 0 0 0-1.94.85 2.66 2.66 0 0 0-1.25.74 2.65 2.65 0 0 0-1.17.75 2.68 2.68 0 0 0-1.44 1 3 3 0 0 0-.49 2.56 8 8 0 0 0 1.3 2.36c.17.24.33.46.44.64v.06L6 48.57a4.44 4.44 0 0 0 2.21 1.85L13.4 59a2 2 0 0 0 .34.88c0 .06.38.54 1 1.31l.07.09a35.53 35.53 0 0 0 6 5.69l.22.17.48.35.28.2.26.18.12.08.76.5a26.29 26.29 0 0 0 11.2 4.05l11.65 19.19-4.11 21.94a2 2 0 0 0 .43 1.65 2 2 0 0 0 1.54.72h41.57a2 2 0 0 0 1.54-.72 2 2 0 0 0 .43-1.65l-3.41-18.15a2.62 2.62 0 0 0 .22-.25l11.6-14.11.21.35a31 31 0 0 1-4.8 13.2 2.42 2.42 0 0 1-1.15.45h-.51a4.24 4.24 0 0 0-3 1 2.89 2.89 0 0 0-.85 3.15 2.48 2.48 0 0 0 .67.91 6.08 6.08 0 0 0-.25 3.17A6.55 6.55 0 0 0 87 106a6.2 6.2 0 0 0 1.26 1.19 4.74 4.74 0 0 0 2.09.88 4.35 4.35 0 0 0 .74.06c2.36 0 4.78-1.81 6.31-4.72l.09-.2c.3-.77.56-1.55.81-2.31.15-.45.29-.88.44-1.3l.17-.24a45.16 45.16 0 0 0 5.58-16.5 44 44 0 0 0 .37-4.77 1.84 1.84 0 0 0 0-.25c.94-5.84.59-10-1.06-12.44a5.62 5.62 0 0 0-2.08-2.19L96.47 60h.3a12.87 12.87 0 0 0 11-6.27l1.37-2.29a5.88 5.88 0 0 0 5.44-7 11.47 11.47 0 0 0 2.83-8.79c-.52-3.7-3.2-7.08-8-10-3.67-2.28-7-3.43-10-3.43a9.87 9.87 0 0 0-3.41.57 2.62 2.62 0 0 0-.29-1.44 2.5 2.5 0 0 0-.66-.81 7 7 0 0 0 .22-2.89 4.84 4.84 0 0 0-1-2.26l-.14-.2A3.86 3.86 0 0 0 93.08 14l-.08-.06a4.48 4.48 0 0 0-1.8-.87h-.1a2.17 2.17 0 0 0-.62-.1h-.17c-4.19.2-5.9 3.72-6.47 4.88a14 14 0 0 0-.84 2.44c-.14.51-.28 1-.44 1.44-1.4 1.55-2.9 3.27-4.35 5.18a6.47 6.47 0 0 0-.38-1.37c1-3.94.65-7.45-1.13-10.19C74.53 12 70.4 10 64.42 9.24A32.49 32.49 0 0 0 60.6 9zm18.67 34.82a39 39 0 0 1 4-8.81 52.75 52.75 0 0 1 6.34-7.9 3.65 3.65 0 0 0 .27-.3 2.49 2.49 0 0 1 .22-.23 3.12 3.12 0 0 1 1.56-.78h.16a14.56 14.56 0 0 0-3 6.15 6.17 6.17 0 0 0-.92 1.17 5.89 5.89 0 0 0-.54 4.81l-1.6 2.69a12.64 12.64 0 0 0-1.53 3.92 7.72 7.72 0 0 0-2.3-.34 7.64 7.64 0 0 0-2.24.33 1.9 1.9 0 0 0-.39-.69zm-22.68 4.24z"/><path class="cls-11" d="M60.6 9a32.49 32.49 0 0 1 3.82.24c6 .71 10.11 2.77 12.29 6.11 1.78 2.74 2.17 6.25 1.13 10.19a6.47 6.47 0 0 1 .38 1.37c1.45-1.92 3-3.63 4.35-5.18.16-.42.3-.93.44-1.44a14 14 0 0 1 .83-2.46c.57-1.16 2.28-4.68 6.47-4.88h.17a2.17 2.17 0 0 1 .62.1h.1a4.48 4.48 0 0 1 1.8.87l.08.05a3.86 3.86 0 0 1 1.17 1.17l.14.2a4.84 4.84 0 0 1 1 2.26 7 7 0 0 1-.22 2.89 2.5 2.5 0 0 1 .66.81 2.62 2.62 0 0 1 .29 1.44 9.87 9.87 0 0 1 3.41-.57c3 0 6.3 1.15 10 3.43 4.78 3 7.46 6.35 8 10.05a11.47 11.47 0 0 1-2.83 8.79 5.88 5.88 0 0 1-5.44 7l-1.37 2.29a12.87 12.87 0 0 1-11 6.27h-.3l5.3 3.16a5.62 5.62 0 0 1 2.08 2.19c1.65 2.41 2 6.6 1.06 12.44a1.84 1.84 0 0 1 0 .25 44 44 0 0 1-.37 4.77 45.16 45.16 0 0 1-5.58 16.5l-.17.24c-.15.42-.29.85-.44 1.3-.25.76-.51 1.54-.81 2.31l-.09.2c-1.53 2.91-4 4.72-6.31 4.72a4.35 4.35 0 0 1-.74-.06 4.74 4.74 0 0 1-2.09-.88A6.2 6.2 0 0 1 87 106a6.55 6.55 0 0 1-1.15-2.52 6.08 6.08 0 0 1 .25-3.17 2.48 2.48 0 0 1-.67-.91 2.89 2.89 0 0 1 .85-3.15 4.24 4.24 0 0 1 3-1h.51a2.42 2.42 0 0 0 1.21-.58 31 31 0 0 0 4.83-13.2l-.21-.35L84 95.23a2.62 2.62 0 0 1-.22.25l3.41 18.15a2 2 0 0 1-.43 1.65 2 2 0 0 1-1.54.72H43.64a2 2 0 0 1-1.54-.72 2 2 0 0 1-.43-1.65l4.11-21.94L34.13 72.5a26.29 26.29 0 0 1-11.19-4.06l-.76-.5-.12-.08-.26-.18-.28-.2-.52-.35-.18-.13a35.53 35.53 0 0 1-6-5.69l-.07-.09c-.63-.77-1-1.25-1-1.31a2 2 0 0 1-.35-.91l-5.21-8.58A4.44 4.44 0 0 1 6 48.57l-1.66-2.69v-.06c-.11-.18-.27-.4-.44-.64a7.8 7.8 0 0 1-1.29-2.36 2.94 2.94 0 0 1 .48-2.56 2.68 2.68 0 0 1 1.44-1 2.65 2.65 0 0 1 1.17-.75 2.66 2.66 0 0 1 1.25-.74 2.61 2.61 0 0 1 1.94-.85 2.71 2.71 0 0 1 2.31 1.28c.1.15.31.51.85 1.39a2.77 2.77 0 0 1 .42 0 3 3 0 0 1 .5 0 2.62 2.62 0 0 1 2.23 2.56 7.06 7.06 0 0 1-.31 2.34 3.4 3.4 0 0 1 0 1.53v.13c.55.88 4.14 6.18 5.94 8.76a1.93 1.93 0 0 1 .28.36.35.35 0 0 1 .05.08 12.59 12.59 0 0 0 2.82 3.13 6.23 6.23 0 0 0 .9.61l.18.11.42.23q-.87-3-2-5.81a58.13 58.13 0 0 0-2-4.65l-.39.18a2 2 0 0 1-.82.18 2.15 2.15 0 0 1-.86-.19 2 2 0 0 1-1.07-1.3c-.25-.92-.55-1.83-.89-2.72-.22-.56-.47-1.13-.78-1.78l-1.06-1.9A13.35 13.35 0 0 1 14 32.3c.8-4.08 3.54-7.28 8.12-9.54l.23-.12a13.51 13.51 0 0 1 6.21-1.43 13 13 0 0 1 6.25 1.52 2 2 0 0 1 1.23.73l.09.12a11.87 11.87 0 0 1 3.69 4.58l2.69 3.3a3.79 3.79 0 0 1 1.11 1.18 4.53 4.53 0 0 1 .23.44l.61.74c.85 1 1.71 2.07 2.58 3.11l2.13 2.53a13 13 0 0 1-.51-3.6v-2.8A6.41 6.41 0 0 1 46 27.89a6.32 6.32 0 0 1 1.16-3.7c-.36-2-.81-6.87 2.05-10.62C51.52 10.54 55.36 9 60.6 9m19.06 35.51a7.64 7.64 0 0 1 2.24-.33 7.72 7.72 0 0 1 2.3.34 12.64 12.64 0 0 1 1.53-3.92l1.6-2.69a5.89 5.89 0 0 1 .54-4.81 6.17 6.17 0 0 1 .92-1.17 14.56 14.56 0 0 1 3-6.15h-.16a3.12 3.12 0 0 0-1.56.78 2.49 2.49 0 0 0-.22.23 3.65 3.65 0 0 1-.27.3A52.75 52.75 0 0 0 83.26 35a39 39 0 0 0-4 8.81 1.9 1.9 0 0 1 .39.69m6.92 12l1.59-2.66c-.18-.24-.35-.49-.52-.74a5.81 5.81 0 0 1-1.6 3.08l.53.32M60.6 7c-5.9 0-10.27 1.8-13 5.35-3 4-2.89 8.86-2.55 11.41a8.44 8.44 0 0 0-.67 6.68 4.23 4.23 0 0 0-.51-.44c-.81-1-1.59-1.95-2.38-2.92a13.83 13.83 0 0 0-4-4.94 4 4 0 0 0-2-1.3 15.05 15.05 0 0 0-7-1.63 15.59 15.59 0 0 0-7.16 1.67H21.16c-5.17 2.55-8.27 6.24-9.19 11a14.14 14.14 0 0 0-.22 4 4.76 4.76 0 0 0-3-1 4.66 4.66 0 0 0-3 1.1 4.81 4.81 0 0 0-1.27.76 4.83 4.83 0 0 0-1.16.73 4.88 4.88 0 0 0-2 1.52 5 5 0 0 0-.8 4.32 9.21 9.21 0 0 0 1.57 3l.09.13c.1.14.19.26.26.37a1.45 1.45 0 0 0 .12.19l1.58 2.6A6.48 6.48 0 0 0 6.8 52l4.71 7.75A4.13 4.13 0 0 0 12.1 61c.07.1.43.61 1.05 1.37l.16.21a37.75 37.75 0 0 0 6.31 6l.2.15c.2.16.39.29.57.42l.25.18.26.18.14.09c.19.14.39.26.59.39l.2.13a28.5 28.5 0 0 0 11.07 4.25l10.77 17.7-4 21.19a4 4 0 0 0 .86 3.29 4 4 0 0 0 3.11 1.45h41.57a4 4 0 0 0 3.08-1.45 4 4 0 0 0 .86-3.29l-.7-3.69a6.57 6.57 0 0 0 1.61.46 6.25 6.25 0 0 0 1 .08c3.11 0 6.2-2.22 8.08-5.79.07-.13.11-.24.16-.34a.14.14 0 0 0 0-.06c.32-.81.58-1.61.85-2.42l.09-.26.24-.73a1 1 0 0 0 .08-.11.25.25 0 0 1 0-.07 47.12 47.12 0 0 0 5.82-17.23 43.82 43.82 0 0 0 .38-4.78 1.24 1.24 0 0 0 0-.22c1-6.38.59-10.88-1.33-13.76a7.68 7.68 0 0 0-2.76-2.87l-.72-.42a14.84 14.84 0 0 0 7.45-6.27l.87-1.45a7.89 7.89 0 0 0 6.44-8.33 13.2 13.2 0 0 0 2.72-9.63c-.61-4.32-3.6-8.17-8.9-11.47-4-2.47-7.7-3.73-11-3.73a12.55 12.55 0 0 0-2 .15 2.55 2.55 0 0 0-.23-.32 8 8 0 0 0 0-2.67A6.91 6.91 0 0 0 96 14.2l-.1-.2a5.76 5.76 0 0 0-1.7-1.7 6.46 6.46 0 0 0-2.44-1.18h-.11a4.36 4.36 0 0 0-1.15-.17h-.27c-3.54.17-6.29 2.18-8.16 6a16 16 0 0 0-1 2.85c-.09.31-.18.63-.27.91s-.27.3-.4.46a12.91 12.91 0 0 0-2-6.89c-2.53-3.87-7.15-6.22-13.73-7A36.36 36.36 0 0 0 60.6 7zM82 42.18a35.08 35.08 0 0 1 3-6.12l.09-.14a7.94 7.94 0 0 0 .14 1.68l-1.18 2a15.08 15.08 0 0 0-1.24 2.64 7.32 7.32 0 0 0-.81 0zm6.26 51.05l3.55-4.32a31 31 0 0 1-2.19 4.23h-.35c-.25 0-.6 0-1 .07z"/></svg>