<svg viewBox="0 0 120 120" xmlns="http://www.w3.org/2000/svg"><path d="m60 118c-1.37 0-2.72 0-4-.14a58 58 0 0 1 0-115.72c1.29-.09 2.63-.14 4-.14a58 58 0 0 1 0 116zm0-109.43c-1.21 0-2.39 0-3.52.12a51.43 51.43 0 0 0 0 102.62c1.13.08 2.32.12 3.53.12a51.43 51.43 0 0 0 -.01-102.86z" fill="#fff"/><path d="m60.17 8.5c-1.19 0-2.38 0-3.54.12a51.5 51.5 0 0 0 0 102.76c1.16.09 2.35.12 3.54.12a51.5 51.5 0 0 0 0-103z" fill="#401510"/><path d="m60.17 114.36c-1.29 0-2.55 0-3.74-.13a54.36 54.36 0 0 1 0-108.46c1.2-.09 2.45-.13 3.74-.13a54.36 54.36 0 0 1 0 108.72zm0-104.36c-1.18 0-2.33 0-3.43.12a50 50 0 0 0 0 99.68c1.1.08 2.25.12 3.44.12a50 50 0 0 0 0-99.92z"/><path d="m111.5 60a51.49 51.49 0 0 1 -51.5 51.5c-1.19 0-2.37 0-3.53-.12a51.5 51.5 0 0 1 0-102.76c1.16-.09 2.34-.12 3.53-.12a51.5 51.5 0 0 1 51.5 51.5z" fill="#ffb751"/><path d="m104.43 60a51.49 51.49 0 0 1 -48 51.38 51.5 51.5 0 0 1 0-102.76 51.51 51.51 0 0 1 48 51.38z" fill="#ffd764"/><path d="m81.08 70.8v8.07a20.94 20.94 0 0 1 -20.91 20.92c-.62 0-1.25 0-1.86-.08a21 21 0 0 1 -19-20.84v-8.07z" fill="#901c0f"/><path d="m76.61 91.78a20.82 20.82 0 0 1 -16.44 8 20.84 20.84 0 0 1 -16.45-8 20.83 20.83 0 0 1 16.45-8 20.81 20.81 0 0 1 16.44 8z" fill="#ff5440"/><path d="m77.32 70.8v4.39a1.82 1.82 0 0 1 -2 1.64h-30.32a1.82 1.82 0 0 1 -2-1.64v-4.39z" fill="#ffe7a3"/><path d="m73.46 70.8v4.39a1.81 1.81 0 0 1 -2 1.64h-26.46a1.82 1.82 0 0 1 -2-1.64v-4.39z" fill="#fff"/><g fill="#401510"><path d="m81 70.8v8.07a20.92 20.92 0 0 1 -20.9 20.92c-.62 0-1.25 0-1.86-.08a20.93 20.93 0 0 0 19-20.84v-8.07z"/><path d="m65.81 52.66h.29c.55.05 1.11.08 1.66.14a11.32 11.32 0 0 1 6.76 3.29 22.6 22.6 0 0 1 2.82 3.57 37.7 37.7 0 0 0 3.17 4.34 11.19 11.19 0 0 0 9.55 4 5.18 5.18 0 0 0 3.52-1.89 4.56 4.56 0 0 0 -1.84-7.11l-.27-.11a.59.59 0 0 1 .29-.05 5.47 5.47 0 0 1 4.54 2.36 8.39 8.39 0 0 1 -1.89 11.57 14.09 14.09 0 0 1 -5 2.19 33.06 33.06 0 0 1 -7.35.89 4.38 4.38 0 0 0 -.51 0h-1.4-.36c-1.55-.12-3.11-.18-4.66-.37a33.28 33.28 0 0 1 -7.84-1.92 19.81 19.81 0 0 1 -6.62-3.94l-.57-.62c-.73.61-1.42 1.24-2.15 1.79a21.11 21.11 0 0 1 -5.54 2.86 31.93 31.93 0 0 1 -6.15 1.58c-1.51.22-3 .34-4.55.5-.57.05-1.15.06-1.73.1h-1.45a2.3 2.3 0 0 0 -.26 0 39.25 39.25 0 0 1 -5.09-.41 20.07 20.07 0 0 1 -5.39-1.49 9.22 9.22 0 0 1 -4.09-3.23 8.35 8.35 0 0 1 -1.12-6.92 6.76 6.76 0 0 1 2.52-3.91 5.24 5.24 0 0 1 3.55-1 .76.76 0 0 1 -.18.09 4.49 4.49 0 0 0 -2.47 6.12 5 5 0 0 0 4.46 2.92 11.21 11.21 0 0 0 5.43-1.08 11.06 11.06 0 0 0 3.92-3.13 40.68 40.68 0 0 0 2.94-4.09 21.39 21.39 0 0 1 3.14-3.9 11.28 11.28 0 0 1 6.89-3.05l1.25-.1h.29a2.3 2.3 0 0 0 .26 0 8.51 8.51 0 0 1 4.82 1.74c.23.16.44.35.66.52l.16-.12a8.62 8.62 0 0 1 4.11-2c.49-.05.99-.07 1.48-.13z"/><path d="m43 35.14a9.56 9.56 0 0 0 -6.21 2.58 9.06 9.06 0 0 0 -2.58 6.42.24.24 0 0 0 .19.1.27.27 0 0 0 .22-.1 8.66 8.66 0 0 1 2.52-6.2 9.14 9.14 0 0 1 5.86-2.39 8.39 8.39 0 0 1 8.38 8.19v.4a.28.28 0 0 0 .21.1.23.23 0 0 0 .2-.1v-.2a8.8 8.8 0 0 0 -8.79-8.8z"/><path d="m34.41 45.79h-.1a1.86 1.86 0 0 1 -1.31-.72l-.29-.4v-.5a10.65 10.65 0 0 1 3-7.54 11.26 11.26 0 0 1 7.31-3 10.35 10.35 0 0 1 10.32 10.31v.73l-.32.41a1.81 1.81 0 0 1 -1.42.71 1.85 1.85 0 0 1 -1.44-.71l-.32-.41v-.93a6.88 6.88 0 0 0 -6.84-6.65 7.57 7.57 0 0 0 -4.78 2 7.1 7.1 0 0 0 -2.06 5.06v.56l-.35.43a1.78 1.78 0 0 1 -1.4.65z"/><path d="m77.32 35.14a9.62 9.62 0 0 0 -6.21 2.58 9.06 9.06 0 0 0 -2.58 6.42.27.27 0 0 0 .19.1.27.27 0 0 0 .22-.1 8.66 8.66 0 0 1 2.52-6.2 9.14 9.14 0 0 1 5.86-2.39 8.41 8.41 0 0 1 8.39 8.19v.4a.25.25 0 0 0 .2.1.28.28 0 0 0 .21-.1v-.2a8.81 8.81 0 0 0 -8.8-8.8z"/><path d="m68.74 45.79h-.11a1.82 1.82 0 0 1 -1.33-.72l-.3-.4v-.5a10.61 10.61 0 0 1 3-7.54 11.22 11.22 0 0 1 7.3-3 10.35 10.35 0 0 1 10.36 10.31v.77l-.36.43a1.82 1.82 0 0 1 -1.38.65 1.87 1.87 0 0 1 -1.44-.71l-.32-.41v-.93a6.87 6.87 0 0 0 -6.84-6.65 7.57 7.57 0 0 0 -4.78 2 7.1 7.1 0 0 0 -2.06 5.06v.61l-.4.45a1.76 1.76 0 0 1 -1.34.58z"/></g></svg>