<svg viewBox="0 0 120 120" xmlns="http://www.w3.org/2000/svg"><path d="m76.37 80.81a8.28 8.28 0 0 1 -1.3-.1h-.22c-9.36-.01-10.85-4.37-11.59-6.71l-.08-.22a14 14 0 0 1 -.57-3.57 8.41 8.41 0 0 0 -2.48-.33 9 9 0 0 0 -2.53.35 13.81 13.81 0 0 1 -.6 3.56l-.1.25c-.77 2.3-2.22 6.66-11.58 6.66h-.22a8 8 0 0 1 -1.29.1c-4.14 0-6.86-1.27-7.66-3.58a30.2 30.2 0 0 1 -1.41-8.56c-.34-.23-.91-.68-1-1.11s0-.64 1.25-1.45a2 2 0 0 1 .57-1l.12-.11c1.32-.99 3.93-3.25 9.56-3.25 4.85 0 10.61 1 11.73 2.94a2.13 2.13 0 0 1 .18.37 11.89 11.89 0 0 0 3 .47 12.51 12.51 0 0 0 2.93-.46 3.66 3.66 0 0 1 .18-.39c1.12-1.91 6.88-2.94 11.74-2.94 5.62 0 8.23 2.25 9.49 3.33l.12.11a2 2 0 0 1 .57 1c1 .7 1.24 1.06 1.18 1.4s-.58.84-.9 1.07a30.25 30.25 0 0 1 -1.46 8.59c-1 2.96-4.71 3.58-7.63 3.58zm-16.24-11.93a8.85 8.85 0 0 1 3.16.52l.29.13v.31a13.53 13.53 0 0 0 .52 3.6l.08.23c.71 2.12 2 6 10.65 6h.17.25a8.59 8.59 0 0 0 1.16.08c2.13 0 5.83-.37 6.71-2.91a28.82 28.82 0 0 0 1.36-8.53v-.29l.25-.15a2.78 2.78 0 0 0 .58-.45 6.82 6.82 0 0 0 -.79-.59l-.17-.1v-.19c-.12-.47-.25-.63-.31-.67l-.12-.11c-1.17-1-3.59-3.09-8.84-3.09-5.57 0-10.2 1.29-10.88 2.44a2.07 2.07 0 0 0 -.17.44l-.08.27-.27.07a14.13 14.13 0 0 1 -3.45.57 13.43 13.43 0 0 1 -3.51-.58l-.26-.08-.08-.26a1.73 1.73 0 0 0 -.17-.42c-.67-1.16-5.31-2.45-10.87-2.45-5.26 0-7.68 2.09-8.85 3.09l-.13.1a1.41 1.41 0 0 0 -.29.63v.19l-.16.11a5.42 5.42 0 0 0 -.88.64 3.79 3.79 0 0 0 .64.47l.26.14v.3a29.12 29.12 0 0 0 1.35 8.5c.88 2.54 4.59 2.91 6.72 2.91a8.73 8.73 0 0 0 1-.02h.25.1c8.65 0 10-3.91 10.65-6l.1-.25a13.64 13.64 0 0 0 .51-3.58v-.31l.29-.12a8.86 8.86 0 0 1 3.23-.59z"/><path d="m59.87 117c-9.33 0-18.59-12.07-23.27-19.27a28.55 28.55 0 0 1 -3.93-10.1l-.08-.43a3.47 3.47 0 0 1 -.08-.47v-.11c-.05-.29-.09-.58-.13-.88a43.46 43.46 0 0 1 -.45-6.68v-.41c-.6-.45-1.47-1.24-2.93-2.65l-.22-.21a40.64 40.64 0 0 1 -5.67-6.47c-11.66-16.69-1.75-33.32-.65-35.07 3.16-10.11 26.65-27.25 27.65-28.02 9.62-7.22 19.93-.09 20 0a87.19 87.19 0 0 1 14.61 12l.19.19a85.57 85.57 0 0 1 15.09 20.52v.08c2.34 6.47 3 12.6 2 18.21a28.22 28.22 0 0 1 -5.5 12.24 31.92 31.92 0 0 1 -7 6.57l-.19.15a10.25 10.25 0 0 1 -1.44 1l-.19.1c.24 5-.14 13.55-4.63 20.43-4.59 7.21-13.86 19.28-23.18 19.28zm-.25-112a13.58 13.58 0 0 0 -8.32 2.83c-8.36 6.08-24.74 19.56-27 27.12l-.12.26c-.44.68-10.75 16.8.54 33a38.72 38.72 0 0 0 5.41 6.16l.22.21a29 29 0 0 0 3.07 2.72l.49.3v.72.76a42 42 0 0 0 .44 6.39c0 .29.07.56.12.83v.22a2.5 2.5 0 0 0 0 .29l.09.47a26.45 26.45 0 0 0 3.63 9.38c7.68 11.66 15.55 18.34 21.68 18.34s14-6.69 21.62-18.37c4.59-7 4.51-16.31 4.27-20l-.07-1 1-.1a1.45 1.45 0 0 0 .39-.15 9 9 0 0 0 1.08-.77l.36-.28a29.88 29.88 0 0 0 6.48-6.09 26.28 26.28 0 0 0 5.11-11.36 33.17 33.17 0 0 0 -1.91-17.14 83.45 83.45 0 0 0 -14.67-20l-.18-.19a85.71 85.71 0 0 0 -14.35-11.69 18.39 18.39 0 0 0 -9.38-2.86z" fill="#fff" stroke="#fff" stroke-miterlimit="10"/><path d="m33.91 31.32h51.93a.8.8 0 0 1 .8.8v49.88a26.76 26.76 0 0 1 -26.76 26.76 26.76 26.76 0 0 1 -26.77-26.76v-49.88a.8.8 0 0 1 .8-.8z" fill="#f5b680"/><path d="m86.64 27.14v49.93 1.39c-.44.21-.82.22-.92-.27-1-4.88-3.41-9.09-6.21-13.17a137.75 137.75 0 0 0 -10-12.66q-3.57-4.09-7.36-8c-.72-.76-1.15-1.18-1.15-1.18-4.65 2.66-8.52 6.59-11.91 10.69a105.14 105.14 0 0 0 -9.4 13.54c-2 3.42-4 6.91-5.69 10.49-.25.49-.47 1.24-.79 1.82q-.12-1.3-.12-2.64v-49.94a.8.8 0 0 1 .79-.81h51.96a.8.8 0 0 1 .8.81z" fill="#d9a372"/><path d="m86.64 75.24c-.06-.51-.1-.78-.1-.78v.28c-.62 5.87-3.78 7.29-6.06 8.72s-2.57 4.68-3.82 6.09-8.9-3.81-12.34-5a3.23 3.23 0 0 0 -4.42 1.86s-1-3-4.42-1.86-11.1 6.37-12.35 5-1.48-4.64-3.81-6.09c-1.6-1-3.63-2-4.91-4.52a10.14 10.14 0 0 1 -.78-2.09 14.85 14.85 0 0 1 -.4-2.39s0 .28-.09.8c-.07.67-.16 1.72-.19 3v.79a40.28 40.28 0 0 0 .59 7.55c0 .14 0 .28.07.41s.06.28.08.41a27.62 27.62 0 0 0 3.78 9.75c6.17 9.55 14.68 18.83 22.4 18.83s16.23-9.28 22.45-18.81c5.31-8.13 4.68-18.94 4.32-21.95zm-39.64 18.43c10.37 1.45 12.88-4.31 12.88-4.31s2.52 5.76 12.87 4.31c0 0 .87 5.22-.32 6.55s-8.38 9.9-10.11 7.29a6 6 0 0 1 .53-7.21c1.41-1.49 2.7-2.32 2.49-3.89a19.11 19.11 0 0 1 -5.46.21 19.06 19.06 0 0 1 -5.45-.21c-.21 1.57 1.07 2.4 2.48 3.89a6 6 0 0 1 .54 7.21c-1.74 2.61-8.9-6-10.11-7.29s-.34-6.55-.34-6.55z"/><path d="m87.27 75.89c-.51.28-1 .36-1.08-.19-1-4.88-3.42-9.08-6.21-13.17a139.5 139.5 0 0 0 -9.98-12.66c-2.38-2.73-4.83-5.41-7.36-8-.73-.76-1.15-1.18-1.15-1.18-4.62 2.65-8.49 6.59-11.89 10.68a106.15 106.15 0 0 0 -9.4 13.54q-3 5.13-5.68 10.49a9.38 9.38 0 0 1 -1.18 2.37c-.2.18-3.25-2.78-3.53-3a38.79 38.79 0 0 1 -5.48-6.25c-11.91-17.07-.5-33.6-.5-33.6 2.77-9.73 27.17-27.49 27.17-27.49 8.87-6.65 18.29 0 18.29 0a85.64 85.64 0 0 1 14.41 11.8l.19.2a82.43 82.43 0 0 1 14.77 20.14 33.9 33.9 0 0 1 1.93 17.43 26.65 26.65 0 0 1 -5.21 11.58 30.13 30.13 0 0 1 -6.63 6.27 13.65 13.65 0 0 1 -1.48 1.04z" fill="#e74c3c"/><g fill="#c0392b"><path d="m48.58 34.05s-25.21 18.6-24.25 34.43l3.39 4.16s-5.1-15.64 20.86-38.59z"/><path d="m29.2 74.16s3.12-20.41 19.38-33c0 0-13.43 12-17.25 35z"/><path d="m61.52 40.68s3.6-2 5-4v2s-.28.59-5 2z"/><path d="m68.81 42.46s17.56 14.14 19.31 21.9l1.29-1.94s-9.41-12.85-20.6-19.96z"/><path d="m72.78 41.13s9.71 4 14.88 11l.83-1.57s-9.79-9.28-15.71-9.43z"/></g><path d="m97.91 39.41a81.35 81.35 0 0 0 -14.42-19.66l-.19-.19a84.19 84.19 0 0 0 -14-11.49c-.12-.07-9.55-6.57-18.3.01-1 .7-23.69 17.33-26.49 26.79-.77 1.17-10.68 17 .54 33.05a38.74 38.74 0 0 0 5.37 6.13l.21.2c2.46 2.34 3.19 2.92 3.55 2.92.14 0 .22-.08.33-.18a2.15 2.15 0 0 0 .23-.28c-.15-.38-.3-.75-.47-1.12a3.77 3.77 0 0 1 -.27.41c-.35-.26-1.1-.91-2.75-2.49l-.22-.21a37.25 37.25 0 0 1 -5.24-6c-11.21-16.07-.6-31.87-.49-32l.07-.14c2.63-9.08 25.95-26.16 26.19-26.31a13.2 13.2 0 0 1 8.1-2.74 17.55 17.55 0 0 1 9.07 2.76 83.47 83.47 0 0 1 13.89 11.37l.19.19a80.75 80.75 0 0 1 14.19 19.35 32.07 32.07 0 0 1 1.87 16.62 25.33 25.33 0 0 1 -5 11 28.7 28.7 0 0 1 -6.31 6l-.34.26a8.36 8.36 0 0 1 -1.06.75l-.27.13a4.81 4.81 0 0 1 -.6.86h.09a1.37 1.37 0 0 0 1.24-.19 8.41 8.41 0 0 0 1.2-.85l.29-.22a29.89 29.89 0 0 0 6.56-6.14 26.36 26.36 0 0 0 5.15-11.44 33 33 0 0 0 -1.91-17.15z"/><path d="m34.16 78.16c-.75 0-1.39-.47-4.23-3.19l-.21-.2a39.31 39.31 0 0 1 -5.51-6.28c-11.3-16.2-1.7-32.35-.63-34 3.07-9.86 25.85-26.49 26.82-27.22 9.34-7 19.35-.08 19.45 0a84.66 84.66 0 0 1 14.15 11.6l.19.18a82.59 82.59 0 0 1 14.62 19.95v.08c2.27 6.29 2.93 12.23 2 17.67a27.45 27.45 0 0 1 -5.34 11.88 30.75 30.75 0 0 1 -6.75 6.37l-.2.15a9.65 9.65 0 0 1 -1.38 1 2.3 2.3 0 0 1 -2.14.22l-.17-.09-.94-.59.72-1a4 4 0 0 0 .41-.57l.18-.41.42-.13h.1a7.67 7.67 0 0 0 .92-.66l.39-.3a27.66 27.66 0 0 0 6.1-5.77 24.38 24.38 0 0 0 4.76-10.58 31.06 31.06 0 0 0 -1.79-16 79.83 79.83 0 0 0 -14-19l-.19-.27a81.81 81.81 0 0 0 -13.72-11.29 16.52 16.52 0 0 0 -8.53-2.61 12.3 12.3 0 0 0 -7.51 2.55c-.24.18-23.3 17.11-25.8 25.83l-.2.43c-.1.15-10.27 15.46.49 30.89a36.13 36.13 0 0 0 5.1 5.81l.22.22c.76.72 1.32 1.24 1.73 1.61l.57-1.27.9 2c.17.38.34.77.49 1.16l.2.52-.33.44a2.74 2.74 0 0 1 -.34.4 1.48 1.48 0 0 1 -1.02.47z"/><path d="m86.29 67.28c0 .24-.6.71-.93.92a32.09 32.09 0 0 1 -1.42 9.22c-1 3-5 3.43-7.3 3.43a10.16 10.16 0 0 1 -1.43-.13h-.11a16.71 16.71 0 0 1 -6.54-1.09 8.35 8.35 0 0 1 -2-1.14 7 7 0 0 1 -1.22-1.21 10 10 0 0 1 -1.54-3.28l-.09-.25c-.08-.24-.15-.52-.22-.82a20.4 20.4 0 0 1 -.34-3.14 7.86 7.86 0 0 0 -3-.52 8.44 8.44 0 0 0 -3.07.54 16.09 16.09 0 0 1 -.56 4l-.1.22c-.76 2.37-2.15 6.72-11.29 6.72h-.13a10 10 0 0 1 -1.43.13 14.06 14.06 0 0 1 -3.3-.35 7.18 7.18 0 0 1 -2.27-.93 4.53 4.53 0 0 1 -1.24-1.19 3.83 3.83 0 0 1 -.5-1 27.58 27.58 0 0 1 -.91-3.73 31.7 31.7 0 0 1 -.5-5.44c-.31-.19-1-.7-1-1s.88-.91 1.2-1.12a1.91 1.91 0 0 1 .47-1l.12-.11c1.25-1.01 3.81-3.29 9.36-3.29a33.9 33.9 0 0 1 5.28.4 15.15 15.15 0 0 1 5.37 1.65 2.6 2.6 0 0 1 .84.8 2.74 2.74 0 0 1 .22.53 15.65 15.65 0 0 0 1.6.4 9.78 9.78 0 0 0 1.83.19 13.38 13.38 0 0 0 3.36-.58 3.47 3.47 0 0 1 .23-.59c.88-1.56 6-2.83 11.5-2.83a19.15 19.15 0 0 1 2.51.16 12.28 12.28 0 0 1 5.09 1.87 12.65 12.65 0 0 1 1.39 1.07l.33.29.12.11a1.87 1.87 0 0 1 .48 1l.38.26c.36.29.78.64.76.83z" fill="#4dc9ff"/><path d="m82.83 63.75-17.44 13.53a10 10 0 0 1 -1.59-3.28l-.09-.25c-.08-.24-.15-.52-.22-.82l14.25-11.05a12.28 12.28 0 0 1 5.09 1.87z" fill="#fff" opacity=".45"/><path d="m85.53 66.46-17 13.17a8.35 8.35 0 0 1 -2-1.14l17.69-13.67.33.29.12.11a1.87 1.87 0 0 1 .48 1z" fill="#fff" opacity=".45"/><path d="m55.64 63.77-18.87 14.64a3.83 3.83 0 0 1 -.5-1 27.58 27.58 0 0 1 -.91-3.73l14.91-11.56a15.15 15.15 0 0 1 5.37 1.65z" fill="#fff" opacity=".45"/><path d="m58.79 66.13-18.52 14.37a7.18 7.18 0 0 1 -2.27-.9l18.7-14.5a15.65 15.65 0 0 0 1.6.4z" fill="#fff" opacity=".45"/><path d="m86.29 67.27c0-.26-.76-.82-1.14-1.08a2 2 0 0 0 -.48-1l-.12-.11c-1.23-1.1-3.79-3.39-9.32-3.39s-10.61 1.31-11.5 2.86a2.72 2.72 0 0 0 -.22.58 13.13 13.13 0 0 1 -3.38.59 12.47 12.47 0 0 1 -3.43-.6 2.25 2.25 0 0 0 -.22-.56c-.88-1.57-6-2.85-11.49-2.85s-8.1 2.29-9.33 3.39l-.12.1a1.92 1.92 0 0 0 -.47.94c-.32.22-1.24.86-1.21 1.13s.68.78 1 1a32.69 32.69 0 0 0 1.41 9.17c1 3 5 3.44 7.3 3.44a11 11 0 0 0 1.43-.16h.11c9.13 0 10.54-4.35 11.3-6.72l.09-.23a16.09 16.09 0 0 0 .56-4 8.37 8.37 0 0 1 3.06-.53 8.06 8.06 0 0 1 3 .51 15.61 15.61 0 0 0 .56 4l.09.26c.76 2.37 2.17 6.72 11.3 6.72h.11a11 11 0 0 0 1.43.12c2.3 0 6.3-.42 7.31-3.44a32.67 32.67 0 0 0 1.41-9.21c.36-.2.92-.68.96-.93zm-30.42 6.26-.1.26c-.77 2.36-2.01 6.21-10.65 6.21h-.12v.06a7.26 7.26 0 0 1 -1.38.12c-2.11 0-5.79-.39-6.66-3-1.45-4.18-1.82-10.7-.96-11.46l.12-.11c1.17-1 3.6-3.22 8.88-3.22 5.88 0 10.32 1.44 10.9 2.49.69 1.24.67 6.49-.03 8.65zm27.44 3.67c-.88 2.62-4.55 3-6.67 3a10 10 0 0 1 -1.38-.09v-.06h-.16c-8.64 0-9.9-3.89-10.66-6.25l-.09-.23c-.71-2.16-.72-7.43 0-8.67.59-1 5-2.5 10.91-2.5 5.27 0 7.7 2.17 8.87 3.22l.13.1c.82.75.44 7.28-.95 11.48z"/><path d="m76.64 81.84a10.72 10.72 0 0 1 -1.39-.11h-.1-.05c-9.88 0-11.48-5-12.25-7.41l-.08-.23a15.35 15.35 0 0 1 -.58-3.57 8.45 8.45 0 0 0 -2.06-.24 8.68 8.68 0 0 0 -2.1.26 15.61 15.61 0 0 1 -.57 3.56l-.12.29c-.74 2.34-2.34 7.34-12.22 7.34h-.16a10.39 10.39 0 0 1 -1.39.11c-4.43 0-7.36-1.47-8.25-4.12a33.87 33.87 0 0 1 -1.45-9 2.37 2.37 0 0 1 -1-1.35c-.09-.61.28-1.14 1.34-1.88a2.47 2.47 0 0 1 .66-1.06l.14-.12c1.3-1.16 4-3.63 10-3.63 5.2 0 11.12 1.16 12.36 3.36a2.68 2.68 0 0 1 .12.24 11.11 11.11 0 0 0 2.66.41 11.34 11.34 0 0 0 2.61-.41l.12-.25c1.24-2.2 7.16-3.35 12.37-3.35 5.91 0 8.66 2.47 10 3.65l.14.12a2.45 2.45 0 0 1 .66 1.1c.88.62 1.36 1.15 1.26 1.83a2.22 2.22 0 0 1 -.92 1.29 34 34 0 0 1 -1.46 9c-.93 2.7-3.85 4.17-8.29 4.17zm-39.92-15.44c-.43 1-.18 6.56 1.13 10.51.7 2.09 4.24 2.32 5.72 2.32a5.5 5.5 0 0 0 .79 0v-.07l.71-.06c7.93 0 9-3.35 9.7-5.56l.1-.28c.7-2.14.58-7 .11-7.84-.42-.53-4.16-2-10-2-4.89 0-7.13 2-8.21 3zm39.28 12.78c1.57.09 5.6 0 6.35-2.29 1.32-3.89 1.58-9.49 1.14-10.49-1.09-1-3.33-3-8.22-3-5.88 0-9.62 1.47-10 2-.47.83-.58 5.72.12 7.85l.07.17c.73 2.28 1.8 5.63 9.73 5.63h.81zm-18.73-12.87a20.48 20.48 0 0 1 .14 2.31 10.93 10.93 0 0 1 2.72-.35 10.72 10.72 0 0 1 2.68.33 20.12 20.12 0 0 1 .19-2.29 12.61 12.61 0 0 1 -2.82.4 11.88 11.88 0 0 1 -2.91-.4zm-20.53.05h46.73z"/></svg>