<svg viewBox="0 0 170.41 124.54" xmlns="http://www.w3.org/2000/svg"><clipPath id="a"><path d="M139.53 52.56c-.35-.9-1.6-1-1.58-2.19 0-.74-.55-.88-1.22-.79a2 2 0 0 1-1.48-.1c-.16-1.59-.16-1.59-1.44-2.4s-3.19-.66-4.07-2.32c-.15-.29-.72-.07-1.1 0a2.83 2.83 0 0 1-2.53-.81c.07-.2.1-.33.15-.45.68-1.76.61-1.94-1.13-2.55-.24-.08-.58-.11-.63-.36-.28-1.29-1.43-1.52-2.37-2a2 2 0 0 1-.59-2.8c1.24-1.48 1.13-2.62-.41-4.1-.54.73-.89 1.72-2.07 1.71l-2-2.54c-.68-.6-1.6-1.14-.43-2.11 1.09-1.42.52-2.87.1-4.33-.24-.81-.9-.54-1.42-.61s-.87 0-1 .57c-.21.75-.1 1.76-1.22 1.92a18.7 18.7 0 0 1-2.48.2c-.74 0-1.63-.36-1.8-.89-.59-1.74-1.91-1.67-3.33-1.89s-3.25.16-3.88-1.91a.93.93 0 0 0-1.3-.47c-.69.35-.88.06-1.27-.54a2.48 2.48 0 0 0-2.7-.89c-2.86.46-5.69 1.6-8.66.48a1.92 1.92 0 0 0-1.12.12 7.33 7.33 0 0 1-5.74 0c-1.3-.6-2.07.19-2 1.68.07 2.4.07 2.4 2.37 2.9-.58.92-1.16 1.59-2.39 1.49-.95-.07-2.43.51-2.22 1.12.39 1.14-.35 1-.77 1.17-1.5.76-3 0-4.53 0a8 8 0 0 1 0-2.71c.32-1.08.09-1.32-.94-1-2.43.78-4.83 1.65-7.24 2.48-.44.15-.81.33-.73.92.17 1.26-.65 1.54-1.65 1.54-1.34 0-2.68-.06-4-.11-.38 0-.82 0-1.07-.29a4.44 4.44 0 0 0-4.9-1.44 3.41 3.41 0 0 1-.76-.07c-1 0-2.05-.2-3 .49a.83.83 0 0 1-1.06.05c-1.18-.85-2.28-.34-3.31.16-.75-.15-.38-1.47-1.51-1.19-.85.22-.26 1.32-1 1.53-.44-.59 0-1.32-.45-1.83-1.11-.1-1.27.53-1.24 1.44.06 1.69 0 3.4 0 5.18-1.68 0-3.22.11-4.73 0a5.41 5.41 0 0 0-4.47 1.62A2.92 2.92 0 0 0 28 38c0 1.08.25 1.87 1.49 2.22-.69.32-1.31-.2-1.77.47-.33.49-.36.8.12 1.09 1.39.83 3.64.46 4-1 .47-1.71 1.6-2.07 3-2.38v-.08a2 2 0 0 0 .11.2c-.18.17-.35.34-.52.52-1.12 1.22-3 2.06-2.08 4.28a.36.36 0 0 1-.2.47c-1.47.83-.29 1.54.29 1.67a2.3 2.3 0 0 1 1.68 1.62c.29 1.4 1.29 2.09 2.16 2.94a10.91 10.91 0 0 0 3.39 2.47c3.14 1.29 5.3 4.72 9.24 4.25a.31.31 0 0 1 .18.07c1.51 1.12 3.34.83 5 1.15a2.2 2.2 0 0 0 2.35-.73A4.15 4.15 0 0 1 59 56a10.19 10.19 0 0 0 3.48-1 4.85 4.85 0 0 1 4.7-.29c-.68 2.11-2.13 3.76-2.8 5.79-.43 1.3-1.45 1.28-2.49 1.12-.78-.12-1.81-1.61-2.09.49 0 .2-.26-.06-.4-.12-.53-.23-.92.1-1.33.36.05.41.67.42.57 1a4.85 4.85 0 0 0-1.53.76c-.7.59-.87-.76-1.42-1-.77.33-.47 1.19-1 1.63s-1 1.07-1.42.6c-1-1.13-1.5-.89-2.08.3a1.32 1.32 0 0 1-1 .42 3.14 3.14 0 0 0-2.32.87 1.19 1.19 0 0 1-1.58.17c-.64-.5-.35-1-.09-1.51.4-.82.13-1.14-.79-1.12-.67 0-1.9.83-1.65-.92 0-.23-.3-.17-.46-.12-.78.21-2.07 2.64-1.66 3.31 1.1 1.79 1.86 3.81 3.44 5.26 1.88 1.73 3.78 3.45 5.68 5.16a23.21 23.21 0 0 1 4.47 5 18.87 18.87 0 0 0 2.59 3.53c4.74 4.63 9.27 9.56 15.88 11.66a1.57 1.57 0 0 1 .33.19 3.94 3.94 0 0 0 2.76.4c3.46-.45 6.56-2 9.83-3.07a1 1 0 0 0 .62-.42c.61-1.18 1.81-1.52 2.88-2 2.51-1.25 5-2.46 7.55-3.73.44-.22 1.28-.24 1-1.11s.3-1.31.82-1.76A4.58 4.58 0 0 0 101.1 83a5.06 5.06 0 0 1 .67-2c.72-1 .8-1.82-.19-2.63a1.33 1.33 0 0 1-.46-1.56 6.32 6.32 0 0 0 .14-3.55 1.68 1.68 0 0 1 .29-1.28 4.3 4.3 0 0 0 1-3.31.82.82 0 0 1 .51-.86.58.58 0 0 1 .25.68c-.11.38-.27.77.15 1s.69-.24 1-.48a4.76 4.76 0 0 1 2.59-1c.2-.51.45-.56.77-.1 1 .1 2 .75 3.08.11.66-.73 1.29-.13 2 0-.59.67-1.34.1-2 .3-1 1.29-2 .2-3 0h-.85c-1.42 1.46-1.1 3.43-1.41 5.2-.09.55.52 1.09 1.36.79a8.51 8.51 0 0 1 2.45-.86c.11 1.1-1.14.55-1.36 1.36-.34 1.23-.64 2.54-1.88 3.32-.31.19 0 .7.15 1s.5.3.8.18c.55-.23 1.1-.51 1.66 0a1.37 1.37 0 0 1-.35.19c-.56.11-1.21.08-1 1s.73.55 1.21.5a3.35 3.35 0 0 0 .71-.25c.26-.18.58-.35.77 0s-.13.41-.4.43c-.87.82-2.2 1.43-1.42 3 .07.13 0 .37-.11.54-.38.82-.72 1.6 0 2.47.26.33-.2.45-.4.67-.74.79 0 1.57.31 2.18.39.76.73-.35 1.26-.3a8.57 8.57 0 0 0 3.49 6.89c-1.24.41-1.42.5-1 1.31 1 1.94.24 3.52-.72 5.16a12.91 12.91 0 0 0-1.22 2.8c-.55 1.88.18 3.05 1.66 2.86.41 0 1.86-1.48 1.82-2a.9.9 0 0 1 .78-1.09 8.4 8.4 0 0 0 1.75-.73c.93-.46 1.1-.27 1 1 .14.3.06.41-.27.33h-.57c-.44 0-1-.07-.86.66s.46.43.84.33a1.93 1.93 0 0 1 2.15.89c.43.74.86 1.45 1.68 1s2.25-.78 2.2-2.1a12.71 12.71 0 0 1 1.45-5.49c.18-.43.61-.92 0-1.34-1.16-.74-.57-1.38 0-2.17.89.62 1.65 1.19 2.46 1.69.51.32.92 1.09 1.64.74 1.07-.52 2.44-.6 3.1-1.74 1.09-1.89 1.7-3.83 0-5.75a3.12 3.12 0 0 1-.59-1c-.27-.8-.79-1-1.6-1-1.82 0-1.82 0-2.56-2.22 1.55 1.2 2.59.17 3.68-.55s2.37-1.37 2.32-3c0-.64.4-.85.83-1.14a5.67 5.67 0 0 1 3.27-.83c1.63 0 2.22-.63 2.14-2.06a4.12 4.12 0 0 1-2.61.17 6.24 6.24 0 0 0-5.24.87c-.91-1.53-1-1.82-.73-2.3.34-.29 1.13 0 1.32-.77-.12-.28-.25-.57-.37-.87-.73-1.86-.43-2.58 1.41-3.43.46-.21.94-.39 1.4-.6 1.47-.65 1.45-.64.95-2.24-.22-.7-.76-1.35-.31-2.18 1.09-2 1-2.34-.59-4a.86.86 0 0 1-.25-.7c.08-.73.16-1.47.25-2.28 1.54 1.13 2.11 1 3.5-.46a1.55 1.55 0 0 0-2.12-.5c-1.13.61-1.59-.49-1.84-1.08a1 1 0 0 1 1.11-1.5c1.82 0 2.85-2.07 4.77-1.82.11 0 .32-.24.38-.41.58-1.51 1.64-2.84 1.93-4.45-.63-.31-1.49.45-1.7-.08zM110 73.34l-.11-.11c-.04-.04.09-.09.13-.09s.08.06.12.1-.14.1-.14.1z"/></clipPath><path d="M119.43 110.89A3 3 0 0 1 117 109a.38.38 0 0 0-.35-.22h-.14a3.28 3.28 0 0 1-.84.14 1.79 1.79 0 0 1-1.34-.58 4.71 4.71 0 0 1-2.5 1.92h-.49a2.93 2.93 0 0 1-2.41-1.15 4.07 4.07 0 0 1-.38-3.66 13.88 13.88 0 0 1 1.36-3.13c.94-1.62 1.26-2.54.67-3.73a2.32 2.32 0 0 1-.21-2 2.44 2.44 0 0 1 .14-.28 9.8 9.8 0 0 1-2.36-4.61 1.84 1.84 0 0 1-1.29-1 1.58 1.58 0 0 0-.15-.24 2.91 2.91 0 0 1-.17-3.36 3.65 3.65 0 0 1 .31-2.83 2.9 2.9 0 0 1 0-2.15 2.16 2.16 0 0 1-.82-1.35.13.13 0 0 1 0-.06 1.93 1.93 0 0 1-1-1l-.05-.1c-.83-1.69-.06-2.5.46-2.83a2 2 0 0 0 .78-1 2.44 2.44 0 0 1-1.54-.82 2.2 2.2 0 0 1-.49-1.79 12.33 12.33 0 0 0 .14-1.3c0-.3 0-.61.09-.94a1.71 1.71 0 0 1-.62.11 7.09 7.09 0 0 1-1 1.76v.15a8 8 0 0 1-.19 4.21c.76.64 2.15 2.26.42 4.64a4.23 4.23 0 0 0-.4 1.36 6.1 6.1 0 0 1-2.1 3.63l-.08.08-.25.21a2.14 2.14 0 0 1-1.65 2.73l-.15.06c-1.57.79-3.18 1.58-4.78 2.36l-2.82 1.48c-.21.11-.43.2-.65.3-.83.38-1.31.61-1.56 1.09a2.52 2.52 0 0 1-1.49 1.16c-1 .33-2.06.71-3.13 1.12a30.85 30.85 0 0 1-7 2 8.62 8.62 0 0 1-1.17.08 4.65 4.65 0 0 1-2.58-.71l-.1-.06c-6.27-2-10.74-6.43-15.05-10.69l-1.31-1.28a19.17 19.17 0 0 1-2.73-3.68l-.03-.13a22.41 22.41 0 0 0-4.2-4.63c-1.91-1.71-3.81-3.44-5.69-5.17A14.25 14.25 0 0 1 41.24 69c-.28-.51-.55-1-.85-1.51a2.94 2.94 0 0 1 0-2.66c.17-.42 1-2.49 2.5-2.89a2.64 2.64 0 0 1 .66-.1 1.71 1.71 0 0 1 1.31.58 1.46 1.46 0 0 1 .3.53h.33a2.3 2.3 0 0 1 2.09 1 2 2 0 0 1 .29 1.16 4.59 4.59 0 0 1 2.2-.54 2.51 2.51 0 0 1 2.13-1.45 2.4 2.4 0 0 1 1.41.49 2.53 2.53 0 0 1 1.46-1.87 1.56 1.56 0 0 1 1.15 0 2.15 2.15 0 0 1 .4.21 1.46 1.46 0 0 1 .61-.8l.1-.07a3.2 3.2 0 0 1 1.45-.61 1.93 1.93 0 0 1 1.65-.93A2.94 2.94 0 0 1 62 60l.23.14a4.73 4.73 0 0 0 .52 0h.19s0-.07.06-.16A16.8 16.8 0 0 1 64.46 57c.23-.41.46-.81.67-1.21a3.71 3.71 0 0 0-1.86.56 11.39 11.39 0 0 1-4 1.17 2.75 2.75 0 0 0-1.62.75 3.53 3.53 0 0 1-2.78 1.3 4.92 4.92 0 0 1-1-.1c-.44-.08-.91-.12-1.4-.16a8.16 8.16 0 0 1-3.87-1h-.39c-2.67 0-4.61-1.43-6.32-2.68a13.55 13.55 0 0 0-2.77-1.73 12.46 12.46 0 0 1-3.87-2.79l-.43-.4a6 6 0 0 1-2.15-3.31.91.91 0 0 0-.54-.46 2.67 2.67 0 0 1-2.15-2 2 2 0 0 1 .23-1.24 5.21 5.21 0 0 1-.69.05 4.81 4.81 0 0 1-2.44-.65 2.15 2.15 0 0 1-1-1.37 2.43 2.43 0 0 1 .46-1.85q.12-.17.24-.3a4.8 4.8 0 0 1-.27-1.58 4.41 4.41 0 0 1 1.66-3.52 6.86 6.86 0 0 1 4.89-2.05 6.34 6.34 0 0 1 .74 0c.47 0 1 .06 1.63.06h1.46v-.1-3.56a3.1 3.1 0 0 1 .7-2.29 2.45 2.45 0 0 1 1.83-.7h.34a1.52 1.52 0 0 1 .86.37h.08a2.61 2.61 0 0 1 .66-.09A2 2 0 0 1 43 27a4.24 4.24 0 0 1 1.49-.27 3.67 3.67 0 0 1 1.82.48 4.48 4.48 0 0 1 2.42-.6h1.14a3.45 3.45 0 0 1 .55.07 8.1 8.1 0 0 1 1.71-.2 5.55 5.55 0 0 1 4.31 1.93h1.07c1 0 2.06.07 3.1.08h.14a2.23 2.23 0 0 1 1.74-2.37l2.15-.75c1.7-.59 3.4-1.18 5.12-1.74a3.79 3.79 0 0 1 1.13-.21 1.83 1.83 0 0 1 1.52.73 2.56 2.56 0 0 1 .19 2.31 2.89 2.89 0 0 0-.06.95l.34.05a7.08 7.08 0 0 0 1.29.16 1.78 1.78 0 0 0 .76-.14 2 2 0 0 1 .37-1.12 3.87 3.87 0 0 1 2.47-1.31 5.56 5.56 0 0 1-.58-2.9 3.53 3.53 0 0 1 .87-2.66A2.54 2.54 0 0 1 80 18.8a3.36 3.36 0 0 1 1.43.34 4.75 4.75 0 0 0 2 .45 8.09 8.09 0 0 0 2.57-.52 4.35 4.35 0 0 1 1.3-.25 2.32 2.32 0 0 1 .84.15 6.18 6.18 0 0 0 2.19.38 17.24 17.24 0 0 0 3.67-.54c.69-.15 1.37-.29 2-.4a5.47 5.47 0 0 1 1-.09 3.72 3.72 0 0 1 3.11 1.46 2.78 2.78 0 0 1 .57-.07 2.4 2.4 0 0 1 2.3 1.65c.17.56.31.66 1.66.75.35 0 .69.05 1 .1l.49.07c1.24.16 3.09.41 3.94 2.61a1.25 1.25 0 0 0 .43.09 16.92 16.92 0 0 0 2.1-.16v-.23a6 6 0 0 1 .14-.64 2.19 2.19 0 0 1 2.26-1.68h.81a2.23 2.23 0 0 1 2.34 1.73l.1.34c.43 1.42 1 3.35-.39 5.24l.17.14.18.19 1.25 1.57c0-.06.07-.12.11-.17l.35-.52a1.52 1.52 0 0 1 1.08-.61h.13a1.51 1.51 0 0 1 1 .42c2.11 2 2.28 4 .52 6.14a.61.61 0 0 0 .13.51l.47.22a4.19 4.19 0 0 1 2.45 2.1 3.36 3.36 0 0 1 2.3 1.56 2.81 2.81 0 0 1 0 2.13h.68a3.51 3.51 0 0 1 .8-.11 1.82 1.82 0 0 1 1.65 1c.25.48.67.65 1.64.95a8 8 0 0 1 1.9.8c1.26.8 1.71 1.24 1.95 2.28a2.89 2.89 0 0 1 .5 0 2.4 2.4 0 0 1 1.76.67 2.24 2.24 0 0 1 .63 1.58 2.8 2.8 0 0 0 .25.22 4.84 4.84 0 0 1 .7.64h.3a2.33 2.33 0 0 1 1.42.47 1.49 1.49 0 0 1 .57 1.46 11 11 0 0 1-1.27 3.18 14.28 14.28 0 0 0-.74 1.54 2 2 0 0 1-1.77 1.37h-.32a2.94 2.94 0 0 0-1.38.67c-.28.19-.59.4-.93.59a3.47 3.47 0 0 1 1.83 1.18 1.5 1.5 0 0 1 0 2 4.17 4.17 0 0 1-3 1.72h-.27c1.77 1.88 1.84 3 .53 5.41a3.56 3.56 0 0 1 .16.35 6 6 0 0 1 .26.66c.73 2.33.38 3.11-1.77 4.06l-.67.29-.72.31c-.76.35-.9.53-.91.55a3.43 3.43 0 0 0 .28 1c.07.19.15.37.23.55l.12.28a1.51 1.51 0 0 1 .08 1l-.09.27a6.88 6.88 0 0 1 1.67-.21 6.76 6.76 0 0 1 2.08.34 1.64 1.64 0 0 0 .5.08 3.73 3.73 0 0 0 1.16-.24 1.61 1.61 0 0 1 .48-.08 1.52 1.52 0 0 1 .85.26 1.5 1.5 0 0 1 .65 1.17 3.39 3.39 0 0 1-.82 2.65 3.58 3.58 0 0 1-2.75 1H136a4 4 0 0 0-2.34.59l-.15.1c-.06 2.12-1.63 3.14-2.69 3.82l-.3.2c-.12.07-.41.27-.43.29a2.78 2.78 0 0 1 1.5 1.72 1.4 1.4 0 0 0 .29.47c2.76 3.08.9 6.29.2 7.5a4.81 4.81 0 0 1-2.93 2 5.22 5.22 0 0 0-.81.31 2.31 2.31 0 0 1-1 .24 2.74 2.74 0 0 1-1.88-.88l-.1-.09a3.32 3.32 0 0 1-.32.91l-.06.13-.11.25a11 11 0 0 0-1.22 4.61c.08 2-1.63 2.82-2.45 3.2a4.66 4.66 0 0 0-.5.25 2.46 2.46 0 0 1-1.27.1z" fill="#fff"/><path d="M97 19.82a2.18 2.18 0 0 1 2 1c.28.42.45.69.77.69a1.15 1.15 0 0 0 .5-.15 1 1 0 0 1 .44-.11.9.9 0 0 1 .86.58c.63 2.07 2.47 1.68 3.88 1.91s2.74.15 3.33 1.89c.17.52 1 .89 1.77.89a18.7 18.7 0 0 0 2.48-.2c1.12-.16 1-1.17 1.22-1.92a.72.72 0 0 1 .77-.59h.81a.77.77 0 0 1 .88.6c.42 1.46 1 2.91-.1 4.33-1.17 1-.25 1.51.43 2.11l2 2.54c1.17 0 1.52-1 2.06-1.71 1.54 1.48 1.65 2.62.41 4.1a2 2 0 0 0 .59 2.8c.94.48 2.09.71 2.37 2 0 .25.39.28.63.36 1.74.61 1.81.79 1.13 2.55-.05.12-.08.25-.15.45a2.73 2.73 0 0 0 2 .84h.5a6.68 6.68 0 0 1 .78-.13.34.34 0 0 1 .32.15c.88 1.66 2.76 1.48 4.07 2.32s1.28.81 1.44 2.4a1.13 1.13 0 0 0 .67.19 7.17 7.17 0 0 0 .81-.09h.33c.52 0 .9.2.89.82 0 1.15 1.23 1.29 1.58 2.19a.3.3 0 0 0 .32.2c.23 0 .54-.12.85-.12a.83.83 0 0 1 .51.16c-.29 1.61-1.35 2.94-1.93 4.45-.06.16-.26.41-.37.41a1.63 1.63 0 0 0-.31 0c-1.72 0-2.72 1.85-4.42 1.85h-.08A1 1 0 0 0 133 61c.2.47.53 1.26 1.22 1.26a1.29 1.29 0 0 0 .62-.18 1.51 1.51 0 0 1 2.12.5c-.77.83-1.29 1.23-1.85 1.23a3 3 0 0 1-1.65-.77c-.09.81-.17 1.55-.25 2.28a.86.86 0 0 0 .25.7c1.61 1.63 1.68 2 .59 4-.45.83.09 1.48.31 2.18.5 1.6.52 1.59-.95 2.24-.46.21-.94.39-1.4.6-1.84.85-2.14 1.57-1.41 3.43.12.3.25.59.37.87-.19.75-1 .48-1.32.77-.29.48-.18.77.73 2.3a7.48 7.48 0 0 1 3.62-1.19 4.9 4.9 0 0 1 1.61.27 3.22 3.22 0 0 0 1 .15 5 5 0 0 0 1.64-.32c.07 1.41-.5 2.06-2.07 2.06H136a5.55 5.55 0 0 0-3.16.83c-.43.29-.85.5-.83 1.14.05 1.61-1.22 2.26-2.32 3a4.56 4.56 0 0 1-2.28 1.09 2.28 2.28 0 0 1-1.4-.55c.74 2.17.74 2.22 2.56 2.22.81 0 1.33.2 1.6 1a3.12 3.12 0 0 0 .59 1c1.72 1.92 1.11 3.86 0 5.75-.66 1.14-2 1.22-3.1 1.74a.87.87 0 0 1-.36.09c-.51 0-.86-.57-1.28-.83-.81-.5-1.57-1.07-2.46-1.69-.61.79-1.2 1.43 0 2.17.65.42.22.91 0 1.34a12.71 12.71 0 0 0-1.45 5.49c.05 1.32-1.34 1.6-2.2 2.1a1 1 0 0 1-.5.16c-.52 0-.85-.56-1.18-1.13a1.93 1.93 0 0 0-1.65-1 2.2 2.2 0 0 0-.5.06 1.87 1.87 0 0 1-.48.1c-.17 0-.31-.09-.36-.43-.1-.73.42-.64.86-.66h.75q.25 0 .09-.36c.05-.89 0-1.27-.35-1.27a1.69 1.69 0 0 0-.67.23 8.4 8.4 0 0 1-1.75.73.9.9 0 0 0-.78 1.09c0 .54-1.41 2-1.82 2h-.3c-1.28 0-1.87-1.13-1.36-2.88a12.91 12.91 0 0 1 1.22-2.8c1-1.64 1.69-3.22.72-5.16-.4-.81-.22-.9 1-1.31a8.57 8.57 0 0 1-3.49-6.89c-.38 0-.65.57-.92.57-.1 0-.2-.08-.3-.27-.32-.61-1-1.39-.31-2.18.2-.22.66-.34.4-.67-.7-.87-.36-1.65 0-2.47.08-.17.18-.41.11-.54-.78-1.61.55-2.22 1.42-3 .27 0 .54-.19.4-.43a.32.32 0 0 0-.29-.19 1 1 0 0 0-.48.21 3.35 3.35 0 0 1-.71.25c-.2 0-.41.07-.6.07s-.51-.11-.61-.57c-.19-.9.46-.87 1-1a1.37 1.37 0 0 0 .35-.19 1 1 0 0 0-.7-.29 2.69 2.69 0 0 0-1 .28 1.29 1.29 0 0 1-.41.1.4.4 0 0 1-.39-.28c-.15-.32-.46-.83-.15-1 1.24-.78 1.54-2.09 1.88-3.32.22-.81 1.47-.26 1.36-1.36a8.51 8.51 0 0 0-2.45.86 1.37 1.37 0 0 1-.47.08.81.81 0 0 1-.89-.87c.31-1.77 0-3.74 1.41-5.2h.85c.64.16 1.27.67 1.91.67a1.35 1.35 0 0 0 1.08-.62 1.27 1.27 0 0 1 .34 0c.29 0 .58.08.87.08a1 1 0 0 0 .78-.34 6.71 6.71 0 0 0-1.24-.37.91.91 0 0 0-.6.24 1.87 1.87 0 0 1-1 .28c-.69 0-1.38-.32-2.07-.39-.15-.21-.28-.32-.4-.32s-.26.15-.37.42a4.76 4.76 0 0 0-2.59 1c-.27.19-.4.58-.72.58a.62.62 0 0 1-.31-.1c-.42-.26-.26-.65-.15-1a.58.58 0 0 0-.25-.68.82.82 0 0 0-.51.86 4.3 4.3 0 0 1-1 3.31 1.68 1.68 0 0 0-.29 1.28 6.32 6.32 0 0 1-.14 3.55 1.33 1.33 0 0 0 .46 1.56c1 .81.91 1.63.19 2.63a5.06 5.06 0 0 0-.67 2 4.58 4.58 0 0 1-1.59 2.75c-.52.45-1.11.88-.82 1.76s-.56.89-1 1.11c-2.5 1.27-5 2.48-7.55 3.73-1.07.52-2.27.86-2.88 2a1 1 0 0 1-.62.42c-3.27 1-6.37 2.62-9.83 3.07a8.2 8.2 0 0 1-1 .07 3.21 3.21 0 0 1-1.79-.47 1.57 1.57 0 0 0-.33-.19c-6.61-2.1-11.14-7-15.88-11.66a18.87 18.87 0 0 1-2.59-3.53 23.21 23.21 0 0 0-4.47-5C48.88 75.45 47 73.73 45.1 72c-1.58-1.45-2.34-3.47-3.44-5.26-.41-.67.88-3.1 1.66-3.31a1 1 0 0 1 .26 0c.12 0 .22 0 .2.16-.13.9.14 1.12.52 1.12s.8-.19 1.13-.2h.09c.85 0 1.08.33.7 1.12-.26.54-.55 1 .09 1.51a1.06 1.06 0 0 0 .66.23 1.42 1.42 0 0 0 .92-.4 3.1 3.1 0 0 1 2.21-.87h.13a1.3 1.3 0 0 0 1-.42c.32-.66.62-1 1-1s.64.23 1.08.73a.42.42 0 0 0 .32.16c.36 0 .77-.47 1.1-.76.5-.44.2-1.3 1-1.63.45.18.65 1.12 1.09 1.12a.54.54 0 0 0 .33-.14 4.85 4.85 0 0 1 1.53-.76c.1-.54-.52-.55-.57-1a1.9 1.9 0 0 1 1-.44 1 1 0 0 1 .36.08c.1.05.26.2.34.2s.06 0 .06-.08c.11-.86.35-1.12.65-1.12s1 .56 1.44.63a5.92 5.92 0 0 0 .82.07 1.57 1.57 0 0 0 1.67-1.19c.67-2 2.12-3.68 2.8-5.79a5.25 5.25 0 0 0-2.1-.48 5.18 5.18 0 0 0-2.6.77A10.19 10.19 0 0 1 59 56a4.15 4.15 0 0 0-2.51 1.24 2.08 2.08 0 0 1-1.66.8 3.37 3.37 0 0 1-.69-.07c-1.7-.32-3.53 0-5-1.15a.36.36 0 0 0-.17-.07 6.11 6.11 0 0 1-.73 0c-3.49 0-5.57-3.09-8.51-4.3A10.91 10.91 0 0 1 36.3 50c-.87-.85-1.87-1.54-2.16-2.94a2.3 2.3 0 0 0-1.68-1.62c-.58-.13-1.76-.84-.29-1.67a.36.36 0 0 0 .2-.47c-.94-2.22 1-3.06 2.08-4.28.17-.18.34-.35.52-.52a2 2 0 0 1-.11-.2v.08c-1.37.31-2.5.67-3 2.38a2.31 2.31 0 0 1-2.37 1.42 3.33 3.33 0 0 1-1.67-.44c-.48-.29-.45-.6-.12-1.09a.82.82 0 0 1 .75-.37h.43a1.3 1.3 0 0 0 .59-.12C28.26 39.86 28 39.07 28 38a2.92 2.92 0 0 1 1.18-2.4 5.41 5.41 0 0 1 3.87-1.65h.6a17.23 17.23 0 0 0 1.77.07h3v-5.18c0-.85.11-1.45 1-1.45h.22c.47.51 0 1.24.45 1.83.73-.21.14-1.31 1-1.53a1.81 1.81 0 0 1 .29 0c.78 0 .54 1.09 1.22 1.23a4.57 4.57 0 0 1 2-.61 2.24 2.24 0 0 1 1.34.45.86.86 0 0 0 .49.17 1 1 0 0 0 .57-.22 2.84 2.84 0 0 1 1.84-.52h1.11c.21 0 .42.08.62.08h.14a6.43 6.43 0 0 1 1.53-.2 4.13 4.13 0 0 1 3.37 1.64c.25.31.69.28 1.07.29 1.35.05 2.69.1 4 .11 1 0 1.79-.28 1.63-1.54-.08-.59.29-.77.73-.92 2.41-.83 4.81-1.7 7.24-2.48a2.35 2.35 0 0 1 .67-.14c.44 0 .5.34.27 1.13a8 8 0 0 0 0 2.71c1 0 2 .36 3 .36a3.22 3.22 0 0 0 1.51-.34c.42-.21 1.16 0 .77-1.17-.2-.57 1.1-1.12 2.05-1.12h.4c1.08 0 1.62-.64 2.16-1.5-2.3-.5-2.3-.5-2.37-2.9 0-1.15.41-1.88 1.22-1.88a1.85 1.85 0 0 1 .8.2 6.18 6.18 0 0 0 2.64.59 9.84 9.84 0 0 0 3.1-.6 2.85 2.85 0 0 1 .82-.17.94.94 0 0 1 .3.05 7.6 7.6 0 0 0 2.73.48 37.57 37.57 0 0 0 5.93-1 4.62 4.62 0 0 1 .73-.07M110 73.34s.08-.06.13-.1-.08-.1-.12-.1-.09.06-.13.09.08.11.11.11M97 16.82a7.26 7.26 0 0 0-1.21.11c-.74.11-1.44.27-2.12.42a17.14 17.14 0 0 1-3.33.5 4.51 4.51 0 0 1-1.67-.29 3.81 3.81 0 0 0-1.36-.24 5.71 5.71 0 0 0-1.78.33 6.87 6.87 0 0 1-2.14.44 3.22 3.22 0 0 1-1.39-.31 4.87 4.87 0 0 0-2-.48 4.06 4.06 0 0 0-3 1.23 4.89 4.89 0 0 0-1.29 3.75 12.6 12.6 0 0 0 .17 1.88 4.5 4.5 0 0 0-1.57 1.15A3.36 3.36 0 0 0 70.93 22a5.18 5.18 0 0 0-1.59.28c-1.75.57-3.49 1.18-5.17 1.76l-2.17.74a3.91 3.91 0 0 0-2.52 2.28L57.59 27h-.46a7.06 7.06 0 0 0-5-1.95 9.64 9.64 0 0 0-1.73.17h-1.67a6.15 6.15 0 0 0-2.45.44 4.93 4.93 0 0 0-1.79-.32 4.87 4.87 0 0 0-1 .1 3.48 3.48 0 0 0-2.16-.72h-.44a2.82 2.82 0 0 0-1-.28 4 4 0 0 0-.48 0 3.91 3.91 0 0 0-2.9 1.16 4.54 4.54 0 0 0-1.12 3.38v2.13c-.58 0-1 0-1.46-.06s-.6 0-.88 0a8.39 8.39 0 0 0-5.91 2.45A5.89 5.89 0 0 0 25 38a7.24 7.24 0 0 0 .1 1.19 3.71 3.71 0 0 0-.54 2.8 3.53 3.53 0 0 0 1.74 2.33 6 6 0 0 0 2.19.79 4 4 0 0 0 2.84 3.14 7.81 7.81 0 0 0 2.47 3.55l.39.37a14 14 0 0 0 4.36 3.1A12.68 12.68 0 0 1 41 56.83c1.81 1.32 4 3 7.2 3a10.26 10.26 0 0 0 4.13 1c.45 0 .88.07 1.23.13a4 4 0 0 0-.7.75 4.62 4.62 0 0 0-.65 0 3.64 3.64 0 0 0-2.95 1.5l-.39.06A3.66 3.66 0 0 0 46 61.5a3.22 3.22 0 0 0-2.44-1.08 4.41 4.41 0 0 0-1.06.14c-2.08.58-3.2 3-3.49 3.79a4.3 4.3 0 0 0 .08 4c.27.44.53.93.8 1.44a15.94 15.94 0 0 0 3.16 4.46c1.87 1.72 3.79 3.47 5.71 5.18a20.54 20.54 0 0 1 3.94 4.27l.09.14a20.54 20.54 0 0 0 3 4l1.31 1.28c4.39 4.34 8.94 8.83 15.45 11a6.15 6.15 0 0 0 3.34.9 11.74 11.74 0 0 0 1.36-.09 32.41 32.41 0 0 0 7.3-2.1c1-.4 2-.77 3-1.09a4 4 0 0 0 2.37-1.87 6.09 6.09 0 0 1 .86-.44c.23-.11.47-.21.7-.33l2.8-1.37c1.53-.75 3.12-1.53 4.68-2.31a3.6 3.6 0 0 0 2.75-3.54 7.67 7.67 0 0 0 2.32-4.22c.06-.29.13-.69.19-.85a7 7 0 0 0 .53-.87 3.87 3.87 0 0 0 .41.75 4.48 4.48 0 0 0 0 1.63 5.29 5.29 0 0 0-.33 2.7 4.4 4.4 0 0 0 .5 4.38 1.4 1.4 0 0 1 .1.16 3.55 3.55 0 0 0 1.33 1.43 11 11 0 0 0 1.94 3.81 3.94 3.94 0 0 0 .44 2.6c.22.44.29.75-.63 2.32a15.49 15.49 0 0 0-1.5 3.46 5.51 5.51 0 0 0 .62 5 4.45 4.45 0 0 0 3.61 1.75 5.27 5.27 0 0 0 .68 0 5.19 5.19 0 0 0 2.61-1.49 3.28 3.28 0 0 0 1 .16h.46a4 4 0 0 0 3.35 1.94 3.93 3.93 0 0 0 2-.57l.37-.18c.94-.43 3.43-1.59 3.32-4.62a8.75 8.75 0 0 1 1-3.59 3.65 3.65 0 0 0 1.24.22 3.76 3.76 0 0 0 1.67-.39 5.26 5.26 0 0 1 .64-.24 6.24 6.24 0 0 0 3.75-2.7c2.05-3.56 1.93-6.67-.38-9.25a5.38 5.38 0 0 0-.49-1 5.87 5.87 0 0 0 2.41-3.54 3.5 3.5 0 0 1 1.09-.14h.18a5.07 5.07 0 0 0 3.86-1.6 4.91 4.91 0 0 0 1.23-3.77 3 3 0 0 0-3-2.85 3.22 3.22 0 0 0-1 .16 2.25 2.25 0 0 1-.68.16 8.29 8.29 0 0 0-2.58-.42h-.23s0-.09-.05-.12l-.13-.3-.09-.2.43-.18.69-.3c2.84-1.26 3.54-2.83 2.61-5.82v-.06c-.06-.19-.13-.37-.19-.52.87-1.82 1-3.17.31-4.57a8.15 8.15 0 0 0 1.83-1.58 3 3 0 0 0 .09-3.95 3.58 3.58 0 0 0 2.8-2.3 13.18 13.18 0 0 1 .67-1.38 12.1 12.1 0 0 0 1.41-3.62 3 3 0 0 0-1.12-2.9 3.74 3.74 0 0 0-2-.77l-.15-.12a3.69 3.69 0 0 0-1-1.86 3.78 3.78 0 0 0-2.29-1.09 5.65 5.65 0 0 0-2.17-2 8.83 8.83 0 0 0-2.27-1 7.2 7.2 0 0 1-.8-.28 3.26 3.26 0 0 0-2.72-1.68 3.4 3.4 0 0 0-.32-1.11 4.26 4.26 0 0 0-2.52-2.16 5.42 5.42 0 0 0-2.11-1.89c.94-1.72 1.35-4.24-1.49-7a3 3 0 0 0-2.07-.83h-.26a3.29 3.29 0 0 0-1 .25 7.75 7.75 0 0 0-.2-5l-.1-.34a3.72 3.72 0 0 0-3.76-2.76h-.81a3.67 3.67 0 0 0-3.63 2.67H111a5.83 5.83 0 0 0-4.71-2.66l-.46-.07c-.42-.06-.81-.09-1.15-.11h-.45a3.93 3.93 0 0 0-3.57-2.37A5.3 5.3 0 0 0 97 16.82z" fill="#fff"/><path d="M97 19.82a2.18 2.18 0 0 1 2 1c.28.42.45.69.77.69a1.15 1.15 0 0 0 .5-.15 1 1 0 0 1 .44-.11.9.9 0 0 1 .86.58c.63 2.07 2.47 1.68 3.88 1.91s2.74.15 3.33 1.89c.17.52 1 .89 1.77.89a18.7 18.7 0 0 0 2.48-.2c1.12-.16 1-1.17 1.22-1.92a.72.72 0 0 1 .77-.59h.81a.77.77 0 0 1 .88.6c.42 1.46 1 2.91-.1 4.33-1.17 1-.25 1.51.43 2.11l2 2.54c1.17 0 1.52-1 2.06-1.71 1.54 1.48 1.65 2.62.41 4.1a2 2 0 0 0 .59 2.8c.94.48 2.09.71 2.37 2 0 .25.39.28.63.36 1.74.61 1.81.79 1.13 2.55-.05.12-.08.25-.15.45a2.73 2.73 0 0 0 2 .84h.5a6.68 6.68 0 0 1 .78-.13.34.34 0 0 1 .32.15c.88 1.66 2.76 1.48 4.07 2.32s1.28.81 1.44 2.4a1.13 1.13 0 0 0 .67.19 7.17 7.17 0 0 0 .81-.09h.33c.52 0 .9.2.89.82 0 1.15 1.23 1.29 1.58 2.19a.3.3 0 0 0 .32.2c.23 0 .54-.12.85-.12a.83.83 0 0 1 .51.16c-.29 1.61-1.35 2.94-1.93 4.45-.06.16-.26.41-.37.41a1.63 1.63 0 0 0-.31 0c-1.72 0-2.72 1.85-4.42 1.85h-.08A1 1 0 0 0 133 61c.2.47.53 1.26 1.22 1.26a1.29 1.29 0 0 0 .62-.18 1.51 1.51 0 0 1 2.12.5c-.77.83-1.29 1.23-1.85 1.23a3 3 0 0 1-1.65-.77c-.09.81-.17 1.55-.25 2.28a.86.86 0 0 0 .25.7c1.61 1.63 1.68 2 .59 4-.45.83.09 1.48.31 2.18.5 1.6.52 1.59-.95 2.24-.46.21-.94.39-1.4.6-1.84.85-2.14 1.57-1.41 3.43.12.3.25.59.37.87-.19.75-1 .48-1.32.77-.29.48-.18.77.73 2.3a7.48 7.48 0 0 1 3.62-1.19 4.9 4.9 0 0 1 1.61.27 3.22 3.22 0 0 0 1 .15 5 5 0 0 0 1.64-.32c.07 1.41-.5 2.06-2.07 2.06H136a5.55 5.55 0 0 0-3.16.83c-.43.29-.85.5-.83 1.14.05 1.61-1.22 2.26-2.32 3a4.5 4.5 0 0 1-2.28 1.1 2.28 2.28 0 0 1-1.4-.55c.74 2.17.74 2.22 2.56 2.22.81 0 1.33.2 1.6 1a3.12 3.12 0 0 0 .59 1c1.72 1.92 1.11 3.86 0 5.75-.66 1.14-2 1.22-3.1 1.74a.87.87 0 0 1-.36.09c-.51 0-.86-.57-1.28-.83-.81-.5-1.57-1.07-2.46-1.69-.61.79-1.2 1.43 0 2.17.65.42.22.91 0 1.34a12.71 12.71 0 0 0-1.45 5.49c.05 1.32-1.34 1.6-2.2 2.1a1 1 0 0 1-.5.16c-.52 0-.85-.56-1.18-1.13a1.93 1.93 0 0 0-1.65-1 2.2 2.2 0 0 0-.5.06 1.87 1.87 0 0 1-.48.1c-.17 0-.31-.09-.36-.43-.1-.73.42-.64.86-.66h.75q.25 0 .09-.36c.05-.89 0-1.27-.35-1.27a1.64 1.64 0 0 0-.67.23 8.4 8.4 0 0 1-1.75.73.9.9 0 0 0-.78 1.09c0 .54-1.41 2-1.82 2h-.3c-1.28 0-1.87-1.13-1.35-2.88a12.41 12.41 0 0 1 1.21-2.8c1-1.64 1.69-3.22.72-5.16-.4-.81-.22-.9 1-1.31a8.57 8.57 0 0 1-3.49-6.89c-.38 0-.65.57-.92.57-.1 0-.2-.08-.3-.27-.32-.61-1-1.39-.31-2.18.2-.22.66-.34.4-.67-.7-.87-.36-1.65 0-2.47.07-.17.17-.41.1-.54-.78-1.61.55-2.22 1.42-3 .27 0 .54-.19.4-.43a.32.32 0 0 0-.29-.19 1 1 0 0 0-.48.21 3.35 3.35 0 0 1-.71.25c-.2 0-.41.07-.6.07s-.51-.11-.61-.57c-.19-.9.46-.87 1-1a1.37 1.37 0 0 0 .35-.19 1 1 0 0 0-.7-.29 2.69 2.69 0 0 0-1 .28 1.29 1.29 0 0 1-.41.1.4.4 0 0 1-.39-.28c-.15-.32-.46-.83-.15-1 1.24-.78 1.54-2.09 1.88-3.32.22-.81 1.47-.26 1.36-1.36a8.51 8.51 0 0 0-2.45.86 1.37 1.37 0 0 1-.47.08.8.8 0 0 1-.89-.87c.31-1.77 0-3.74 1.41-5.2h.85c.64.16 1.27.67 1.91.67a1.35 1.35 0 0 0 1.08-.62 1.27 1.27 0 0 1 .34 0c.29 0 .58.08.87.08a1 1 0 0 0 .78-.34 6.71 6.71 0 0 0-1.24-.37.91.91 0 0 0-.59.23 1.87 1.87 0 0 1-1 .28c-.69 0-1.38-.32-2.07-.39-.15-.21-.28-.32-.4-.32s-.26.15-.37.42a4.84 4.84 0 0 0-2.59 1c-.27.19-.4.58-.72.58a.62.62 0 0 1-.31-.1c-.42-.26-.26-.65-.15-1a.58.58 0 0 0-.25-.68.82.82 0 0 0-.51.86 4.3 4.3 0 0 1-1 3.31 1.68 1.68 0 0 0-.29 1.28 6.32 6.32 0 0 1-.14 3.55 1.33 1.33 0 0 0 .46 1.56c1 .81.91 1.63.19 2.63a5.06 5.06 0 0 0-.67 2 4.58 4.58 0 0 1-1.59 2.75c-.52.45-1.11.88-.82 1.76s-.56.89-1 1.11c-2.5 1.27-5 2.48-7.55 3.73-1.07.52-2.27.86-2.88 2a1 1 0 0 1-.62.42c-3.27 1-6.37 2.62-9.83 3.07a8.2 8.2 0 0 1-1 .07 3.21 3.21 0 0 1-1.79-.47 1.57 1.57 0 0 0-.33-.19c-6.61-2.1-11.14-7-15.88-11.66a18.87 18.87 0 0 1-2.59-3.53 23.21 23.21 0 0 0-4.47-5C48.88 75.45 47 73.73 45.1 72c-1.58-1.45-2.34-3.47-3.44-5.26-.41-.67.88-3.1 1.66-3.31a1 1 0 0 1 .26 0c.12 0 .22 0 .2.16-.13.9.14 1.12.52 1.12s.8-.19 1.13-.2h.09c.85 0 1.08.33.7 1.12-.26.54-.55 1 .09 1.51a1.06 1.06 0 0 0 .66.23 1.42 1.42 0 0 0 .92-.4 3.1 3.1 0 0 1 2.21-.87h.13a1.3 1.3 0 0 0 1-.42c.32-.66.62-1 1-1s.64.23 1.08.73a.42.42 0 0 0 .32.16c.36 0 .77-.47 1.1-.76.5-.44.2-1.3 1-1.63.45.18.65 1.12 1.09 1.12a.54.54 0 0 0 .33-.14 4.85 4.85 0 0 1 1.53-.76c.1-.54-.52-.55-.57-1a1.9 1.9 0 0 1 1-.44 1 1 0 0 1 .36.08c.1.05.26.2.34.2s.06 0 .06-.08c.11-.86.35-1.12.65-1.12s1 .56 1.44.63a5.92 5.92 0 0 0 .82.07 1.57 1.57 0 0 0 1.67-1.19c.67-2 2.12-3.68 2.8-5.79a5.25 5.25 0 0 0-2.1-.48 5.18 5.18 0 0 0-2.6.77A10.19 10.19 0 0 1 59 56a4.15 4.15 0 0 0-2.51 1.24 2.08 2.08 0 0 1-1.66.8 3.37 3.37 0 0 1-.69-.07c-1.7-.32-3.53 0-5-1.15a.36.36 0 0 0-.17-.07 6.11 6.11 0 0 1-.73 0c-3.49 0-5.57-3.09-8.51-4.3A10.91 10.91 0 0 1 36.3 50c-.87-.85-1.87-1.54-2.16-2.94a2.3 2.3 0 0 0-1.68-1.62c-.58-.13-1.76-.84-.29-1.67a.36.36 0 0 0 .2-.47c-.94-2.22 1-3.06 2.08-4.28.17-.18.34-.35.52-.52a2 2 0 0 1-.11-.2v.08c-1.37.31-2.5.67-3 2.38a2.31 2.31 0 0 1-2.37 1.42 3.33 3.33 0 0 1-1.67-.44c-.48-.29-.45-.6-.12-1.09a.82.82 0 0 1 .75-.37h.43a1.3 1.3 0 0 0 .59-.12C28.26 39.86 28 39.07 28 38a2.92 2.92 0 0 1 1.18-2.4 5.41 5.41 0 0 1 3.87-1.65h.6a17.23 17.23 0 0 0 1.77.07h3v-5.18c0-.85.11-1.45 1-1.45h.22c.47.51 0 1.24.45 1.83.73-.21.14-1.31 1-1.53a1.81 1.81 0 0 1 .29 0c.78 0 .54 1.09 1.22 1.23a4.57 4.57 0 0 1 2-.61 2.24 2.24 0 0 1 1.34.45.86.86 0 0 0 .49.17 1 1 0 0 0 .57-.22 2.82 2.82 0 0 1 1.84-.52h1.11c.21 0 .42.08.62.08h.14a6.43 6.43 0 0 1 1.53-.2 4.13 4.13 0 0 1 3.37 1.64c.25.31.69.28 1.07.29 1.35.05 2.69.1 4 .11 1 0 1.79-.28 1.63-1.54-.08-.59.29-.77.73-.92 2.41-.83 4.81-1.7 7.24-2.48a2.35 2.35 0 0 1 .67-.14c.44 0 .5.34.27 1.13a8 8 0 0 0 0 2.71c1 0 2 .36 3 .36a3.22 3.22 0 0 0 1.51-.34c.42-.21 1.16 0 .77-1.17-.2-.57 1.1-1.12 2.05-1.12h.4c1.08 0 1.62-.64 2.16-1.5-2.3-.5-2.3-.5-2.37-2.9 0-1.15.41-1.88 1.22-1.88a1.85 1.85 0 0 1 .8.2 6.18 6.18 0 0 0 2.64.59 9.84 9.84 0 0 0 3.1-.6 2.85 2.85 0 0 1 .82-.17.94.94 0 0 1 .3.05 7.6 7.6 0 0 0 2.73.48 37.57 37.57 0 0 0 5.93-1 4.62 4.62 0 0 1 .73-.07M110 73.34s.08-.06.13-.1-.08-.1-.12-.1-.09.06-.13.09.08.11.11.11M97 18.82a5.65 5.65 0 0 0-.89.08c-.68.11-1.36.26-2 .4a18 18 0 0 1-3.75.55 6.52 6.52 0 0 1-2.36-.42 2 2 0 0 0-.66-.11 3.49 3.49 0 0 0-1.14.23 8.76 8.76 0 0 1-2.78.54 5.25 5.25 0 0 1-2.22-.5 3 3 0 0 0-1.2-.29 2 2 0 0 0-1.5.62 3.08 3.08 0 0 0-.72 2.3c.06 2.08.25 2.85 1.43 3.35h-.62a3.74 3.74 0 0 0-2.79 1.16 1.43 1.43 0 0 0-.25 1.14l-.23.1a2.27 2.27 0 0 1-1.06.23 8.61 8.61 0 0 1-1.42-.2l-.72-.12a4.25 4.25 0 0 1 0-1.52 2.08 2.08 0 0 0-.1-1.87 1.37 1.37 0 0 0-1.09-.49 3.21 3.21 0 0 0-1 .19c-1.72.55-3.45 1.16-5.12 1.74l-2.13.74a1.75 1.75 0 0 0-1.4 2 .8.8 0 0 1 0 .32 1.5 1.5 0 0 1-.63.09c-1 0-2.11 0-3.14-.08h-1.28a5.11 5.11 0 0 0-4.06-2 7.43 7.43 0 0 0-1.69.21h-.11a2.85 2.85 0 0 0-.47-.06H48.77a3.85 3.85 0 0 0-2.41.7 3.18 3.18 0 0 0-1.83-.58 4.61 4.61 0 0 0-1.7.38 1.61 1.61 0 0 0-1.49-1 2.07 2.07 0 0 0-.53.08 1.8 1.8 0 0 0-.35.12.53.53 0 0 0-.12-.14l-.26-.29h-.69a1.93 1.93 0 0 0-1.46.55 2.51 2.51 0 0 0-.56 1.93V33h-1.96a16.44 16.44 0 0 1-1.66 0h-.69a6.41 6.41 0 0 0-4.55 1.91A3.91 3.91 0 0 0 27 38a3.79 3.79 0 0 0 .32 1.67 1.83 1.83 0 0 0-.42.45 1.9 1.9 0 0 0-.39 1.46 1.63 1.63 0 0 0 .81 1.05 4.39 4.39 0 0 0 2.19.58 4.17 4.17 0 0 0 1.66-.33c0 .11.05.22.08.33a1.67 1.67 0 0 0-.78 1.62 2.21 2.21 0 0 0 1.76 1.62 1.31 1.31 0 0 1 .92.84 5.48 5.48 0 0 0 2 3l.44.41a11.77 11.77 0 0 0 3.71 2.68 15.15 15.15 0 0 1 2.88 1.79c1.73 1.27 3.51 2.59 6 2.59h.53a7.63 7.63 0 0 0 3.77 1A12.79 12.79 0 0 1 54 59a4.78 4.78 0 0 0 .88.09 3.11 3.11 0 0 0 2.41-1.13 3.11 3.11 0 0 1 1.88-.96A10.67 10.67 0 0 0 63 55.88a4.25 4.25 0 0 1 2.11-.63 3.61 3.61 0 0 1 .79.09c-.28.63-.63 1.24-1 1.88a16.46 16.46 0 0 0-1.45 3c-.14.44-.3.51-.72.51a4.77 4.77 0 0 1-.67-.06 2.74 2.74 0 0 1-.33-.19 2.5 2.5 0 0 0-1.27-.48 1.43 1.43 0 0 0-1.35.92h-.06a2.52 2.52 0 0 0-1.41.53l-.11.08-.53.34.09.63a1.13 1.13 0 0 0 .09.34L57 63a1.92 1.92 0 0 0-.88-.8l-.44-.2-.38.16a2.09 2.09 0 0 0-1.19 1.58c0 .08 0 .19-.07.25l-.19.17a1.59 1.59 0 0 0-.13.13 1.89 1.89 0 0 0-3.31.71h-.31a4.1 4.1 0 0 0-2.88 1.13.52.52 0 0 1-.25.14l.1-.2v-.11a1.62 1.62 0 0 0-1.6-2.55h-.07a3 3 0 0 0-.62.1 1.1 1.1 0 0 0-.27-.78 1.19 1.19 0 0 0-.93-.4 2.44 2.44 0 0 0-.53.07c-1.27.35-2.13 2.5-2.16 2.59a2.48 2.48 0 0 0-.08 2.22c.3.49.58 1 .87 1.53a13.83 13.83 0 0 0 2.75 3.94c1.86 1.71 3.77 3.45 5.69 5.16a23.17 23.17 0 0 1 4.28 4.74l.09.15a18.63 18.63 0 0 0 2.65 3.58l1.31 1.29c4.29 4.23 8.72 8.61 14.92 10.59l.1.06a4.14 4.14 0 0 0 2.32.63 7.78 7.78 0 0 0 1.1-.08 30.25 30.25 0 0 0 6.85-2c1-.39 2.1-.79 3.15-1.12a2.09 2.09 0 0 0 1.21-.92c.32-.62.89-.91 1.8-1.31l.63-.3 2.81-1.38c1.56-.76 3.17-1.55 4.75-2.35l.2-.07c1.59-.54 1.5-1.64 1.3-2.24 0-.16-.06-.19.43-.61l.09-.08a5.63 5.63 0 0 0 1.93-3.32 4.27 4.27 0 0 1 .49-1.58c1.39-1.92.56-3.23-.37-4a.38.38 0 0 1-.17-.4 7.27 7.27 0 0 0 .21-4.1.66.66 0 0 1 .1-.52 6.51 6.51 0 0 0 1.08-2 1.65 1.65 0 0 0 .38 0 1.58 1.58 0 0 0 1.24-.69l.09-.1a13.15 13.15 0 0 0-.31 2.18 13.14 13.14 0 0 1-.14 1.34 1.65 1.65 0 0 0 .38 1.38 1.9 1.9 0 0 0 1.49.67h.37a3.1 3.1 0 0 1-1.22 1.92c-.69.43-.78 1.16-.28 2.19v.1a1.41 1.41 0 0 0 1 .82 1.4 1.4 0 0 0 0 .34 1.59 1.59 0 0 0 1 1.25 2.48 2.48 0 0 0-.19 2.37 3.23 3.23 0 0 0-.27 2.89 2.37 2.37 0 0 0 0 3 1.91 1.91 0 0 1 .16.27 1.33 1.33 0 0 0 1.19.81h.08a9.35 9.35 0 0 0 2.61 5.06 1.37 1.37 0 0 0-.35.49 1.79 1.79 0 0 0 .2 1.53c.69 1.39.31 2.51-.69 4.21a13.23 13.23 0 0 0-1.31 3 3.58 3.58 0 0 0 .3 3.21 2.44 2.44 0 0 0 2 1h.43a4.61 4.61 0 0 0 2.58-2.47 1.32 1.32 0 0 0 1.32 1.13 2.17 2.17 0 0 0 .62-.1h.36a.89.89 0 0 1 .78.46c.41.68 1 1.62 2.05 1.62a2 2 0 0 0 1-.29c.16-.1.35-.18.53-.27.84-.39 2.24-1 2.17-2.73a11.3 11.3 0 0 1 1.26-4.82l.11-.25a1.19 1.19 0 0 1 .08-.16 1.9 1.9 0 0 0 .16-1.7l.77.5a3.4 3.4 0 0 1 .27.23 2.24 2.24 0 0 0 1.54.75 1.91 1.91 0 0 0 .8-.19 5.46 5.46 0 0 1 .87-.33 4.37 4.37 0 0 0 2.66-1.81c.64-1.12 2.37-4.11-.14-6.91a1.9 1.9 0 0 1-.39-.64 2.38 2.38 0 0 0-2.34-1.67 9.44 9.44 0 0 0 1.11-.69l.35-.24.31-.2c1.06-.69 2.52-1.63 2.46-3.65a3 3 0 0 1 .28-.2l.1-.06a4.54 4.54 0 0 1 2.61-.67h.18a3.15 3.15 0 0 0 2.39-.82 3 3 0 0 0 .68-2.29l.11-1.27-1.25.43a4.07 4.07 0 0 1-1.32.26 1.93 1.93 0 0 1-.65-.1 6.2 6.2 0 0 0-1.93-.32 7.68 7.68 0 0 0-3.25.81l-.12-.22a1.71 1.71 0 0 0 1.3-1.27l.09-.33-.14-.31-.12-.28-.24-.56c-.54-1.37-.47-1.53.89-2.16l.75-.32.65-.27c1.9-.85 2.14-1.39 1.51-3.4v-.06a6 6 0 0 0-.24-.61c-.22-.51-.24-.62-.14-.79 1.27-2.37 1.17-3.19-.71-5.1 0-.24 0-.47.07-.71a2.29 2.29 0 0 0 .82.15 3.69 3.69 0 0 0 2.58-1.56l.61-.66-.59-.67a2.7 2.7 0 0 0-2-1.08 2.84 2.84 0 0 0-1.3.36.45.45 0 0 1-.1 0 2.71 2.71 0 0 1-.33-.63.26.26 0 0 1 0-.1h.25a4.83 4.83 0 0 0 2.76-1.09 3.16 3.16 0 0 1 1.66-.76h.32a1.54 1.54 0 0 0 1.3-1A15.39 15.39 0 0 1 141 56a10.18 10.18 0 0 0 1.21-3l.11-.6-.48-.37a1.84 1.84 0 0 0-1.12-.37 3.67 3.67 0 0 0-.51 0 3.88 3.88 0 0 0-.8-.78c-.41-.33-.44-.39-.44-.53a1.74 1.74 0 0 0-.49-1.31 1.9 1.9 0 0 0-1.4-.52h-.46l-.27.05h-.17c-.18-1.26-.49-1.57-1.8-2.41a6.89 6.89 0 0 0-1.8-.75c-1-.32-1.58-.52-1.93-1.2a1.32 1.32 0 0 0-1.21-.68 3 3 0 0 0-.7.1h-.58a1.8 1.8 0 0 1-.85-.19 2.88 2.88 0 0 0 .22-2.24c-.35-.76-1.18-1.05-2.05-1.35h-.1a3.56 3.56 0 0 0-2.27-2c-.17-.08-.34-.15-.51-.24a.89.89 0 0 1-.38-.61.86.86 0 0 1 .1-.66c1.59-1.89 1.44-3.63-.48-5.46l-.82-.79-.68.92-.33.49a3.07 3.07 0 0 1-.54.7l-1.63-2.05-.06-.07-.06-.06-.24-.2-.32-.29.11-.1.09-.07.06-.09c1.32-1.71.8-3.46.37-4.86l-.1-.36a1.75 1.75 0 0 0-1.84-1.32h-.81a1.7 1.7 0 0 0-1.73 1.31 5.8 5.8 0 0 0-.13.6 2.38 2.38 0 0 1-.15.58h-.12a19.54 19.54 0 0 1-2.36.19 1.46 1.46 0 0 1-.85-.26c-.72-2.07-2.38-2.28-3.59-2.44l-.51-.07c-.33-.05-.66-.08-1-.1-1.33-.09-1.82-.2-2.1-1.11a1.92 1.92 0 0 0-1.82-1.29 2.09 2.09 0 0 0-.78.16l-.08-.13A3.13 3.13 0 0 0 97 18.82z" fill="#454545"/><g clip-path="url(#a)"><path d="M160.76 43.07l-.93.21-.93.18-.53.13-.26.06-.26.05-1.06.22-.52.11-.52.1-1.05.21-1 .18-.52.09h-.52l-1 .16-.52.08-.52.06a78 78 0 0 1-8.33.72H136.1l-1.05-.08H134a57.86 57.86 0 0 1-8.6-1.55c-2-.57-4-1.13-6-1.7s-4.07-1.16-6.11-1.78l-.76-.23c-.25-.08-.51-.15-.75-.24l-1.5-.48-.75-.24-.37-.12-.19-.06-.18-.06-1.46-.5-1.45-.51-1.42-.52-1.4-.53-1.35-.54.78.36c.26.12.52.25.78.36l1.59.7c1.06.47 2.15.89 3.24 1.33l.82.33.83.31 1.66.62.42.15.42.15.85.29.86.29.86.28A102.42 102.42 0 0 0 129 45.09q3.65.6 7.38.92c2.48.21 5 .33 7.53.34s5.1-.1 7.67-.34a77.6 77.6 0 0 0 7.77-1.09c-.2.23-.4.46-.62.68s-.44.44-.68.65-.49.42-.74.63-.53.39-.81.57-.57.36-.87.53-.62.31-.94.45l-.5.2a4.24 4.24 0 0 1-.5.18c-.35.11-.7.21-1.07.29l-.66.11-.67.09-.66.09-.66.08-1.32.15-.66.06h-.66l-.65.06h-.65l-1.3.07c-.86 0-1.72.07-2.58.07h-5.06l-1.24-.07-1.24-.1-.62-.05h-.61l-1.22-.13.14-2a46.36 46.36 0 0 1-6.7-.44 54.58 54.58 0 0 1-6.43-1.28c-2.09-.54-4.14-1.18-6.14-1.9l-1.5-.55-1.47-.58-1.45-.58-.72-.3-.71-.3c-3.82-1.62-7.5-3.35-11.2-5a95.85 95.85 0 0 0-11.33-4.27c.4.48-.08.7-.33.94h-.1.1c-.21.21-.25.44.66.87-.91-.43-.87-.66-.66-.87 7.28 3.17 14.49 6.5 22.16 9.43l.72.28.36.14.36.13 1.46.53.73.27.37.13.18.07.19.06 1.49.51c2 .68 4 1.3 6.12 1.88a98 98 0 0 0 13 2.69c-.88-.09-1.75-.22-2.62-.33s-1.73-.26-2.58-.41-1.71-.31-2.56-.47-1.68-.34-2.51-.53-1.67-.38-2.5-.58-1.64-.41-2.46-.64-1.62-.45-2.43-.68-1.62-.48-2.41-.74l-.6-.19-.3-.1-.29-.09-1.17-.4-1.17-.39-.29-.1-.15-.05h-.14l-.58-.21-2.3-.83-2.26-.86c-.76-.29-1.49-.59-2.24-.89s-1.49-.59-2.21-.9l-2.2-1-2.16-.93C87.57 35.61 82 33 76.57 30.55l-2-.91-1-.46-1-.45-2-.89-2-.86-.51-.22-.5-.21-1-.41-1-.42-.48-.19-.48-.19c-1.4-.5-2.6-.94-3.82-1.34l-.34-.11-.19-.06-.2-.06-.42-.12-.44-.13-.43-.11-.21-.06h-.2l-.69-.16a10.74 10.74 0 0 0-4-2.08 6.86 6.86 0 0 0-1.8-.22 5.1 5.1 0 0 0-1.56.24 8.15 8.15 0 0 0-.6-2.13c-.15-.38-.32-.75-.48-1.12a8.75 8.75 0 0 1-.38-1.08 2.29 2.29 0 0 1-.07-1 1.31 1.31 0 0 1 .15-.46 1.79 1.79 0 0 1 .33-.42 2.14 2.14 0 0 1 .53-.36 3.93 3.93 0 0 1 .76-.27 7.07 7.07 0 0 1 2.29-.11l-.07-2-3-.81c-1-.26-1.9-.53-2.77-.79a25.36 25.36 0 0 1-2.43-.84L44 9.49l-.49-.25a5.8 5.8 0 0 1-.84-.55 3.71 3.71 0 0 1-.94-1.43c0-.14-.08-.27-.11-.41v-.21-.1a.49.49 0 0 1 0-.12 3 3 0 0 1 .28-1 3.9 3.9 0 0 1 .28-.53 6.25 6.25 0 0 1 .4-.54c.15-.18.32-.37.51-.56s.4-.36.63-.55a12.83 12.83 0 0 1 3.79-2A24.29 24.29 0 0 1 53.13.09a30.83 30.83 0 0 1 5.69.09l.7.09h.69l.68.11.68.12c.46.08.9.18 1.35.28l.66.15.66.17c1.74.45 3.43 1 5.06 1.59s3.19 1.31 4.7 2S76.92 6 78.35 6.61s2.85 1.27 4.28 1.87l2.12.87 1.06.42 1 .4c4 1.61 8 3.23 11.76 4.91s7.42 3.43 10.91 5.36l.44.25.46.24.9.49.46.24.46.23.93.45.93.43.47.22.47.21 1.9.8.48.18.47.19.47.18.48.17 1 .35 1 .32c1.29.43 2.58.82 3.88 1.18s2.61.68 3.91 1 2.6.57 3.89.82 2.57.48 3.85.7l1 .16.47.08.48.07.47.08.48.07.95.15h1.48l.8-.07h.41l.41-.06.84-.14.84-.17.42-.09.41-.1.82-.19.79-.2.38-.09.37-.09c.25-.06.49-.12.72-.16l.67-.14.62-.08h.56a2.62 2.62 0 0 1 .93.16 2.75 2.75 0 0 1 .89.34 2.36 2.36 0 0 1 .59.54 3.69 3.69 0 0 1 .57 1.56 46 46 0 0 1-9.13 1.93 51.29 51.29 0 0 1-9.44.1c-1.93-.23-3.86-.56-5.77-1s-3.8-.92-5.68-1.51-3.72-1.25-5.54-2l-.68-.28-.68-.29-.68-.3-.68-.32c-.9-.42-1.8-.83-2.7-1.3.86.51 1.73.95 2.61 1.4l.67.34.33.16.33.15.66.31.67.3a53.71 53.71 0 0 0 5.52 2.05 54 54 0 0 0 11.62 2.26c1.57.19 3.15.31 4.72.37s3.15.05 4.71 0a49.08 49.08 0 0 0 9.27-1.4 11.24 11.24 0 0 0 .25 1.54 3.35 3.35 0 0 0 .7 1.38h.08l.24-.09.77-.28.47-.18.48-.2.85-.35a8.09 8.09 0 0 1 1.62.35 5.54 5.54 0 0 1 1.28.54 4.05 4.05 0 0 1 1.54 1.6 4.48 4.48 0 0 1 .48 2.23 6.73 6.73 0 0 1-.14 1.24q-.06.31-.15.63c-.06.21-.13.41-.21.62s-.38.75-.6 1.15l-.17.3a1.92 1.92 0 0 1-.18.31z" fill="#ff5a7e"/><g fill="#ffa233"><path d="M41.29 16.4h.6a2.73 2.73 0 0 1-.65.22l-.87.21c1.58-.14 3.21-.27 4.84-.38s3.24-.17 4.8-.21 3.07-.07 4.47-.09 2.69 0 3.83-.1l.58.13h.54a7.15 7.15 0 0 0 1 .07c.58 0 1-.09 1.14-.3s-.06-.49-.47-.77l-.36-.21a4.3 4.3 0 0 0-.43-.21 8.07 8.07 0 0 0-1.08-.35l-.54-.2-.25-.1a1 1 0 0 1-.21-.1l-.86-.43c-.3-.15-.61-.28-.94-.42l-.24-.1-.25-.09-.52-.19c-.17-.06-.34-.13-.53-.18l-.55-.18a28.62 28.62 0 0 0-5.07-1l.55.11.54.12.54.12.52.13h-.39l-.39-.06-.81-.1q-.41 0-.84-.06h-.89c.13.09.3.17.43.25l-.73-.09h-2.41l-.83.06h-.84l-.42.06-.42.07-.83.18-.41.09-.41.11-.79.24c-.26.08-.51.18-.76.27l-.72.3-.34.15-.32.17-.62.33-.55.34c-.17.12-.33.23-.48.35a4.49 4.49 0 0 0-.39.33c-.12.11-.22.22-.31.32a2.13 2.13 0 0 0-.35.55.53.53 0 0 0 .26.72 1.7 1.7 0 0 0 .55.17 6.5 6.5 0 0 0 .82 0 10.58 10.58 0 0 0 1.06-.06l1.31-.14.42-.05h1.25z"/><path d="M48 18.28c-.48-.07-1-.11-1.44-.16h-4.47l-.42-.12.29.68v-.05a7.16 7.16 0 0 1 .68-.37l.38-.17.4-.16.43-.16.45-.14.46-.13.48-.13a23.05 23.05 0 0 1 4.06-.55l.47-.05h.48a1.41 1.41 0 0 0 .86-.36.2.2 0 0 0 0-.25A.8.8 0 0 0 51 16a.9.9 0 0 0-.22-.11 2.63 2.63 0 0 0-.63-.19 2.5 2.5 0 0 0-.41-.07h-5.09l-.87.1h-.43l-.44.08a16.52 16.52 0 0 0-1.72.4c-.14 0-.28.08-.42.12l-.41.14-.4.14-.19.07-.19.08a13.41 13.41 0 0 0-1.42.68c-.21.12-.41.24-.6.37a5.37 5.37 0 0 0-.52.38 5.57 5.57 0 0 0-.43.39 2.8 2.8 0 0 0-.33.38.36.36 0 0 0 0 .51c.13.13.32.23.43.36s.12.2.3.25a2.26 2.26 0 0 0 .7 0 4.64 4.64 0 0 0 .49-.08l.54-.1.59-.15.31-.09.32-.09.64-.2.59-.21c.19-.06.37-.14.54-.21l.47-.21a3.58 3.58 0 0 0 .7-.42.61.61 0 0 0 .27-.39h.94l-.17.07-.18.07-.34.15a1.73 1.73 0 0 1 .52-.35 5.48 5.48 0 0 1 .82-.3c.31-.1.63-.18 1-.26l.49-.12.46-.11.46-.05.45-.06.9-.08c-.35-.37-.7-.73-1.07-1.1l-1 .21a1.51 1.51 0 0 1 .21.11c-.91.21-1.8.47-2.7.75h-.17l-.17.05-.35.11-.69.23-.71.24-.73.26-.6.27-.31.14-.3.14-.59.3-.3.15-.29.16c-.59.45-.41.72.37.64H39.69l.58-.06h-.53l.48-.1a4.1 4.1 0 0 1 .48-.1l1-.18c.65-.09 1.29-.19 1.93-.24l.48-.05h3.26a3.62 3.62 0 0 0 .57 0 1.35 1.35 0 0 0 .45-.13c.11-.25-.05-.37-.39-.41zM39.34 20c-.21 0-.42.06-.64.11l-.35.09-.39.16-.2.18.39-.06.44-.07c.59-.09.83-.29.75-.41zm-1.58.52l-.34.06h.31zM120.55 43c1.27.46 2.54.91 3.82 1.31s2.58.78 3.88 1.13l1 .24.49.13.49.11 1 .23 1 .21c.65.14 1.3.26 2 .38l.25.05h.24l.49.08.49.09.5.08c.17 0 .33 0 .34-.08s-.11-.14-.27-.16l-.49-.08-.49-.08-.49-.08-.49-.09c-.65-.13-1.3-.24-2-.39l-1-.21-1-.22-.49-.12-.49-.12-1-.25a84.12 84.12 0 0 1-7.67-2.42c-.17-.06-.33-.06-.37 0s.1.26.26.26zm39.99 9.29c-.12.08-.1.15.05.16a.73.73 0 0 0 .45-.12c.1-.07.07-.15 0-.17a.73.73 0 0 0-.5.13z"/><path d="M160.62 57.9l-1.2.45c-.39.14-.76.3-1.1.46a1 1 0 0 1-.41.08c.07.09-.07.23-.38.33a46.5 46.5 0 0 1-9.5 2.07c-1.65.21-3.31.32-5 .4-.83 0-1.67.06-2.5.06h-2.5a.63.63 0 0 1-.3.24 2.67 2.67 0 0 1-1 .21h-1.01l-.35-.05-.71-.16c-1.44-.26-2.86-.56-4.28-.87l-1.06-.25-.52-.12-.53-.14-1-.27-.52-.14-.55-.2a10 10 0 0 1-2-.22 70 70 0 0 1-7.51-1.08c.13.12.2.24.17.34s-.74.21-1.4 0l-1-.31.69.28.35.14.35.13 1.41.54.38.15.79.24.81.23 1.63.43a72.92 72.92 0 0 0 14.44 2 70.31 70.31 0 0 0 14.16-.87 1 1 0 0 1 .53 0c.09 0 .08.13-.09.18-2.91.78-5.69 1.49-8.61 2a45.79 45.79 0 0 1-9.39.7q-3-.11-6.07-.4t-6-.81l-1.5-.26-1.49-.28-1.49-.31-.75-.16h-.37l-.36-.08-2.94-.71-.37-.1-.36-.1-.73-.2-1.46-.4c-4-1.46-7.7-2.84-11.42-4.24l-2.77-1.05-2.77-1.07-.7-.27-.7-.44-1.39-.55-1.41-.56-1.39-.57c-5.07-2.02-9.83-4.11-14.47-6.1l-1.73-.74-1.71-.74-1.68-.74-.88-.33-.85-.35-1.7-.7-.21-.08h-.2l-.4-.16-.79-.3c-1.05-.41-2.08-.78-3.08-1.12a14.08 14.08 0 0 1-2.11-.73c-.31-.14-.61-.29-.88-.43l-.4-.23-.36-.24a4.8 4.8 0 0 1-1.11-1 1.51 1.51 0 0 1-.18-.26c0-.09-.1-.18-.14-.27a2.15 2.15 0 0 1-.14-.54A1.41 1.41 0 0 1 53 36a2.34 2.34 0 0 1 .67-.43l.42-.16.49-.11c-.25-.06-.49-.13-.74-.18l-.56-.2-.56-.18-.39-.14-.36-.14-.35-.15-.16-.08-.16-.08a5.36 5.36 0 0 1-.57-.34 3.38 3.38 0 0 1-.46-.37l-.19-.16-.18-.16-.39-.31a4.12 4.12 0 0 0-.41-.43l-.23-.2-.27-.18c-.16-.13-.34-.26-.51-.38s-.35-.25-.54-.37a19.35 19.35 0 0 1-2-1.42c0-.16.09-.32.14-.48l-.25-.09-.29-.08-.27-.08a2.66 2.66 0 0 1-.48-.2 2.36 2.36 0 0 1-.39-.23 1.85 1.85 0 0 1-.28-.28l-.06-.54a2.57 2.57 0 0 1 .22-1 3.65 3.65 0 0 1 .28-.5 2 2 0 0 1 .18-.26 2.52 2.52 0 0 1 .21-.25.83.83 0 0 1 .13-.7 3.13 3.13 0 0 1-.48-.35 1.6 1.6 0 0 1-.33-.37 1 1 0 0 1 0-1c-.22 0-.32-.11-.31-.21s.12-.23.36-.34a2.73 2.73 0 0 1 .57-.18c-.26-.09-.33-.12-.68-.22H43.14c-.57.07-.85.13-1.12.18l-.42.07-.59.13h-1.08a2.76 2.76 0 0 1-.42 0l-.42-.17-.32-.14a2.56 2.56 0 0 1-.4-.19c-.17-.12-.17-.23-.18-.46l.14-.18-.49.11-.29.08-.33.09a2.32 2.32 0 0 1-.44 0c-.13-.18-.13-.18-.3-.19a.35.35 0 0 1-.11-.14c.33-.43.33-.43.31-.5a1.48 1.48 0 0 1 .2-.23l.31-.21.23-.13.24-.14H39.02l.18-.28.36.16-.23-.18H40h-.74l.47-.14.36-.09.48-.13.66-.18c.3-.06.56-.15.77-.21l.37-.11a.3.3 0 0 1-.09-.12l.51-.08h.4l.62-.07c.37-.05.74-.07 1.48-.12a2 2 0 0 1 .35.13 1.68 1.68 0 0 1 .7-.16h.91l.33-.08.3-.07h.13l.37-.08.24-.05.29-.05.76-.14 1.07-.16h.32l.31.05.59.11-.35-.14c-.22-.09 0-.29-.12-.32a23.2 23.2 0 0 0-5-.52 28.28 28.28 0 0 0-5.49.54 4.21 4.21 0 0 1-.48.12h-.43a.76.76 0 0 1-.53-.06c-.07-.07 0-.18.17-.3a2.41 2.41 0 0 1 .33-.19 4.05 4.05 0 0 1 .46-.17l.69-.29c.23-.1.47-.18.71-.26l.36-.13.36-.12.73-.22.37-.1.38-.09.75-.17c.25-.06.51-.1.76-.14s.51-.09.77-.12c.51-.07 1-.14 1.53-.17l.77-.05h3.05c.25 0 .5 0 .74.06l.74.08h.37l.36.06.37.05.36.06.71.13.7.14.69.16.67.17.67.18A32 32 0 0 1 63 18.66c1.59.6 3.13 1.24 4.63 1.9l-.18-.18.57.3.55.3.13.06-.75-.71-.61-.33c-.89-.37-1.75-.76-2.62-1.13s-1.72-.77-2.63-1.15c-.45-.18-.89-.37-1.34-.54-.23-.09-.46-.19-.69-.27l-.7-.26-.7-.25-.72-.24c-.49-.15-1-.31-1.5-.45l-1.6-.44-.2-.06-.2-.05-.4-.11-.79-.2-.8-.2-.45-.09-.41-.09c-.54-.12-1.12-.21-1.7-.3s-1-.17-1-.33.2-.15.43-.19a2.11 2.11 0 0 1 .38 0h.44a34.56 34.56 0 0 1 5.88.49 36.17 36.17 0 0 1 5.38 1.33 32.77 32.77 0 0 1 4.61 1.89 25.3 25.3 0 0 1 3.66 2.22l.77.34q.38.16.72.36l.33.19.31.2a6.23 6.23 0 0 1 .56.41L72 20.5c.71.39 1 .8 1.63 1.19 0-.17 0-.34-.07-.51C77.11 23 81 24.62 84 26.72l.36.21a26 26 0 0 1 4.71 1.5l-1.59-.91c.64.19 1.26.4 1.89.63.31.12.62.24.93.38.16.07.32.13.47.21l.47.22c.85.41 1.7.87 2.53 1.36s1.62 1 2.34 1.53l.54.39.5.39c.33.26.63.52.91.78a9.18 9.18 0 0 1 1.34 1.48c3.3 1.44 6.57 2.82 9.85 4.08s6.54 2.4 9.82 3.34c.34.1.61.29.63.43s-.27.19-.61.09l-.9-.21-.45-.11-.45-.11-1.8-.5-.91-.25-.22-.07-.23-.07-.45-.14-1.81-.57-.45-.14-.22-.08-.2-.08-.9-.31-1.81-.64c-.61-.21-1.21-.44-1.81-.67l-.91-.34-.9-.35a113 113 0 0 0 11.86 5.25c.52.18 1.05.33 1.59.49a11.61 11.61 0 0 1 1.52.58l.49.17.49.15 1 .3 1 .29 1 .28c.65.18 1.29.36 1.93.52l1 .24 1 .23a55.4 55.4 0 0 0 7.92 1.25 65.26 65.26 0 0 0 6.63.19 55.17 55.17 0 0 0 6.46-.54l1.14-.17.57-.1.56-.11.55-.1.55-.11.55-.12.27-.05.27-.07 1.07-.25 1.05-.27.52-.14.34-.1.52-.15.25-.07.26-.08 1-.32.25-.08.25-.08.47-.22.5-.17.49-.18.5-.17.24-.09.25-.09 1-.37 1-.4.25-.09.24-.1.48-.21.49-.2.24-.11.24-.11a2.82 2.82 0 0 1 1-.3.79.79 0 0 1 .65.15c.11.13.08.33-.07.54a.91.91 0 0 1-.13.16 1.29 1.29 0 0 1-.17.16 3.18 3.18 0 0 1-.45.29 44.48 44.48 0 0 1-8.54 3.63c-1.52.45-3.07.84-4.66 1.16l-1.19.23-1.21.19h-.61l-.61.08-.61.08-.62.06a60.25 60.25 0 0 1-20.53-1.6c-1.5-.37-3-.79-4.43-1.23a.22.22 0 0 1 0 .14.6.6 0 0 1-.51.37l.62.21.62.19.63.2.31.1.32.09 1.25.39 1.26.37.91.13.91.13 1.82.23.91.1.45.05h.46l.91.1h.91c2.44.24 4.9.45 7.43.68 1.74.16 3.39.32 5 .45.41 0 .81 0 1.21.09h3.63a52.43 52.43 0 0 0 11.57-3.21.51.51 0 0 1 .38-.06c.07 0 0 .14-.13.22l-.46.24-.46.23c-.32.16-.63.32-1 .46l-1 .43-.24.11-.25.09-.5.2-.5.2-.51.18-1 .36-1.05.32-.26.08-.26.08-.54.14c.5.13.82.36.84.66s-.29.65-.81.94l1-.17 1-.18a1.69 1.69 0 0 1 .54 0c.14 0 .23.07.25.14s-.06.18-.18.26a1.81 1.81 0 0 1-.5.18l-1 .2-1 .17-.52.08-.53.07-1 .14c-.17 0-.35 0-.52.06l-.53.06-1.05.1-1.06.08h-1.06c-.84.1-1.69.16-2.54.23l-1.28.07h-6.42a2.18 2.18 0 0 1 .94.83l1.6.07q3.71-.13 7.36-.58c2.44-.3 4.86-.7 7.25-1.23l.45-.09.44-.11.89-.21.23-.06.22-.06.44-.12.89-.23.88-.26.44-.12.21-.07.22-.07.87-.28.44-.13.43-.15a61.29 61.29 0 0 0 6.59-2.38c.17-.08.34-.1.37 0s-.07.18-.22.25l-1 .48-.5.23-.51.22c-.68.31-1.37.58-2 .86h-.13l-.13.05-.26.1-.52.2-.52.19-.58.18-1.05.36-1.06.34c.12 0 .17.08.06.16a.8.8 0 0 1-.45.14c-.14 0-.15-.09-.06-.16l-.25.07-.19.09-.5.15c-.33.09-.66.2-1 .28l-1 .26-.25.07-.25.06-.51.12c-1.34.33-2.7.6-4.06.86-2.72.48-5.48.82-8.25 1a75.58 75.58 0 0 0 7.68-.5c.64-.06 1.27-.16 1.9-.24l.48-.07.47-.08.95-.15.47-.08.47-.09.47-.09c.16 0 .32 0 .47-.09l.94-.19.47-.1.47-.11.77-.34.38-.17.39-.18a.57.57 0 0 1 .42 0c.06 0 0 .14-.17.2l-.43.2a3.8 3.8 0 0 1 1.23-.14c.33 0 .55.14.6.32a.4.4 0 0 1-.09.31 1.69 1.69 0 0 1-.33.32 4.15 4.15 0 0 1-1.23.55 52 52 0 0 1-8.08 1.76l-.44.09-.44.07-.87.28a60.56 60.56 0 0 0 12.73-2.17c.35-.12.69-.12.74 0s-.2.32-.56.45l-.66.27-.38.17-.34.12-1.36.5-1.37.46c-.23.08-.47.14-.7.21l-.7.21a57.22 57.22 0 0 1-5.69 1.3q-2.9.49-5.83.72l-.73.05h-.74l-1.47.06h-2.94a78.68 78.68 0 0 1-8 1l1 .15a43.57 43.57 0 0 0 6.3.29 56.52 56.52 0 0 0 6-.54l.74-.11c.25 0 .5-.07.74-.12l1.48-.25 1.46-.29.37-.08.37-.08.73-.16c2-.43 3.93-.91 5.94-1.43a.46.46 0 0 1 .43 0c0 .06-.09.15-.3.2-2 .55-3.86 1.06-5.78 1.51l-1.44.32-1.45.3-.74.13-.74.12-.38.06a2.38 2.38 0 0 1-.37.06l-.76.1-.63.08h-.63l-1.24.13-.62.05-.62.06-1.22.09-1.22.09h-1.21c-.8.06-1.6.08-2.39.13.8 0 1.6.09 2.41.09H143.94l1.19-.06 1.19-.1h.59l.59-.06 1.18-.13 1.18-.16.59-.08.59-.09 1.17-.19 1.18-.21.58-.11.59-.12 1.17-.24 1.18-.26a1.76 1.76 0 0 1 .74-.05.22.22 0 0 1 .14-.12c.37-.17.77-.33 1.17-.48l.31-.11.31-.12.63-.24a.72.72 0 0 1 .47 0c.2.13.12.22-.06.3zM60.68 22.69l-.14-.12.25.14.27.15.07.1.53.65-.08-.08-.22-.21zm-10.29.18l-.45-.32zm57.84 17.59a67.26 67.26 0 0 1-8.32-4.16l2.11.86 1.55.82.78.42.77.41 1.56.82.77.42.39.2zm-54-21.25a10.34 10.34 0 0 1 1.25.66l.52.36c.17.11.33.24.48.36.31 0 .64.07.95.13s.64.12 1 .21a43.39 43.39 0 0 1 4.83 1.59c-.14-.24.22-.1.42-.06l.6.16-.61-.26-.67-.26-.62-.25-.31-.12-.31-.13-.63-.24-.64-.24-.28-.12-.32-.12-.65-.23c-1.58-.55-3.38-1-5-1.44zm-13.78 1.61h-.19l.29-.39s-.05.16-.1.39zm-.43.64l.29-.05c-.07.13-.17.12-.31.05zm2.65-.38a2.41 2.41 0 0 0-.4-.07zm3.1 7.92c.16-.5.34-1 .53-1.5-.22.49-.42 1-.6 1.45z"/></g><path d="M158.75 80.69l-.6.12-.61.11-1.2.2-.34.07-.34.06-.69.11-.68.12-.34.06h-.34c-.9.12-1.8.27-2.7.36l-.68.08h-.67l-1.34.13h-1.34l-1.34.1-1.33.06H134.95c-.88-.07-1.76-.12-2.63-.22l-.66-.07h-.33L131 82l-1.31-.16-.66-.09-.65-.09-1.31-.2-1.31-.23-.65-.12-.65-.13-1.31-.27-.65-.15-.65-.15c-.87-.2-1.73-.43-2.6-.66l-.32-.09-.33-.09-.65-.19-.64-.19-.33-.09-.32-.11c-.86-.27-1.73-.54-2.58-.86l-7.3-2.8c-2.48-1-5-1.93-7.45-2.94-4.92-2-9.75-4.12-14.12-6.31 2.54 1.41 5.13 2.78 7.78 4.08l2 1 .5.24.51.23 1 .47 2 .93.52.22.52.23 1 .45a135.13 135.13 0 0 0 17.37 6c.37.11.75.2 1.12.3l1.13.29 1.13.27L123 81l1.14.25 1.15.24 1.15.23.58.12.58.1c3.09.57 6.23 1 9.42 1.31h1.2l1.2.09 1.21.06c.41 0 .81 0 1.22.06H148l1.25-.06h1.24l1.25-.1c.41 0 .83-.08 1.25-.12l1.25-.13 1.26-.17.63-.08h.63c-.28.26-.57.5-.87.75s-.62.48-.95.72-.67.45-1 .67-.72.41-1.1.61l-.58.28-.59.26-.62.24-.32.12-.32.1c-.42.13-.86.25-1.31.36l-.69.15-.7.1c-2.29.2-4.54.26-6.76.24s-4.39-.13-6.53-.3A101.47 101.47 0 0 1 122 85.2l.39-2.16a62 62 0 0 1-8.28-1.46 76.62 76.62 0 0 1-7.84-2.39c-2.55-.93-5-2-7.44-3.07l-.46-.21-.22-.1-.23-.11-.92-.43-1.77-.86-.85-.41-.86-.44-1.74-.89c-4.61-2.4-9.07-4.91-13.58-7.28a140.72 140.72 0 0 0-13.88-6.53c.49.61-.11.8-.41 1l-.13-.06.13.06c-.14.11-.22.22-.12.39a2.33 2.33 0 0 0 .91.69 2.33 2.33 0 0 1-.91-.69c-.1-.17 0-.28.12-.39 4.46 2.34 8.89 4.72 13.36 7.06s9 4.67 13.6 6.89l1.74.82.88.42.43.21.45.2 1.77.8.89.4.45.2.22.1.22.1q3.63 1.59 7.39 3c2.51 1 5.07 1.85 7.69 2.67s5.32 1.58 8.09 2.24c-.54-.12-1.08-.23-1.61-.36l-1.6-.39-1.59-.4-.39-.1-.39-.11-.79-.22-.78-.21-.78-.23-1.55-.45c-1-.32-2-.63-3.06-1s-2-.68-3-1-2-.71-3-1.09l-.74-.28-.37-.14-.36-.14-1.47-.57-1.46-.59-.73-.3-.71-.31-2.84-1.21-.7-.31-.7-.31-1.4-.63-1.41-.62-1.37-.65-1.38-.65-1.37-.65-2.71-1.33-.68-.33-.66-.34-1.34-.67-1.34-.68-.66-.34-.66-.34-2.65-1.37c-1.73-.92-3.49-1.84-5.21-2.77l-1.3-.69-.64-.35-.69-.32-2.57-1.39-5.1-2.77-2.5-1.36-2.54-1.37-.63-.34-.66-.36-1.27-.68-1.26-.67-.63-.34-.63-.33-2.53-1.32-2.53-1.3c-.84-.44-1.68-.86-2.52-1.28s-1.71-.86-2.5-1.24C37.55 47 36 46.25 34.4 45.6c-.53-.23-1.32-.54-2.1-.84-.39-.14-.78-.29-1.12-.4l-.5-.18-.42-.18a18.07 18.07 0 0 0-2.66-1.83 14.2 14.2 0 0 0-2.6-1.12 10.55 10.55 0 0 0-2.42-.48 6.56 6.56 0 0 0-2 .16 6.12 6.12 0 0 0-.16-1.14 10.79 10.79 0 0 0-.42-1.24c-.14-.42-.31-.85-.45-1.26a7.72 7.72 0 0 1-.35-1.21 2.53 2.53 0 0 1 0-1.13 1.45 1.45 0 0 1 .11-.26 1.58 1.58 0 0 1 .15-.24 1.07 1.07 0 0 1 .2-.23 1.38 1.38 0 0 1 .34-.22 3.37 3.37 0 0 1 .32-.19l.19-.09a1.31 1.31 0 0 1 .21-.08 4.21 4.21 0 0 1 .46-.14l.26-.06H23l.77.06c.28 0 .56.08.86.13l.15-2.21c-1.29-.43-2.53-.84-3.72-1.21s-2.33-.72-3.4-1.05l-.8-.24-.76-.24-.37-.12-.18-.06-.17-.06-.69-.24-.33-.13-.31-.13-.59-.26a6.8 6.8 0 0 1-1-.61 3.4 3.4 0 0 1-1-1.59 2.49 2.49 0 0 1-.09-.46v-.49a3.49 3.49 0 0 1 .47-1.12l.2-.31.11-.15.12-.15a8.23 8.23 0 0 1 .58-.62l.35-.32c.12-.11.25-.21.38-.31s.56-.42.88-.63a15.18 15.18 0 0 1 2.25-1.15l.32-.13.33-.13L18 19l.36-.11.37-.11.77-.19.44-.1h.22l.22-.05.89-.15h.45l.45-.06.44-.05h.45l.9-.07h2.67a36.88 36.88 0 0 1 6.88.85l.42.09.41.1.83.2.81.21.4.11.4.12.8.24.79.25c.53.17 1.05.36 1.57.54l.77.28.38.15.38.14 1.53.41c1 .41 2 .85 2.94 1.29l1.44.68.71.35.7.35.7.35.7.35.69.36.34.18.33.17 2.64 1.4.67.35.65.35 1.31.7 2.62 1.38c.87.46 1.74.91 2.62 1.35s1.72.88 2.59 1.3l1.3.63 1.29.61c5 2.43 9.82 4.86 14.53 7.36s9.25 5.1 13.62 7.87l1.13.72.57.35.57.35L100 52l2.36 1.28.6.32.3.16.3.15 1.2.59 1.21.6.6.29.61.28.6.28.3.14.31.13 1.21.54 1.23.52.61.25.62.25.61.24.62.25 1.24.47.62.23.62.22.62.23.62.22.62.21.62.22 1.25.41a6.4 6.4 0 0 0 .62.2l.62.2.62.2.62.19.62.19.31.1.31.09 1.24.36q2.48.7 4.91 1.35t4.84 1.18c.3 0 .6.09.92.12h4.15l1.1-.1a1.24 1.24 0 0 0 .27 0h.28l.54-.07.53-.06.53-.08 1-.15 1-.15h.47l.45-.07.86-.09a7.89 7.89 0 0 1 1.5-.07 3 3 0 0 1 1.14.22l.31.08.28.09a3.05 3.05 0 0 1 .48.23 2.25 2.25 0 0 1 .67.63 3.53 3.53 0 0 1 .52 1.75 44.68 44.68 0 0 1-5.8 1.12 49.33 49.33 0 0 1-6 .41c-2 0-4-.06-6.06-.24-1-.09-2-.21-3-.34l-1.51-.23-1.51-.26c-2.45-.53-4.89-1.18-7.3-1.94s-4.79-1.63-7.15-2.6-4.66-2-6.94-3.17l-.85-.44c-.29-.14-.57-.3-.86-.45l-1.7-.92-.85-.46-.84-.48-1.68-1 1.62 1 .81.51.82.48 1.66 1 .84.47.84.45q3.36 1.77 6.9 3.23t7.23 2.54a70.77 70.77 0 0 0 7.45 1.78l1.5.31 1.5.28.75.13.75.12 1.51.21q3 .39 6 .5h5.99a48.38 48.38 0 0 0 5.9-.81 11.23 11.23 0 0 0 .13 1.74 3.21 3.21 0 0 0 .7 1.55l.42-.12.21-.06h.24l.55-.18.61-.19.32-.1.31-.11 1.1-.4h.54L157 70c.33.06.64.14.93.22s.57.17.82.26a5.84 5.84 0 0 1 .71.33 4.09 4.09 0 0 1 1.86 1.84 4.63 4.63 0 0 1 .36 2.53 7.72 7.72 0 0 1-.31 1.42 9.14 9.14 0 0 1-.6 1.42c-.27.42-.57.86-.89 1.32s-.74.87-1.13 1.35z" fill="#ffd91d"/><path d="M2.82 63.82l.59-.12.59-.1 1.16-.2.33-.06.33-.06.66-.11.66-.11.32-.06h.33c.87-.12 1.74-.26 2.61-.35l.66-.08h.65l1.3-.12h.64l.65-.05 1.29-.09 1.29-.06H25.82c.85.06 1.7.12 2.54.21l.64.06h.63l1.27.16.64.08.63.1 1.26.19 1.27.22.63.12.63.12 1.26.26.63.15.63.14c.84.19 1.67.42 2.51.64l.32.08.31.09.62.18.63.19.31.09.32.1c.83.27 1.66.53 2.49.83 2.31.9 4.67 1.8 7.06 2.72s4.81 1.86 7.2 2.83c4.76 1.94 9.43 4 13.65 6.11-2.45-1.36-5-2.69-7.52-3.94L64.46 73l-.46-.2-.49-.22-1-.45-2-.9L60 71l-.5-.22-1-.43a131.81 131.81 0 0 0-16.79-5.78l-1.09-.28-1.08-.29-1.09-.27-1.1-.26-1.11-.24-1.11-.23-1.13-.21-.56-.11-.56-.1c-3-.55-6-1-9.11-1.26h-.58l-.58-.05-1.16-.09-1.17-.06H19.1L18 61H13.21l-1.2.06h-1.2l-1.21.1c-.4 0-.8.07-1.21.11l-1.21.13-1.22.16-.61.09h-.6a9.65 9.65 0 0 1 .84-.72c.29-.24.6-.47.92-.7s.64-.44 1-.65.69-.4 1.06-.59c.19-.1.37-.19.56-.27l.58-.25.6-.24.3-.11.31-.1c.41-.13.84-.24 1.27-.34.22-.06.44-.1.67-.15l.67-.1c2.22-.19 4.4-.24 6.54-.23s4.25.12 6.32.3a97.14 97.14 0 0 1 12 1.79L38 61.55A57.87 57.87 0 0 1 46 63a72.53 72.53 0 0 1 7.59 2.31c2.45.9 4.85 1.9 7.19 3l.44.2.22.1.21.1.86.42 1.71.83.85.41.84.43 1.68.87c4.45 2.31 8.77 4.74 13.13 7a136.94 136.94 0 0 0 13.42 6.3c-.47-.59.1-.76.4-1l.12.06-.14-.03c.13-.1.21-.22.12-.38a2.41 2.41 0 0 0-.89-.67 2.41 2.41 0 0 1 .89.67c.09.16 0 .28-.12.38-4.32-2.27-8.6-4.56-12.92-6.83s-8.67-4.51-13.15-6.66l-1.68-.8-.85-.4-.42-.2-.43-.19-1.72-.77-.86-.39-.43-.2-.21-.09-.22-.1c-2.34-1-4.71-2-7.14-2.92s-4.9-1.79-7.44-2.58-5.14-1.53-7.82-2.17l1.56.35 1.55.37 1.53.4.38.1.38.1.76.21.76.21.75.21 1.5.44c1 .31 2 .61 3 .94s2 .66 2.92 1 1.93.68 2.88 1l.72.27.36.13.35.14 1.42.56c.47.18.94.38 1.41.57l.7.28.69.3 2.75 1.17.68.3.68.3 1.35.61 1.35.61 1.33.63 1.33.62c.44.21.89.42 1.32.64l2.62 1.28.66.32.64.33 1.3.65 1.29.65.64.33.64.33L84 77.37c1.68.89 3.37 1.77 5 2.67.41.23.83.45 1.25.67l.63.34.62.34 2.5 1.34 4.94 2.68 2.46 1.34 2.45 1.32.61.33.61.33 1.22.65 1.23.65.61.33.61.32 2.41 1.32 2.44 1.26c.81.42 1.63.82 2.44 1.23s1.65.83 2.42 1.2a96.073 96.073 0 0 0 6.6 2.91c.38.13.75.28 1.09.39l.48.17.4.13a18.29 18.29 0 0 0 2.57 1.78 13.68 13.68 0 0 0 2.55 1.12 10.27 10.27 0 0 0 2.34.46 6.13 6.13 0 0 0 1.92-.16 5 5 0 0 0 .16 1.11 12.29 12.29 0 0 0 .35 1.2c.14.41.3.81.44 1.22a8 8 0 0 1 .34 1.17 2.35 2.35 0 0 1 0 1.09 1.52 1.52 0 0 1-.09.25c0 .08-.09.15-.15.23a2.05 2.05 0 0 1-.2.23 1.84 1.84 0 0 1-.25.21l-.31.18-.18.09-.2.08-.45.13h-1.79l-.75-.05c-.26 0-.54-.08-.83-.13l-.14 2.13c1.25.42 2.44.82 3.59 1.18s2.26.69 3.3 1l.76.24.74.22.36.12.17.06.17.06c.23.07.45.15.66.23l.32.13.3.12c.2.08.39.17.57.26a5.3 5.3 0 0 1 1 .58 3.32 3.32 0 0 1 1 1.54 3.58 3.58 0 0 1 .09.45 1.64 1.64 0 0 1 0 .22v.12a.69.69 0 0 1 0 .13 3.93 3.93 0 0 1-.46 1.09l-.19.29-.11.15-.12.14a6.14 6.14 0 0 1-.56.6 3.26 3.26 0 0 1-.33.31c-.12.11-.24.2-.37.3s-.55.41-.86.61a14 14 0 0 1-2.16 1.11l-.32.13a3 3 0 0 1-.32.12l-.67.23-.35.11-.36.11-.74.18-.43.1h-.43l-.86.15h-1.73l-.86.07h-2.58a35.47 35.47 0 0 1-6.66-.82l-.41-.09-.39-.09-.8-.2-.78-.21-.4-.1-.38-.12-.78-.23-.76-.24-1.51-.52-.75-.27-.37-.14-.37-.14-1.45-.59c-1-.4-1.91-.82-2.85-1.25-.46-.22-.93-.43-1.39-.66l-.69-.33-.68-.34-.67-.34-.68-.34-.66-.35-.34-.17-.31-.17-2.56-1.35-.64-.33-.63-.35-1.27-.67-2.53-1.34-2.53-1.3c-.84-.43-1.67-.85-2.51-1.26l-1.26-.61-1.28-.17c-4.8-2.36-9.5-4.71-14-7.13S68.29 97 64.06 94.29l-1.06-.7-.55-.34-.55-.33q-1.11-.67-2.25-1.32c-.75-.42-1.51-.83-2.28-1.24l-.58-.31-.28-.15-.29-.15-1.22-.57-1.17-.58-.58-.28-.59-.27-.58-.27-.29-.14-.29-.13-1.16-.51-1.18-.5-.6-.25L48 86l-.6-.24-.59-.23-1.2-.46-.6-.22-.6-.22-.6-.22-.6-.21-.6-.21-.6-.2-1.21-.41-.6-.19-.6-.19-.6-.19-.6-.19-.6-.18-.3-.09-.3-.09-1.2-.34c-1.6-.46-3.18-.89-4.76-1.3s-3.13-.78-4.68-1.15c-.28 0-.57-.08-.88-.12H21.6l-1.06.1h-.52l-.53.07-.52.06-.51.08-1 .14-.95.15h-.45l-.44.07-.83.09a7.33 7.33 0 0 1-1.45.06 3 3 0 0 1-1.1-.2L12 80l-.27-.08a2.47 2.47 0 0 1-.46-.23 2 2 0 0 1-.65-.6 3.37 3.37 0 0 1-.51-1.7 43.76 43.76 0 0 1 5.61-1.08 50.23 50.23 0 0 1 5.78-.4 57.45 57.45 0 0 1 5.85.24c1 .08 1.95.2 2.93.33l1.46.21 1.46.26c2.37.51 4.73 1.14 7.06 1.88s4.63 1.58 6.91 2.51 4.51 2 6.71 3.07l.83.42.82.43 1.65.89.82.44.81.47 1.63.94-1.56-1-.88-.48-.8-.46c-.53-.31-1.06-.62-1.6-.92l-.81-.46-.79-.43c-2.17-1.14-4.4-2.19-6.68-3.12s-4.62-1.75-7-2.46A69.11 69.11 0 0 0 33.15 77l-1.45-.3-1.45-.27c-.24 0-.48-.08-.73-.12l-.72-.12c-.49-.08-1-.14-1.46-.2-1.94-.26-3.89-.42-5.83-.49H15.72a47.5 47.5 0 0 0-5.71.78 10.47 10.47 0 0 0-.12-1.68 3 3 0 0 0-.68-1.5l-.4.12h-.44l-.53.17-.6.19-.3.1-.3.1-1.06.39h-.53l-.49-.08c-.31-.06-.62-.13-.9-.21s-.55-.16-.79-.25a7.47 7.47 0 0 1-.69-.31 4 4 0 0 1-1.79-1.68A4.4 4.4 0 0 1 0 69.2a6.88 6.88 0 0 1 .3-1.37 8.2 8.2 0 0 1 .57-1.38c.27-.4.55-.83.87-1.28s.7-.88 1.08-1.35z" fill="#9661ba"/><path d="M20.33 40.53c.24 0 .48 0 .71.06a6.42 6.42 0 0 1-.79.2l-1 .15h5.62s3.67.17 5.41.3c3.47.27 6.62.61 9.13.72a8.86 8.86 0 0 0 1.2.35 8.13 8.13 0 0 0 1.05.19 3.55 3.55 0 0 0 .81 0 .71.71 0 0 0 .46-.22c.17-.21 0-.54-.42-.89a5.3 5.3 0 0 0-.82-.54l-.53-.26-.61-.24-.55-.24a3.46 3.46 0 0 1-.48-.26 22.84 22.84 0 0 0-4.06-2.17A31.06 31.06 0 0 0 30 36l1.18.37 1.14.41-.85-.23-.43-.1-.45-.1-.93-.17q-.48-.07-1-.12c.13.11.31.22.44.33l-.79-.19H27.89l-.43-.07L27 36l-.45-.05-.93-.07h-1.95l-1 .07c-.33 0-.65 0-1 .1-.66.1-1.3.2-1.94.36-.31.08-.62.15-.92.24s-.6.18-.88.28l-.43.15-.4.16c-.27.11-.53.22-.77.34s-.48.23-.69.35-.43.25-.62.38a5.63 5.63 0 0 0-.51.36l-.4.34a2.46 2.46 0 0 0-.47.62.55.55 0 0 0 .24.81 1.93 1.93 0 0 0 .65.19H20.33z" fill="#40c9ff"/><path d="M27.72 43.28c-1.06-.24-2.12-.46-3.23-.61l-.41-.06h-.42l-.84-.08H21.1l-.48-.11.27.78v-.06c.13-.06.26-.13.4-.18l.42-.17.46-.15.24-.07h.24c.33-.09.68-.17 1-.24h.27l.27-.05.56-.08c.38-.06.75-.09 1.14-.12H30.42a1.54 1.54 0 0 0 1-.28c.15-.17 0-.38-.33-.58a3.38 3.38 0 0 0-.68-.29 7 7 0 0 0-.95-.22c-.14 0-.27-.05-.41-.06l-.42-.06-.84-.11-.81-.12-.35-.36h-.44l-.92-.07h-1.96q-.51 0-1 .06a20.43 20.43 0 0 0-2 .29l-.5.11h-.25l-.24.07q-.5.12-1 .27l-.23.07-.23.08-.44.17-.43.17-.41.18c-.26.13-.51.26-.75.4a6 6 0 0 0-.65.41 5.23 5.23 0 0 0-1 .84c-.22.26-.16.44 0 .58s.35.25.48.4.47.37 1.16.32c.35 0 .76-.08 1.21-.16l.34-.07h.36l.76-.16.39-.1.37-.08.71-.19.33-.1.32-.09c.2-.06.39-.13.56-.2l.48-.19a3.09 3.09 0 0 0 .37-.2c.21-.14.34-.28.36-.42h1.07l-.81.24a1.92 1.92 0 0 1 .63-.33 7.18 7.18 0 0 1 1-.25l.55-.09c.19 0 .38-.07.57-.09.38 0 .75-.09 1.1-.15h2c-.17-.22-.35-.44-.52-.67l-.14-.16-.13-.17-.28-.32h-.56l-.55.06c.08.06.24.14.23.14l-.79.12h-.79l-.79.14-.39.07-.4.09-.81.16-.82.19-.42.1-.21.05-.21.06L20 42l-.74.26-.73.27-.72.3-.37.15-.36.16c-.37.24-.5.43-.43.56s.35.19.81.17.9-.06 1.35-.07h-.62a30.57 30.57 0 0 1 4.53-.39 25.91 25.91 0 0 1 4.22.32 2.85 2.85 0 0 0 .65 0 1.61 1.61 0 0 0 .51-.09c.21-.11.05-.27-.38-.36zM17.7 44.36h-.37l-.39.05-.42.1-.22.06-.24.09-.25.2.45-.06.53-.05a2 2 0 0 0 .75-.18l.09-.06a.13.13 0 0 0 .06-.07.11.11 0 0 0 .01-.08zm-1.89.54l-.42.06h.37zm90.49 32.28l1 .49.52.25.52.23 1 .46 1 .45c1.39.6 2.8 1.14 4.21 1.68 2.83 1 5.7 2 8.58 2.72.19.05.37 0 .4 0s-.11-.16-.29-.2l-.54-.15-.54-.15-.54-.15-.26-.07-.27-.08c-.72-.22-1.43-.42-2.14-.66l-.95-.39-1-.36-.53-.18-.53-.19-1.06-.39-1.06-.4-1-.41c-.69-.28-1.39-.56-2.09-.86l-1-.44-1-.46-.52-.23-.52-.25-1-.49c-.19-.08-.37-.1-.42 0s-.15.14.03.23zm43.45 14.68c-.14.08-.12.16.05.19a.81.81 0 0 0 .5-.1c.12-.08.09-.17 0-.19a.85.85 0 0 0-.55.1z" fill="#40c9ff"/><path d="M149.33 98.05h-.18l-.18.05-.35.09-.68.19-.66.21-.62.2a1.07 1.07 0 0 1-.46 0c.06.12-.11.25-.46.34l-.33.08-.32.07-.66.13-.66.13-.33.07h-.33c-.45.08-.89.15-1.34.21l-.68.09-.68.08-.68.08h-.68l-1.38.1c-.46 0-.92 0-1.38.06h-6.97c-.92-.06-1.86-.12-2.78-.22l-.69-.06h-.7l-1.38-.15a.67.67 0 0 1-.36.22 3 3 0 0 1-1.14.12 7 7 0 0 1-1.5-.25l-.77-.26c-.78-.22-1.55-.47-2.32-.7l-1.16-.37-1.15-.38-1.14-.39-.57-.2-.28-.1-.28-.1L112 97l-.56-.21-.56-.22a12 12 0 0 1-2.2-.45l-2-.42c-.68-.15-1.37-.3-2-.47l-1-.25-.25-.07-.26-.06-.51-.14-1-.28-.26-.08-.25-.07-.5-.16c.13.15.19.29.14.39s-.82.16-1.52-.15L98 93.91l1.49.74 1.48.74a3 3 0 0 1 .4.2l.85.35.86.34 1.76.64a82.85 82.85 0 0 0 15.73 3.81 76.83 76.83 0 0 0 15.81.64 1.2 1.2 0 0 1 .6.06c.1.07.07.15-.12.18-3.34.53-6.51 1-9.8 1.2a51.2 51.2 0 0 1-10.47-.32c-2.24-.31-4.45-.68-6.65-1.12s-4.37-1-6.54-1.54l-1.62-.44-.8-.23-.81-.24-.81-.24-.79-.25-1.57-.51-1.59-.51-1.57-.55-1.54-.56-.79-.3-.78-.3-12.2-5.66-1.53-.67-.72-.37-.74-.35-3-1.4-3-1.43-.76-.36-.75-.36-1.51-.74c-5.44-2.64-10.58-5.36-15.59-7.91l-1.87-1-.93-.45-.47-.24-.46-.24-1.86-.94-.93-.47-.92-.46-1.85-.92-.46-.23-.18-.1-.22-.11-.88-.42c-1.16-.55-2.3-1.07-3.42-1.55l-.32-.13-.31-.12-.61-.26-.57-.27-.28-.14-.26-.14a11.71 11.71 0 0 1-1.82-1.19 6.88 6.88 0 0 1-.68-.62 5.51 5.51 0 0 1-.5-.63 2.28 2.28 0 0 1-.42-1.24 1.53 1.53 0 0 1 .68-1.23 3.14 3.14 0 0 1 .8-.39 5.36 5.36 0 0 1 1.07-.2l-.41-.14-.41-.14-.31-.14-.31-.14-.62-.27a7.52 7.52 0 0 1-2.62-1.72l-.38-.4-.19-.2-.2-.19a6.11 6.11 0 0 0-.41-.51l-.23-.25-.24-.25-.26-.24-.26-.24-.27-.23-.14-.12-.14-.11-.59-.47-.54-.44-.26-.22-.24-.22c-.16-.15-.32-.3-.46-.46.06-.17.13-.33.2-.5l-.26-.13c-.22-.07-.41-.15-.6-.23l-.26-.13-.24-.14a2 2 0 0 1-.68-.62v-.61a2.77 2.77 0 0 1 .33-1.06c.05-.09.1-.18.16-.27l.09-.13a1.47 1.47 0 0 1 .1-.13 3.94 3.94 0 0 1 .49-.52.93.93 0 0 1 .21-.77 2.42 2.42 0 0 1-.83-.87 1 1 0 0 1 .13-1c-.48-.12-.44-.39.11-.6l.32-.1.35-.06-.39-.18-.4-.15h-2.08l-.48.06h-.31l-.38.05a5.57 5.57 0 0 1-.7 0h-1.02l-.48-.22-.36-.15a2.11 2.11 0 0 1-.44-.23c-.19-.14-.19-.26-.18-.51a1.68 1.68 0 0 1 .18-.21c-1 .2-1 .24-1.32.3a3.11 3.11 0 0 1-.51 0c-.15-.21-.15-.21-.34-.22a.31.31 0 0 1-.1-.1c.41-.49.41-.49.39-.57a2.63 2.63 0 0 1 .25-.25l.39-.23.28-.14.29-.16c.8 0 1.2.1 1.39.12h.2l.24-.3.23.11H17.91l-.22-.19h.65-.77c1.69-.36 1.69-.32 2.35-.47.35-.06.66-.11.9-.17l.44-.1a.27.27 0 0 1-.08-.13h3.46L25 44a1.65 1.65 0 0 1 .79-.09l.86.07h.18l.72-.09h.13l1-.1H30.75l.35.08h.33l.64.18-.37-.19c-.24-.13 0-.32-.1-.37a25.4 25.4 0 0 0-5.48-1.14 29.32 29.32 0 0 0-6.34.06 5.8 5.8 0 0 1-1.08.15 1.09 1.09 0 0 1-.62-.1c-.08-.08 0-.2.23-.33a3.73 3.73 0 0 1 1-.34 24 24 0 0 1 6.93-1.25H29.72l.85.08.83.11.42.06.41.08.82.14a35.28 35.28 0 0 1 6.05 1.8 38 38 0 0 1 5.11 2.5q2.52 1.22 4.89 2.51l-.18-.22 1.18.76.13.08c-.25-.29-.5-.57-.76-.85l-.61-.43-.7-.37-.7-.36-1.37-.75-2.76-1.48c-.93-.49-1.89-1-2.87-1.44l-.74-.35-.38-.17-.34-.17-.78-.33-.8-.32-1.71-.66c-.57-.22-1.12-.44-1.69-.64l-.47-.12-.21-.08-.22-.07-.88-.29-.24-.11-.23-.07-.45-.13c-.31-.09-.62-.18-.95-.26-.67-.11-1.12-.31-1-.48s.75-.21 1.41-.1a38.42 38.42 0 0 1 6.39 1.2c.26.06.51.14.76.21l.75.23c.25.07.49.15.73.24l.37.12.18.06.18.06.71.26.35.13.34.14.69.27.67.29a39 39 0 0 1 4.84 2.51 27.85 27.85 0 0 1 3.8 2.75l.82.43.39.23.18.12.18.11a11 11 0 0 1 1.26 1l-.49-.66c.76.49 1 1 1.72 1.46v-.58c3.78 2.29 8 4.4 11.14 6.95l.38.26c.84.27 1.67.53 2.52.86.43.16.86.33 1.29.52s.87.4 1.32.64l-1.7-1.13c.7.26 1.37.54 2 .85s1.35.65 2 1c.91.53 1.83 1.11 2.72 1.71l1.29.93c.42.31.82.63 1.21.94s.75.64 1.1 1 .67.62 1 .93a10 10 0 0 1 1.39 1.76l.67.35.67.34 1.33.69 1.34.69 1.33.68 1.34.67 1.33.66 2.73 1.3c3.57 1.69 7.14 3.27 10.72 4.67.37.14.66.37.67.53s-.32.18-.69 0l-.25-.07-.25-.09-.49-.17-1-.35-1-.35-.49-.18-.5-.18-2-.78c-.66-.26-1.32-.52-2-.8l-2-.85-1-.43-1-.45-2-.9-.36-.19-.49-.24-1-.47a141.14 141.14 0 0 0 12.82 6.93l1.73.71c.15 0 .29.12.43.18l.42.19q.4.19.81.42l2.13.9 1 .42c.35.14.69.29 1 .42.71.27 1.4.54 2.11.79l1 .37 1.06.36.53.18.53.17 1.07.33.53.16.54.15.54.16.54.14 1.09.28.55.14.55.12 1.11.25 1.13.21a69.46 69.46 0 0 0 7.36 1h.89l.89.06 1.79.07h3.81l1.29-.07 1.26-.09h.62l.61-.06.61-.07.6-.08.6-.08h.3l.3-.05 1.17-.19 1.15-.21h.29l.28-.07.56-.12.57-.11.55-.14.55-.13.28-.07.27-.07 1.09-.29 1.07-.31c1.42-.43 2.81-.91 4.19-1.44a2.72 2.72 0 0 1 1-.27 1.62 1.62 0 0 1 .41 0 .46.46 0 0 1 .27.16c.12.15.09.36-.07.59l-.07.09-.07.08-.19.16a3.73 3.73 0 0 1-.49.29 37 37 0 0 1-4.51 1.92l-1.19.4-1.22.36c-.82.22-1.64.44-2.49.61a50.8 50.8 0 0 1-5.2.82 57.1 57.1 0 0 1-5.43.25H133.02l-1.4-.09h-.7l-.7-.07-.71-.06-.7-.09c-.47-.06-1-.1-1.42-.18l-1.39-.4-1.42-.25c-1.9-.35-3.8-.79-5.71-1.3l-1.42-.4-1.45-.43c-.48-.14-1-.31-1.43-.46l-.71-.24-.71-.26c-1.64-.57-3.24-1.2-4.82-1.84a.41.41 0 0 1 0 .16c-.07.19-.29.31-.61.35l.68.29.67.28.68.29.34.14.34.14 1.36.57 1.37.55 1 .25 1 .24 2 .47 2 .43 1 .21.5.11.51.1c2.69.55 5.4 1.07 8.18 1.63 1.91.37 3.72.74 5.5 1.07l1.34.24 1.32.21c.45.08.89.13 1.33.19l.66.09h.67a49.19 49.19 0 0 0 12.94-2.45.5.5 0 0 1 .43 0c.08 0 0 .14-.15.22l-1 .46c-.35.15-.71.28-1.07.42l-.32.2-.27.1-.55.18-.56.19-.28.09-.28.08-1.14.33H147.63l-.29.07-.58.14-.59.14-.59.12-.6.12-.6.11a2 2 0 0 1 .63.34.58.58 0 0 1 .22.46.76.76 0 0 1-.23.53 1.58 1.58 0 0 1-.31.24 3.13 3.13 0 0 1-.41.2h1.14l1.13-.1c.46-.05.85 0 .86.21s-.35.36-.79.42l-1.17.11h-1.17l-1.17.07h-8.73c-.95 0-1.9-.08-2.85-.17h-.72l-.71-.07-.71-.08h-.72l-1.42-.19c-.24 0-.48-.06-.71-.1l-.72-.11a2.48 2.48 0 0 1 .95 1l1.78.27h1.02l1 .06H136.71a76.23 76.23 0 0 0 8.16-.57 62.53 62.53 0 0 0 8-1.55l.25-.06.24-.07.48-.14.49-.14.24-.07h.24l1-.31.48-.16.47-.17.95-.34h.24l.23-.09.47-.19.47-.18.23-.09.23-.11.92-.4c.19-.09.38-.1.42 0s-.09.19-.26.27l-1.12.49c-.38.16-.76.3-1.14.45l-.28.12-.29.11-.58.2-.57.21-.29.11-.29.09-1.17.38H154.64l-.29.09-.59.17-.59.17-.6.15-.59.15c-.2 0-.4.11-.6.15.14 0 .19.1.06.19a1 1 0 0 1-.51.1c-.16 0-.16-.11 0-.18-1.49.35-3 .6-4.51.84l-1.15.16H144.7l-.57.06-.57.07-.58.06-1.15.1c-.38 0-.77.05-1.15.08h-8.11a79.29 79.29 0 0 0 8.57.32h2.13l1.07-.07h1.06l1.07-.09h.53l.52-.06h1.06l1.06-.14.44-.15.44-.16.89-.33a.67.67 0 0 1 .47 0c.06 0 0 .16-.21.21l-.5.17a7.22 7.22 0 0 1 .75-.07 3.18 3.18 0 0 1 .63 0c.36.06.6.19.64.39s-.17.45-.52.67c-.09 0-.18.11-.29.16a2.52 2.52 0 0 1-.33.14 7.52 7.52 0 0 1-.79.21l-.57.13-.28.06h-.28l-1.14.21-.28.06h-.29l-.57.09-.57.08-.57.08-1.15.13h-1.27l-1.16.09h-1.15l-.5.05h-.49l-1 .2a64.5 64.5 0 0 0 7.22-.15 54.22 54.22 0 0 0 7.16-1.06c.4-.11.77-.09.82 0s-.24.34-.65.46a49.16 49.16 0 0 1-6.28 1.67 52.24 52.24 0 0 1-6.48.86 65.43 65.43 0 0 1-6.57.15h-1.64l-1.64-.1-1.64-.14h-.81l-.82-.09a88.57 88.57 0 0 1-9 .18l1.1.28a49 49 0 0 0 6.94 1.06 61.2 61.2 0 0 0 6.76.11c.56 0 1.12 0 1.67-.08l.84-.06.83-.06 1.67-.15 1.67-.18c2.23-.27 4.47-.6 6.78-1 .23 0 .43 0 .47.06s-.11.16-.35.2c-2.25.42-4.42.79-6.61 1.08a65.44 65.44 0 0 1-6.67.55c-3.8.1-7.41-.1-11-.31a61.59 61.59 0 0 0 10.64.87c1.77 0 3.54-.07 5.31-.19l1.33-.1h.67l.67-.06.67-.07h.66l1.34-.17a3.73 3.73 0 0 1 .46 0 1.46 1.46 0 0 1 .38 0s.07-.09.17-.12l.67-.21.34-.1.35-.1 1.44-.4h.3a.57.57 0 0 1 .24 0c.24-.04.13.08-.07.13zm-108-48.51l-.14-.15.54.37.08.11.52.77-.33-.34-.32-.36zm-11.43-.93l-.33-.3-.1-.08zm62.83 24.52c-.77-.4-1.54-.8-2.3-1.21l-1.13-.64-1.13-.66c-1.5-.87-3-1.82-4.4-2.81l2.28 1.12zM34.57 45a3.1 3.1 0 0 1 .36.21 2.7 2.7 0 0 1 .33.22 7.3 7.3 0 0 1 .61.43c.19.15.36.3.53.45s.34.3.49.45c.35.07.69.15 1 .24l1 .33a52.86 52.86 0 0 1 5.15 2.24c-.14-.29.26-.1.47 0l.64.23c-.43-.23-.85-.46-1.29-.68l-.65-.34-.66-.33-.55-.33-.68-.33-.68-.32-.35-.17-.34-.15c-1.73-.77-3.64-1.46-5.38-2.15zm-15.65.32h-.22l.33-.37L19 45c0 .11 0 .22-.08.35zm-.56.69h.34c-.09.13-.2.12-.34-.01zm3.09-.23a1.76 1.76 0 0 0-.45-.1zm2.67 9c.05-.13.11-.27.17-.4a2.87 2.87 0 0 1 .18-.4c.12-.27.25-.53.38-.79-.14.25-.29.5-.42.76l-.39.78z" fill="#40c9ff"/></g></svg>