<svg viewBox="0 0 120 120" xmlns="http://www.w3.org/2000/svg"><path d="m37.62 96.18c0 .19-.09.38-.14.57.07-.16.15-.31.21-.48z" fill="#4dc9ff"/><path d="m38.1 91.24c0 1.39-.31 4.93-.31 4.93v.13a4 4 0 0 1 -.14.57 8.16 8.16 0 0 1 -3.57 5.37 5.9 5.9 0 0 1 -1 .41 48.11 48.11 0 0 1 -7.4 1.68c-5.79.88-11.45.87-12.35-.13l-.18-.21c-1.8-2-5.54-6.1-5.54-15a56.84 56.84 0 0 1 .43-7.06 32 32 0 0 1 2.46-9.57 4.34 4.34 0 0 1 1.38-1.83 2.94 2.94 0 0 1 .77-.3h.17a27 27 0 0 1 4.08-.66 32.89 32.89 0 0 1 9.81.88l.45.16c4 1.28 10.59 3.42 9.67 18.06v.21l1 .07a12.48 12.48 0 0 1 .27 2.29z" fill="#4dc9ff"/><g fill="#fff"><path d="m37.69 96.27c-.06.17-.14.32-.21.48.05-.19.1-.38.14-.57z" opacity=".45"/><path d="m6.25 76.72 2.28 2.27.01.01 23.87 23.87.05.06 1.34 1.33 3.72-3.71-.73-.72-.2-.21-.06-.06-.1-.1-26.26-26.25-.02-.02-.86-.87-2.59 2.59z" opacity=".4"/><path d="m40 96.54c-.1.51-1.15 1.94-1.3 2.41l-28-28 1.86-1.86z" opacity=".4"/></g><path d="m38 35.22a17.86 17.86 0 0 1 -.14 2.33h-.11v.24c0 4.52-.63 7.85-1.85 10.33a8.17 8.17 0 0 1 -1.67 3.36 10.35 10.35 0 0 1 -2.07 2 16 16 0 0 1 -5 2.34l-.39.17a14.57 14.57 0 0 1 -2.14.49c-4.22.69-10.78.55-12.54-.45s-4.2-8.45-4.2-18.41c0-.91 0-1.78.11-2.58a20.63 20.63 0 0 1 2.78-9.1 20.28 20.28 0 0 1 1.76-2.44c.29-.35.56-.65.8-.91l.18-.22a2.86 2.86 0 0 1 2.13-.46c3.84-.62 11.79.17 17.32 2 4.44 1.5 5.03 7.73 5.03 11.31z" fill="#4dc9ff"/><path d="m35.83 53.5a14.17 14.17 0 0 1 -4 3.38l-2-2-.1-.1-21.53-21.46-.12-.12-2.34-2.35.09-.34a22.07 22.07 0 0 1 .79-2.59c.1-.24.19-.48.29-.71l1.31-1.31 1.78 1.73 24 24z" fill="#fff" opacity=".4"/><path d="m9.75 24.51 1.86-1.86 26.76 26.76c-.19.44-1.31 1.79-1.51 2.2z" fill="#fff" opacity=".4"/><path d="m37.62 96.18c0 .19-.09.38-.14.57.07-.16.15-.31.21-.48z"/><path d="m37.62 96.18c0 .19-.09.38-.14.57.07-.16.15-.31.21-.48z"/><path d="m40.58 88.63c0-16.74-8.48-19.45-12.43-20.72l-.5-.19a25.58 25.58 0 0 0 -6-1 14.88 14.88 0 0 1 -.44-3.56 14.42 14.42 0 0 1 .4-3.48 27.14 27.14 0 0 0 6.06-1l.39-.14a21.16 21.16 0 0 0 4.17-1.7 13.91 13.91 0 0 0 4-3.38 14.74 14.74 0 0 0 1.82-2.82c.21-.41.4-.83.59-1.27a30.25 30.25 0 0 0 1.92-11.58v-.07-.19a16.36 16.36 0 0 0 .18-2.35c0-7.51-2.48-12.48-7-14a57.18 57.18 0 0 0 -15.26-2.48 3.92 3.92 0 0 0 -2.2-1.56c-1.16-.16-2.05.65-3.11 2.14a4.09 4.09 0 0 0 -1.85 1.13l-.21.22a22.16 22.16 0 0 0 -4.27 6.51c-.1.23-.19.47-.29.71a22.07 22.07 0 0 0 -.79 2.59l-.09.34a29.13 29.13 0 0 0 -.67 6.84c0 8.82 2 18.85 5.67 20.94.14.08.28.14.43.21a19.13 19.13 0 0 1 .7 4.42 18.15 18.15 0 0 1 -.71 4.51l-.4.19c-1.72 1-3 3.61-4 7 0 .13-.08.27-.11.4-.1.37-.2.76-.29 1.16a1.84 1.84 0 0 0 0 .25 57.91 57.91 0 0 0 -1.29 12.14c0 10 4.17 14.69 6.14 16.88l.2.24a4 4 0 0 0 1.8 1.12c1.26 1.8 2.15 2.42 3.19 2.27a4.06 4.06 0 0 0 2.29-1.67 57.46 57.46 0 0 0 15.18-2.47c2.95-1 5-3.46 6.11-7.19a13.34 13.34 0 0 0 .37-1.48 26.19 26.19 0 0 0 .49-5.3 16.54 16.54 0 0 0 -.18-2.36zm-32.83-51c0-.91 0-1.77.11-2.58 0-.32.06-.64.1-.94l.04-.42c0-.15 0-.29.06-.43v.11-.14a18.06 18.06 0 0 1 .5-2.16c.05-.19.11-.38.17-.56a10.32 10.32 0 0 1 .37-1.07 14.49 14.49 0 0 1 .78-1.77s0 0 0 0c.3-.55.58-1 .88-1.51l.24-.36.28-.39c.16-.22.32-.44.48-.63.3-.39.6-.74.87-1a0 0 0 0 0 0 0c.3-.35.59-.65.85-.92l.19-.21a4.16 4.16 0 0 1 2.33-.73c1.89 0 11.32.33 16.46 1.84l.53.17c4.42 1.48 5.01 7.71 5.01 11.29a17.86 17.86 0 0 1 -.14 2.33h-.11v.24 1.5.71.2c0 .33 0 .65-.07 1s-.07.84-.12 1.24-.08.64-.13 1-.11.67-.16 1-.15.68-.23 1-.1.43-.15.64-.1.33-.14.49-.11.37-.17.55-.08.26-.13.39a3.38 3.38 0 0 1 -.49.69c-.09.23-.18.43-.27.64-.18.38-.36.73-.55 1.07s-.43.72-.64 1a7.15 7.15 0 0 1 -.44.6l-.1.12a11.18 11.18 0 0 1 -1.4 1.43c-.18.15-.35.29-.53.42a6.87 6.87 0 0 1 -.65.45 6.11 6.11 0 0 1 -.65.38 2.75 2.75 0 0 1 -.38.2 5.12 5.12 0 0 1 -.58.28l-.45.2c-.29.13-.59.24-.88.34l-.5.18-.86.28-.39.17a13.77 13.77 0 0 1 -2.13.49 36.27 36.27 0 0 1 -11.28 0l-.32-.08a3.65 3.65 0 0 1 -.91-.33c-1.84-.99-4.3-8.47-4.3-18.39zm23.69 65.56c-.22.07-.45.12-.69.18-.39.09-.78.19-1.18.27s-.8.18-1.21.25c-.8.16-1.62.3-2.44.42a58 58 0 0 1 -6.2.6 30.29 30.29 0 0 1 -3.32 0c-1.53-.09-2.62-.33-3-.72l-.2-.21a19 19 0 0 1 -4.67-8c-.16-.59-.31-1.2-.44-1.85-.05-.22-.08-.43-.12-.67-.08-.44-.14-.92-.2-1.4a27.85 27.85 0 0 1 -.12-3.06c0-.95 0-1.88.06-2.78 0-.61.07-1.19.11-1.78 0-.28 0-.56.08-.85q.07-.85.18-1.65c0-.26.07-.52.1-.78s.08-.51.13-.76.07-.51.12-.75a2.87 2.87 0 0 1 .05-.31l.06-.34c0-.2.07-.39.12-.59l.11-.55c0-.11.05-.23.07-.34l.16-.64c.11-.42.22-.83.33-1.21.06-.2.12-.39.17-.57s.12-.36.17-.53a1.46 1.46 0 0 1 .07-.19c.12-.34.23-.66.35-1 0-.07.06-.15.09-.21a1.54 1.54 0 0 0 .08-.19l.14-.31c0-.14.13-.27.18-.39a8 8 0 0 1 .55-.95 2.86 2.86 0 0 1 .77-.83.18.18 0 0 1 .08-.05 2.94 2.94 0 0 1 .77-.3h.15a2.33 2.33 0 0 1 .5-.25c.24-.06.49-.09.76-.14l.39-.06h.3.13l.49-.05h.48.36.64a32.89 32.89 0 0 1 9.81.88l.45.16c4 1.28 10.59 3.42 9.67 18.06v.21l1 .07a12.48 12.48 0 0 1 .2 2.33v.83a.61.61 0 0 1 0 .14 3.29 3.29 0 0 1 0 .54c0 .34 0 .71-.08 1.08l-.06.58c-.07.53-.15 1.07-.26 1.6 0 0 .14.13.14.13l-.1.09c-.06.17-.14.32-.21.48s-.13.49-.22.74a5.55 5.55 0 0 1 -.25.72 2 2 0 0 1 -.12.31.11.11 0 0 0 0 .06s0 0 0 0l-.12.26-.29.55a.47.47 0 0 1 0 .1h.49v.13a.35.35 0 0 1 -.08.13.13.13 0 0 1 0 .07s0 .06-.06.1l-.27.4c-.08.12-.18.24-.27.35a2.51 2.51 0 0 1 -.31.35l-.3.3s0 0 0 0a3 3 0 0 1 -.33.27l-.27.2c-.17.11-.34.23-.51.32a5.9 5.9 0 0 1 -1 .41c-.25.07-.5.16-.74.22l-.22.06z"/><path d="m94.43 50.55v25.21h14.86v-28a3.68 3.68 0 0 0 -5-3.45l-7.49 2.78a3.7 3.7 0 0 0 -2.37 3.46z" fill="#fc0023"/><path d="m101.86 47.78v28h7.43v-28a3.68 3.68 0 0 0 -5-3.45h-.06a3.69 3.69 0 0 0 -2.37 3.45z" fill="#c80018"/><path d="m92.57 67.4h18.57v15.78h-18.57z" fill="#4cbcf0"/><path d="m101.86 67.4h9.28v15.78h-9.28z" fill="#3a95be"/><path d="m89.79 76.69h23.21v30.64h-23.21z" fill="#266e8e"/><path d="m101.86 76.69h11.14v30.64h-11.14z" fill="#114259"/><path d="m100 97.11h3.71v3.71h-3.71z" fill="#4cbcf0"/><path d="m101.86 107.33h-78.92l24.14-52h29.71z" fill="#ff6849"/><path d="m47.08 49.76h29.71v5.57h-29.71z" fill="#063e8b"/><path d="m82.36 27.16v15.3a7.21 7.21 0 0 1 -7.11 7.3h-26.08a7.88 7.88 0 0 1 -7.66-7.3v-15.3l2.78.48v-12.93a2.26 2.26 0 0 1 2.2-2.09h.36a2.1 2.1 0 0 1 2.09 2.09v13.74l3.85.73a12.07 12.07 0 0 1 8.46 6.31 1.5 1.5 0 0 0 2.65 0 12.05 12.05 0 0 1 8.46-6.31l3.5-.67v-13.8a2.1 2.1 0 0 1 2.14-2.09h-.42a2 2 0 0 1 2 2.05v13z" fill="#ff6849"/><path d="m101.86 107.33h-39.93v-52h14.86z" fill="#fd4b2d"/><path d="m61.93 49.76h14.86v5.57h-14.86z" fill="#032e68"/><path d="m82.36 27.15v15.31a7.3 7.3 0 0 1 -7.3 7.3h-13.13v-13.48a1.4 1.4 0 0 0 1.46-.79 11.65 11.65 0 0 1 8.16-6.3l3.38-.68v-13.8s1.34-2.09 2.49-2.09c1.15 0 2.15 2.09 2.15 2.09v13z" fill="#fd4b2d"/><path d="m77.42 12.62a1 1 0 0 1 .17 0h.15a2 2 0 0 1 1.83 2v13l1.86-.37.93-.19v15.3a7.21 7.21 0 0 1 -7.11 7.3h1.54v5.57l13 27v-5.6h2.78v-9.23h1.86v-16.85a3.7 3.7 0 0 1 2.4-3.46l7.49-2.78a3.67 3.67 0 0 1 5 3.45v19.64h1.85v9.29h1.83v30.64h-90.06l24.14-52v-5.57h2.09a7.88 7.88 0 0 1 -7.66-7.3v-15.3l2.78.48v-12.93a2.26 2.26 0 0 1 2.2-2.09h.36a2.1 2.1 0 0 1 2.09 2.09v13.74l3.85.73a12.07 12.07 0 0 1 8.46 6.31 1.43 1.43 0 0 0 1.13.78 1.41 1.41 0 0 0 1-.78 11.65 11.65 0 0 1 8.16-6.3l3.38-.68v-13.8s1.34-2.09 2.49-2.09m0-2c-2 0-3.59 2.11-4.17 3a1.94 1.94 0 0 0 -.32 1.07v12.18l-1.77.36a13.42 13.42 0 0 0 -8.85 6.11 14 14 0 0 0 -9.15-6.12l-2.22-.43v-12.08a4.1 4.1 0 0 0 -4.09-4.09h-.36a4.28 4.28 0 0 0 -4.19 3.91v.18 10.55l-.44-.08h-.34a2 2 0 0 0 -1.29.47 2 2 0 0 0 -.71 1.53v15.3a1.15 1.15 0 0 0 0 .19 10.18 10.18 0 0 0 5.56 8.15v4.09l-24 51.59a2 2 0 0 0 1.82 2.85h90.11a2 2 0 0 0 2-2v-30.66a2 2 0 0 0 -1.86-2v-7.29a2 2 0 0 0 -1.85-2v-17.64a5.68 5.68 0 0 0 -7.67-5.33l-7.49 2.79a5.7 5.7 0 0 0 -3.7 5.33v14.86a2 2 0 0 0 -1.86 2v7.29h-.78a2 2 0 0 0 -1.24.43l-9.76-20.25v-3.88a9.31 9.31 0 0 0 5.57-8.57v-15.27a2 2 0 0 0 -.73-1.55 2 2 0 0 0 -1.27-.46 2.58 2.58 0 0 0 -.39 0l-.4.08v-10.52a4 4 0 0 0 -3.57-4.06h-.23-.3z"/><path d="m77.42 10.63a1.42 1.42 0 0 1 .3 0h.28a4 4 0 0 1 3.62 4.05v10.59l.4-.08a2.56 2.56 0 0 1 .39 0 2 2 0 0 1 1.27.45 2 2 0 0 1 .73 1.55v15.28a9.31 9.31 0 0 1 -5.62 8.53v3.85l9.76 20.24a2 2 0 0 1 1.24-.43h.78v-7.25a2 2 0 0 1 1.86-2v-14.86a5.71 5.71 0 0 1 3.7-5.33l7.49-2.78a5.68 5.68 0 0 1 7.67 5.32v17.65a2 2 0 0 1 1.85 2v7.28a2 2 0 0 1 1.86 2v30.64a2 2 0 0 1 -2 2h-90.06a2 2 0 0 1 -1.69-.92 2.16 2.16 0 0 1 -.29-.84c-.8.06-1.59.1-2.33.11a4.06 4.06 0 0 1 -2.29 1.67h-.29c-.92 0-1.76-.66-2.9-2.29a4 4 0 0 1 -1.8-1.12l-.2-.24c-1.97-2.17-6.15-6.83-6.15-16.86a57.91 57.91 0 0 1 1.25-12.12 1.44 1.44 0 0 1 0-.24c.09-.4.19-.79.29-1.16 0-.13.07-.27.11-.4 1-3.42 2.27-6.06 4-7l.4-.2a18.07 18.07 0 0 0 .71-4.51 19.22 19.22 0 0 0 -.7-4.42l-.43-.2c-3.63-2.12-5.63-12.15-5.63-20.97a29.13 29.13 0 0 1 .74-6.77l.09-.34a21.89 21.89 0 0 1 .79-2.58c.1-.24.19-.49.29-.72a22.3 22.3 0 0 1 4.27-6.51l.21-.22a4.17 4.17 0 0 1 1.85-1.12c1-1.38 1.8-2.17 2.82-2.17a1.42 1.42 0 0 1 .29 0 3.92 3.92 0 0 1 2.2 1.56 57.58 57.58 0 0 1 15.26 2.48 9.36 9.36 0 0 1 5.7 5.95 2 2 0 0 1 .71-1.53 2 2 0 0 1 1.29-.47h.34l.44.07v-10.54c0-.06 0-.11 0-.17a4.28 4.28 0 0 1 4.19-3.91h.36a4.09 4.09 0 0 1 4.09 4.08v12.09l2.22.42a14 14 0 0 1 9.15 6.13 13.47 13.47 0 0 1 8.85-6.12l1.77-.36v-12.16a1.94 1.94 0 0 1 .32-1.07c.58-.91 2.14-3 4.17-3m-40.88 62.66 8.55-18.41v-4.09a10.15 10.15 0 0 1 -5.1-6 23.7 23.7 0 0 1 -1.32 4.59c-.19.45-.38.86-.59 1.27a15.15 15.15 0 0 1 -1.82 2.83 14.07 14.07 0 0 1 -4 3.38 21.68 21.68 0 0 1 -4.25 1.71l-.39.14a26 26 0 0 1 -6.06 1 14.42 14.42 0 0 0 -.4 3.48 15 15 0 0 0 .44 3.57 26.07 26.07 0 0 1 6 1l.5.2a15.68 15.68 0 0 1 8.38 5.38m40.95-64.72c-2.91 0-4.92 2.46-5.86 3.93a4 4 0 0 0 -.63 2.15v10.52h-.17a15.27 15.27 0 0 0 -8.48 4.8 16 16 0 0 0 -8.74-4.82l-.6-.11v-10.39a6.09 6.09 0 0 0 -6.09-6.08h-.36a6.29 6.29 0 0 0 -6.18 5.73s0 .07 0 .1a2.09 2.09 0 0 0 0 .25v8.64a2.35 2.35 0 0 0 -.44.17 10.5 10.5 0 0 0 -5.41-4.17 59.67 59.67 0 0 0 -15-2.56 5 5 0 0 0 -2.82-1.56 3.86 3.86 0 0 0 -.58 0c-1.81 0-3.08 1.2-4.08 2.51a5.74 5.74 0 0 0 -2.06 1.42l-.19.2-.05.05a24.24 24.24 0 0 0 -4.61 7.06c-.06.13-.12.29-.19.45s-.07.19-.11.28v.08a25.77 25.77 0 0 0 -.88 2.72v.15.15s0 0 0 .06a31.81 31.81 0 0 0 -.89 7.26 58.1 58.1 0 0 0 1.5 13.47c1.13 4.62 2.77 7.65 4.87 9a14.49 14.49 0 0 1 .43 3.07 14.72 14.72 0 0 1 -.43 3.17c-1.95 1.29-3.45 3.91-4.59 8 0 .15-.09.31-.13.47-.1.37-.2.76-.29 1.16a2.33 2.33 0 0 0 -.08.37 59.88 59.88 0 0 0 -1.28 12.51c0 10.77 4.62 16 6.63 18.19l.17.21a5.64 5.64 0 0 0 2.06 1.49c1 1.37 2.34 2.64 4.18 2.64a3.86 3.86 0 0 0 .58 0 5.2 5.2 0 0 0 2.94-1.68h.11a4 4 0 0 0 3.26 1.68h90.07a4 4 0 0 0 4-4v-30.68a4 4 0 0 0 -1.86-3.38v-5.9a4 4 0 0 0 -1.85-3.41v-16.24a7.69 7.69 0 0 0 -10.37-7.2l-7.49 2.78a7.72 7.72 0 0 0 -5 7.21v13.45a4 4 0 0 0 -1.86 3.38v3.14l-7.78-16.1v-2.17a11.29 11.29 0 0 0 5.57-9.78v-15.31a4 4 0 0 0 -1.46-3.09 3.93 3.93 0 0 0 -1.33-.73v-8.63a6 6 0 0 0 -5.39-6h-.3a4.12 4.12 0 0 0 -.46 0zm-48.75 51.84a23.34 23.34 0 0 0 4.5-1.83 16.07 16.07 0 0 0 4.63-3.86 17.77 17.77 0 0 0 2.06-3.2c.22-.44.43-.9.64-1.39 0-.11.09-.21.13-.32a12 12 0 0 0 2.45 2.13v2.49l-7.08 15.29a19 19 0 0 0 -7.18-3.78l-.43-.17h-.12a23.89 23.89 0 0 0 -5-.94 13.69 13.69 0 0 1 0-3.3 24.13 24.13 0 0 0 5-1h.05l.35-.13z" fill="#fff"/></svg>