<svg viewBox="0 0 120 120" xmlns="http://www.w3.org/2000/svg"><path d="m115.67 49.26h-98.15l96.6-17.8a1 1 0 0 0 .82-1.19l-3.82-21.16a6.18 6.18 0 0 0 -7.12-5.06l-95.59 17.73a6.18 6.18 0 0 0 -5.05 7.12l3.83 21.21a0 0 0 0 0 0 0 .7.7 0 0 0 0 .14v59.48a6.41 6.41 0 0 0 6.22 6.27h97a6.41 6.41 0 0 0 6.25-6.24v-59.48a1 1 0 0 0 -.99-1.02z" fill="none" stroke="#fff" stroke-miterlimit="10" stroke-width="2"/><path d="m110.45 115h-97a5.36 5.36 0 0 1 -5.22-5.22v-59.5h107.44v59.48a5.35 5.35 0 0 1 -5.22 5.24z" fill="#f15e75"/><path d="m110.45 116h-97a6.41 6.41 0 0 1 -6.24-6.24v-59.48a1 1 0 0 1 1-1h107.46a1 1 0 0 1 1 1v59.48a6.41 6.41 0 0 1 -6.22 6.24zm-100.45-63.88v57.64c0 2.23 1.15 3.38 3.38 3.38h97c2.24 0 3.38-1.15 3.38-3.38v-57.64z"/><path d="m113.93 30.45-3.82-21.21a5.15 5.15 0 0 0 -5.92-4.18l-95.65 17.74a5.15 5.15 0 0 0 -4.17 5.91l3.82 21.22z" fill="#ffca19"/><path d="m8.19 51a1 1 0 0 1 -.58-.19 1 1 0 0 1 -.42-.66l-3.83-21.25a6.18 6.18 0 0 1 5.05-7.12l95.59-17.73a6.18 6.18 0 0 1 7.11 5.06l3.82 21.16a1 1 0 0 1 -.82 1.19l-105.73 19.48zm96.73-44.1h-.6l-95.59 17.72c-2.17.28-2.83 1.6-2.53 4l3.63 19.3 102.1-19.1-3.65-19.4c-.28-1.98-1.28-2.56-3.36-2.56z"/><path d="m110.8 13.76-.69-4.52a5.15 5.15 0 0 0 -5.92-4.18l-95.65 17.74a5.15 5.15 0 0 0 -4.17 5.91l.69 3.83z" fill="#030303" opacity=".1"/><path d="m8.19 50.28h107.48v9.74h-107.48z" fill="#030303" opacity=".1"/><g fill="#010101"><path d="m84.43 35.94a3.21 3.21 0 0 1 -2-3.63l7.3-23.12a3.18 3.18 0 0 1 3.62-1.95 3.19 3.19 0 0 1 2 3.62l-7.3 23.14a3.21 3.21 0 0 1 -3.62 1.94z"/><path d="m54.32 41a3.08 3.08 0 0 1 -1.88-3.5l7-22.35a2.81 2.81 0 1 1 5.38 1.61l-7 22.35a3.25 3.25 0 0 1 -3.5 1.89z"/><path d="m24.5 46.27a3 3 0 0 1 -1.84-3.43l6.84-21.84a2.9 2.9 0 0 1 3.43-1.84 3 3 0 0 1 1.84 3.42l-6.84 21.84a3.2 3.2 0 0 1 -3.43 1.85z"/></g><path d="m77 68.84a1.07 1.07 0 0 0 -.87-.25l-20.64 3.26a1.09 1.09 0 0 0 -.92 1.07v21.36a7.31 7.31 0 0 0 -4.88-1.83 6.53 6.53 0 1 0 7 6.67.08.08 0 0 0 0 0v-18.76l18.45-2.91v10.32a7.3 7.3 0 0 0 -4.83-1.77 6.53 6.53 0 1 0 7 6.5v-22.83a1.1 1.1 0 0 0 -.38-.83zm0 0" fill="none" stroke="#000" stroke-miterlimit="10" stroke-width="3"/><path d="m77 68.84a1.07 1.07 0 0 0 -.87-.25l-20.64 3.26a1.09 1.09 0 0 0 -.92 1.07v21.36a7.31 7.31 0 0 0 -4.88-1.83 6.53 6.53 0 1 0 7 6.67.08.08 0 0 0 0 0v-18.76l18.45-2.91v10.32a7.3 7.3 0 0 0 -4.83-1.77 6.53 6.53 0 1 0 7 6.5v-22.83a1.1 1.1 0 0 0 -.38-.83zm0 0" fill="#fff"/></svg>