<svg viewBox="0 0 120 120" xmlns="http://www.w3.org/2000/svg"><path d="m116 10.11v99.78a6.14 6.14 0 0 1 -6.17 6.11h-99.66a6.14 6.14 0 0 1 -6.17-6.11v-71.78a6.14 6.14 0 0 1 6.17-6.11h9.83v-21.89a6.15 6.15 0 0 1 6.19-6.11h83.62a6.15 6.15 0 0 1 6.19 6.11z" fill="#fff" stroke="#fff" stroke-miterlimit="10" stroke-width="4.33"/><path d="m109.83 4h-83.78a6.08 6.08 0 0 0 -6.05 6.11v21.89h-9.95a6.08 6.08 0 0 0 -6.05 6.11v71.78a6.14 6.14 0 0 0 6.17 6.11h99.66a6.14 6.14 0 0 0 6.17-6.11v-99.78a6.14 6.14 0 0 0 -6.17-6.11zm-96.64 109h-3.19a3 3 0 0 1 -3-3v-72a3 3 0 0 1 3-3h10v78zm9.81 0v-103c0-1.63 2.33-3 4-3h83a3 3 0 0 1 3 3v100a3 3 0 0 1 -3 3z"/><g stroke="#000" stroke-miterlimit="10" stroke-width="2"><path d="m104 37.5v-19a1.49 1.49 0 0 0 -1.46-1.5h-69.08a1.48 1.48 0 0 0 -1.46 1.5v19a1.48 1.48 0 0 0 1.46 1.5h69.08a1.48 1.48 0 0 0 1.46-1.5z" fill="#84dbff"/><path d="m102.84 50h-29.68c-.64 0-1.16.38-1.16.84v30.32c0 .46.52.84 1.16.84h29.68c.64 0 1.16-.38 1.16-.84v-30.32c0-.46-.52-.84-1.16-.84z" fill="#ffd15c"/><path d="m56.93 55h-22.6c-1.28 0-2.33 1.34-2.33 3 0 1.66 1 3 2.33 3h22.6c1.29 0 2.33-1.34 2.33-3 0-1.66-1.04-3-2.33-3z" fill="#cdd6e0"/><path d="m101.37 96h-66.74a2.83 2.83 0 0 0 -2.63 3 2.83 2.83 0 0 0 2.63 3h66.74a2.83 2.83 0 0 0 2.63-3 2.83 2.83 0 0 0 -2.63-3z" fill="#acb3ba"/><path d="m56.93 73h-22.6c-1.28 0-2.33 1.34-2.33 3 0 1.66 1 3 2.33 3h22.6c1.29 0 2.33-1.34 2.33-3 0-1.66-1.04-3-2.33-3z" fill="#cdd6e0"/></g></svg>