<svg viewBox="0 0 120 120" xmlns="http://www.w3.org/2000/svg"><path d="m113.11 21.76h-27.35v-8a2.74 2.74 0 0 0 -2.76-2.76h-28.59a2.74 2.74 0 0 0 -2.74 2.74v8h-22.6v-.07a2.74 2.74 0 0 0 -2.74-2.67h-4.13v-2.38a2.74 2.74 0 0 0 -2.74-2.74h-5.7a2.74 2.74 0 0 0 -2.76 2.74v2.38h-4.11a2.74 2.74 0 0 0 -2.74 2.74v77.52a2.74 2.74 0 0 0 2.74 2.74h19.44a2.74 2.74 0 0 0 2.74-2.74v-.07h63.59a1.65 1.65 0 0 0 1.65-1.65h8.88a1.64 1.64 0 0 0 1.64 1.65h8.28a2.74 2.74 0 0 0 2.74-2.74v-71.95a2.74 2.74 0 0 0 -2.74-2.74z" fill="none" stroke="#fff" stroke-linecap="round" stroke-linejoin="round" stroke-width="2"/><path d="m26.49 100.18h-19.34a1.09 1.09 0 0 1 -1.09-1.1v-77.25a1.09 1.09 0 0 1 1.09-1.09h19.34a1.09 1.09 0 0 1 1.09 1.09v77.25a1.09 1.09 0 0 1 -1.09 1.1z" fill="#e6eaee"/><path d="m20.56 20.59h-7.9v-4a1.09 1.09 0 0 1 1.1-1.09h5.71a1.09 1.09 0 0 1 1.09 1.09z" fill="#ffd071"/><path d="m20.56 16.62v4h-3.73v-4a1.09 1.09 0 0 0 -1.1-1.09h3.73a1.1 1.1 0 0 1 1.1 1.09z" fill="#f7b657"/><path d="m113.11 97.54h-84.54a1.09 1.09 0 0 1 -1.09-1.09v-71.95a1.09 1.09 0 0 1 1.09-1.09h84.54a1.08 1.08 0 0 1 1.09 1.09v72a1.08 1.08 0 0 1 -1.09 1.04z" fill="#5c6d7d"/><path d="m114.2 24.5v72a1.1 1.1 0 0 1 -1.09 1.1h-7.46a1.1 1.1 0 0 0 1.1-1.1v-72a1.09 1.09 0 0 0 -1.1-1.09h7.46a1.09 1.09 0 0 1 1.09 1.09z" fill="#53616d"/><path d="m105.69 35.44h-9.83a3.19 3.19 0 0 1 -3.2-3.19 3.19 3.19 0 0 1 3.2-3.25h9.83a3.19 3.19 0 0 1 3.2 3.19 3.19 3.19 0 0 1 -3.2 3.25z" fill="#ffd071"/><path d="m108.89 32.24a3.21 3.21 0 0 1 -3.21 3.2h-3.23a3.21 3.21 0 0 0 0-6.41h3.23a3.21 3.21 0 0 1 3.21 3.21z" fill="#f7b657"/><path d="m84.11 23.41h-30.79v-9.67a1.09 1.09 0 0 1 1.09-1.1h28.59a1.09 1.09 0 0 1 1.09 1.1v9.67z" fill="#63cff1"/><path d="m84.11 13.74v9.67h-5.61v-9.67a1.1 1.1 0 0 0 -1.09-1.1h5.59a1.1 1.1 0 0 1 1.11 1.1z" fill="#33bddd"/><path d="m27.43 21.69v77.57a1.1 1.1 0 0 1 -1.1 1.1h-6.33a1.11 1.11 0 0 0 1.1-1.1v-77.57a1.1 1.1 0 0 0 -1.1-1.09h6.3a1.09 1.09 0 0 1 1.13 1.09z" fill="#cdd3d9"/><path d="m113.11 21.76h-27.35v-8a2.74 2.74 0 0 0 -2.76-2.76h-28.59a2.74 2.74 0 0 0 -2.74 2.74v8h-22.6v-.07a2.74 2.74 0 0 0 -2.74-2.67h-4.13v-2.38a2.74 2.74 0 0 0 -2.74-2.74h-5.7a2.74 2.74 0 0 0 -2.76 2.74v2.38h-4.11a2.74 2.74 0 0 0 -2.74 2.74v77.52a2.74 2.74 0 0 0 2.74 2.74h19.44a2.74 2.74 0 0 0 2.74-2.74v-.07h83.59a1.65 1.65 0 1 0 0-3.29h-83.53v-70.85h83.43v70.85h-7.73a1.65 1.65 0 0 0 0 3.29h8.28a2.74 2.74 0 0 0 2.74-2.74v-71.95a2.74 2.74 0 0 0 -2.74-2.74zm-98.8-4.59h4.6v1.83h-4.6zm11.47 81.54h-18.34v-76.47h18.34zm29.22-76.95v-7.47h27.47v7.47z"/><circle cx="68.72" cy="60.97" fill="#fff" r="23.89"/><path d="m92.6 61a23.91 23.91 0 0 1 -26.6 23.71 23.89 23.89 0 0 0 0-47.47 23.91 23.91 0 0 1 26.6 23.76z" fill="#cdd3d9"/><circle cx="68.72" cy="60.97" fill="#63cff1" r="15.53"/><path d="m84.25 61a15.55 15.55 0 0 1 -17.7 15.37 15.53 15.53 0 0 0 0-30.75 15.55 15.55 0 0 1 17.7 15.38z" fill="#33bddd"/><path d="m50.13 45.87a1.65 1.65 0 0 0 -2.29.4 25.53 25.53 0 1 0 9.69-8.27 1.64 1.64 0 1 0 1.47 3 22.25 22.25 0 1 1 -8.45 7.19 1.64 1.64 0 0 0 -.42-2.32z"/><path d="m68.72 78.15a17.18 17.18 0 1 0 -17.18-17.15 17.19 17.19 0 0 0 17.18 17.15zm0-31.06a13.89 13.89 0 1 1 -13.89 13.91 13.9 13.9 0 0 1 13.89-13.91z"/></svg>