<svg id="Layer_1" data-name="Layer 1" xmlns="http://www.w3.org/2000/svg" viewBox="0 0 120 120"><defs><style>.cls-1{fill:none}.cls-2{fill:#fff}.cls-3{fill:#3f3f3f;stroke:#000;stroke-linecap:round;stroke-linejoin:round;stroke-width:4.09px}.cls-4{clip-path:url(#clip-path)}.cls-5{fill:#f8a13b}.cls-6{fill:#ffde3a}.cls-7{fill:#a375c3}.cls-8{fill:#ff5a7e}.cls-9{fill:#58d0ff}</style><clipPath id="clip-path"><path class="cls-1" d="M106.64 78.92v4.64c-1.14.6-1.86.07-2.46-.88-1-1.62-1.94-2-3.33-1.18s-1.63 1.78-.79 3.46c.25.5.85 1.05.07 1.52-.63.38-1.06 1.21-1.6 1.34-2.93.7-3.22 2-1.48 4.33.7.95-.63 1.53-1.24 2s-.9-.16-1-.73a2.92 2.92 0 0 0-2.37-2.57c-1.57-.28-2.16.84-2.67 2a5.75 5.75 0 0 1-.55-.34c-2.77-2.07-4-1.55-4.45 2-.15 1 .11 2.32-.39 3.14-1 1.56-1.2 2.89-.11 4.42.43.61.18 1.14-.49 1.44s-1.3 1-2.25 1a1.13 1.13 0 0 0-1.28 1c-.15 1.61-1 1.63-2.22 1.14a2.79 2.79 0 0 0-1.57-.13 5 5 0 0 1-4.46-1.45c-1.18-1-2.54-1.66-3.85-.07-.32.39-.73.33-1.14.29a9 9 0 0 1-3.48-.73c-1.51-.76-2.59-.5-3.66.93s-2.2 3.42-4 4.2c-1.38.6-2.33 1.17-2.26 2.84-2.58-1.85-2.64-2-1.3-4.52a11.47 11.47 0 0 0 1.09-1.83c.41-1.29.47-2.67-.67-3.62s-1.52.37-2.2.81c-.07 0-.21 0-.39-.06v-.69c.29-3 .16-3.16-3-3.42-.41 0-.47-.24-.52-.55-.22-1.49-1.41-1.82-2.59-2-1.46-.27-2.91-.54-4.36-.85-1.29-.27-2.88-.76-3.81 1-.41.76-.89.17-1.33 0a7.57 7.57 0 0 0-5.69-.79 5.64 5.64 0 0 1-4-.27 10.06 10.06 0 0 0-6.07-.75 7.15 7.15 0 0 1-4.89-1.08h-.07c-.91-.61-.18-2.14-.4-3.23-.07-.4 0-.83-.08-1.24a5.13 5.13 0 0 0 1.73-3.77c.12-2-.11-4 .2-6.06a1.88 1.88 0 0 0-.76-1.9c-.86-.62-.92-1.14.23-1.29a4 4 0 0 0 3.18-2.54c.23-.46.38-1.11 1-1.08 2.79.15 3.35-2 4.05-3.95.21-.59.38-1.18 1-1.34 2.75-.65 4.4-2.89 6.52-4.44s3.82-4.14 6.63-5a3.54 3.54 0 0 0 2.64-3.25c.17-1.65-1-2.56-2.22-3.14-1.75-.83-1.28-2-.8-3.25a5.27 5.27 0 0 1 1.1-1.38 6.25 6.25 0 0 0 .65-7.35c-.2-.33-.37-.62-.16-1 1.11-1.86.44-3.7-.13-5.5a2.18 2.18 0 0 1 .34-2.26C40 29 42.42 28.28 43.38 26.1c.08-.18.57-.32.81-.26 2 .5 2.92-.68 3.71-2.22.4-.79.89-1.73 2-1.46 2 .51 4.15.25 6.21.54a3 3 0 0 0 3.27-1.55c1-1.48 1.71-3.15 3.71-3.81a3 3 0 0 0 1.8-3.23c-.18-2 .86-2.19 2.36-1.76 1.25.36 2-.06 2.16-1.33.13-1 .72-1.28 1.59-1.3s1.43-.05 2.14-.06c1.46 0 2.24-.65 2.07-2.19h1.07c.16.25.32.5.47.76 1.24 2 1.24 2.27-.81 3.41a4 4 0 0 0-2 2.56c-.15.55-.17 1.15-1.12.94-1.6-.36-2.28.76-2.61 2s0 2.91-2 3.08c-.44 0-.51.77-.44 1.25a2.15 2.15 0 0 0 2.06 1.91c4 .41 6 3.32 8 6.23.26.38.46.7 0 1.05-.84.61-.53 1.39-.23 2.09s.65 1.49 1 2.2a11.43 11.43 0 0 0 2.77 3.55 4.77 4.77 0 0 1 1.18 1.72 10.57 10.57 0 0 1 .78 6.43c-.21 1.57.46 2.29 2 2.53a4.65 4.65 0 0 0 4.93-2 5.14 5.14 0 0 0 3.61 3.07c2.86.85 4.44 2.56 3.53 5.76v.35c-.93 2.58.45 3.87 2.57 4.9.8.39 2.14.88 2 1.78-.16 1.44.65 2.42 1.21 3.8-1.47-.2-2.71 0-2.79 1.55-.07 1.26.18 2.86 1.11 3.45 2.64 1.78 3.63 4.59 5.14 7.08z"/></clipPath></defs><title>punjab</title><path class="cls-2" d="M53.49 117.13a3.63 3.63 0 0 1-2.13-.69c-3.47-2.49-4.84-4.58-2.64-8.91a3.64 3.64 0 0 1-2.43-3.46v-.57a4 4 0 0 1-3.23-2.64c-1.31-.24-2.87-.52-4.46-.87l-.3-.06h-.11A4.1 4.1 0 0 1 36 101.3a4.51 4.51 0 0 1-3.61-.75 3.88 3.88 0 0 0-3-.51 9.42 9.42 0 0 1-6.71-.49 6.47 6.47 0 0 0-4-.44 11 11 0 0 1-7.51-1.65l-.18-.12C8.56 95.76 8.85 93 9 92a2.58 2.58 0 0 0 0-.39 9.73 9.73 0 0 1-.11-1.34V90a3.68 3.68 0 0 1 1.31-3c.13-.11.4-.34.45-1.24v-2.15a31.6 31.6 0 0 1 .1-3.45 4.16 4.16 0 0 1-1.23-4.06 4.26 4.26 0 0 1 4-3.17s.19-.11.43-.6a4.57 4.57 0 0 1 4.42-3.12c.15-.31.33-.82.46-1.19l.13-.39a5.2 5.2 0 0 1 3.67-3.7 8.14 8.14 0 0 0 3.16-2.14A26.88 26.88 0 0 1 27.9 60a20.57 20.57 0 0 0 1.8-1.6 15.74 15.74 0 0 1 5.6-3.9c-1.79-1-4.09-3.18-2.29-7.77a6.72 6.72 0 0 1 1.6-2.3l.2-.21a2.74 2.74 0 0 0 .29-3.09 4.39 4.39 0 0 1-.19-4.84c.18-.3.06-.84-.4-2.3l-.09-.28a5.8 5.8 0 0 1 .92-5.63 13.45 13.45 0 0 1 2.88-2.67A5 5 0 0 0 39.73 24a4.43 4.43 0 0 1 4.54-2.43l.14-.27c1.92-3.79 4.7-3.74 6.18-3.38a14.77 14.77 0 0 0 2.89.26c.87 0 1.85.06 2.86.19l.28-.45a10.17 10.17 0 0 1 4.67-4.56 5.3 5.3 0 0 1 1.76-4.64 4.93 4.93 0 0 1 3.55-1.06 5.16 5.16 0 0 1 4.49-2.5h.99a3.64 3.64 0 0 1 .64-1 3.68 3.68 0 0 1 2.75-1.24h1.09a3.64 3.64 0 0 1 3.11 1.72l.51.82c.79 1.31 1.78 2.94 1.24 5S79.15 13.36 78 14c-.21.11-.23.12-.31.4a4.4 4.4 0 0 1-3.88 3.6 8.39 8.39 0 0 1-.47 1.81c3.8 1.46 6 4.67 7.71 7.14a4.33 4.33 0 0 1 .48 4.68c.2.44.38.82.56 1.16A8.19 8.19 0 0 0 84 35.34a8.26 8.26 0 0 1 2.12 2.88 13.56 13.56 0 0 1 1.34 7 3.27 3.27 0 0 0 .25-.32 3.68 3.68 0 0 1 6.37.74c.15.37.29.71 1.34 1 4.94 1.46 7.28 5.2 6.21 9.83a3.89 3.89 0 0 1-.23 1.15 5.42 5.42 0 0 0 .77.43l.24.11c1.06.5 4.25 2 3.88 5.39 0 .07.23.49.38.8s.41.84.6 1.3a3.7 3.7 0 0 1-.49 3.63 3.65 3.65 0 0 1-1.07.93 19.36 19.36 0 0 1 4 5.49c.31.57.6 1.12.92 1.64a3.74 3.74 0 0 1 .53 1.91V84a3.64 3.64 0 0 1-2 3.25 5.41 5.41 0 0 1-4.43.34A4.36 4.36 0 0 1 102.9 90l-.14.15a6.53 6.53 0 0 1-1.57 1.31 4.38 4.38 0 0 1 .32 2.55 5.44 5.44 0 0 1-2.64 3.54l-.18.12a4.14 4.14 0 0 1-6.28-1.22 3.44 3.44 0 0 1-1 .52 3.65 3.65 0 0 1-2.6-.13 6.6 6.6 0 0 1-.87 3.39 3.31 3.31 0 0 0-.25.46 4.6 4.6 0 0 1 .73 3.91 4.67 4.67 0 0 1-2.76 3 1.13 1.13 0 0 1-.15.11 8 8 0 0 1-1.76.9 4.7 4.7 0 0 1-1.83 2.09 5.21 5.21 0 0 1-4.68.21 8.6 8.6 0 0 1-7-2 4.93 4.93 0 0 1-3.3.78h-.17a13 13 0 0 1-4.22-.85c-.1.14-.2.27-.29.41a12.12 12.12 0 0 1-5 4.64h-.12a3.72 3.72 0 0 1-1.86 2.68 4 4 0 0 1-1.79.56zm23.43-6.31zM9 91.69v0zm92.33-33.77zM44 22z"/><path class="cls-3" d="M106.64 78.91v4.65c-1.14.6-1.86.07-2.46-.89-1-1.62-1.93-1.93-3.33-1.17s-1.63 1.77-.78 3.46c.18.38.57.78.41 1.16a.88.88 0 0 1-.34.37c-.64.37-1.06 1.2-1.61 1.33-2.93.7-3.21 2-1.48 4.33.7 1-.62 1.53-1.24 2s-.89-.15-1-.72a2.91 2.91 0 0 0-2.37-2.58c-1.56-.27-2.16.85-2.67 2-.24-.15-.4-.23-.54-.34-2.78-2.07-4-1.55-4.46 2-.15 1 .11 2.33-.39 3.14-.95 1.56-1.2 2.89-.11 4.42.44.61.19 1.14-.49 1.44s-1.31 1-2.25 1a1.12 1.12 0 0 0-1.28 1c-.15 1.62-1 1.65-2.22 1.15a2.67 2.67 0 0 0-1.56-.12 5.1 5.1 0 0 1-4.47-1.46c-1.18-1.06-2.55-1.67-3.85-.08-.32.4-.73.33-1.13.3a9.35 9.35 0 0 1-3.48-.74 2.54 2.54 0 0 0-3.66.93c-1.17 1.55-2.21 3.42-4 4.21-1.37.59-2.32 1.16-2.27 2.83-2.57-1.85-2.64-2-1.29-4.52a11.53 11.53 0 0 0 1.09-1.82c.41-1.3.48-2.67-.67-3.63s-1.52.37-2.2.81c-.07 0-.21 0-.39-.06v-.69c.25-2.5.17-3-1.66-3.27-.37-.06-.77-.11-1.29-.15s-.46-.23-.51-.55c-.23-1.48-1.41-1.82-2.6-2-1.45-.27-2.91-.54-4.36-.84a6.53 6.53 0 0 0-2.12-.26 2.1 2.1 0 0 0-1.69 1.2c-.41.76-.89.18-1.34 0a7.49 7.49 0 0 0-5.68-.81 5.61 5.61 0 0 1-4-.26 10 10 0 0 0-6.08-.74 7.28 7.28 0 0 1-4.89-1.09h-.07c-.91-.62-.18-2.13-.39-3.23a8.42 8.42 0 0 1-.09-1.24 5.12 5.12 0 0 0 1.73-3.76c.11-2-.1-4.05.21-6.06a1.91 1.91 0 0 0-.76-1.91c-.88-.61-.93-1.15.21-1.28a4 4 0 0 0 3.19-2.55c.23-.46.38-1.12 1-1.08 2.79.15 3.35-2 4.06-3.95.2-.58.37-1.18 1-1.33 2.75-.65 4.4-2.89 6.53-4.46 1.79-1.32 3.2-3.18 5.15-4.33a7.24 7.24 0 0 1 1.47-.66 3.55 3.55 0 0 0 2.64-3.25v-.08c.12-1.61-1-2.49-2.22-3.06-1.74-.83-1.28-2-.8-3.25A4.62 4.62 0 0 1 38 46.89a6.28 6.28 0 0 0 .64-7.36c-.2-.32-.38-.61-.16-1 1.12-1.87.44-3.71-.12-5.51a2.14 2.14 0 0 1 .34-2.26c1.3-1.76 3.72-2.48 4.69-4.66.08-.18.56-.31.8-.26 2 .49 2.93-.68 3.71-2.22.41-.79.88-1.73 2-1.46 2 .51 4.15.25 6.2.54a3 3 0 0 0 3.28-1.54c.95-1.49 1.7-3.16 3.71-3.82a3 3 0 0 0 1.79-3.23c-.17-2 .86-2.19 2.36-1.77 1.25.37 2-.05 2.17-1.32.13-1 .72-1.28 1.59-1.29.71 0 1.42-.06 2.14-.07 1.46 0 2.23-.65 2.07-2.19h1.06l.48.76c1.22 2 1.24 2.27-.82 3.4a4 4 0 0 0-2 2.57c-.15.55-.18 1.15-1.14.94-1.59-.36-2.26.76-2.6 2s0 2.91-2 3.08c-.44 0-.5.77-.44 1.25a2.16 2.16 0 0 0 2.06 1.91c4 .41 6 3.32 8 6.24.26.36.45.69 0 1.05-.85.6-.53 1.39-.23 2.08s.65 1.5 1 2.21a11.66 11.66 0 0 0 2.77 3.54 5.29 5.29 0 0 1 .41.41 7.3 7.3 0 0 1 .77 1.3 10.63 10.63 0 0 1 .78 6.45c-.2 1.56.46 2.27 2 2.52a2.85 2.85 0 0 0 .41 0 4.56 4.56 0 0 0 4.51-2 5.14 5.14 0 0 0 3.61 3.06c2.86.86 4.44 2.56 3.53 5.76v.36c-.94 2.57.45 3.87 2.56 4.89.8.39 2.14.88 2 1.78-.16 1.45.64 2.43 1.21 3.8-1.47-.2-2.71 0-2.79 1.56-.07 1.25.18 2.84 1.12 3.44 2.67 1.8 3.67 4.61 5.17 7.08z"/><g class="cls-4"><path class="cls-5" d="M36.45 35.78c-1.29-.17-2.57-.44-3.86-.67 10.73 3 22 4.8 32.83 6.24s21.49 2.81 31.16 5.22c1.2.56 3.58 1.68 4.74 2.26 9.67 2.16 21.5 3 30.89 3.4a10.82 10.82 0 0 0 6.25-2 19.79 19.79 0 0 0 2-1.52c.48-.4.75-.67.75-.67 1.31-.69 2.82-2.29 1.82-3.44-1.11-.49-3.17-.93-4.91-1.49s-3.16-1.26-3-2.18c.07-.46 1.27-.27 2.47-.08.28-1.83 4.54-5 5.76-4.73 1.35-.68 9.23-2 10.69-2.64 2-.28.63-2.73-1.94-5.36a41.13 41.13 0 0 0-4.42-3.9 43.62 43.62 0 0 0-2.31-1.63 18.45 18.45 0 0 0-2-1.1c-2.41-1.32.38-2.3.62-3.67-2.66.05-3.73-1.53-6.4-1.48 0-.21-1.89-.82-4.27-1.27s-5.28-1-7.21-1.2a6 6 0 0 1-1.15.09 35.47 35.47 0 0 1-4-.2c-1.28-.13-1.33.33-1.38.8l.1-.93c-1.38.79-3.83-.39-5.16-.06l.09-.93c-2.64.66-5.06-.45-7.63-.22l.08-.92c-1.27-.11-2.53-.22-2.49-.69l.08-.93c-1.24-.58-3.83.15-3.75-.77l-.07.92a93 93 0 0 1-12.39-1.9c-9.81-2.61-21.94-2.65-32.65-3-1.17-.14-2.47.64-1.4 1.7l-3.55-.42c-2.34-.32-1.35 1.22-3.69.88q-3.57-.1-7.12-.39c-2.32-.27-4.64-.6-6.95-1-1.15-.19-2.33-.34-3.45-.6l-3.38-.78-3.37-.8c-1.12-.26-2.25-.53-3.33-.89L13 .83c-1.15-.3-2.2-.71-3.26-1.1L6.56-1.42l-3.19-1.1C2.3-2.88 1.3-3.36.25-3.75Q-2.86-5-6-6.09C-4.09-5-2.43-3.9-.72-2.89c.86.5 1.73 1 2.65 1.42A19.86 19.86 0 0 0 5-.48c-.15.48-.48 1.31.6 1.7 1.59.68 3.27 1.32 4.94 1.93l5 1.49a41.81 41.81 0 0 1 4.33 1.57A10.61 10.61 0 0 1 23 7.91c1 .71 1.87 2.34 5.35 3.16l-3.48-.81-.31 1.36 3.61 1.2c1.25.41 2.58.74 3.89 1.11 2.64.71 5.25 1.51 7.63 2.1l-.23 1.38 2.42.36c.48.89 0 1.41-1.06 1.68a14.5 14.5 0 0 1-4.68.1c-3.84-.39-8.72-1.19-11.75-1.76L24 19.61l2.43.57-.2.91c-3.64-.88-7-1.6-10.32-2.47l-5-1.46-2.57-.74c-.86-.25-1.75-.5-2.63-.84l1.05.42 1.32.39 2.4.69c-.13.45-.27.9.94 1.25C6.54 17 .84 14.34-4.23 13.48c-1.32-.1-.73 1.8 2.74 3.49l4.81 1.72 2.3.82 2.57.74-.28.89C5.42 20.51 2 18.68-.61 18.27c-1.38 0 2 2.19.59 2.19a11.22 11.22 0 0 0-3.84-.88c3.7 1.3 8.71 2.74 12.34 4.15 1.11.81 2.23 1.62 2 2.52a39.67 39.67 0 0 1 4.48 1.26A28.79 28.79 0 0 1 18.84 29 25.39 25.39 0 0 1 25 33.2c1.05 1.14 7.6 1.96 11.45 2.58z"/><path class="cls-6" d="M29.22 34.1a20.08 20.08 0 0 0 6.54-1.3c-4.38.28-8.82.11-12.23.71 1.88.19 3.79.35 5.69.59zm17-3.82a13.2 13.2 0 0 0-7.5.35h6.82c.22-.12.46-.22.68-.35zm-3.3 1.36a17.08 17.08 0 0 0-7.16 1.16 35.23 35.23 0 0 0 7.16-1.16zM18.2 45.33c-1.56-.12-3.13-.17-4.69-.14a46.58 46.58 0 0 0 9.08 0c-.38-.06-.74-.38-1.13-.44a5.85 5.85 0 0 1-3.26.58z"/><path class="cls-6" d="M-14 33.25c2.13.27 4.23.48 6.31.65s4.18.1 6.22.09l2.94.63 1.46.28 1.47.21q2.94.39 5.82.6c1 .06 1.91.11 2.85.14s1.9 0 2.83-.07a51.73 51.73 0 0 0 5.5-.55 21.18 21.18 0 0 1 2.55-.31c.91-.09 1.87-.15 2.86-.19l6.19-.18c4.24-.19 8.55-.75 11.77-2.56a10.82 10.82 0 0 0-1.86-.35 17.16 17.16 0 0 0 2.62-1c10.15 0 20.17.12 30.71 1 1.56.12 2.82-.56 4.39-.43l4.73.26a.24.24 0 0 0 0-.18c3.24.09 6.53.25 9.83.29s6.67.1 10.15.11a45.88 45.88 0 0 1 4.84.51c1.61.27 3.23.6 4.84.85 1.22.19 1.05 1.25 1.81 1.64 1.51.91 2.81 1.72 4.18 2.45a26.7 26.7 0 0 0 4.55 2.08l-.15.79a4 4 0 0 1 1.45.28c-2.32 2.59-6.78 2.8-2.64 5.72l-.74.12h-.08a5 5 0 0 0-2.67 1.34l2 .4a2.31 2.31 0 0 0-.36 1.08 1.73 1.73 0 0 1-.21.17l-.55-.11a3.35 3.35 0 0 0-.34.56c-1 .4-2.18.59-3.1.87s-1.56.62-1.38 1.21 1.67.33 3.18.3a1.57 1.57 0 0 0 .24.32c-1.94-.11-.34 1.83-1.51 1.87-1.51-.3-3.08-.23-4.59-.48a96.88 96.88 0 0 0-17.64-1.35h-.81a48.12 48.12 0 0 1-8.7-.71 6.62 6.62 0 0 1 .62-.46 27.85 27.85 0 0 0-7.07-.46 136.63 136.63 0 0 1-17.94 1c-6.51-.27-12.83-.24-19.55.08a56.28 56.28 0 0 1 8.31-.62c1.24.13 2.49.26 3.69.29a28.8 28.8 0 0 0-3.69-.29 60.4 60.4 0 0 0-7.13-.54 13.76 13.76 0 0 0-6.53 1.39c-.38-.26-.35-.52-.74-.56-1.38-.14-2.74-.34-4.07-.4a10.48 10.48 0 0 0-3.88.34c0 .27-1.22.13-.88.7-2.41 0-5.17-.32-7.62-.14a9.43 9.43 0 0 0-3.29.83l-6.59.1-6.7-.23c-4.52 0-9.18-.51-14.06-1-.6-.07-1.22-.17-1.85-.28s-1.26-.3-1.9-.47c-1.27-.33-2.54-.69-3.72-1 1.86.08 3.74.2 5.61.35l5.65.26a38.56 38.56 0 0 0 5.1 1.19 12.2 12.2 0 0 0 4.76-.27c.69-.13 1.37-.24 2.05-.34l-6-.2q-3-.23-5.95-.38l-6.19-1.84h.14c1.71.16 3.43.16 5.15.28A41.77 41.77 0 0 0-2.75 50a12.36 12.36 0 0 0 4.28.09c.34-.06.68-.13 1-.22.69-.13 1.37-.25 2.05-.35-2.44-.09-4.89-.13-7.32-.34l-4.54-.28-2.72-.8.34-.13c.88-.06 3.84-2.58 2.85-3.64-3-.6-6.74-1.41-9.7-1.95s-5.15-1-5.1-1.12c-.05-1 10.62.56 10.28.2-.54-.28-1.08-.54-1.63-.79a15.59 15.59 0 0 0 1.74-.22 12.34 12.34 0 0 1 1.92.39 3.38 3.38 0 0 0 1.7 0c3.09-.92 6.05.33 9.35 0 2.11-.42 4.62-1 7.11-1.66.09-.52 1.19 0 .9-.64a17.11 17.11 0 0 0 3.28.41 3.35 3.35 0 0 0 2.55-1h.16a1.37 1.37 0 0 0 .63-.12 12.41 12.41 0 0 0 4.88.1c.77-.12 1.53-.28 2.31-.45s1.61-.36 2.43-.48a29 29 0 0 1 3.45.19 9 9 0 0 0-2.68-.32L26 37c-3 0-5.77.26-8.62.44a7.75 7.75 0 0 1-1 .44c-.2 0-.39-.08-.59-.14a2.83 2.83 0 0 1-.2.28c-2.77.41-5.77.06-8.16.42a22.87 22.87 0 0 1-3.31-.16 21.93 21.93 0 0 1-3.3-.58c-2.18-.53-4.34-1.19-6.46-1.77Q-2.26 36 1 36c-2.66-.16-5.2-.28-7.69-.35l-1.08-.27-2.23-.69c.66.32 1.33.6 2 .88-1.47-.11-2.94-.2-4.4-.26-2-.25-4-.54-5.94-.88s-3.91-1-5.86-1.51c-1-.27-1.95-.57-2.91-.87l-1.45-.47c-.47-.16-.94-.37-1.4-.56q-2.81-1.18-5.51-2.53c.28-.23.58-.46.89-.67 1.8.7 3.58 1.43 5.33 2a12.4 12.4 0 0 0 2.65.56 13.44 13.44 0 0 0 2.61.06c-2.06-.77-3.7-.75-5.65-1.6.06-.14.12-.36.32-.38a27.73 27.73 0 0 1-4.38-1.17c.73-.43 1.51-.84 2.28-1.25a9.45 9.45 0 0 1 3.14.5c1.17.42 2.36.74 3.53 1.09l3.47 1.07c1.15.36 2.3.71 3.46 1a29.63 29.63 0 0 0 3.59.73L-8 32.39c2 .61 4.17 1.06 6.25 1.54L-8 33.62c-2-.17-4-.29-6-.37zm130.06 10.13c-.42 0-.86.1-1.29.18l.15.21a1.59 1.59 0 0 0 1.14-.39zm-9.14-1.64a23.52 23.52 0 0 0 4.55.7c1.68.11 3.46.13 5.21.2a1 1 0 0 0 .07-.2 25.29 25.29 0 0 0-4.73-.58c-1.69-.09-3.43-.11-5.1-.12zm-10.15-6.81l.06.09v-.12zm-48.15 4.41c3.19-1.07 7-.74 11-1 1.16.09 2.4-.88 3.94-.76 1.95-.12 3.16-.56 4.73-.7l-1.12-.62c2.7.47 4.38-1 7.06-.25a1 1 0 0 1 .84-.74c2-.12 3.88.59 5.49.19a32.22 32.22 0 0 0 5.55-.31c.39 0 1.24-.7 2.06-.89h2.91l-.09-.22a10.13 10.13 0 0 0-2.4-.05 75.66 75.66 0 0 1-7.57.67A150.48 150.48 0 0 0 64 36c-1.17.18-2.38.62-3.55.8-3.57.8-7.78.18-10.24 1.84-.39.26-1.16.2-1.59.7zm-5.35 11.14a41.59 41.59 0 0 1 12.64-.38c3.11.25 12.14-.66 10.84-4-2.14 2.77-8.55 2.32-14.15 1.9s-10.4-.68-9.33 2.48zm-33.53.75a24.21 24.21 0 0 1 5.31 0c-1.77.02-3.53.08-5.31 0zM28 42.88c-5.26 1.31-10.73.68-16 1-4 0-8-2-11.92-.93l-.08.77.44-.17c1.34.48 2.37 1.06 3.48 1.51H3.7h.36a6.3 6.3 0 0 0 2.5.44l1.35-.13 3.75.34c1.25.05 2.5.09 3.74.09a35 35 0 0 0 7.24-.67c2.84-.46 5.33-1.51 8.13-2a9.23 9.23 0 0 0-2.77-.25z"/><path class="cls-6" d="M-7.28 35.83c-1.72-.09-3.42-.32-5.15-.52-1.37-.05-2.73-.09-4.12-.09-.81-.06-1.64-.12-2.45-.26s-1.64-.35-2.47-.56c-1.65-.41-3.32-.91-5-1.44l-2.53-.81-2.47-1a97.76 97.76 0 0 0-4.93-1.8 4.3 4.3 0 0 0-1 2.2 50.61 50.61 0 0 0 5.11 2.54c.88.36 1.74.77 2.65 1l2.71.85c3.64 1.07 7.24 2.22 10.81 3.39h.19a18.44 18.44 0 0 1 6 .4 27 27 0 0 0 6.53.46 54.64 54.64 0 0 1 6.15-.48c2-.13 4-.23 6.07-.53-1.39-.26-2.76-.48-4.12-.69s-2.7-.36-4-.65a72.79 72.79 0 0 1-7.98-2.01zm46-5.2H34.2c-2.11.06-4.1.18-6.06.35l-5.82.58c1.38.15 2.77.27 4.17.39s2.8.27 4.21.44a14.57 14.57 0 0 0 4.08-.57c1.32-.33 2.62-.82 3.94-1.19zm-19.55 1.31l3.15-.34c-4.09-.43-8.21-.63-12.23-1.1L5 30.35c-1.7-.02-3.35-.22-5-.35l-5.09-.31c-.85 0-1.7-.1-2.54-.19l-2.55-.21c-.77-.08-1.53-.18-2.28-.29 11.88 3.86 24.36 6.48 35.4 4.57l.64-.1c-5-.58-10.07-.87-15-1.45l5.31.1c1.71-.01 3.5-.12 5.28-.18zM3.87 45.06h.14c1.27.09 2.55.2 3.85.31 1.84-.16 3.73-.17 5.65-.23-1.72-.08-3.42-.27-5-.33a23.54 23.54 0 0 0-4.64.25zm9.88 8.23l1.61.24.8-.37-1.16-.22zm23.93-1.36l-5.22.28-5.14.19-5.07.21c-1.68.06-3.37.06-5.05.09l-1 .46a37 37 0 0 0 6.59.73 27.57 27.57 0 0 0 6.42-.68c.82-.17 2.1-.82 2.89-.72a73.49 73.49 0 0 0 11-.79c-1.71.06-3.43.13-5.2.23z"/><path class="cls-7" d="M75.62 63.87a23.83 23.83 0 0 0-6.33 2.79c4.39-1.25 8.94-2.18 12.21-3.62-1.95.33-3.9.58-5.88.83zm-16.47 7.31a13.88 13.88 0 0 0 7.59-1.81l-7 1.35c-.18.15-.39.28-.59.46zm3.11-1.97a17.85 17.85 0 0 0 7-2.55 37.26 37.26 0 0 0-7 2.55zm47.28-32.55a13.86 13.86 0 0 1 2.7-2c.13-.42.31-1 .56-1.62l-.27.08q-2.18 1.38-4.47 2.68a15.9 15.9 0 0 0-1.59 1.59 24 24 0 0 0 3.07-.73z"/><path class="cls-7" d="M112.24 34.63c-1.13 3.65 2-.93 0 0zm-6.33 18.96l-.26.06-.73.36zm-22.54-3.46a43.43 43.43 0 0 0 4.37-1.21 44.48 44.48 0 0 0-8.42 2.63c.38-.06.79.15 1.17.09a5.75 5.75 0 0 1 2.88-1.51z"/><path class="cls-7" d="M117.05 48.08q-2.89 1.37-5.73 2.85c-1.91.9-3.8 1.79-5.67 2.72l-3 .77-1.48.4-1.47.35c-2 .48-3.88 1-5.76 1.58-.95.29-1.88.59-2.8.91s-1.83.59-2.73.92a54.18 54.18 0 0 0-5.26 2.16 22.52 22.52 0 0 1-2.45 1.06c-.88.31-1.83.59-2.81.87l-6.19 1.67c-4.24 1.15-8.45 2.45-11.41 4.9a12.81 12.81 0 0 0 2 0 19.16 19.16 0 0 0-2.49 1.51 329.477 329.477 0 0 1-30.69 4c-1.54.11-2.6 1-4.13 1.15l-4.55.55a.25.25 0 0 0 .07.17c-3.14.42-6.15 1-9.22 1.57s-6.11 1.32-9.19 2.15a41.33 41.33 0 0 1-4.42.66c-1.45.18-2.91.35-4.36.58-1.09.17-1.25-.88-2-1-1.56-.43-2.95-.83-4.36-1.1a21.88 21.88 0 0 0-4.49-.3l-.15-.78a3.63 3.63 0 0 1-1.32.25c.95-3.23 4.85-5.09.15-6.27.22-.13.42-.25.61-.38h.07a5.09 5.09 0 0 0 1.91-2.24l-2 .39a2.38 2.38 0 0 0-.07-1.13c0-.08.08-.16.13-.24l.54-.11a3 3 0 0 0 .1-.65 27.48 27.48 0 0 1 2.58-2c.77-.56 1.26-1.07.9-1.57-.51-.5-1.72.19-3.11.83a1.48 1.48 0 0 0-.34-.21c1.87-.64-.33-1.83.77-2.32 1.54-.31 3.05-.77 4.6-1 6.32-1.06 11.61-2 17.75-3.51l.81-.18a49.11 49.11 0 0 1 8.81-1.09 7.41 7.41 0 0 1-.54.58 31.75 31.75 0 0 0 7.12-.82 120.66 120.66 0 0 1 17.62-3.97 167.77 167.77 0 0 0 19.08-3.22 53 53 0 0 1-8 2c-1.24.08-2.46.17-3.65.32a25.79 25.79 0 0 0 3.65-.32 59 59 0 0 0 7-.65 12.72 12.72 0 0 0 6-2.6c.41.18.44.45.81.41 1.34-.13 2.68-.19 4-.39a9.55 9.55 0 0 0 3.54-1.22c0-.27 1.1-.4.67-.89 2.21-.55 4.86-.82 7-1.67a8.53 8.53 0 0 0 2.69-1.73L88 40.84l5.65-2.14c3.82-1.35 7.51-3 11.38-4.62.48-.18 1-.34 1.51-.5s1-.37 1.54-.54c1-.34 2.1-.65 3.08-.93-1.32.84-2.69 1.67-4.09 2.47s-2.91 1.44-4.41 2.14a27.44 27.44 0 0 0-4.44 1 11.81 11.81 0 0 0-3.81 1.93c-.52.36-1 .7-1.59 1l5-1.86q2.43-1.06 4.8-2.14c1.82-.34 3.75-.52 5.52-1l-.09.09c-1.29.76-2.69 1.34-4.06 2a32.06 32.06 0 0 0-4 .9 15.65 15.65 0 0 0-3.5 1.58 7.22 7.22 0 0 0-.77.56c-.53.35-1.06.7-1.6 1 2.1-.77 4.19-1.5 6.18-2.42l3.7-1.6 2.47-.4a2.56 2.56 0 0 0-.2.26c-.64.42-1.91 3.93-.64 4.45a55.23 55.23 0 0 0 8.49-3l3.11-1.28c.78-.29 1.22-.53 1.24-.45.17.21-.23.71-1 1.2a32.17 32.17 0 0 1-2.83 1.68c-2.11 1.16-4.28 2.22-4.07 2.3.56 0 1.12-.1 1.68-.17-.45.36-.88.72-1.27 1.09a11.4 11.4 0 0 1-1.72.68 3 3 0 0 0-1.42.71c-2.2 2.15-5.28 2.33-8 4.06C98.12 50 96.06 51.51 94 53c.09.52-1.1.48-.62.93a20.48 20.48 0 0 0-3.22.79A3.32 3.32 0 0 0 88 56.4l-.15.07a1.43 1.43 0 0 0-.57.3 12.75 12.75 0 0 0-4.77 1.35c-.72.34-1.42.72-2.14 1.11s-1.47.77-2.27 1.09a29.39 29.39 0 0 1-3.46.65 9.68 9.68 0 0 0 2.73-.33l.73-.32a71.51 71.51 0 0 0 8.33-2.83 8.75 8.75 0 0 1 .85-.72h.61c0-.11.07-.22.11-.33 2.55-1.1 5.49-2 7.59-3.17a23 23 0 0 1 3.13-1c1.07-.28 2.16-.52 3.24-.78 2.17-.49 4.39-.86 6.54-1.29q-3 1.41-6 2.89c2.5-1.06 4.83-2.08 7.07-3.11l1.09-.24 2.23-.65c-.72.09-1.44.2-2.14.33 1.31-.71 2.59-1.41 3.83-2.14 1.77-.84 3.55-1.65 5.35-2.41s3.53-1.7 5.32-2.48c.9-.39 1.8-.77 2.7-1.13l1.36-.54c.45-.18.88-.4 1.32-.59q2.66-1.2 5.37-2.22a10.13 10.13 0 0 1-.07 1.09c-1.69.82-3.39 1.61-5 2.51-.77.47-1.55.89-2.27 1.36a12.44 12.44 0 0 0-2 1.59 47.85 47.85 0 0 0 5.34-2.65c.05.15.16.34 0 .5a27.43 27.43 0 0 1 3.81-2.39c-.17.82-.4 1.67-.63 2.52a10 10 0 0 1-2.57 2 27.83 27.83 0 0 1-3.42 1.6l-3.44 1.4-6.9 2.87-6.47 1.75c-2.15.57-4.33 1-6.45 1.54 2-.88 4-1.67 5.83-2.59s3.58-1.93 5.29-2.93zM-10.77 71.94c.37-.17.75-.36 1.12-.56l-.21-.16a1.48 1.48 0 0 0-.91.72zm8.82-1.06a14.23 14.23 0 0 0-4.37.58c-1.56.39-3.18.91-4.78 1.37a.74.74 0 0 0 0 .21 24.15 24.15 0 0 0 4.45-.86c1.55-.43 3.14-.94 4.7-1.3zM9 75.11V75v.12zm46.16-12.45c-3 1.58-6.9 1.92-10.72 2.74-1.17.09-2.25 1.25-3.8 1.37-1.92.41-3 1-4.56 1.42l1.2.44c-2.72 0-4.14 1.66-6.88 1.34a1 1 0 0 1-.7.86c-1.91.41-3.86 0-5.35.72a29.88 29.88 0 0 0-5.28 1.26c-.38 0-1.07.89-1.8 1.23-.91.2-1.83.36-2.74.53l.13.2a9.31 9.31 0 0 0 2.25-.43 62.85 62.85 0 0 1 7.13-2c5.67-1 11-2.49 16.34-4 1.14-.36 2.26-1 3.4-1.33 3.41-1.33 7.71-1.42 9.89-3.48.33-.24 1.14-.31 1.49-.87zm3.3-11.88a39.26 39.26 0 0 1-12.26 2.46c-3.09.24-11.86 2.52-10.07 5.59 1.7-3 8.09-3.56 13.65-4.08s10.29-1.04 8.68-3.97zM89.19 42a15.73 15.73 0 0 1-4.67 1.53c1.56-.53 3.14-.94 4.67-1.53zM74.71 55c4.78-2.38 10-3.52 14.79-5.29 3.6-1.51 8-.91 11-3.46l-.17-.78-.31.35a27.67 27.67 0 0 1-3.6-.12l.18-.1-.32.1a5.59 5.59 0 0 0-2.35.48l-1.14.59-3.44 1c-1.16.3-2.32.62-3.46 1a33.86 33.86 0 0 0-6.52 2.73c-2.56 1.11-4.7 2.71-7.3 3.83a9.36 9.36 0 0 0 2.64-.28z"/><path class="cls-7" d="M110 49.44c1.55-.72 3.06-1.53 4.61-2.25a78.6 78.6 0 0 0 3.43-2.11c5.41-3.19 12.24-5.17 17.9-8.49a4.64 4.64 0 0 0-1-2.19 41.36 41.36 0 0 0-4.94 1.82c-.8.33-1.56.75-2.38 1.06l-2.41 1c-3.22 1.33-6.39 2.85-9.86 3.53l-.14.13a16.12 16.12 0 0 1-5 2.8 32.83 32.83 0 0 0-5.73 2.52 35.21 35.21 0 0 1-5.2 3.06C97.56 51.16 95.75 52 94 53c1.37-.26 2.73-.55 4.07-.85s2.66-.59 4-1a68.37 68.37 0 0 1 7.93-1.71zM66.74 69.37c1.53-.32 3.06-.61 4.61-1 2.15-.57 4.17-1.17 6.13-1.81s3.86-1.29 5.77-2.08c-1.44.3-2.89.54-4.34.74s-2.91.42-4.38.59a16.64 16.64 0 0 0-4 1.54c-1.3.65-2.53 1.37-3.79 2.02z"/><path class="cls-7" d="M86.34 63.23l-3.09 1.28c4.28-.87 8.5-1.74 12.69-3L101 59.8c1.69-.56 3.36-1.3 5-1.95s3.33-1.35 5-2.05c.82-.34 1.64-.72 2.45-1.13l2.41-1.23c.73-.37 1.46-.7 2.2-1-12.71 3.47-25.45 5.52-36 10.33l-.56.23c5.22-1 10.35-2.06 15.41-3.52l-5.27 1.89c-1.77.63-3.53 1.22-5.3 1.86zm22.16-13.12l1.1-.22c.4-.19.79-.36 1.18-.56l-.78.11zm-12.13-4.36h-.14c-1.14.37-2.31.72-3.49 1.07a34.84 34.84 0 0 1-5 2.1 46 46 0 0 0 4.66-1.36 20.51 20.51 0 0 0 3.97-1.81zm-11.3-4.49l-1.47.22-.6.57 1-.1zm-21.54 7.02L68.42 47l4.71-1.37 4.6-1.37c1.52-.47 3-1 4.48-1.48.26-.24.53-.48.79-.74a45.49 45.49 0 0 0-6 1.09 24.41 24.41 0 0 0-5.71 2.13c-.72.35-1.76 1.28-2.51 1.37a73.1 73.1 0 0 0-10.26 2.9c1.62-.39 3.25-.79 4.91-1.22z"/><path class="cls-8" d="M1.79 87.48c-1.51 0-3-.12-4.52-.23a39 39 0 0 1-4.46-.51c-2.95-.48-5.82-1-8.57-1.41l6.59 1a36.07 36.07 0 0 1-4.63-1c-.74-.2-1.48-.43-2.23-.69s-1.51-.63-2.29-1a4 4 0 0 1 2.1 0c.74.08 1.43.09 1.79-.38 2 .37 3.93.81 5.88 1.31 1 .25 2 .52 2.92.8s1.94.46 2.91.72q2.93.72 5.82 1.52c1 .25 1.94.55 2.9.78l2.89.65a3.34 3.34 0 0 1-4 .12c-1.07-.65-2.01-1.59-3.1-1.68zm51.49-9.24a21.35 21.35 0 0 1 2.57-.46 10.85 10.85 0 0 1-2.57.46zm-40.65 4.41a9.19 9.19 0 0 1 1.44-.36l2.66.4 2.69.31 5.45.66c-3.98-.4-8.31.6-12.24-1.01zM9 80.14c-.9 0-1.8-.1-2.7-.22s-1.78-.34-2.66-.57a28.46 28.46 0 0 1-5.07-1.78 43.34 43.34 0 0 0 5.03 1.58c.88.22 1.76.42 2.65.61s1.8.24 2.75.38zm69.89-16.28a.7.7 0 0 1 .12-.5.88.88 0 0 0 .26-.28l4.39.5c-.35.14-.65.55-1 .59-1.66-.17-2.05-1.1-3.77-.31zM52.31 78.37l-.09.12-.87.21-.11-.06a6.71 6.71 0 0 1 1.07-.27zm24.75-14.48a3.74 3.74 0 0 0-.27-1.06l2.46.25a1.55 1.55 0 0 0-.24.28c-.52.31-1.39-.01-1.95.53zm-18.51-1.64c-.51.07-.9.88-1.12 1.09a25 25 0 0 0-4.26-1.1c-.22.22-.73.27-1.18.7a5.79 5.79 0 0 0-1-.77c3.41-.11 6.86-.12 10.51-.14a19.39 19.39 0 0 1-2.95.22z"/><path class="cls-8" d="M143.78 69.43c-4.74.43-10.19-2-14.8.26 1.35.32 2.82.59 4.28.87s2.9.66 4.2 1.06c2.6.8 4.58 1.84 4.89 3.57s-1.5 1.73-3.89 1.32-5.41-1.29-7.49-1.15l1.09.72c-.54-.36-1.09-.72-1.58-.32 1.09.74 3.2 1.37 3.77 2.55-.32.26-.64.51-1 .79 2.7 2.64 7.76 3.39 10.29 6A31.66 31.66 0 0 0 133 80.56a51.81 51.81 0 0 0-6-.86 47.27 47.27 0 0 0-6.21-.21 118.08 118.08 0 0 0-12.77 1l-6.35.82c-2.11.3-4.2.58-6.25.82C86.33 84 78 87.77 70.14 91.81c-1.51.56-5.24.61-7.92.53-2.32.48-4.7.89-7 1.43s-4.67 1.18-7 1.94a64.53 64.53 0 0 1-15.29.9c-5.15-.09-10.49-.68-16.08-.61a3.1 3.1 0 0 1-2.71-1.88c-.31-1 .38-2 3.11-2.34a51.38 51.38 0 0 1 6.77-1c1.13-.1 2.25-.16 3.38-.19s2.23-.12 3.35-.13c-.52 1-2.64.47-3.65 1.25a37.19 37.19 0 0 0 9.31.69l-6.51.33c2.71-.13 5.57-.18 8.49-.28s5.83-.42 8.75-.84c2.15-.16 4.19 3.08 7.06.48l-5.77-.54c-2-.21-3.9-.41-5.86-.56-3.9-.27-7.87-.59-11.82-.53a.3.3 0 0 0 0-.08c-3.5.23-6.73-.06-10.15-.09a10.11 10.11 0 0 1 3.09-.08A74 74 0 0 0 16.26 89c-2.46-.36-4.92-.63-7.37-.9 7.08-1.22 14.3-1.28 21.53-1.31s14.46 0 21.24-1.05c-3.9-1.5-8.93 1.13-12.35-.88q4.69-.19 9.43-.18c3.15-.06 6.32-.07 9.53 0a10.59 10.59 0 0 0-1.37.55c4.06 1 8.18-.37 12.15-.37h1.06-1.06c-3.66-.1-7.23-.14-10.78-.18a16 16 0 0 1 5.36-.58 12.76 12.76 0 0 0-4.39-1c-2.1.07-4.21.15-6.3.17a35 35 0 0 0 9.19-2c-4.38-.38-8.88-.21-13.26-.34L56 80c4 .14 8.11.11 12.21 0l-.46.1.93-.11c1.61 0 3.21-.11 4.83-.19a13.54 13.54 0 0 0 4.18-1.39l.72-.08c-.43.37-.62.72.27.83 3.8.69 7.68-1.33 12.05-.32a9.91 9.91 0 0 0 4.27-.43.6.6 0 0 0 .87-.21l1-.26a10.73 10.73 0 0 0 2.56-.49 21.73 21.73 0 0 0-2.56.49c-.32 0-.64.08-1 .14a1.27 1.27 0 0 1 .89-.72c-6 .18-12.18.32-18.39 1 .35-.3.85-.62 1.06-.82-.59.31-1.18.61-1.78.9-2 .23-4 .51-6 .88a5.14 5.14 0 0 0 1.58-1c-2.87.16-5.75.39-8.62.69L56 80l-8.15-.24c-2.71-.12-5.41-.23-8.09-.29a38.11 38.11 0 0 0 9.08 1.37c-4.1.37-8.21.76-12.33.83q-3.1 0-6.19-.1c-1-.05-2.06-.1-3.09-.2s-2.06-.24-3.08-.4c1.51-1.17 3.54-2 4.46-3.56 0-.39-.69-.64-1.16-.85s-.74-.42 0-.63c5.55-2.26 9.55-.32 11.66-4.74.35-1.13-5.78-5.19-3.83-6.08 1.6-.36 4.5-.86 7.63-1.26.92.08 1.86.09 2.83.08.13.08.32-.17.57-.46a58.14 58.14 0 0 1 8.51-.47l2 .16a3 3 0 0 1 .95.89 5.39 5.39 0 0 1 1.23-.74c1.82.08 3.61.11 5.39.11 1 .29 2 .64 3 .88 0-.27-.23-.62-.06-.9 2.22 0 4.46-.14 6.68-.25a7.05 7.05 0 0 1 2.59 1.37c2.19-2.59 7.94-1.55 11.8-2.21v-.09c1.95-.14 4-.23 6-.32a5.94 5.94 0 0 1 1 .76c.47-.44 1-.5 1.22-.72a25.56 25.56 0 0 1 4.42 1c.24-.22.66-1 1.19-1.08a24.06 24.06 0 0 0 3.1-.17c1.18 0 2.38.05 3.59.1 1 0 2 .1 3 .17l3.05.3q3 .31 6 .74a3.83 3.83 0 0 1 .21 1.07c.61-.51 1.48-.16 2-.42a.66.66 0 0 0-.15.49c1.82-.66 2.18.29 3.82.6.37 0 .71-.4 1.08-.52l.54.11c1.86 1.73 3.69 1.12 5.76 1.21l6.14 1.56c1.76.42 2.33 1.56 3.41 2.33z"/><path class="cls-8" d="M84.19 63.64l5.72.75c-2.02.11-3.77.83-5.72-.75zM33.93 64a6.92 6.92 0 0 0-2.37-1.56c2.27 0 4.52.09 6.8.05l6.94-.18v.09c-1.86.25-4.15 0-6.25.11s-3.97.29-5.12 1.49zM79 63.36a1.55 1.55 0 0 1 .24-.28.88.88 0 0 1-.24.28zM25 78.81h-.46c1.17-.16 2.34-.24 3.51-.37a10.37 10.37 0 0 1-3.05.37zm-12.54-1.46H8.88c-1.2 0-2.4 0-3.58-.13a37.16 37.16 0 0 1-8.63-2.83c2.6.5 5.21 1 7.83 1.6l2 .43c.66.13 1.32.22 2 .33zM25.2 63.08c-.92-.34-1.85-.79-2.78-1.19l2.8.28c-.22.26-.04.63-.02.91zm9.6 14.85h-.72c.61-.24 1.22-.5 1.82-.77-.22.22-.74.49-1.1.77zM15.38 60.82l2 .41a5 5 0 0 0-1.22.59 3 3 0 0 0-.78-1zM5 60a25.42 25.42 0 0 1-2.6-.53c1.06 0 2.13.09 3.19.16-.3.25-.52.47-.59.37z"/><path class="cls-9" d="M70.88 73.38c3.39.47 6.7.73 10 1s6.62.33 9.91.39a.38.38 0 0 0 .41-.3.36.36 0 0 0-.38-.3c-3.28-.07-6.53-.11-9.87-.41s-6.61-.5-10-1a.41.41 0 0 0-.45.26.35.35 0 0 0 .38.36z"/><path class="cls-9" d="M123.3 100.56a12.8 12.8 0 0 0-2.72 1.52.61.61 0 0 1-.49.07c.11.27 0 .55-.4.73a36.82 36.82 0 0 1-5.46 2.32c-1.87.67-3.79 1.28-5.74 1.86s-3.91 1-5.89 1.44l-5.95 1.31a1.46 1.46 0 0 1-.31.67 3.08 3.08 0 0 1-2.77 1l-.87-.15-5.27-.42-2.61-.21-2.59-.33a6.93 6.93 0 0 1-2.41.56 81.48 81.48 0 0 1-9.06 2.12.92.92 0 0 1 .29.68c-.08.59-.8 1-1.62 1h-1.25c1.19.19 2.38.39 3.56.6a1.71 1.71 0 0 1 .47.12c1.3.09 2.65.09 4 0 3-.11 5.91-.31 8.8-.62s5.81-.89 8.65-1.45 5.67-1.34 8.45-2.1l4.14-1.21c1.38-.4 2.75-1 4.11-1.43a.61.61 0 0 1 .64 0 .25.25 0 0 1-.06.42c-3.37 2-6.53 3.9-9.88 5.75-1.68.91-3.41 1.83-5.22 2.61a48.4 48.4 0 0 1-5.71 2 184.85 184.85 0 0 1-28.87 5.33c-5-.32-9.85-.21-14.56-.1l-14.4.52c-13.21.38-25.1-.36-36.89-.68a9.51 9.51 0 0 1-5.9-1.46 6.27 6.27 0 0 1-3-4.28 5.75 5.75 0 0 1 2.57-5.48l-1.09-.06-1.71-.42a7 7 0 0 1-3.9-2.5l-1.23-1.47a30.62 30.62 0 0 0-3-4 21.6 21.6 0 0 1-2.8-4l.27-1.11-.33-.31a5.26 5.26 0 0 1-2.14-2.91l.05-1.34a10.53 10.53 0 0 1 1.51-4.36 3.5 3.5 0 0 1 .26-1.66 4.94 4.94 0 0 1-.66-4.36.76.76 0 0 1 .13-1.31 1.63 1.63 0 0 1 .65-.23 9.33 9.33 0 0 0-.71-.81c-.47-.1-.74-.18-.74-.18-1.25-.19-1.25-.19-2.34-.38a5.58 5.58 0 0 1-1.55-1.07c-1.15-2.34-1.16-2.34-1-3.37a1.53 1.53 0 0 1 .19-.3c-.86-.31-.92-.34-1.15-.44a2.17 2.17 0 0 1-.42-.38c-.07-.55-.07-.55-.23-.74a1.79 1.79 0 0 1-.06-.42c.44-.63.44-.63.44-.81a3.1 3.1 0 0 1 .28-.33l.86-.32c1.25 1.39 1.26 1.39 1.26 1.39l.23-.5.31.65-.19-.6.62.34-.71-.5a7.82 7.82 0 0 0 2 .13 3.1 3.1 0 0 0 1.15-.13 1.45 1.45 0 0 1-.07-.32c1.53.18 1.53.18 3 .39a4.19 4.19 0 0 1 .36.38.83.83 0 0 1 .71-.24l.78.08.16-.09.64-.29.13-.06 2.8-1.21a11 11 0 0 1 1.28.28c-.13-.09-.25-.17-.37-.27s0-.72-.16-.77a29.52 29.52 0 0 0-5-1.28c-1.75-.27-3.53-.47-5.31-.71a1.19 1.19 0 0 1-1.35-.63c-.1-.44.34-.85 1-.93a28.35 28.35 0 0 1 5.6-1.79 31.06 31.06 0 0 1 5.94-.47 38.28 38.28 0 0 1 6 .51A38.44 38.44 0 0 1-5 68.55c1.89.34 3.78.64 5.67.93l-.26-.27c.49.15 1 .32 1.44.48h.16l-1.01-1a7.12 7.12 0 0 0-.76-.31 41 41 0 0 1-6.38-1.44c-2.09-.61-4.14-1.33-6.34-1.79-2.35-.53-4.37-1.45-6.62-2.14-.58-.06-1-.41-.92-.8s.6-.65 1.17-.6c7.56-.74 16 .18 21.64 3.75a7.6 7.6 0 0 1 3.57 1.09l-.76-.85c1 .26 1.46 1 2.33 1.28l-.27-1.12c4.83.93 9.92 1 14.2 2.93.18 0 .34.09.5.14a17.32 17.32 0 0 1 6.07-1.14l-2.19-.53a15.54 15.54 0 0 1 5-.34c4.64.47 9.53 2.58 11.74 5.65 8.79.33 17.49.72 25.92.33a.82.82 0 0 1 .89.55.68.68 0 0 1-.71.66c-1.52.22-3 .42-4.6.57s-3.12.23-4.69.31c-3.12.18-6.28.26-9.49.26l4 .71 3.94.61c2.62.37 5.3.74 7.95.9l2.05-.07a7.58 7.58 0 0 1 2 .26c1.69.06 3.38.16 5 .21s3.28 0 4.92 0 3.3 0 4.94-.14 3.29-.33 5-.58l4.16-.65c1.33-.27 2.63-.57 3.93-.86l3.9-.92c.65-.16 1.32-.3 2-.5l2-.62 5.44-1.74c.44-.15.89-.27 1.32-.42l1.28-.49 2.54-.93c1.68-.61 3.39-1.1 5.07-1.64s3.33-1.13 5.07-1.57a1.78 1.78 0 0 1 2.26.8 1.57 1.57 0 0 1-1.05 2L122.54 72c-1.81.76-3.69 1.38-5.55 2.08a107.62 107.62 0 0 1-11.6 3.51c-.5.12-1 .26-1.49.37l-1.53.29-3.07.56-3.09.51c-1 .18-2.08.32-3.15.4a94.26 94.26 0 0 1-13 .47L74.42 80a1.27 1.27 0 0 1 0 .34 1.86 1.86 0 0 1-.51 1.21c2.14.17 4.28.34 6.44.62l4.51-.66c1.49-.25 3-.49 4.48-.68s3-.33 4.54-.4 3-.22 4.6-.19c2.14 0 4.22.24 6.24.45s4 .37 6 .58c1.22-.3 2.46-.55 3.66-.89l3.62-1.17 3.57-1.08c.59-.19 1.19-.35 1.78-.54l1.74-.63a.37.37 0 0 1 .5.06c.11.14 0 .32-.14.43-.76.46-1.52.94-2.33 1.34s-1.62.75-2.45 1.12c-1.65.72-3.34 1.42-5 2.1a2.38 2.38 0 0 1 1.17 1.75 2.64 2.64 0 0 1-.85 2.12l2.48-.4c.51-.07 1 .14 1 .52a.82.82 0 0 1-.78.86c-3.37.68-6.83 1-10.26 1.33l-3.06.7c-1 .19-2.06.34-3.09.51l-6.28.95a3.92 3.92 0 0 1 1.32 1.74l2-.2 35-8.84a.41.41 0 0 1 .51.2.32.32 0 0 1-.29.39q-2.67.59-5.3 1.28l-2.63.71c-.87.26-1.74.51-2.63.69a.26.26 0 0 1 .1.42.55.55 0 0 1-.56.12.26.26 0 0 1-.1-.42q-2.48.57-4.93 1.23c-1.64.42-3.26.94-4.92 1.28s-3.31.79-5 1.22-3.29.93-5 1.28q9.33-1.18 18.57-2.59l1.87-1a.51.51 0 0 1 .55.13.31.31 0 0 1-.2.41l-.53.26a2.06 2.06 0 0 1 2.41 1.27c.15.95-.71 1.85-2 2-1.64.4-3.27.77-4.91 1.13s-3.27.75-4.94.94l-1.05.29-1 .57 3.93-.21 3.91-.41 3.92-.4c1.31-.14 2.63-.22 3.91-.47.44-.12.87 0 1 .35s-.2.67-.64.79a34.56 34.56 0 0 1-3.31 1.2l-3.37 1.07-3.4 1c-.57.16-1.14.34-1.71.49l-1.73.4q-3.47.78-7 1.5l-1.76.35-1.76.26-3.53.49-4.58 2.44c-1.54.8-3.1 1.51-4.69 2.26h1.23a35.61 35.61 0 0 0 7.57-1 70.29 70.29 0 0 0 7.13-2c4.66-1.73 9.19-3.32 14-4.78a.42.42 0 0 1 .54.17c0 .15-.08.35-.34.39-4.73 1.57-9 3.33-13.82 4.92l-1.49.48-1.47.4-2.9.82c-1.92.56-3.82 1.14-5.7 1.8a91.05 91.05 0 0 0 11.4-2.17l5.59-1.57c1.85-.54 3.72-.94 5.58-1.54a1.1 1.1 0 0 1 .91 0 .36.36 0 0 1 .15-.26 19.68 19.68 0 0 1 2.85-1.59.5.5 0 0 1 .6.07c.24.13.15.31-.06.45zM-6.52 79.63l-.18-.2.65.35.89 1.35zm-11.7 4.7l-.54-.75zm73.55-7.14a53.19 53.19 0 0 1-11.28-2h2.78c2.82.59 5.67 1.29 8.5 2zm-69.66-2.71a12.71 12.71 0 0 1 2.67 2.42 6.93 6.93 0 0 1 2.18-.14q3 .24 5.8.71c-.23-.47.23-.4.46-.45l.72-.09c-2-.4-4-.83-6.11-1.29-1.85-.44-3.92-.64-5.72-1.16zm-14.42 2l-.18-.17.36-.7zm-.56 1.2l.3.08c-.09.29-.19.24-.3-.06zm2.75.78a1.73 1.73 0 0 0-.4-.36zm2.46 20.41l.89-3.52-1 3.39z"/></g></svg>