<svg xmlns="http://www.w3.org/2000/svg" viewBox="0 0 118 118"><defs><style>.cls-1{fill:#fff}.cls-2{fill:#fbebc7}.cls-3{fill:#fb7d23}.cls-4{fill:#ffd91d}</style></defs><title>Ramzan</title><g id="Layer_2" data-name="Layer 2"><g id="Layer_1-2" data-name="Layer 1"><circle cx="59" cy="59" r="59"/><circle class="cls-1" cx="59" cy="59" r="59"/><circle cx="59" cy="59" r="55.25"/><circle cx="59" cy="59" r="55.25"/><circle class="cls-2" cx="59" cy="59" r="52.44"/><path class="cls-3" d="M94.69 88.72v-3.08h-.08v-1.08h.29a.18.18 0 0 0 0-.36h-2.5V73.85a.14.14 0 0 0 .08-.12.13.13 0 0 0-.08-.11v-6.31a.13.13 0 0 0 .09-.12.12.12 0 0 0-.13-.12h-.2v-3.7a.13.13 0 0 0 .12-.12.12.12 0 0 0-.12-.12.46.46 0 0 0 .27-.18 1.53 1.53 0 0 0 .15-.23 2.82 2.82 0 0 0 .2-.62.57.57 0 0 0 0-.13.26.26 0 0 0 0-.17.12.12 0 0 0 .09-.11.12.12 0 0 0-.12-.12h-.52v-3.78h.54s.08-.06 0-.09a.61.61 0 0 0-.2-.19 1.12 1.12 0 0 0-.39-.12.11.11 0 0 0 .11-.11.12.12 0 0 0-.12-.12l.12-.13a1.37 1.37 0 0 0 .13-.2 1.71 1.71 0 0 0 .22-1 2.33 2.33 0 0 0-1.1-1.76l-.33-.25a6.18 6.18 0 0 1-1.22-1.27h.14s-.07-.05-.16-.06v-.08a.2.2 0 0 0 .18-.2.19.19 0 0 0 0-.08h-.08v-.1h.13a.21.21 0 0 0-.13 0v-.12a.11.11 0 0 0 .09-.11v-.4h.1-.09v-.25a3.27 3.27 0 0 0 0-.48 2.27 2.27 0 0 0 0 .48v.25h-.09.1v.05a.13.13 0 0 0-.09.11.14.14 0 0 0 0 .06v.12a.21.21 0 0 0-.13 0h.13V52a.2.2 0 0 0-.18.2.17.17 0 0 0 0 .1v.07c-.1 0-.17 0-.17.06s.07 0 .15 0a6 6 0 0 1-1.21 1.27l-.09.07-.3.21a2 2 0 0 0-.63 3 .11.11 0 0 0-.11.12.1.1 0 0 0 .1.11 1.19 1.19 0 0 0-.39.12.61.61 0 0 0-.2.19.07.07 0 0 0 0 .09h.54v3.78h-.52a.12.12 0 0 0-.12.12.12.12 0 0 0 .1.11s0 .08-.06.17a.53.53 0 0 0 0 .13 2.37 2.37 0 0 0 .21.62c.11.23.25.38.41.41a.11.11 0 0 0-.11.12.12.12 0 0 0 .11.12v3.68h-.2a.12.12 0 0 0-.13.12.13.13 0 0 0 .09.12v1.45h-.28v-1.08a.09.09 0 0 0-.08-.07h-.11c.08-.14 0-.34-.19-.48h-.07a1.68 1.68 0 0 1-.26-.24 1.12 1.12 0 0 1-.25.24h-.06a.43.43 0 0 0-.22.29v-.86a.11.11 0 0 0 .07-.1.1.1 0 0 0-.07-.09v-5.28a.11.11 0 0 0 .08-.1.1.1 0 0 0-.1-.1h-.24v-3.11a.1.1 0 0 0 .1-.09.1.1 0 0 0-.1-.1.36.36 0 0 0 .22-.14A1.74 1.74 0 0 0 86 57a1.92 1.92 0 0 0 .16-.51.45.45 0 0 0 0-.11c0-.08 0-.15-.05-.15a.09.09 0 0 0 .08-.09.1.1 0 0 0-.09-.1h-.44v-3.12h.45a.05.05 0 0 0 0-.08.42.42 0 0 0-.17-.15.72.72 0 0 0-.34-.1.1.1 0 1 0 0-.2 1.67 1.67 0 0 0-.52-2.55l-.28-.21a5.13 5.13 0 0 1-1-1.06c.07 0 .12 0 .13-.05s-.06 0-.14 0v-.07a.16.16 0 0 0 .15-.17.17.17 0 0 0 0-.07h-.06V48h0v-.1a.11.11 0 0 0 .07-.09.14.14 0 0 0 0-.07.14.14 0 0 0 .09 0h-.08v-.21a2.69 2.69 0 0 0 0-.4 2.69 2.69 0 0 0 0 .4v.21h-.08a.14.14 0 0 0 .09 0 .09.09 0 0 0-.07.09v.1h-.11a.2.2 0 0 0 .11 0V48a.17.17 0 0 0-.15.17.19.19 0 0 0 0 .08v.05h.06v.07h-.14s.06 0 .13.05a5.13 5.13 0 0 1-1 1.06l-.07.06-.25.18a1.67 1.67 0 0 0-.53 2.55.1.1 0 0 0 0 .2.72.72 0 0 0-.34.1.5.5 0 0 0-.17.15.05.05 0 0 0 0 .08h.45v3.16h-.43a.1.1 0 0 0-.1.1.09.09 0 0 0 .08.09v.15a.41.41 0 0 0 0 .11 2 2 0 0 0 .17.51c.09.2.21.32.34.34a.1.1 0 0 0-.1.1.1.1 0 0 0 .1.09v3.09h-.16a.1.1 0 0 0-.11.1.11.11 0 0 0 .08.1v5.3a.1.1 0 0 0-.07.09.11.11 0 0 0 .07.1v.28a1.43 1.43 0 0 1-.25.24h-.06a.37.37 0 0 0-.2.48h-.1a.08.08 0 0 0-.08.07v1.26h-.18v-1.08a.08.08 0 0 0-.07-.07h-.11a.37.37 0 0 0-.2-.48h-.07a2 2 0 0 1-.25-.24 1.43 1.43 0 0 1-.25.24h-.06a.37.37 0 0 0-.2.48h-.1a.08.08 0 0 0-.08.07v1.26h-.18v-1.26a.08.08 0 0 0-.07-.07V66a.3.3 0 0 0 .31-.3.31.31 0 0 0-.29-.31c1.5-2.17 1.18-5.79-2.29-8.15l-.14-.1c-.35-.24-.67-.48-1-.71a18.28 18.28 0 0 1-2.91-2.88c-.27-.33-.46-.59-.57-.75s0 0-.06-.06c.23 0 .4-.08.41-.15 0-.08-.2-.14-.46-.16v-.22a.59.59 0 0 0 .51-.59.49.49 0 0 0 0-.12.14.14 0 0 0 0-.06V51.32a.27.27 0 0 0-.07-.08.61.61 0 0 0-.34-.17v-.26c.2 0 .36 0 .37-.09 0-.05-.16-.08-.37-.09v-.33a.34.34 0 0 0 .25-.32.28.28 0 0 0 0-.13v-.05h-.07v-.15c.16 0 .29 0 .29-.08s-.11-.08-.27-.09v-.71a9 9 0 0 0-.11-1.37 7.52 7.52 0 0 0-.12 1.37v.71c-.15 0-.27 0-.27.09s.13.07.29.08v.15a.33.33 0 0 0-.24.32.42.42 0 0 0 0 .16.22.22 0 0 0 0 .08h.07v.33c-.2 0-.36 0-.36.09s.16.08.36.09v.26a.6.6 0 0 0-.51.59.68.68 0 0 0 .07.28.69.69 0 0 0 .22.23.45.45 0 0 0 .12.06h.09v.22c-.27 0-.49.08-.49.16s.19.14.43.15a.34.34 0 0 0-.06.06 17 17 0 0 1-3.48 3.63l-.25.19c-.27.21-.56.41-.86.62-3.47 2.36-3.79 6-2.28 8.15a.31.31 0 0 0-.29.31.3.3 0 0 0 .31.3V67a.37.37 0 0 0-.16.46h-.11a.08.08 0 0 0-.07.07v1.26h-.18v-1.31a.09.09 0 0 0-.08-.07h-.1a.38.38 0 0 0-.2-.48h-.07a1.12 1.12 0 0 1-.25-.24 1.68 1.68 0 0 1-.26.24h-.06c-.22.14-.27.34-.19.48h-.06v-3.76h.05a.06.06 0 0 0-.05-.06v-5.12s.06 0 .06-.06a.07.07 0 0 0-.07-.06h-.1v-3.64a.07.07 0 0 0 .07-.06s0-.06-.07-.06a.27.27 0 0 0-.29-.09.41.41 0 0 0 .08-.13 1.28 1.28 0 0 0 .11-.33V54v-.09a.06.06 0 0 0 0-.06.05.05 0 0 0-.06-.06h-.27v-2h.28v-.05a.24.24 0 0 0-.11-.09.48.48 0 0 0-.21-.07.05.05 0 0 0 .06-.06.06.06 0 0 0-.06-.06 1 1 0 0 0-.33-1.6l-.17-.13a3.11 3.11 0 0 1-.64-.66h0a.11.11 0 0 0 .09-.11h-.06v-.05h.06-.06v-.06a.07.07 0 0 0 0-.06v-.13a1.29 1.29 0 0 0 0-.25 1.29 1.29 0 0 0 0 .25v.19h-.06.06v.05a.12.12 0 0 0-.09.11h-.09.09a3.24 3.24 0 0 1-.63.66h-.05l-.16.11a1.05 1.05 0 0 0-.33 1.6.06.06 0 0 0-.06.06.05.05 0 0 0 .06.06.48.48 0 0 0-.21.07.24.24 0 0 0-.11.09v.05h.28v2h-.27a.05.05 0 0 0-.06.06.06.06 0 0 0 0 .06V54a1.28 1.28 0 0 0 .11.33c.06.12.13.2.22.21a.05.05 0 0 0-.06.06.06.06 0 0 0 .06.06v1.21h-.16a.47.47 0 0 0-.24-.59l-.08-.06a1.26 1.26 0 0 1-.31-.29 1.26 1.26 0 0 1-.31.29h-.07a.47.47 0 0 0-.25.59h-.12a.09.09 0 0 0-.1.09v1.63h-.21V56a.1.1 0 0 0-.1-.09h-.12a.42.42 0 0 0 0-.4V54a.37.37 0 0 0 .37-.38.37.37 0 0 0-.35-.37c1.84-2.66 1.45-7.09-2.79-10l-.18-.13c-.42-.29-.81-.58-1.18-.87a21 21 0 0 1-4.26-4.44.23.23 0 0 0-.07-.07c.28 0 .49-.09.5-.18 0-.09-.24-.17-.57-.19v-.27A.81.81 0 0 0 50 37a.75.75 0 0 0 .32-.61.77.77 0 0 0 0-.15v-.22l-.08-.1a.7.7 0 0 0-.42-.21v-.32c.25 0 .44 0 .45-.1s-.19-.1-.45-.11v-.4a.41.41 0 0 0 .3-.39.41.41 0 0 0 0-.16.57.57 0 0 0-.08-.13.45.45 0 0 0-.19-.11v-.18c.2 0 .35-.05.36-.1s-.14-.09-.33-.11v-.87a10.4 10.4 0 0 0-.29-1.73 10.4 10.4 0 0 0-.14 1.67v.87c-.19 0-.33.06-.33.11s.16.09.36.1v.18a.42.42 0 0 0-.3.4.41.41 0 0 0 .19.34h.08v.4c-.26 0-.45.06-.45.11s.2.09.45.1v.32a.73.73 0 0 0-.26 1.4l.15.06h.08v.27c-.34 0-.6.1-.6.19s.24.16.53.18l-.07.07a20.44 20.44 0 0 1-4.26 4.44l-.3.24-1.05.76c-4.25 2.88-4.64 7.31-2.8 10a.37.37 0 0 0-.35.37.38.38 0 0 0 .37.38v1.54a.39.39 0 0 0 0 .4h-.13a.09.09 0 0 0-.09.09v1.63h-.17V56a.09.09 0 0 0-.09-.09h-.13a.46.46 0 0 0-.24-.59l-.08-.06a1.26 1.26 0 0 1-.31-.29 1.26 1.26 0 0 1-.31.29h-.07a.47.47 0 0 0-.25.59h-.15v-1.14a.07.07 0 0 0 .07-.06s0-.06-.07-.06a.24.24 0 0 0 .14-.09l.08-.12a1.29 1.29 0 0 0 .1-.33.13.13 0 0 0 0-.06v-.09s.06 0 .06-.06 0-.06-.07-.06h-.38v-2h.28v-.05a.2.2 0 0 0-.11-.09.44.44 0 0 0-.21-.07s.07 0 .07-.06a.07.07 0 0 0-.07-.06 1 1 0 0 0-.33-1.6l-.17-.13a3.11 3.11 0 0 1-.66-.72h0a.11.11 0 0 0 .09-.11h-.06v-.05h0v-.06a.07.07 0 0 0 0-.06h.05-.05v-.13a1.11 1.11 0 0 0 0-.25 1.29 1.29 0 0 0 0 .25v.13h.06v.06h-.07.07v.05a.12.12 0 0 0-.1.11h-.09.09a3.78 3.78 0 0 1-.64.66l-.16.11a1.26 1.26 0 0 0-.33.32v-3.3h.53a.06.06 0 0 0 0-.09.61.61 0 0 0-.2-.19 1.12 1.12 0 0 0-.39-.12.11.11 0 0 0 .11-.11.12.12 0 0 0-.12-.12 2 2 0 0 0-.62-3.05h-.06l-.33-.25-.38-.24a5.51 5.51 0 0 1-.82-.86 1.46 1.46 0 0 1-.15-.2h.15-.17v-.09a.2.2 0 0 0 .18-.2.22.22 0 0 0 0-.08H34v-.1h0v-.11a.13.13 0 0 0 .09-.12H34 34.01A1.93 1.93 0 0 0 34 40a3 3 0 0 0 0-.47 3 3 0 0 0 0 .47v.25h-.1.1a.12.12 0 0 0-.08.11.13.13 0 0 0 0 .06v.11a.21.21 0 0 0-.13 0h.12v.1a.2.2 0 0 0-.18.2.29.29 0 0 0 0 .1H34v.08h-.17.16a5.54 5.54 0 0 1-1.21 1.27l-.09.07-.3.21a2 2 0 0 0-.63 3.05.12.12 0 0 0-.12.12.11.11 0 0 0 .11.11 1.12 1.12 0 0 0-.39.12.53.53 0 0 0-.2.19.06.06 0 0 0 .05.09h.53v3.78h-.64a.11.11 0 0 0-.11.12.12.12 0 0 0 .09.11v.17A.56.56 0 0 0 31 51a2.37 2.37 0 0 0 .21.62c.11.23.25.38.41.41a.12.12 0 0 0-.12.12.12.12 0 0 0 .12.12V56h-.2a.12.12 0 0 0-.12.12.13.13 0 0 0 .09.12v6.33a.12.12 0 0 0-.08.12.12.12 0 0 0 .08.11v21.4h-2.25a.18.18 0 0 0 0 .36h.29v1.08h-.08v3.54h.82V100h60.12l2.58-3.55 5.63-7.74zM36.32 52.31v1.46-1.46zm.3.13v1.3h-.1v-1.42a.21.21 0 0 1 .1.12zm-.28 2.15zm0-2.52zm0 2.64V56v-1.3zm1.74-2.39a.17.17 0 0 1 0 .15v1.3h-.14zm-.38 1.45v-1.3a.17.17 0 0 1 0-.15v1.45zm-.37-1.45a.21.21 0 0 1 0 .15v1.3h-.12zm-.4 1.45v-1.3a.17.17 0 0 1 0-.15v1.45zm-1.24-3.26v-2.46a.06.06 0 0 1 0-.06h.06a.34.34 0 0 1 0-.29.06.06 0 0 1 .05.06v2.75zM35 47.76a.06.06 0 0 1 0-.06h.06a.33.33 0 0 1 0 .3h.06a.06.06 0 0 1 0 .06v2.46H35zm-.74 2.75v-2.46-.06h.06a.34.34 0 0 1 0-.29v2.81zm-.7-2.75a.06.06 0 0 1 0-.06.34.34 0 0 1 0 .29h.06v2.52h-.23zm-.77.29a.06.06 0 0 1 0-.06h.06a.3.3 0 0 1 0-.3H33a.06.06 0 0 1 0 .06v2.75h-.26zm58 10.77a.06.06 0 0 1 0-.06h.07a.36.36 0 0 1 0 .3H91v2.52h-.26zm-.74 2.75V59.1v-.05h.06a.38.38 0 0 1 0-.29.06.06 0 0 1 0 .06v2.75zm-.69-2.75a.06.06 0 0 1 0-.06.34.34 0 0 1 0 .29h.06v2.52h-.23zm-.77.28v-.05h.06a.36.36 0 0 1 0-.3h.07a.06.06 0 0 1 0 .06v2.75h-.26zm2.93 2.47V59.1v-.05h.06a.34.34 0 0 1 0-.29.06.06 0 0 1 0 .06v2.75zm-3.59-2.75v-.06a.34.34 0 0 1 0 .29h.06v2.52h-.19zm-2.11 8.59v-.07a.64.64 0 0 0 0 .07zm-1.36-13.63v-.05h.06a.28.28 0 0 1 0 .25v2.11h-.22zm-.62 2.3V54v-.05h.05a.26.26 0 0 1 0-.24V56.06zm-.58-2.3v-.05a.29.29 0 0 1 0 .24v2.11h-.19zm-.65.24v-.05a.29.29 0 0 1 0-.25h.05V56.07h-.22zm2.46 2.06V54v-.05h.06a.26.26 0 0 1 0-.24V56.06zm-3-2.3v-.05a.3.3 0 0 1 0 .24v2.11h-.16zm-20-1.46a.14.14 0 0 1 0 .15v1.3h.03zm-.39 1.45v-1.3a.17.17 0 0 1 0-.15v1.45zm-.36-1.45a.16.16 0 0 1 0 .15v1.3h-.12zm-.41.15a.17.17 0 0 1 0-.15v1.45h-.14zm1.54 1.3v-1.3a.14.14 0 0 1 0-.15v1.45zm-1.85-1.45a.16.16 0 0 1 0 .15v1.3h-.1zm-22.15 1.45v-1.3a.17.17 0 0 1 0-.15v1.45zm-6.36-6a.06.06 0 0 1 0-.06.34.34 0 0 1 0 .29h.06a.06.06 0 0 1 0 .06v2.46h-.2z"/><path class="cls-4" d="M110.62 68.12A52.49 52.49 0 1 1 70.48 7.85l1.19.28h-1.15A43.41 43.41 0 1 0 109 71.63c.58-1.15 1.13-2.32 1.62-3.51z"/><path class="cls-3" d="M109 71.63A45.17 45.17 0 1 1 67.86 7.77c.88 0 1.76 0 2.62.08l1.19.28h-1.15A43.41 43.41 0 1 0 109 71.63z"/><path class="cls-3" d="M74.97 33.95L73.75 32.94 72.41 33.79 73 32.31 71.78 31.3 73.36 31.4 73.95 29.93 74.34 31.47 75.93 31.57 74.58 32.42 74.97 33.95z"/><path class="cls-3" d="M64.31 28.77L63.08 27.76 61.74 28.61 62.33 27.13 61.11 26.11 62.69 26.22 63.28 24.74 63.67 26.28 65.26 26.39 63.91 27.23 64.31 28.77z"/><path class="cls-3" d="M68.15 36.8L66.11 35.11 63.88 36.52 64.86 34.07 62.83 32.38 65.46 32.55 66.44 30.1 67.09 32.66 69.73 32.83 67.5 34.24 68.15 36.8z"/></g></g></svg>