<svg viewBox="0 0 98 117.94" xmlns="http://www.w3.org/2000/svg"><path d="m93.61 43.48c-1.61-5.29-3.86-9.66-6.67-12.48-3.4-3.4-9.08-5.94-15.89-7.61a83.26 83.26 0 0 0 -11.29-1.91l9.92-9.92a3 3 0 0 0 -4.18-4.17l-13.5 13.55-20.42-19.14a3 3 0 1 0 -4 4.31l16 15a89.09 89.09 0 0 0 -16.75 2.36c-6.83 1.66-12.41 4.18-15.77 7.53-13.41 13.41-13.41 62.46 0 75.88 3.39 3.39 9.06 5.92 15.86 7.6a93.77 93.77 0 0 0 22.08 2.46 93.68 93.68 0 0 0 22.21-2.48c6.74-1.68 12.36-4.2 15.73-7.57 10.6-10.6 12.83-43.47 6.67-63.41z" fill="#4a4a4b" stroke="#fff" stroke-linejoin="round" stroke-width="2"/><path d="m83.36 47.78c-1.36-4.39-3.2-8-5.54-10.36-2.82-2.82-7.54-4.93-13.2-6.32a99.34 99.34 0 0 1 2.94 16.69z" fill="#9263a8"/><path d="m68.25 69a182.82 182.82 0 0 0 -.69-21.16 98.17 98.17 0 0 0 -2.94-16.74 78.26 78.26 0 0 0 -18.32-2v39.9z" fill="#57c3f0"/><path d="m77.82 100.47c8.81-8.81 10.66-36.12 5.54-52.68h-15.8a182.82 182.82 0 0 1 .69 21.21h-22v20.73h-20.55c.93 9.14 2 15.68 2.25 17.06a78.57 78.57 0 0 0 18.35 2 78.21 78.21 0 0 0 18.45-2.07c5.6-1.39 10.27-3.49 13.07-6.29" fill="#fdd811"/><path d="m46.3 89.72v-60.65a77.08 77.08 0 0 0 -18.5 2.08c-4.88 18.21-3.73 42.44-2.1 58.58z" fill="#f9a238"/><path d="m28 106.79c-.24-1.38-1.32-7.92-2.25-17.07-1.63-16.13-2.78-40.37 2.1-58.57-5.58 1.39-10.23 3.48-13 6.28-11.15 11.14-11.15 51.9 0 63 2.81 2.82 7.52 4.92 13.17 6.32" fill="#ef5c80"/></svg>