<svg viewBox="0 0 120 120" xmlns="http://www.w3.org/2000/svg" xmlns:xlink="http://www.w3.org/1999/xlink"><clipPath id="a"><path d="m63.77 99.52a9.87 9.87 0 0 1 -5.69-.07 1.45 1.45 0 0 1 -1-1.35l-3.2-75.23a1.44 1.44 0 0 1 1-1.44c2.26-.74 8.22-2.32 11.69.32a1.45 1.45 0 0 1 .54 1.25c-.33 6.48-2.26 55.85-2.33 75.16a1.45 1.45 0 0 1 -1.01 1.36z"/></clipPath><clipPath id="b"><path d="m74.22 100.31a10 10 0 0 1 -5.63-.63 1.47 1.47 0 0 1 -.91-1.47l5.78-75.56a1.45 1.45 0 0 1 1.18-1.32c2.23-.43 8.52-.15 11.38 2.91a1.46 1.46 0 0 1 .38 1.23c-1 6.17-9 54.31-11 73.56a1.47 1.47 0 0 1 -1.18 1.28z"/></clipPath><clipPath id="c"><path d="m46.28 100.31a9.91 9.91 0 0 0 5.64-.64 1.45 1.45 0 0 0 .91-1.46l-5.4-75.21a1.47 1.47 0 0 0 -1.14-1.32c-2.14-.47-8.68-.59-12 2a1.45 1.45 0 0 0 -.54 1.36c1 6.7 9.37 54.82 11.34 74a1.48 1.48 0 0 0 1.19 1.27z"/></clipPath><clipPath id="d"><rect height="3.28" rx="1.21" transform="matrix(.98939944 -.14521967 .14521967 .98939944 -1.23 7.27)" width="21.7" x="38.32" y="10.4"/></clipPath><clipPath id="e"><rect height="8.71" rx="1.38" transform="matrix(.98939944 -.14521967 .14521967 .98939944 -1.35 6.7)" width="4.02" x="43.17" y="8.27"/></clipPath><clipPath id="f"><rect height="8.71" rx="1.38" transform="matrix(.98939944 -.14521967 .14521967 .98939944 -1.23 7.27)" width="4.02" x="47.17" y="7.68"/></clipPath><clipPath id="g"><rect height="8.71" rx="1.38" transform="matrix(.98939944 -.14521967 .14521967 .98939944 -1.1 7.84)" width="4.02" x="51.16" y="7.1"/></clipPath><clipPath id="h"><rect height="3.28" rx="1.21" transform="matrix(.96524493 .26134694 -.26134694 .96524493 5.97 -19.78)" width="21.7" x="66.52" y="10.92"/></clipPath><clipPath id="i"><rect height="8.71" rx="1.38" transform="matrix(.96524493 .26134694 -.26134694 .96524493 5.56 -18.8)" width="4.02" x="71.46" y="7.14"/></clipPath><clipPath id="j"><rect height="8.71" rx="1.38" transform="matrix(.96524493 .26134694 -.26134694 .96524493 5.97 -19.78)" width="4.02" x="75.36" y="8.2"/></clipPath><clipPath id="k"><rect height="8.71" rx="1.38" transform="matrix(.96524493 .26134694 -.26134694 .96524493 6.38 -20.76)" width="4.02" x="79.26" y="9.25"/></clipPath><path d="m53.36 5a3.4 3.4 0 0 1 3.18 2.24l1.64-.24a3.59 3.59 0 0 1 .47 0 3.23 3.23 0 0 1 3.18 2.75l.09.65v.19a3.21 3.21 0 0 1 -2.71 3.64l-1.64.24a3.37 3.37 0 0 1 -2.68 3.13h-.21l-1.24.19a4 4 0 0 1 -.49 0 3.22 3.22 0 0 1 -.93-.13 3.48 3.48 0 0 1 -1.12.46h-.21l-1.24.18a2.81 2.81 0 0 1 -.5 0 3.46 3.46 0 0 1 -.92-.13 3.39 3.39 0 0 1 -1.13.45h-.21l-1.21.38a4 4 0 0 1 -.48 0 3.39 3.39 0 0 1 -3.18-2.24l-1.65.24a3.71 3.71 0 0 1 -.47 0 3.23 3.23 0 0 1 -3.18-2.74v-.18l-.1-.66a3.21 3.21 0 0 1 2.71-3.65l1.64-.24a3.39 3.39 0 0 1 2.89-3.17l1.24-.18h.22.27a3.46 3.46 0 0 1 .92.12 3.44 3.44 0 0 1 1.34-.5l1.24-.18h.23.27a3.08 3.08 0 0 1 .91.13 3.35 3.35 0 0 1 1.34-.5l1.25-.19h.22.27m0-2h-.39-.39l-1.25.19a5.72 5.72 0 0 0 -1.35.41q-.3 0-.6 0h-.4-.39l-1.24.18a5.19 5.19 0 0 0 -1.37.41c-.2 0-.41 0-.61 0h-.39-.39l-1.24.18a5.42 5.42 0 0 0 -4.24 3.37h-.29a5.23 5.23 0 0 0 -4.4 5.92l.1.66v.18a5.24 5.24 0 0 0 5.16 4.45 4.85 4.85 0 0 0 .76-.05h.3a5.37 5.37 0 0 0 4.24 2.04 5.11 5.11 0 0 0 .78-.05l1.22-.14.37-.08a4.85 4.85 0 0 0 1-.31 4.3 4.3 0 0 0 .62 0 5.25 5.25 0 0 0 .79-.06l1.22-.14.36-.07a6.22 6.22 0 0 0 1-.31q.32 0 .63 0a5.12 5.12 0 0 0 .78-.06l1.23-.15a3 3 0 0 0 .37-.07 5.42 5.42 0 0 0 3.87-3.3h.29a5.22 5.22 0 0 0 4.4-5.92v-.18l-.09-.65a5.24 5.24 0 0 0 -5.19-4.51 6.47 6.47 0 0 0 -.76 0l-.3.05a5.37 5.37 0 0 0 -4.23-2.05z" fill="#fff"/><path d="m73.64 5.08a3.35 3.35 0 0 1 .89.12l1.21.33.26.07a3.26 3.26 0 0 1 1 .58 3.27 3.27 0 0 1 .54 0 3.72 3.72 0 0 1 .88.11l1.22.33.21.07a3.82 3.82 0 0 1 1.05.58 4.56 4.56 0 0 1 .54 0 3.33 3.33 0 0 1 .88.12l1.22.33.2.07a3.35 3.35 0 0 1 2.26 3.34l1.6.43a3.2 3.2 0 0 1 2.26 3.94l-.17.64v.18a3.22 3.22 0 0 1 -3.1 2.38 3 3 0 0 1 -.84-.12l-1.6-.43a3.4 3.4 0 0 1 -2.06 1.73 11.19 11.19 0 0 1 5.42 3 3.42 3.42 0 0 1 .9 2.89c-.17 1.13-.58 3.64-1.15 7.12-1.26 7.68-3.35 20.41-5.26 33.11.45.51.88 1.05 1.3 1.61l.08.1.5.7a.83.83 0 0 1 .08.12 29.48 29.48 0 0 1 5.04 13.47.59.59 0 0 1 0 .13v.1.16.18c0 .16 0 .32.05.48v.2c.06.76.08 1.45.08 2.1a29.45 29.45 0 0 1 -5.07 16.57l-.06.09-.58.83-.08.09a29.64 29.64 0 0 1 -12.47 9.76l-.14.06-.34.13-.15.06h-.12l-.56.21-.12.05h-.14a29.55 29.55 0 0 1 -19.12.14l-.2-.06-.24-.09h-.11q-.29-.09-.57-.21l-.06.02-.26-.1-.17-.08a29.3 29.3 0 0 1 -7.27-4.2l-.13-.1-.14-.11-.89-.75-.09-.08-.2-.18c-.36-.32-.72-.65-1-1l-.07-.07c-.38-.38-.75-.76-1.11-1.16l-.09-.11c-.31-.35-.61-.7-.91-1.06l-.18-.23-.08-.11-.06-.09-.11-.12-.09-.12c-.11-.14-.22-.28-.34-.45l-.07-.1-.06-.07v-.07l-.06-.1-.07-.09-.58-.86c-.1-.15-.2-.3-.29-.46s-.36-.59-.54-.89v-.09l-.21-.36c-.18-.33-.35-.66-.52-1l-.06-.12c0-.09-.1-.18-.14-.27-.22-.45-.43-.9-.61-1.32v-.1c-.2-.47-.4-1-.58-1.48l-.09-.26v-.12q-.2-.56-.36-1.11l-.12-.4v-.14c-.09-.33-.18-.66-.26-1s-.1-.4-.14-.6-.14-.64-.2-1-.08-.41-.11-.62l-.15-1v-.13c0-.17-.05-.33-.06-.49 0-.36-.07-.73-.1-1.09v-.17-.36c0-.58-.05-1.12-.05-1.64s0-1 .05-1.58.05-.78.08-1.16c0 0 0-.08 0-.12a29.6 29.6 0 0 1 5-13.76l.57-.82.08-.09a28.28 28.28 0 0 1 2.51-3c-1.7-10.7-3.45-21.21-4.74-28.95-.86-5.2-1.49-9-1.72-10.53a3.47 3.47 0 0 1 1.27-3.23 13.58 13.58 0 0 1 6.63-2.48 24.1 24.1 0 0 1 3.43-.23 17.66 17.66 0 0 1 3.57.31 3.47 3.47 0 0 1 2.71 3.13l2.44 33.91h.09.08l.38-.1h.07.13l.32-.08h.18.14l-1.81-33.65a3.48 3.48 0 0 1 2.38-3.42 24.29 24.29 0 0 1 7.11-1.23h1a9.74 9.74 0 0 1 5.4 1.84 3.44 3.44 0 0 1 1.36 2.93c-.16 3.18-.74 17.41-1.29 33.82l.81.25h.11l2.75-34.63a3.46 3.46 0 0 1 2.8-3.14 13.61 13.61 0 0 1 2.39-.19c.42 0 1 0 1.54.07a3.19 3.19 0 0 1 -.47-.31 4.73 4.73 0 0 1 -.53 0 3.92 3.92 0 0 1 -.68-.07h-.21l-1.21-.32a3.35 3.35 0 0 1 -1.27-.66 3.36 3.36 0 0 1 -1.2 0h-.21l-1.22-.33a3.39 3.39 0 0 1 -2.49-3.55l-1.59-.43a3.22 3.22 0 0 1 -2.27-3.94l.05-.18.17-.64a3.23 3.23 0 0 1 3.11-2.38 3.46 3.46 0 0 1 .84.11l1.6.44a3.38 3.38 0 0 1 3-1.88m0-2a5.45 5.45 0 0 0 -3.81 1.59l-.29-.08a5.22 5.22 0 0 0 -6.4 3.67l-.12.63v.17a5.22 5.22 0 0 0 3.67 6.4l.29.08a5.39 5.39 0 0 0 1.74 2.76 12 12 0 0 0 -6.14-2c-.38 0-.76 0-1.15 0a26.18 26.18 0 0 0 -7.73 1.33 5.52 5.52 0 0 0 -3.06 2.52 5.48 5.48 0 0 0 -3.4-2.36 19.74 19.74 0 0 0 -4-.35 26.32 26.32 0 0 0 -3.7.25 15.51 15.51 0 0 0 -7.6 2.89 5.48 5.48 0 0 0 -2 5.09c.24 1.59.86 5.35 1.73 10.55 1.24 7.48 2.93 17.63 4.58 28-.7.77-1.35 1.58-2 2.4l-.11.15c-.21.28-.42.57-.62.87a31.58 31.58 0 0 0 -5.29 14.65 1 1 0 0 0 0 .17c0 .41-.07.82-.09 1.24s-.12 1.1-.12 1.64 0 1.13.05 1.75v.42.15c0 .38.06.77.1 1.16l.06.53v.13c0 .35.1.71.16 1.06s.07.44.11.66.14.69.22 1 .09.43.15.64.18.7.28 1v.14c0 .14.09.29.13.44.12.4.25.79.39 1.19v.1c0 .09.07.2.11.3.2.55.4 1.08.62 1.58v.13c.2.45.41.92.64 1.38l.16.32.06.12.55 1 .23.39v.1l.57.95c.11.16.21.32.31.48l.62.9v.06l.12.17.08.11v.05l.08.11c.12.16.23.32.35.46l.1.13.17.2.07.1.21.26c.31.38.63.76 1 1.13l.08.09c.41.45.81.87 1.21 1.27l.09.09c.35.35.72.69 1.1 1l.24.21.09.08.91.76.17.15.19.14a31.83 31.83 0 0 0 7.64 4.42l.25.11c.11 0 .22.08.33.12h.11l.58.22h.09l.28.1.29.09a31.58 31.58 0 0 0 20.65.2l.2-.07.16-.06.58-.22h.11.14l.39-.16.2-.08a31.71 31.71 0 0 0 13.22-10.45l.11-.14c.21-.29.42-.58.62-.88a.55.55 0 0 0 .09-.14 31.42 31.42 0 0 0 5.38-17.65c0-.67 0-1.38-.08-2.16 0-.1 0-.2 0-.3s0-.35 0-.52v-.17-.16-.05c0-.08 0-.15 0-.21a31.77 31.77 0 0 0 -5.36-14.29l-.12-.18-.64-.79-.13-.17q-.37-.49-.75-1c1.88-12.36 3.88-24.68 5.08-32.12l1.16-7.16a5.45 5.45 0 0 0 -1.42-4.57 10 10 0 0 0 -1.06-1 5.21 5.21 0 0 0 3.71-3.68v-.17l.17-.65a5.21 5.21 0 0 0 -3.67-6.39l-.28-.08a5.38 5.38 0 0 0 -3.43-3.72 2.29 2.29 0 0 0 -.37-.12l-1.22-.33a5 5 0 0 0 -1.39-.19 5.1 5.1 0 0 0 -.92-.42l-.37-.12-1.11-.32a5.54 5.54 0 0 0 -1.4-.18 5.1 5.1 0 0 0 -.92-.42 2.53 2.53 0 0 0 -.36-.12l-1.22-.33a5.16 5.16 0 0 0 -1.41-.19zm-3.38 16.9a5.5 5.5 0 0 0 -1.11-1.25 5.41 5.41 0 0 0 1.5.69 5.58 5.58 0 0 0 -.39.56z" fill="#fff"/><path d="m73.64 7.08a1.49 1.49 0 0 1 .36 0l1.22.33a1.38 1.38 0 0 1 .92 1.67l-.35 1.29.35-1.29a1.37 1.37 0 0 1 1.33-1 1.47 1.47 0 0 1 .36 0l1.21.33a1.37 1.37 0 0 1 .92 1.67l-.35 1.3.35-1.29a1.4 1.4 0 0 1 1.34-1 1.56 1.56 0 0 1 .36.05l1.34.43a1.38 1.38 0 0 1 1 1.69l-.35 1.29 3.47.94a1.22 1.22 0 0 1 .88 1.51l-.17.64v.18a1.22 1.22 0 0 1 -1.17.9 1.19 1.19 0 0 1 -.32-.05l-3.47-.94-.45 1.27a1.37 1.37 0 0 1 -1.32 1 1.55 1.55 0 0 1 -.31 0h-.06l-1.21-.33a1.38 1.38 0 0 1 -1-1.69l.35-1.29-.34 1.31a1.37 1.37 0 0 1 -1.33 1 1.1 1.1 0 0 1 -.31 0l-1.22-.32a1.39 1.39 0 0 1 -1-1.7l.33-1.37-.35 1.29a1.37 1.37 0 0 1 -1.33 1h-.31l-1.21-.33a1.38 1.38 0 0 1 -1-1.69l.35-1.29-3.47-.94a1.22 1.22 0 0 1 -.86-1.49v-.18l.18-.67a1.21 1.21 0 0 1 1.17-.9 1.12 1.12 0 0 1 .31.05l3.52.93.35-1.29a1.39 1.39 0 0 1 1.33-1m0-2a3.38 3.38 0 0 0 -3 1.88l-1.68-.46a3.46 3.46 0 0 0 -.84-.11 3.23 3.23 0 0 0 -3.11 2.38l-.17.64-.05.18a3.22 3.22 0 0 0 2.27 3.94l1.59.43a3.39 3.39 0 0 0 2.49 3.49l1.22.33h.21a3.36 3.36 0 0 0 1.2 0 3.35 3.35 0 0 0 1.27.66l1.21.32h.21a3.14 3.14 0 0 0 .68.07 4.73 4.73 0 0 0 .53 0 3.33 3.33 0 0 0 1.27.65l1.21.33h.21a3.08 3.08 0 0 0 .68.07 3.38 3.38 0 0 0 3-1.87l1.6.43a3 3 0 0 0 .84.12 3.22 3.22 0 0 0 3.1-2.38v-.17l.17-.65a3.2 3.2 0 0 0 -2.26-3.94l-1.53-.31a3.35 3.35 0 0 0 -2.28-3.42l-.2-.07-1.22-.33a3.33 3.33 0 0 0 -.88-.12 4.56 4.56 0 0 0 -.54 0 3.82 3.82 0 0 0 -1.05-.58l-.21-.07-1.22-.33a3.72 3.72 0 0 0 -.88-.11 3.27 3.27 0 0 0 -.54 0 3.26 3.26 0 0 0 -1-.58l-.21-.07-1.24-.25a3.35 3.35 0 0 0 -.89-.12z" fill="#1d1c1a"/><path d="m53.36 7a1.38 1.38 0 0 1 1.36 1.18l.2 1.32 3.55-.5h.18a1.21 1.21 0 0 1 1.2 1l.09.65v.19a1.2 1.2 0 0 1 -1 1.37l-3.56.52.2 1.33a1.38 1.38 0 0 1 -1.11 1.55h-.06l-1.24.18h-.17a1.38 1.38 0 0 1 -1.37-1.18l-.19-1.32.19 1.33a1.37 1.37 0 0 1 -1.11 1.55l-1.24.18h-.21a1.38 1.38 0 0 1 -1.36-1.18l-.28-1.17.2 1.32a1.37 1.37 0 0 1 -1.11 1.55h-.06l-1.27.13h-.19a1.38 1.38 0 0 1 -1.36-1.17l-.2-1.33-3.55.52h-.19a1.21 1.21 0 0 1 -1.2-1v-.18l-.09-.66a1.21 1.21 0 0 1 1-1.38l3.59-.5-.24-1.3a1.38 1.38 0 0 1 1.17-1.56l1.24-.18h.2a1.37 1.37 0 0 1 1.36 1.17l.2 1.33-.19-1.32a1.37 1.37 0 0 1 1.16-1.57l1.24-.18h.21a1.38 1.38 0 0 1 1.38 1.11l.19 1.33-.17-1.33a1.38 1.38 0 0 1 1.16-1.56l1.25-.19h.2m0-2h-.27-.22l-1.25.19a3.35 3.35 0 0 0 -1.34.5 3.08 3.08 0 0 0 -.91-.13h-.27-.23l-1.24.18a3.44 3.44 0 0 0 -1.34.5 3.46 3.46 0 0 0 -.92-.12h-.27-.22l-1.24.18a3.39 3.39 0 0 0 -2.89 3.25l-1.64.24a3.21 3.21 0 0 0 -2.71 3.65l.1.66v.18a3.23 3.23 0 0 0 3.18 2.74 3.71 3.71 0 0 0 .47 0l1.64-.24a3.39 3.39 0 0 0 3.21 2.17 4 4 0 0 0 .49 0l1.24-.18h.21a3.39 3.39 0 0 0 1.13-.45 3.46 3.46 0 0 0 .92.13 2.81 2.81 0 0 0 .5 0l1.24-.18h.21a3.48 3.48 0 0 0 1.12-.46 3.22 3.22 0 0 0 .93.13 4 4 0 0 0 .49 0l1.24-.19h.21a3.37 3.37 0 0 0 2.68-3.13l1.64-.24a3.21 3.21 0 0 0 2.75-3.83v-.19l-.09-.65a3.23 3.23 0 0 0 -3.26-2.76 3.59 3.59 0 0 0 -.47 0l-1.64.24a3.4 3.4 0 0 0 -3.18-2.24z" fill="#1d1c1a"/><path d="m61.33 20.29h.88a7.94 7.94 0 0 1 4.32 1.44 1.45 1.45 0 0 1 .58 1.27c-.18 3.43-.8 18.84-1.36 35.47h.2.21.09l.47.12.33.09h.09l.18.06.76.23.58.2c.25.08.5.17.74.27l.57.22.62.26 2.86-37.39a1.45 1.45 0 0 1 1.18-1.32 10.83 10.83 0 0 1 2-.16 19.8 19.8 0 0 1 3.87.4 10.34 10.34 0 0 1 5.5 2.79 1.46 1.46 0 0 1 .38 1.23c-.57 3.7-3.71 22.51-6.56 41.13l.23.24a24.36 24.36 0 0 1 1.64 2c.16.22.32.43.47.66a27.48 27.48 0 0 1 4.84 12.85.34.34 0 0 1 0 .1 1.8 1.8 0 0 1 0 .22c0 .18 0 .36.05.54q.09 1.06.09 2.16a27.43 27.43 0 0 1 -4.78 15.53l-.54.77a27.7 27.7 0 0 1 -11.82 9.25l-.46.18-.63.24h-.12a27.6 27.6 0 0 1 -18.15.11l-.33-.12-.53-.2-.36-.13a27.54 27.54 0 0 1 -7-4.06l-.12-.11c-.28-.23-.56-.46-.83-.7-.09-.08-.19-.15-.28-.24-.33-.3-.66-.6-1-.92l-.06-.06c-.36-.35-.7-.71-1-1.08l-.09-.11c-.29-.32-.57-.65-.84-1a3.92 3.92 0 0 1 -.25-.32l-.19-.23-.12-.16-.3-.4a.86.86 0 0 1 -.07-.1l-.08-.1-.13-.18-.55-.81-.27-.42c-.17-.27-.34-.55-.5-.83l-.24-.42-.5-.92c-.06-.13-.12-.25-.19-.37-.2-.41-.39-.83-.57-1.25v-.08c-.19-.45-.37-.91-.54-1.37l-.12-.35c-.12-.35-.23-.69-.34-1 0-.17-.1-.34-.14-.5-.09-.31-.17-.62-.25-.93s-.09-.37-.13-.55-.13-.61-.18-.91-.08-.38-.11-.58-.09-.61-.13-.92 0-.38-.08-.58-.06-.68-.08-1c0-.16 0-.33 0-.49 0-.51 0-1 0-1.53s0-1 0-1.47c0-.37.05-.73.08-1.09a27.35 27.35 0 0 1 4.64-12.94c.17-.26.35-.51.53-.76a28.35 28.35 0 0 1 3.1-3.56c-2.89-18.27-6-36.53-6.61-40.47a1.45 1.45 0 0 1 .54-1.36 11.79 11.79 0 0 1 5.58-2.13 23.35 23.35 0 0 1 3.15-.21 16.15 16.15 0 0 1 3.15.26 1.47 1.47 0 0 1 1.13 1.31l2.57 36.46c.79-.29 1.6-.55 2.42-.77h.09l.42-.11.42-.1c.64-.14 1.28-.27 1.93-.37l-1.44-35.24a1.44 1.44 0 0 1 1-1.44 22.16 22.16 0 0 1 6.49-1.14m0-2a24.29 24.29 0 0 0 -7.11 1.23 3.48 3.48 0 0 0 -2.38 3.42l1.42 33.51h-.14-.18l-.32.08h-.13-.07l-.38.1h-.08-.09l-2.45-33.76a3.47 3.47 0 0 0 -2.71-3.13 17.66 17.66 0 0 0 -3.57-.31 24.1 24.1 0 0 0 -3.43.23 13.58 13.58 0 0 0 -6.63 2.48 3.47 3.47 0 0 0 -1.27 3.23c.23 1.57.86 5.33 1.72 10.53 1.29 7.74 3 18.25 4.74 28.95a28.28 28.28 0 0 0 -2.51 3l-.08.09-.57.82a29.6 29.6 0 0 0 -5 13.76s0 .08 0 .12c0 .38-.06.77-.08 1.16s-.03 1.05-.03 1.56 0 1.06.05 1.64v.36.17c0 .36.06.73.1 1.09 0 .16 0 .32.06.49v.13l.15 1c0 .21.07.41.11.62s.13.65.2 1 .09.4.14.6.17.66.26 1v.14l.12.4q.16.55.36 1.11v.12l.09.26c.18.51.38 1 .58 1.48v.1c.18.42.39.87.61 1.32 0 .09.09.18.14.27l.06.12c.17.33.34.66.52 1l.21.36v.09c.18.3.35.6.54.89s.19.31.29.46l.58.86.07.09.06.1v.07l.06.07.07.1c.12.17.23.31.34.45l.09.12.11.12.06.09.08.11.18.23c.3.36.6.71.91 1.06l.09.11c.36.4.73.78 1.11 1.16l.07.07c.33.33.69.66 1 1l.2.18.09.08.89.75.14.11.13.1a29.3 29.3 0 0 0 7.27 4.2l.17.08.26.1h.12q.28.12.57.21h.11l.24.09.2.06a29.55 29.55 0 0 0 19.12-.14h.14l.12-.05.56-.21h.12l.15-.06.34-.13.14-.06a29.64 29.64 0 0 0 12.47-9.76l.08-.09.58-.83.06-.09a29.45 29.45 0 0 0 5.46-16.57c0-.65 0-1.34-.08-2.1v-.2c0-.16 0-.32-.05-.48v-.18-.16-.1a.59.59 0 0 0 -.07-.14 29.48 29.48 0 0 0 -5-13.46.83.83 0 0 0 -.08-.12l-.5-.7-.08-.1c-.42-.56-.85-1.1-1.3-1.61 2-12.66 4-25.39 5.27-33.07.57-3.48 1-6 1.15-7.12a3.42 3.42 0 0 0 -.9-2.89 12 12 0 0 0 -6.55-3.27 21.49 21.49 0 0 0 -4.27-.44 13.61 13.61 0 0 0 -2.39.19 3.46 3.46 0 0 0 -2.8 3.14l-2.74 34.67h-.11l-.81-.25c.55-16.41 1.13-30.64 1.29-33.82a3.44 3.44 0 0 0 -1.36-2.93 9.74 9.74 0 0 0 -5.4-1.84c-.32 0-.67 0-1 0z" fill="#1d1c1a"/><path d="m63.77 99.52a9.87 9.87 0 0 1 -5.69-.07 1.45 1.45 0 0 1 -1-1.35l-3.2-75.23a1.44 1.44 0 0 1 1-1.44c2.26-.74 8.22-2.32 11.69.32a1.45 1.45 0 0 1 .54 1.25c-.33 6.48-2.26 55.85-2.33 75.16a1.45 1.45 0 0 1 -1.01 1.36z" fill="#e9e3bd"/><g clip-path="url(#a)"><path d="m62.21 14.82h11.05v92.89h-11.05z" fill="#3f4040" opacity=".1"/></g><path d="m74.22 100.31a10 10 0 0 1 -5.63-.63 1.47 1.47 0 0 1 -.91-1.47l5.78-75.56a1.45 1.45 0 0 1 1.18-1.32c2.23-.43 8.52-.15 11.38 2.91a1.46 1.46 0 0 1 .38 1.23c-1 6.17-9 54.31-11 73.56a1.47 1.47 0 0 1 -1.18 1.28z" fill="#e9e3bd"/><g clip-path="url(#b)"><path d="m76.45 16.18h11.05v92.89h-11.05z" fill="#3f4040" opacity=".1" transform="matrix(.99503822 .09949342 -.09949342 .99503822 6.63 -7.84)"/></g><path d="m46.28 100.31a9.91 9.91 0 0 0 5.64-.64 1.45 1.45 0 0 0 .91-1.46l-5.4-75.21a1.47 1.47 0 0 0 -1.14-1.32c-2.14-.47-8.68-.59-12 2a1.45 1.45 0 0 0 -.54 1.36c1 6.7 9.37 54.82 11.34 74a1.48 1.48 0 0 0 1.19 1.27z" fill="#e9e3bd"/><g clip-path="url(#c)"><path d="m33 16.18h11.05v92.89h-11.05z" fill="#3f4040" opacity=".1" transform="matrix(-.99503822 .09949342 -.09949342 -.99503822 83.09 121.11)"/></g><rect fill="#e9e3bd" height="3.28" rx="1.21" transform="matrix(.98939944 -.14521967 .14521967 .98939944 -1.23 7.27)" width="21.7" x="38.32" y="10.4"/><g clip-path="url(#d)"><path d="m37.28 12.19h25.37v4.02h-25.37z" fill="#3f4040" opacity=".1" transform="matrix(.98939944 -.14521967 .14521967 .98939944 -1.53 7.41)"/></g><rect fill="#e9e3bd" height="8.71" rx="1.38" transform="matrix(.98939944 -.14521967 .14521967 .98939944 -1.35 6.7)" width="4.02" x="43.17" y="8.27"/><g clip-path="url(#e)"><path d="m45.85 5.41h2.82v13.9h-2.82z" fill="#3f4040" opacity=".1" transform="matrix(.98939944 -.14521967 .14521967 .98939944 -1.29 6.99)"/></g><rect fill="#e9e3bd" height="8.71" rx="1.38" transform="matrix(.98939944 -.14521967 .14521967 .98939944 -1.23 7.27)" width="4.02" x="47.17" y="7.68"/><g clip-path="url(#f)"><path d="m49.84 4.82h2.82v13.9h-2.82z" fill="#3f4040" opacity=".1" transform="matrix(.98939944 -.14521967 .14521967 .98939944 -1.17 7.57)"/></g><rect fill="#e9e3bd" height="8.71" rx="1.38" transform="matrix(.98939944 -.14521967 .14521967 .98939944 -1.1 7.84)" width="4.02" x="51.16" y="7.1"/><g clip-path="url(#g)"><path d="m53.84 4.24h2.82v13.9h-2.82z" fill="#3f4040" opacity=".1" transform="matrix(.98939944 -.14521967 .14521967 .98939944 -1.04 8.14)"/></g><rect fill="#e9e3bd" height="3.28" rx="1.21" transform="matrix(.96524493 .26134694 -.26134694 .96524493 5.97 -19.78)" width="21.7" x="66.52" y="10.92"/><g clip-path="url(#h)"><path d="m64.55 12.84h25.37v4.02h-25.37z" fill="#3f4040" opacity=".1" transform="matrix(.96524493 .26134694 -.26134694 .96524493 6.56 -19.66)"/></g><rect fill="#e9e3bd" height="8.71" rx="1.38" transform="matrix(.96524493 .26134694 -.26134694 .96524493 5.56 -18.8)" width="4.02" x="71.46" y="7.14"/><g clip-path="url(#i)"><path d="m74.07 5.13h2.82v13.9h-2.82z" fill="#3f4040" opacity=".1" transform="matrix(.96524493 .26134694 -.26134694 .96524493 5.78 -19.3)"/></g><rect fill="#e9e3bd" height="8.71" rx="1.38" transform="matrix(.96524493 .26134694 -.26134694 .96524493 5.97 -19.78)" width="4.02" x="75.36" y="8.2"/><g clip-path="url(#j)"><path d="m77.97 6.19h2.82v13.9h-2.82z" fill="#3f4040" opacity=".1" transform="matrix(.96524493 .26134694 -.26134694 .96524493 6.19 -20.28)"/></g><rect fill="#e9e3bd" height="8.71" rx="1.38" transform="matrix(.96524493 .26134694 -.26134694 .96524493 6.38 -20.76)" width="4.02" x="79.26" y="9.25"/><g clip-path="url(#k)"><path d="m81.86 7.24h2.82v13.9h-2.82z" fill="#3f4040" opacity=".1" transform="matrix(.96524493 .26134694 -.26134694 .96524493 6.6 -21.26)"/></g><path d="m59.6 57.76a27.6 27.6 0 1 1 -27.6 27.6 27.59 27.59 0 0 1 27.6-27.6zm0 0" fill="#fff"/><path d="m59.6 57.76a27.6 27.6 0 1 1 -27.6 27.6 27.59 27.59 0 0 1 27.6-27.6zm0 0" fill="#1d1c1a" opacity=".12"/><path d="m59.6 57.76a27.53 27.53 0 0 1 20.49 9.1 28.33 28.33 0 0 1 -37.67 40.14 27.6 27.6 0 0 1 17.18-49.24zm0 0" fill="#fff"/><path d="m59.8 62c-.8-.12-2.45-1.13-5.21-1.36zm0 0" fill="#4d4d4d"/><g fill="#999"><path d="m59.84 63.27.16 9.51h-.64l-.13-9.52zm0 0"/><path d="m51.42 61.65s-7.35 2.24-11 7.82l-.54-.36c3.79-5.79 11.35-8.11 11.37-8.11l.17.63zm0 0"/><path d="m40.54 76.35s6.08.7 10.22 2.8l-.29.58c-4-2-10-2.73-10-2.73v-.65zm0 0"/><path d="m36 84s-.39 8.17 3.42 13.43l-.52.38c-4-5.48-3.55-13.89-3.54-13.91zm0 0"/><path d="m51.53 106.34a2.28 2.28 0 0 1 .46.09c1.56.38 9.43 1.75 15-.49l.24.61c-5.8 2.3-13.84.9-15.43.51l-.33-.08v-.64zm0 0"/><path d="m83.85 83.68s0 9.14-3.85 13.86l-.5-.42c3.72-4.51 3.71-13.37 3.71-13.39h.65zm0 0"/><path d="m78.14 76.88a31.05 31.05 0 0 0 -9 2.63l-.2-.57a29.85 29.85 0 0 1 9-2.63zm0 0"/><path d="m54.34 90.1-7.34 9.66-.52-.4 7.33-9.66zm0 0"/><path d="m65.14 89.54 7.07 9.4-.52.38-7.07-9.39zm0 0"/><path d="m68.54 61.35a19.32 19.32 0 0 1 10.39 7.43l-.55.36a19.19 19.19 0 0 0 -10-7.28l.2-.51zm0 0"/><path d="m47.86 107.92s1.21 1.66 2.84 3.57c-.41-.14-.82-.29-1.22-.45-1.26-1.53-2.12-2.71-2.13-2.72zm0 0"/><path d="m71.76 108.11a16.86 16.86 0 0 1 -1.71 2.8c-.4.17-.81.32-1.21.46a16.48 16.48 0 0 0 2.34-3.54zm0 0"/><path d="m33.77 82a22.58 22.58 0 0 0 -1.77 1.89c0-.37.05-.73.08-1.09.74-.83 1.31-1.36 1.31-1.37l.34.59zm0 0"/><path d="m39.48 102.42a9.87 9.87 0 0 1 -1.73-.21c-.21-.26-.4-.53-.6-.8a10.87 10.87 0 0 0 2.34.37zm0 0"/><path d="m54.22 59.64-1.76-1 .93-.23 1.11.59zm0 0"/><path d="m64.77 59.19 1.4-.65 1 .26-2.17 1zm0 0"/><path d="m37 71.11-.19-1.25c.17-.26.35-.51.53-.76l.27 1.9zm0 0"/><path d="m81.34 70.69.39-1.83c.18.23.35.47.51.71l-.24 1.17h-.65zm0 0"/><path d="m85.7 81.38 1.34 1c0 .28.06.57.08.86l-1.8-1.31.38-.52zm0 0"/><path d="m79.47 101.47 3-.58-.54.77-2.27.45zm0 0"/></g><path d="m59.6 72.15 4.83 3.51 4.82 3.5-3.68 11.34h-11.93l-3.64-11.34 9.65-7zm0 0" fill="#1d1c1a"/><path d="m59.52 63.68a27.52 27.52 0 0 1 9.64-1.83l-3.68-3a31.91 31.91 0 0 0 -11.93 0l-3.68 3a21.44 21.44 0 0 1 9.65 1.83zm0 0" fill="#1d1c1a"/><path d="m38.58 96.54a14.4 14.4 0 0 0 8.52 2.39 18.06 18.06 0 0 0 5.61 7.81 9.89 9.89 0 0 1 -4.94 2.13 18.25 18.25 0 0 1 -8.85-6.69 13.48 13.48 0 0 1 -.34-5.64zm33 2.06a20.25 20.25 0 0 0 8.77-2.28 10 10 0 0 1 -.11 5.65s-2.4 4.26-9 6.81c0 0-3.34-.38-4.94-2.39 0 0 5.25-4.45 5.24-7.79zm0 0" fill="#1d1c1a"/><path d="m37 70.66a16.22 16.22 0 0 1 3.81-2.14s-1.4 3.31.23 8.25a15.11 15.11 0 0 0 -5.18 7.9 6.52 6.52 0 0 1 -2.51-2.74c-.17-4.15 2.37-9.79 3.65-11.27zm41.18-2.32a7.48 7.48 0 0 1 4 2 24.44 24.44 0 0 1 3.69 11.46l-2.37 2.9a20.65 20.65 0 0 0 -5.7-8.08 23.52 23.52 0 0 0 .38-8.28zm0 0" fill="#1d1c1a"/></svg>