<svg id="Layer_1" data-name="Layer 1" xmlns="http://www.w3.org/2000/svg" viewBox="0 0 120 120"><defs><style>.cls-1,.cls-7{fill:none}.cls-2{clip-path:url(#clip-path)}.cls-3{fill:#ffde3a}.cls-4{fill:#a375c3}.cls-5{fill:#ff5a7e}.cls-6{fill:#58d0ff}.cls-7{stroke:#fff;stroke-linecap:round;stroke-linejoin:round;stroke-width:3.28px}.cls-8{fill:#ff4c4c}.cls-9{fill:#f33a3a}.cls-10{fill:#f0cb4d}.cls-11{fill:#e5ba41}.cls-12{fill:#e1effb}.cls-13{fill:#ccdfed}.cls-14{fill:#ff6d3a}.cls-15{fill:#f5b350}</style><clipPath id="clip-path"><path class="cls-1" d="M236.64 77.92v4.64c-1.14.6-1.86.07-2.46-.88-1-1.62-1.94-2-3.33-1.18s-1.63 1.78-.79 3.46c.25.5.85 1.05.07 1.52-.63.38-1.06 1.21-1.6 1.34-2.93.7-3.22 2-1.48 4.33.7.95-.63 1.53-1.24 2s-.9-.16-1-.73a2.92 2.92 0 0 0-2.37-2.57c-1.57-.28-2.16.84-2.67 2a5.75 5.75 0 0 1-.55-.34c-2.77-2.07-4-1.55-4.45 2-.15 1 .11 2.32-.39 3.14-1 1.56-1.2 2.89-.11 4.42.43.61.18 1.14-.49 1.44s-1.3 1-2.25 1a1.13 1.13 0 0 0-1.28 1c-.15 1.61-1 1.63-2.22 1.14a2.79 2.79 0 0 0-1.57-.13 5 5 0 0 1-4.41-1.41c-1.18-1-2.54-1.66-3.85-.07-.32.39-.73.33-1.14.29a9 9 0 0 1-3.48-.73c-1.51-.76-2.59-.5-3.66.93s-2.2 3.42-4 4.2c-1.38.6-2.33 1.17-2.26 2.84-2.58-1.85-2.64-2-1.3-4.52a11.47 11.47 0 0 0 1.09-1.83c.41-1.29.47-2.67-.67-3.62s-1.52.37-2.2.81c-.07 0-.21 0-.39-.06v-.69c.29-3 .16-3.16-2.95-3.42-.41 0-.47-.24-.52-.55-.22-1.49-1.41-1.82-2.59-2-1.46-.27-2.91-.54-4.36-.85-1.29-.27-2.88-.76-3.81 1-.41.76-.89.17-1.33 0a7.57 7.57 0 0 0-5.69-.79 5.64 5.64 0 0 1-4-.27 10.06 10.06 0 0 0-6.07-.75 7.15 7.15 0 0 1-4.89-1.08h-.07c-.91-.61-.18-2.14-.4-3.23-.07-.4-.05-.83-.08-1.24a5.13 5.13 0 0 0 1.73-3.77c.12-2-.11-4 .2-6.06a1.88 1.88 0 0 0-.76-1.9c-.86-.62-.92-1.14.23-1.29a4 4 0 0 0 3.18-2.54c.23-.46.38-1.11 1.05-1.08 2.79.15 3.35-2 4-3.95.21-.59.38-1.18 1-1.34 2.75-.65 4.4-2.89 6.52-4.44s3.82-4.14 6.63-5a3.54 3.54 0 0 0 2.64-3.25c.17-1.65-1-2.56-2.22-3.14-1.75-.83-1.28-2-.8-3.25a5.27 5.27 0 0 1 1.1-1.38 6.25 6.25 0 0 0 .65-7.35c-.2-.33-.37-.62-.16-1 1.11-1.86.44-3.7-.13-5.5a2.18 2.18 0 0 1 .34-2.26c1.36-1.81 3.78-2.52 4.74-4.7.08-.18.57-.32.81-.26 2 .5 2.92-.68 3.71-2.22.4-.79.89-1.73 2-1.46 2.05.51 4.15.25 6.21.54a3 3 0 0 0 3.27-1.55c1-1.48 1.71-3.15 3.71-3.81a3 3 0 0 0 1.8-3.23c-.18-2 .86-2.19 2.36-1.76 1.25.36 2-.06 2.16-1.33.13-1 .72-1.28 1.59-1.3.72 0 1.43-.05 2.14-.06 1.46 0 2.24-.65 2.07-2.19h1.07c.16.25.32.5.47.76 1.24 2 1.24 2.27-.81 3.41a4 4 0 0 0-2 2.56c-.15.55-.17 1.15-1.12.94-1.6-.36-2.28.76-2.61 2s0 2.91-2 3.08c-.44 0-.51.77-.44 1.25a2.15 2.15 0 0 0 2.06 1.91c4 .41 6 3.32 8 6.23.26.38.46.7 0 1.05-.84.61-.53 1.39-.23 2.09s.65 1.49 1 2.2a11.43 11.43 0 0 0 2.77 3.55 4.77 4.77 0 0 1 1.18 1.72 10.57 10.57 0 0 1 .78 6.43c-.21 1.57.46 2.29 2 2.53a4.65 4.65 0 0 0 4.93-2 5.14 5.14 0 0 0 3.61 3.07c2.86.85 4.44 2.56 3.53 5.76v.35c-.93 2.58.45 3.87 2.57 4.9.8.39 2.14.88 2 1.78-.16 1.44.65 2.42 1.21 3.8-1.47-.2-2.71 0-2.79 1.55-.07 1.26.18 2.86 1.11 3.45 2.65 1.6 3.64 4.41 5.15 6.9z"/></clipPath></defs><title>wishes</title><g class="cls-2"><path class="cls-3" d="M99.49 21.82c-.06.15-.13.22-.35-.14l.35.14c.07-.14.14-.35.33-.37a26.78 26.78 0 0 1-4.25-1.12c-.3.18-.6.36-.88.55 3.48 1.32 6.88 2.89 10.21 2.67-2-.75-3.49-.98-5.41-1.73zm-5.75.4l-.36-.14c.21.35.28.29.36.14zM116.58 46a16.75 16.75 0 0 1-3.84.13c-.38.28-.88.61-1.54 1l.32.1c2 .08 4 .22 6.06.38a9.05 9.05 0 0 0 2.42-.51c-1.13-.31-2.27-.75-3.42-1.1z"/><path class="cls-3" d="M112.74 46.15c3.24-2.37-2.52-.38 0 0z"/><path class="cls-3" d="M116 32.25c2.13.27 4.23.48 6.31.65s4.18.1 6.22.09l2.94.63 1.46.28 1.47.21q2.94.39 5.82.6c1 .06 1.91.11 2.85.14s1.9 0 2.83-.07a51.73 51.73 0 0 0 5.5-.55 21.18 21.18 0 0 1 2.55-.31c.91-.09 1.87-.15 2.86-.19l6.22-.18c4.24-.19 8.55-.75 11.77-2.56a10.82 10.82 0 0 0-1.86-.35 17.16 17.16 0 0 0 2.62-1c10.15 0 20.17.12 30.71 1 1.56.12 2.82-.56 4.39-.43l4.73.26a.24.24 0 0 0 0-.18c3.24.09 6.53.25 9.83.29s6.67.1 10.15.11a45.88 45.88 0 0 1 4.84.51c1.61.27 3.23.6 4.84.85 1.22.19 1 1.25 1.81 1.64 1.51.91 2.81 1.72 4.18 2.45a26.7 26.7 0 0 0 4.55 2.08l-.15.79a4 4 0 0 1 1.45.28c-2.32 2.59-6.78 2.8-2.64 5.72l-.74.12h-.08a5 5 0 0 0-2.67 1.34l2 .4a2.31 2.31 0 0 0-.36 1.08 1.73 1.73 0 0 1-.21.17l-.55-.11a3.35 3.35 0 0 0-.34.56c-1 .4-2.18.59-3.1.87s-1.56.62-1.38 1.21 1.67.33 3.18.3a1.57 1.57 0 0 0 .24.32c-1.94-.11-.34 1.83-1.51 1.87-1.51-.3-3.08-.23-4.59-.48a96.88 96.88 0 0 0-17.64-1.35h-.81a48.12 48.12 0 0 1-8.7-.71 6.62 6.62 0 0 1 .62-.46 27.85 27.85 0 0 0-7.07-.46 136.63 136.63 0 0 1-17.94 1c-6.51-.27-12.83-.24-19.55.08a56.28 56.28 0 0 1 8.31-.62c1.24.13 2.49.26 3.69.29a28.8 28.8 0 0 0-3.69-.29 60.4 60.4 0 0 0-7.13-.54 13.76 13.76 0 0 0-6.53 1.39c-.38-.26-.35-.52-.74-.56-1.38-.14-2.74-.34-4.07-.4a10.48 10.48 0 0 0-3.88.34c0 .27-1.22.13-.88.7-2.41 0-5.17-.32-7.62-.14a9.43 9.43 0 0 0-3.29.83l-6.59.1-6.71-.17c-4.52 0-9.18-.51-14.06-1-.6-.07-1.22-.17-1.85-.28s-1.26-.3-1.9-.47c-1.27-.33-2.54-.69-3.72-1 1.86.08 3.74.2 5.61.35l5.65.26a38.56 38.56 0 0 0 5.1 1.19 12.2 12.2 0 0 0 4.76-.27c.69-.13 1.37-.24 2-.34l-6-.2q-3-.23-6-.38l-6.19-1.84h.14c1.71.16 3.43.16 5.15.28a41.77 41.77 0 0 0 4.52 1.1 12.36 12.36 0 0 0 4.28.09c.34-.06.68-.13 1-.22.69-.13 1.37-.25 2.05-.35-2.44-.09-4.89-.13-7.32-.34l-4.54-.28-2.6-.89.34-.13c.88-.06 3.84-2.58 2.85-3.64-3-.6-6.74-1.41-9.7-1.95s-5.15-1-5.1-1.12c0-1 10.62.56 10.28.2-.54-.28-1.08-.54-1.63-.79a15.59 15.59 0 0 0 1.74-.22 12.34 12.34 0 0 1 1.92.39 3.38 3.38 0 0 0 1.7 0c3.09-.92 6 .33 9.35 0 2.11-.42 4.62-1 7.11-1.66.09-.52 1.19 0 .9-.64a17.11 17.11 0 0 0 3.28.41 3.35 3.35 0 0 0 2.55-1h.16a1.37 1.37 0 0 0 .63-.12 12.41 12.41 0 0 0 4.88.1c.77-.12 1.53-.28 2.31-.45s1.59-.37 2.44-.53a29 29 0 0 1 3.45.19 9 9 0 0 0-2.68-.32L156 36c-2.95 0-5.77.26-8.62.44a7.75 7.75 0 0 1-1 .44c-.2 0-.39-.08-.59-.14a2.83 2.83 0 0 1-.2.28c-2.77.41-5.77.06-8.16.42a22.87 22.87 0 0 1-3.31-.16 21.93 21.93 0 0 1-3.3-.58c-2.18-.53-4.34-1.19-6.46-1.77q3.36.11 6.6.07c-2.66-.16-5.2-.28-7.69-.35l-1.08-.27-2.19-.69c.66.32 1.33.6 2 .88-1.47-.11-2.94-.2-4.4-.26-2-.25-4-.54-5.94-.88s-3.91-1-5.86-1.51c-1-.27-2-.57-2.91-.87l-1.45-.47c-.47-.16-.94-.37-1.4-.56q-2.81-1.18-5.51-2.53c.28-.23.58-.46.89-.67 1.8.7 3.58 1.43 5.33 2a12.4 12.4 0 0 0 2.65.56 13.44 13.44 0 0 0 2.61.06c-2.06-.77-3.7-.75-5.65-1.6.06-.14.12-.36.32-.38a27.73 27.73 0 0 1-4.38-1.17c.73-.43 1.51-.84 2.28-1.25a9.45 9.45 0 0 1 3.14.5c1.17.42 2.36.74 3.53 1.09l3.47 1.07c1.15.36 2.3.71 3.46 1a29.63 29.63 0 0 0 3.59.73l6.23 1.96c2.08.62 4.21 1.06 6.29 1.54l-6.29-.31c-2-.17-4-.29-6-.37zm130.06 10.13c-.42 0-.86.1-1.29.18l.15.21a1.59 1.59 0 0 0 1.14-.39zm-9.14-1.64a23.52 23.52 0 0 0 4.55.7c1.68.11 3.46.13 5.21.2a1 1 0 0 0 .07-.2 25.29 25.29 0 0 0-4.73-.58c-1.69-.09-3.43-.11-5.1-.12zm-10.15-6.81l.06.09v-.12zm-48.15 4.41c3.19-1.07 7-.74 10.95-1 1.16.09 2.4-.88 3.94-.76 2-.12 3.16-.56 4.73-.7l-1.12-.62c2.7.47 4.38-1 7.06-.25a1 1 0 0 1 .84-.74c2-.12 3.88.59 5.49.19a32.22 32.22 0 0 0 5.55-.31c.39 0 1.24-.7 2.06-.89h2.91l-.09-.22a10.13 10.13 0 0 0-2.4-.05 75.66 75.66 0 0 1-7.57.67A150.48 150.48 0 0 0 194 35c-1.17.18-2.38.62-3.55.8-3.57.8-7.78.18-10.24 1.84-.39.26-1.16.2-1.59.7zm-5.35 11.14a41.59 41.59 0 0 1 12.64-.38c3.11.25 12.14-.66 10.84-4-2.14 2.73-8.55 2.28-14.15 1.89s-10.4-.67-9.33 2.49zm-33.53.75a24.21 24.21 0 0 1 5.31 0c-1.77.02-3.53.08-5.31 0zM158 41.88c-5.26 1.31-10.73.68-16 1-4 0-8-2-11.92-.93l-.17.78.44-.17c1.34.48 2.37 1.06 3.48 1.51h-.22.36a6.3 6.3 0 0 0 2.5.44l1.35-.13 3.75.34c1.25.05 2.5.09 3.74.09a35 35 0 0 0 7.24-.67c2.84-.46 5.33-1.51 8.13-2a9.23 9.23 0 0 0-2.68-.26z"/><path class="cls-3" d="M122.72 34.83c-1.72-.09-3.42-.32-5.15-.52-1.37-.05-2.73-.09-4.12-.09-.81-.06-1.64-.12-2.45-.26s-1.64-.35-2.47-.56c-1.65-.41-3.32-.91-5-1.44l-2.53-.81-2.47-1a97.76 97.76 0 0 0-4.93-1.8 4.3 4.3 0 0 0-1 2.2 50.61 50.61 0 0 0 5.11 2.54c.88.36 1.74.77 2.65 1l2.71.85c3.64 1.07 7.24 2.22 10.81 3.39h.19a18.44 18.44 0 0 1 6 .4 27 27 0 0 0 6.53.46 54.64 54.64 0 0 1 6.15-.48c2-.13 4-.23 6.07-.53-1.39-.26-2.76-.48-4.12-.69s-2.72-.39-4.06-.68a72.79 72.79 0 0 1-7.92-1.98zm26.45-3.89l3.15-.34c-4.09-.43-8.21-.63-12.23-1.1l-5.09-.15c-1.71 0-3.36-.22-5.06-.31l-5.09-.31c-.85 0-1.7-.1-2.54-.19l-2.55-.21c-.77-.08-1.53-.18-2.28-.29 11.88 3.86 24.36 6.48 35.4 4.57l.64-.1c-5-.58-10.07-.87-15-1.45l5.31.1c1.77-.05 3.56-.16 5.34-.22z"/><path class="cls-4" d="M108.67 73.12l-.67.13.07.26q.33-.19.6-.39zm.02-3.26h-.22a1.89 1.89 0 0 1 .09.21 2 2 0 0 1 .13-.21zm-.62 3.66a7.21 7.21 0 0 1 .59 2.86l-1.46.29c-.25.59.23 1 .34 1.56-.36.07-.73.14-.67.4-.09.74.41 1.11 1.14 1.14.9-3.23 4.76-5.07.06-6.25zm2.53-2.68l-2 .39a2.91 2.91 0 0 0 .09 1.85 4.94 4.94 0 0 0 1.91-2.24zm136.45-23.76q-2.9 1.37-5.73 2.85c-1.91.9-3.8 1.79-5.67 2.72l-3 .77-1.48.4-1.47.35c-2 .48-3.88 1-5.76 1.58-1 .29-1.88.59-2.8.91s-1.83.59-2.73.92a54.18 54.18 0 0 0-5.26 2.16 22.52 22.52 0 0 1-2.45 1.06c-.88.31-1.83.59-2.81.87l-6.21 1.67c-4.24 1.15-8.45 2.45-11.41 4.9a12.81 12.81 0 0 0 2 0 19.16 19.16 0 0 0-2.49 1.51 329.477 329.477 0 0 1-30.69 4c-1.54.11-2.6 1-4.13 1.15l-4.55.55a.25.25 0 0 0 .07.17c-3.14.42-6.15 1-9.22 1.57s-6.11 1.32-9.19 2.15a41.33 41.33 0 0 1-4.42.66c-1.45.18-2.91.35-4.36.58-1.09.17-1.25-.88-2-1-1.56-.43-3-.83-4.36-1.1a21.88 21.88 0 0 0-4.49-.3l-.15-.78a3.63 3.63 0 0 1-1.32.25c1-3.23 4.85-5.09.15-6.27.22-.13.42-.25.61-.38h.07a5.09 5.09 0 0 0 1.91-2.24l-2 .39a2.38 2.38 0 0 0-.07-1.13c0-.08.08-.16.13-.24l.54-.11a3 3 0 0 0 .1-.65 27.48 27.48 0 0 1 2.58-2c.77-.56 1.26-1.07.9-1.57s-1.72.19-3.11.83a1.48 1.48 0 0 0-.34-.21c1.87-.64-.33-1.83.77-2.32 1.54-.31 3-.77 4.6-1 6.32-1.06 11.61-2 17.75-3.51l.81-.18a49.11 49.11 0 0 1 8.81-1.09 7.41 7.41 0 0 1-.54.58 31.75 31.75 0 0 0 7.12-.82 120.66 120.66 0 0 1 17.65-3.83 167.77 167.77 0 0 0 19.08-3.22 53 53 0 0 1-8 2c-1.24.08-2.46.17-3.65.32a25.79 25.79 0 0 0 3.65-.32 59 59 0 0 0 7-.65 12.72 12.72 0 0 0 6-2.6c.41.18.44.45.81.41 1.34-.13 2.68-.19 3.95-.39a9.55 9.55 0 0 0 3.54-1.22c0-.27 1.1-.4.67-.89 2.21-.55 4.86-.82 7-1.67a8.53 8.53 0 0 0 2.69-1.73l5.85-2.1 5.65-2.14c3.82-1.35 7.51-3 11.38-4.62.48-.18 1-.34 1.51-.5s1-.37 1.54-.54c1-.34 2.1-.65 3.08-.93-1.32.84-2.69 1.67-4.09 2.47s-2.91 1.44-4.41 2.14a27.44 27.44 0 0 0-4.44 1 11.81 11.81 0 0 0-3.81 1.93c-.52.36-1 .7-1.59 1l5-1.86q2.43-1.06 4.8-2.14c1.82-.34 3.75-.52 5.52-1l-.09.09c-1.29.76-2.69 1.34-4.06 2a32.06 32.06 0 0 0-4 .9 15.65 15.65 0 0 0-3.5 1.58 7.22 7.22 0 0 0-.77.56c-.53.35-1.06.7-1.6 1 2.1-.77 4.19-1.5 6.18-2.42l3.7-1.6 2.47-.4a2.56 2.56 0 0 0-.2.26c-.64.42-1.91 3.93-.64 4.45a55.23 55.23 0 0 0 8.49-3l3.11-1.28c.78-.29 1.22-.53 1.24-.45s-.23.71-1 1.2a32.17 32.17 0 0 1-2.83 1.68c-2.11 1.16-4.28 2.22-4.07 2.3.56 0 1.12-.1 1.68-.17-.45.36-.88.72-1.27 1.09a11.4 11.4 0 0 1-1.72.68 3 3 0 0 0-1.42.71c-2.2 2.15-5.28 2.33-8 4.06-1.72 1.11-3.78 2.62-5.84 4.11.09.52-1.1.48-.62.93a20.48 20.48 0 0 0-3.22.79A3.32 3.32 0 0 0 218 55.4l-.15.07a1.43 1.43 0 0 0-.57.3 12.75 12.75 0 0 0-4.77 1.35c-.72.34-1.42.72-2.14 1.11s-1.47.74-2.27 1.09a29.39 29.39 0 0 1-3.46.65 9.68 9.68 0 0 0 2.73-.33l.73-.32a71.51 71.51 0 0 0 8.33-2.83 8.75 8.75 0 0 1 .85-.72h.61c0-.11.07-.22.11-.33 2.55-1.1 5.49-2 7.59-3.17a23 23 0 0 1 3.13-1c1.07-.28 2.16-.52 3.24-.78 2.17-.49 4.39-.86 6.54-1.29q-3 1.41-6 2.89c2.5-1.06 4.83-2.08 7.07-3.11l1.09-.24 2.23-.65c-.72.09-1.44.2-2.14.33 1.31-.71 2.59-1.41 3.83-2.14 1.77-.84 3.55-1.65 5.35-2.41s3.53-1.7 5.32-2.48c.9-.39 1.8-.77 2.7-1.13l1.36-.54c.45-.18.88-.4 1.32-.59q2.65-1.2 5.37-2.22a10.13 10.13 0 0 1-.07 1.09c-1.69.82-3.39 1.61-5 2.51-.77.47-1.55.89-2.27 1.36a12.44 12.44 0 0 0-2 1.59 47.85 47.85 0 0 0 5.34-2.65c.05.15.16.34 0 .5a27.43 27.43 0 0 1 3.81-2.39c-.17.82-.4 1.67-.63 2.52a10 10 0 0 1-2.57 2 27.83 27.83 0 0 1-3.42 1.6l-3.44 1.4-6.9 2.87-6.47 1.75c-2.15.57-4.33 1-6.45 1.54 2-.88 4-1.67 5.83-2.59s3.58-1.93 5.29-2.93zM119.23 70.94c.37-.17.75-.36 1.12-.56l-.21-.16a1.48 1.48 0 0 0-.91.72zm8.82-1.06a14.23 14.23 0 0 0-4.37.58c-1.56.39-3.18.91-4.78 1.37a.74.74 0 0 0 0 .21 24.15 24.15 0 0 0 4.45-.86c1.55-.43 3.14-.94 4.7-1.3zm11 4.23L139 74v.12zm46.12-12.45c-3 1.58-6.9 1.92-10.72 2.74-1.17.09-2.25 1.25-3.8 1.37-1.92.41-3 1-4.56 1.42l1.2.44c-2.72 0-4.14 1.66-6.88 1.34a1 1 0 0 1-.7.86c-1.91.41-3.86 0-5.35.72a29.88 29.88 0 0 0-5.28 1.26c-.38 0-1.07.89-1.8 1.23-.91.2-1.83.36-2.74.53l.13.2a9.31 9.31 0 0 0 2.25-.43 62.85 62.85 0 0 1 7.13-2c5.67-1 11-2.49 16.34-4 1.14-.36 2.26-1 3.4-1.33 3.41-1.33 7.71-1.42 9.89-3.48.32-.24 1.13-.31 1.48-.87zm3.3-11.88a39.26 39.26 0 0 1-12.26 2.46c-3.09.24-11.86 2.52-10.07 5.59 1.7-3 8.09-3.56 13.65-4.08s10.28-1.04 8.67-3.97zM219.19 41a15.73 15.73 0 0 1-4.67 1.53c1.56-.53 3.14-.94 4.67-1.53zm-14.48 13c4.78-2.38 10-3.52 14.79-5.29 3.6-1.51 8-.91 10.95-3.46l-.17-.78-.31.35a27.67 27.67 0 0 1-3.6-.12l.18-.1-.32.1a5.59 5.59 0 0 0-2.35.48l-1.14.59-3.44 1c-1.16.3-2.32.62-3.46 1a33.86 33.86 0 0 0-6.52 2.73c-2.56 1.11-4.7 2.71-7.3 3.83a9.36 9.36 0 0 0 2.69-.28z"/><path class="cls-5" d="M131.79 86.48c-1.51 0-3-.12-4.52-.23a39 39 0 0 1-4.46-.51c-3-.48-5.82-1-8.57-1.41l6.59 1a36.07 36.07 0 0 1-4.63-1c-.74-.2-1.48-.43-2.23-.69s-1.51-.63-2.29-1a4 4 0 0 1 2.1 0c.74.08 1.43.09 1.79-.38 2 .37 3.93.81 5.88 1.31 1 .25 2 .52 2.92.8s1.94.46 2.91.72q2.92.72 5.82 1.52c1 .25 1.94.55 2.9.78l2.89.65a3.34 3.34 0 0 1-4 .12c-1.07-.65-2.01-1.59-3.1-1.68zm-28.49-7.22c.79.17 1.56.36 2.32.54a7.59 7.59 0 0 1-2.32-.54z"/><path class="cls-6" d="M102.75 65.52c.18.11.37.24.55.34a2 2 0 0 1-1.43.17c5.74 2.56 12.83.94 17.63-1.91 1.67.15 3.18-.65 3.37-1.81s-1-2.22-2.73-2.38a7.05 7.05 0 0 1-1.09-.44 26.57 26.57 0 0 0-8.9-4l2 1a11.47 11.47 0 0 0-3-.6l.38.64c-3.38-1.53-8.17-.74-10.4 1.54s-1.23 5.3 2.15 6.72z"/><path class="cls-6" d="M109 72.08c-1.93-.75-3.83-1.47-5.74-2.25l-.38-.38.18 1.78v-.11a9.34 9.34 0 0 1 3.27-1.79c.64-.21 1.31-.4 2-.56s1.34-.26 2-.36l.94-.26a1.59 1.59 0 0 0 .85-1c.22-.86-.62-1.67-1.87-1.82l-1.44-.15c-3.54-1-9.22-.76-11 2.32-.41.71 0 1.58.17 2.39-.07 1.19 1.29 2.17 3 2.19s3.2-.92 3.29-2.11l.9.21-.69.45c.46-1.05 2-1.33 3.23-1.92.6-.13 1.18-.21 1.77-.31l-1-2.76c-.3.11-.62.26-.93.39a2.77 2.77 0 0 1 .21.29 36.22 36.22 0 0 1-5.34 2.18l-2.4 1.1a1 1 0 0 0 .21 1.78l1.09.56-.49-.34c2.49.54 5.09.81 7.53 1.4a1 1 0 0 0 1-.26c.22-.22.06-.54-.36-.66zm-8.64.64a2.33 2.33 0 0 0-1.36-.33l-.23.23.8.44c.57.32.84.05.79-.34zm-1.6-.1l-.33-.19.23.25h.06z"/><path class="cls-6" d="M253.3 99.56a12.8 12.8 0 0 0-2.72 1.52.61.61 0 0 1-.49.07c.11.27 0 .55-.4.73a36.82 36.82 0 0 1-5.46 2.32c-1.87.67-3.79 1.28-5.74 1.86s-3.91 1-5.89 1.44l-5.95 1.31a1.46 1.46 0 0 1-.31.67 3.08 3.08 0 0 1-2.77 1l-.87-.15-5.27-.42-2.61-.21-2.59-.33a6.93 6.93 0 0 1-2.41.56 81.48 81.48 0 0 1-9.06 2.12.92.92 0 0 1 .29.68c-.08.59-.8 1-1.62 1h-1.25c1.19.19 2.38.39 3.56.6a1.71 1.71 0 0 1 .47.12c1.3.09 2.65.09 4 0 3-.11 5.91-.31 8.8-.62s5.81-.89 8.65-1.45 5.67-1.34 8.45-2.1l4.14-1.21c1.38-.4 2.75-1 4.11-1.43a.61.61 0 0 1 .64 0 .25.25 0 0 1-.06.42c-3.37 2-6.53 3.9-9.88 5.75-1.68.91-3.41 1.83-5.22 2.61a48.4 48.4 0 0 1-5.71 2 184.85 184.85 0 0 1-28.87 5.33c-5-.32-9.85-.21-14.56-.1l-14.4.52c-13.21.38-25.1-.36-36.89-.68a9.51 9.51 0 0 1-5.9-1.46 6.27 6.27 0 0 1-3-4.28 5.75 5.75 0 0 1 2.57-5.48l-1.09-.06-1.71-.42a7 7 0 0 1-3.9-2.5l-1.23-1.47a30.62 30.62 0 0 0-3-4 21.6 21.6 0 0 1-2.8-4l.27-1.11-.33-.31a5.26 5.26 0 0 1-2.14-2.91v-1.34a10.53 10.53 0 0 1 1.51-4.36 3.5 3.5 0 0 1 .26-1.66 4.94 4.94 0 0 1-.66-4.36.76.76 0 0 1 .13-1.31 1.63 1.63 0 0 1 .65-.23 9.33 9.33 0 0 0-.71-.81c-.47-.1-.74-.18-.74-.18-1.25-.19-1.25-.19-2.34-.38a5.58 5.58 0 0 1-1.55-1.07c-1.15-2.34-1.16-2.34-1-3.37a1.53 1.53 0 0 1 .19-.3c-.86-.31-.92-.34-1.15-.44a2.17 2.17 0 0 1-.42-.38c-.07-.55-.07-.55-.23-.74a1.79 1.79 0 0 1-.06-.42c.44-.63.44-.63.44-.81a3.1 3.1 0 0 1 .33-.33l.86-.32c1.25 1.39 1.26 1.39 1.26 1.39l.23-.5.31.65-.19-.6.62.34-.71-.5a7.82 7.82 0 0 0 2 .13 3.1 3.1 0 0 0 1.15-.13 1.45 1.45 0 0 1-.07-.32c1.53.18 1.53.18 3 .39a4.19 4.19 0 0 1 .36.38.83.83 0 0 1 .71-.24l.78.08.16-.09.64-.29.13-.06 2.8-1.21a11 11 0 0 1 1.28.28c-.13-.09-.25-.17-.37-.27s0-.72-.16-.77a29.52 29.52 0 0 0-5-1.28c-1.75-.27-3.53-.47-5.31-.71a1.19 1.19 0 0 1-1.35-.63c-.1-.44.34-.85 1-.93a28.35 28.35 0 0 1 5.6-1.79 31.06 31.06 0 0 1 5.94-.47 32.92 32.92 0 0 1 11.55 2c1.89.34 3.78.64 5.67.93l-.26-.27c.49.15 1 .32 1.44.48h.16l-1.06-1a7.12 7.12 0 0 0-.76-.31 41 41 0 0 1-6.38-1.44c-2.09-.61-4.14-1.33-6.34-1.79s-4.37-1.45-6.62-2.14c-.58-.06-1-.41-.92-.8s.6-.65 1.17-.6c7.56-.74 16 .18 21.64 3.75a7.6 7.6 0 0 1 3.57 1.09l-.76-.85c1 .26 1.46 1 2.33 1.28l-.27-1.12c4.83.93 9.92 1 14.2 2.93.18 0 .34.09.5.14a17.32 17.32 0 0 1 6.07-1.14l-2.19-.53a15.54 15.54 0 0 1 5-.34c4.64.47 9.53 2.58 11.74 5.65 8.79.33 17.49.72 25.92.33a.82.82 0 0 1 .89.55.68.68 0 0 1-.71.66c-1.52.22-3.05.42-4.6.57s-3.12.23-4.69.31c-3.12.18-6.28.26-9.49.26l4 .71 3.94.61c2.62.37 5.3.74 7.95.9l2.05-.07a7.58 7.58 0 0 1 2 .26c1.69.06 3.38.16 5 .21s3.28 0 4.92 0 3.3 0 4.94-.14 3.29-.33 5-.58l4.16-.65c1.33-.27 2.63-.57 3.93-.86l3.9-.92c.65-.16 1.32-.3 2-.5l2-.62 5.44-1.74c.44-.15.89-.27 1.32-.42l1.28-.49 2.54-.93c1.68-.61 3.39-1.1 5.07-1.64s3.33-1.13 5.07-1.57a1.78 1.78 0 0 1 2.26.8 1.57 1.57 0 0 1-1.05 2L252.54 71c-1.81.76-3.69 1.38-5.55 2.08a107.62 107.62 0 0 1-11.6 3.51c-.5.12-1 .26-1.49.37l-1.53.29-3.07.56-3.09.51c-1 .18-2.08.32-3.15.4a94.26 94.26 0 0 1-13 .47l-5.64-.19a1.27 1.27 0 0 1 0 .34 1.86 1.86 0 0 1-.51 1.21c2.14.17 4.28.34 6.44.62l4.51-.66c1.49-.25 3-.49 4.48-.68s3-.33 4.54-.4 3-.22 4.6-.19c2.14 0 4.22.24 6.24.45s4 .37 6 .58c1.22-.3 2.46-.55 3.66-.89l3.62-1.17 3.57-1.08c.59-.19 1.19-.35 1.78-.54l1.74-.63a.37.37 0 0 1 .5.06c.11.14 0 .32-.14.43-.76.46-1.52.94-2.33 1.34s-1.62.75-2.45 1.12c-1.65.72-3.34 1.42-5 2.1a2.38 2.38 0 0 1 1.17 1.75 2.64 2.64 0 0 1-.85 2.12l2.48-.4c.51-.07 1 .14 1 .52a.82.82 0 0 1-.78.86c-3.37.68-6.83 1-10.26 1.33l-3.06.7c-1 .19-2.06.34-3.09.51l-6.22.95a3.92 3.92 0 0 1 1.32 1.74l2-.2 35-8.84a.41.41 0 0 1 .51.2.32.32 0 0 1-.29.39q-2.67.59-5.3 1.28l-2.63.71c-.87.26-1.74.51-2.63.69a.26.26 0 0 1 .1.42.55.55 0 0 1-.56.12.26.26 0 0 1-.1-.42q-2.47.57-4.93 1.23c-1.64.42-3.26.94-4.92 1.28s-3.31.79-5 1.22-3.29.93-5 1.28q9.33-1.18 18.57-2.59l1.87-1a.51.51 0 0 1 .55.13.31.31 0 0 1-.2.41l-.53.26a2.06 2.06 0 0 1 2.41 1.27c.15.95-.71 1.85-1.95 2-1.64.4-3.27.77-4.91 1.13s-3.27.75-4.94.94l-1 .29-1 .57 3.93-.21 3.91-.41 3.92-.4c1.31-.14 2.63-.22 3.91-.47.44-.12.87 0 .95.35s-.2.67-.64.79a34.56 34.56 0 0 1-3.31 1.2l-3.37 1.07-3.4 1c-.57.16-1.14.34-1.71.49l-1.73.4q-3.46.78-7 1.5l-1.76.35-1.76.26-3.53.49-4.58 2.44c-1.54.8-3.1 1.51-4.69 2.26h1.23a35.61 35.61 0 0 0 7.57-1 70.29 70.29 0 0 0 7.13-2c4.66-1.73 9.19-3.32 14-4.78a.42.42 0 0 1 .54.17c0 .15-.08.35-.34.39-4.73 1.57-9 3.33-13.82 4.92l-1.49.48-1.47.4-2.9.82c-1.92.56-3.82 1.14-5.7 1.8a91.05 91.05 0 0 0 11.4-2.17l5.59-1.57c1.85-.54 3.72-.94 5.58-1.54a1.1 1.1 0 0 1 .91 0 .36.36 0 0 1 .15-.26 19.68 19.68 0 0 1 2.85-1.59.5.5 0 0 1 .6.07c.13.13.04.31-.17.45zM123.48 78.63l-.18-.2.65.35.89 1.35zm-11.7 4.7l-.54-.75zm73.55-7.14a53.19 53.19 0 0 1-11.28-2h2.78c2.82.59 5.67 1.29 8.5 2zm-69.66-2.71a12.71 12.71 0 0 1 2.67 2.42 6.93 6.93 0 0 1 2.18-.14q3 .24 5.8.71c-.23-.47.23-.4.46-.45l.72-.09c-2-.4-4-.83-6.11-1.29-1.85-.44-3.92-.64-5.72-1.16zm-14.42 2l-.18-.17.36-.7zm-.56 1.2l.3.08c-.09.29-.19.24-.3-.06zm2.75.78a1.73 1.73 0 0 0-.4-.36zm2.46 20.41l.89-3.52-1 3.39z"/></g><path class="cls-7" d="M97.32 33a11 11 0 0 0-3.42-5 5.75 5.75 0 0 0-4.4-1.33 5.21 5.21 0 0 0-1.73-3.21 10.75 10.75 0 0 0-.37-6.32 10.93 10.93 0 0 0-3.41-5 5.73 5.73 0 0 0-4.41-1.33c-.36-3.17-4-5.57-8.58-5.57s-8.21 2.39-8.59 5.53a5.19 5.19 0 0 0-2.51.41 5 5 0 0 0-2.78-.37c-.36-3.17-4-5.57-8.59-5.57s-8.2 2.48-8.53 5.62c-3-.3-6.12 2.27-7.55 6.34a11 11 0 0 0-.45 6.13 5.27 5.27 0 0 0-2 3.36c-3-.3-6.12 2.28-7.55 6.35C21 37.33 22 41.54 24.82 43a6.19 6.19 0 0 0 .18 5.53 2.36 2.36 0 0 0-.47.78A2.67 2.67 0 0 0 25 52l20.59 26.76a1.6 1.6 0 0 0 1.27.62 1.63 1.63 0 0 0 1-.33l1.87 2.42a8.2 8.2 0 0 0-2.33-.4 5.59 5.59 0 0 0-4.07 1.66 4 4 0 0 0-.88 2.07 26 26 0 0 0 0 12.11 4.19 4.19 0 0 0 .89 2.1 5.57 5.57 0 0 0 4 1.65h.05a10.4 10.4 0 0 0 5-1.59l-1.74 6.26a7.36 7.36 0 0 0 7.09 9.34h4.36a7.38 7.38 0 0 0 7.1-9.34l-1.74-6.24a10.55 10.55 0 0 0 5 1.57 5.57 5.57 0 0 0 4-1.65 4.06 4.06 0 0 0 .89-2.1 26.08 26.08 0 0 0 0-12.11 4.2 4.2 0 0 0-.88-2.07 5.58 5.58 0 0 0-4.08-1.66 8.26 8.26 0 0 0-2.33.4L72 79a1.61 1.61 0 0 0 2.25-.29L94.85 52a2.72 2.72 0 0 0-.1-3.45A6.13 6.13 0 0 0 95 43c2.79-1.46 3.83-5.67 2.32-10z"/><path class="cls-8" d="M61.73 25.84c2.33-.82 3.18-4.45 1.9-8.11s-4.23-6-6.56-5.13a6.37 6.37 0 0 0-1.92 1.22 6.5 6.5 0 0 0 .6-2.41c0-2.47-3.14-4.48-7-4.48s-7 2-7 4.48a6.1 6.1 0 0 0 .46 2.08 5.58 5.58 0 0 0-1.51-.89c-2.33-.82-5.27 1.48-6.56 5.13S33.68 25 36 25.84a6.58 6.58 0 0 0 2.32.25 6 6 0 0 0-1.66 1.31c-1.56 1.92-.39 5.46 2.61 7.91s6.71 2.87 8.28.95A8 8 0 0 0 48.87 33a8 8 0 0 0 1.31 3.31c1.57 1.92 5.27 1.49 8.28-.95s4.17-6 2.61-7.91a6 6 0 0 0-1.66-1.31 6.58 6.58 0 0 0 2.32-.3z"/><path id="SVGCleanerId_0" data-name="SVGCleanerId 0" class="cls-9" d="M57.07 12.6a6.37 6.37 0 0 0-1.92 1.22 6.5 6.5 0 0 0 .6-2.41c0-2.41-3.07-4.41-6.88-4.48V33a8 8 0 0 0 1.31 3.31c1.57 1.92 5.27 1.49 8.28-.95s4.17-6 2.61-7.91a6 6 0 0 0-1.66-1.31 6.58 6.58 0 0 0 2.32-.25c2.33-.82 3.18-4.45 1.9-8.11s-4.23-6-6.56-5.18z"/><path id="SVGCleanerId_0-2" data-name="SVGCleanerId 0" class="cls-9" d="M57.07 12.6a6.37 6.37 0 0 0-1.92 1.22 6.5 6.5 0 0 0 .6-2.41c0-2.41-3.07-4.41-6.88-4.48V33a8 8 0 0 0 1.31 3.31c1.57 1.92 5.27 1.49 8.28-.95s4.17-6 2.61-7.91a6 6 0 0 0-1.66-1.31 6.58 6.58 0 0 0 2.32-.25c2.33-.82 3.18-4.45 1.9-8.11s-4.23-6-6.56-5.18z"/><path class="cls-8" d="M84.19 25.84c2.34-.82 3.19-4.45 1.91-8.11s-4.23-6-6.57-5.13a6.47 6.47 0 0 0-1.91 1.22 6.5 6.5 0 0 0 .6-2.41c0-2.47-3.14-4.48-7-4.48s-7 2-7 4.48a6.1 6.1 0 0 0 .46 2.08 5.73 5.73 0 0 0-1.51-.89c-2.34-.82-5.27 1.48-6.56 5.13s-.44 7.29 1.9 8.11a6.58 6.58 0 0 0 2.32.25 6 6 0 0 0-1.66 1.31c-1.56 1.92-.4 5.46 2.61 7.91s6.71 2.87 8.27.95A7.89 7.89 0 0 0 71.34 33a8 8 0 0 0 1.31 3.31c1.56 1.92 5.27 1.49 8.27-.95s4.18-6 2.62-7.91a6 6 0 0 0-1.67-1.31 6.53 6.53 0 0 0 2.32-.3z"/><circle class="cls-10" cx="48.74" cy="22.66" r="4.57"/><path class="cls-11" d="M48.87 27.23a4.57 4.57 0 0 0 0-9.13z"/><path class="cls-9" d="M79.53 12.6a6.47 6.47 0 0 0-1.91 1.22 6.5 6.5 0 0 0 .6-2.41c0-2.41-3.07-4.41-6.88-4.48V33a8 8 0 0 0 1.31 3.31c1.56 1.92 5.27 1.49 8.27-.95s4.18-6 2.61-7.91a5.75 5.75 0 0 0-1.66-1.31 6.53 6.53 0 0 0 2.32-.25c2.34-.82 3.19-4.45 1.91-8.11s-4.23-6-6.57-5.18z"/><circle class="cls-10" cx="71.2" cy="22.66" r="4.57"/><path class="cls-11" d="M71.34 27.23a4.57 4.57 0 0 0 0-9.13z"/><path class="cls-8" d="M51.81 41.67c2.34-.82 3.19-4.45 1.9-8.1s-4.22-5.95-6.56-5.13a6.34 6.34 0 0 0-1.91 1.22 6.71 6.71 0 0 0 .59-2.41c0-2.48-3.14-4.49-7-4.49s-7 2-7 4.49a6.15 6.15 0 0 0 .47 2.07 5.67 5.67 0 0 0-1.51-.88c-2.34-.83-5.28 1.47-6.57 5.13s-.43 7.28 1.91 8.1a6.3 6.3 0 0 0 2.32.25 6.34 6.34 0 0 0-1.67 1.31c-1.56 1.92-.39 5.47 2.61 7.91s6.71 2.87 8.28 1A8 8 0 0 0 39 48.78a7.83 7.83 0 0 0 1.32 3.31c1.56 1.92 5.26 1.5 8.27-1s4.17-6 2.61-7.91a6.44 6.44 0 0 0-1.66-1.31 6.36 6.36 0 0 0 2.27-.2zm0 0c2.34-.82 3.19-4.45 1.9-8.1s-4.22-5.95-6.56-5.13a6.34 6.34 0 0 0-1.91 1.22 6.71 6.71 0 0 0 .59-2.41c0-2.48-3.14-4.49-7-4.49s-7 2-7 4.49a6.15 6.15 0 0 0 .47 2.07 5.67 5.67 0 0 0-1.51-.88c-2.34-.83-5.28 1.47-6.57 5.13s-.43 7.28 1.91 8.1a6.3 6.3 0 0 0 2.32.25 6.34 6.34 0 0 0-1.67 1.31c-1.56 1.92-.39 5.47 2.61 7.91s6.71 2.87 8.28 1A8 8 0 0 0 39 48.78a7.83 7.83 0 0 0 1.32 3.31c1.56 1.92 5.26 1.5 8.27-1s4.17-6 2.61-7.91a6.44 6.44 0 0 0-1.66-1.31 6.36 6.36 0 0 0 2.27-.2zm0 0c2.34-.82 3.19-4.45 1.9-8.1s-4.22-5.95-6.56-5.13a6.34 6.34 0 0 0-1.91 1.22 6.71 6.71 0 0 0 .59-2.41c0-2.48-3.14-4.49-7-4.49s-7 2-7 4.49a6.15 6.15 0 0 0 .47 2.07 5.67 5.67 0 0 0-1.51-.88c-2.34-.83-5.28 1.47-6.57 5.13s-.43 7.28 1.91 8.1a6.3 6.3 0 0 0 2.32.25 6.34 6.34 0 0 0-1.67 1.31c-1.56 1.92-.39 5.47 2.61 7.91s6.71 2.87 8.28 1A8 8 0 0 0 39 48.78a7.83 7.83 0 0 0 1.32 3.31c1.56 1.92 5.26 1.5 8.27-1s4.17-6 2.61-7.91a6.44 6.44 0 0 0-1.66-1.31 6.36 6.36 0 0 0 2.27-.2z"/><path class="cls-8" d="M73 41.67c2.34-.82 3.19-4.45 1.9-8.1s-4.22-5.95-6.56-5.13a6.34 6.34 0 0 0-1.91 1.22 6.75 6.75 0 0 0 .6-2.41c0-2.48-3.15-4.49-7-4.49s-7 2-7 4.49a6.15 6.15 0 0 0 .47 2.07 5.67 5.67 0 0 0-1.51-.88c-2.34-.83-5.28 1.47-6.56 5.13s-.44 7.28 1.9 8.1a6.3 6.3 0 0 0 2.32.25 6.11 6.11 0 0 0-1.66 1.31c-1.57 1.92-.4 5.47 2.61 7.91s6.71 2.87 8.27 1a8 8 0 0 0 1.31-3.31 7.83 7.83 0 0 0 1.32 3.31c1.56 1.92 5.27 1.5 8.27-1s4.18-6 2.61-7.91a6.27 6.27 0 0 0-1.66-1.31 6.36 6.36 0 0 0 2.28-.25zm0 0c2.34-.82 3.19-4.45 1.9-8.1s-4.22-5.95-6.56-5.13a6.34 6.34 0 0 0-1.91 1.22 6.75 6.75 0 0 0 .6-2.41c0-2.48-3.15-4.49-7-4.49s-7 2-7 4.49a6.15 6.15 0 0 0 .47 2.07 5.67 5.67 0 0 0-1.51-.88c-2.34-.83-5.28 1.47-6.56 5.13s-.44 7.28 1.9 8.1a6.3 6.3 0 0 0 2.32.25 6.11 6.11 0 0 0-1.66 1.31c-1.57 1.92-.4 5.47 2.61 7.91s6.71 2.87 8.27 1a8 8 0 0 0 1.31-3.31 7.83 7.83 0 0 0 1.32 3.31c1.56 1.92 5.27 1.5 8.27-1s4.18-6 2.61-7.91a6.27 6.27 0 0 0-1.66-1.31 6.36 6.36 0 0 0 2.28-.25z"/><path class="cls-9" d="M47.15 28.44a6.34 6.34 0 0 0-1.91 1.22 6.71 6.71 0 0 0 .59-2.41c0-2.48-3.14-4.49-7-4.49 0 0 .09 26.23.13 26a7.83 7.83 0 0 0 1.32 3.31c1.56 1.92 5.26 1.5 8.27-1s4.17-6 2.61-7.91a6.44 6.44 0 0 0-1.66-1.31 6.36 6.36 0 0 0 2.32-.25c2.34-.82 3.19-4.45 1.9-8.1s-4.23-5.88-6.57-5.06z"/><circle class="cls-10" cx="38.82" cy="38.5" r="4.57"/><path class="cls-11" d="M38.9 43.06a4.57 4.57 0 0 0 0-9.13c-.03 3.15-.01 6.44 0 9.13z"/><path class="cls-9" d="M68.3 28.44a6.34 6.34 0 0 0-1.91 1.22 6.75 6.75 0 0 0 .6-2.41c0-2.45-3.07-4.44-6.89-4.49v26a7.83 7.83 0 0 0 1.32 3.31c1.56 1.92 5.27 1.5 8.27-1s4.18-6 2.61-7.91a6.27 6.27 0 0 0-1.66-1.31 6.36 6.36 0 0 0 2.36-.18c2.34-.82 3.19-4.45 1.9-8.1s-4.26-5.95-6.6-5.13z"/><circle class="cls-10" cx="59.97" cy="38.5" r="4.57"/><path class="cls-11" d="M60.1 43.06a4.57 4.57 0 0 0 0-9.13v9.13z"/><path class="cls-8" d="M94.11 41.67c2.34-.82 3.19-4.45 1.9-8.1s-4.22-5.95-6.56-5.13a6.47 6.47 0 0 0-1.91 1.22 6.75 6.75 0 0 0 .6-2.41c0-2.48-3.14-4.49-7-4.49s-7 2-7 4.49a6.15 6.15 0 0 0 .47 2.07 5.67 5.67 0 0 0-1.51-.88c-2.34-.83-5.28 1.47-6.56 5.13s-.44 7.28 1.9 8.1a6.33 6.33 0 0 0 2.32.25 6.27 6.27 0 0 0-1.66 1.31c-1.57 1.92-.4 5.47 2.61 7.91s6.71 2.87 8.27 1a8 8 0 0 0 1.31-3.31 8.1 8.1 0 0 0 1.32 3.31c1.56 1.92 5.27 1.5 8.27-1s4.18-6 2.61-7.91a6.27 6.27 0 0 0-1.66-1.31 6.36 6.36 0 0 0 2.28-.25z"/><path class="cls-9" d="M89.45 28.44a6.47 6.47 0 0 0-1.91 1.22 6.75 6.75 0 0 0 .6-2.41c0-2.45-3.07-4.44-6.89-4.49v26a8.1 8.1 0 0 0 1.32 3.31c1.56 1.92 5.27 1.5 8.27-1s4.18-6 2.61-7.91a6.27 6.27 0 0 0-1.66-1.31 6.36 6.36 0 0 0 2.32-.25c2.34-.82 3.19-4.45 1.9-8.1s-4.22-5.88-6.56-5.06z"/><circle class="cls-10" cx="81.12" cy="38.5" r="4.57"/><path class="cls-11" d="M81.25 43.06a4.57 4.57 0 0 0 0-9.13z"/><path class="cls-12" d="M63.51 90.27H56.7L26.42 51a1.13 1.13 0 0 1 .71-1.8c5.23-.88 20.59-3.26 32.77-3.26 12.62 0 27.95 2.38 33.18 3.26a1.13 1.13 0 0 1 .71 1.8z"/><path class="cls-13" d="M93.08 49.19c-2.15-.36-6-1-10.67-1.57L59.9 90.27h3.61L93.79 51a1.13 1.13 0 0 0-.71-1.81z"/><path class="cls-12" d="M63.54 90.26h-6.85l-4.32 15.5a5.77 5.77 0 0 0 5.56 7.31h4.36a5.76 5.76 0 0 0 5.55-7.31z"/><path class="cls-13" d="M63.54 90.26h-3.43v22.81h2.18a5.76 5.76 0 0 0 5.55-7.31z"/><path class="cls-14" d="M75.56 83.86C71.5 79.8 64 87.48 64 87.48l-2 2v2.77l2 2s7.47 7.69 11.53 3.63a4 4 0 0 0 .47-1.34 24.24 24.24 0 0 0 0-11.36 4.21 4.21 0 0 0-.44-1.32zm-30.91 0c4.06-4.06 11.52 3.62 11.52 3.62l2 2v2.77l-2 2s-7.46 7.69-11.52 3.63a4 4 0 0 1-.47-1.34 24.37 24.37 0 0 1 0-11.36 3.73 3.73 0 0 1 .47-1.32z"/><path class="cls-15" d="M61.82 95h-3.43a1.67 1.67 0 0 1-1.67-1.67v-4.91a1.67 1.67 0 0 1 1.67-1.67h3.43a1.67 1.67 0 0 1 1.67 1.67v4.89A1.67 1.67 0 0 1 61.82 95z"/><path d="M97.52 33a10.89 10.89 0 0 0-3.41-5 5.75 5.75 0 0 0-4.4-1.33A5.21 5.21 0 0 0 88 23.52a10.75 10.75 0 0 0-.38-6.32 10.86 10.86 0 0 0-3.41-5 5.71 5.71 0 0 0-4.4-1.33c-.36-3.17-4-5.57-8.59-5.57s-8.22 2.42-8.6 5.56a5.23 5.23 0 0 0-2.52.41 5 5 0 0 0-2.78-.37c-.36-3.17-4-5.57-8.58-5.57s-8.2 2.39-8.59 5.53c-2.95-.3-6.12 2.27-7.55 6.34a10.88 10.88 0 0 0-.42 6.13 5.29 5.29 0 0 0-1.95 3.36c-2.95-.3-6.11 2.28-7.55 6.35-1.51 4.29-.47 8.5 2.35 9.92a6.16 6.16 0 0 0 .22 5.57 2.56 2.56 0 0 0-.48.78 2.71 2.71 0 0 0 .38 2.69L45.8 78.76a1.6 1.6 0 0 0 1.27.62 1.65 1.65 0 0 0 1-.33 1.61 1.61 0 0 0 .29-2.25L35.15 59.7a8.51 8.51 0 0 0 .86-.13 13.18 13.18 0 0 0 4.24-2.07 9.56 9.56 0 0 1 3.46-1.68 9.63 9.63 0 0 1 3.79.64 13.4 13.4 0 0 0 4.67.79 13.2 13.2 0 0 0 4.52-1.43 9.61 9.61 0 0 1 3.65-1.16A9.67 9.67 0 0 1 64 55.84a13.13 13.13 0 0 0 4.51 1.46 13.21 13.21 0 0 0 4.68-.77 9.72 9.72 0 0 1 3.81-.62 9.84 9.84 0 0 1 3.46 1.71 13.1 13.1 0 0 0 4.23 2.1l.33.06-13.1 17a1.6 1.6 0 0 0 2.54 2L95.05 52a2.67 2.67 0 0 0 .38-2.66 2.51 2.51 0 0 0-.47-.79 6.17 6.17 0 0 0 .22-5.55C98 41.54 99 37.33 97.52 33zM65.6 14.78a1.6 1.6 0 0 0 .54-1.86 4.46 4.46 0 0 1-.35-1.51c0-1.65 2.86-2.88 5.41-2.88s5.42 1.23 5.42 2.88a5.08 5.08 0 0 1-.47 1.79 1.6 1.6 0 0 0 2.52 1.8 5.14 5.14 0 0 1 1.4-.92 2.43 2.43 0 0 1 2.15.64 7.81 7.81 0 0 1 2.37 3.52 8.32 8.32 0 0 1 .47 3.54 11.16 11.16 0 0 0-2.86-.6h-1.58a11.86 11.86 0 0 0-3.31.6 6.17 6.17 0 0 0-11.57-2 3.32 3.32 0 0 0-.06-.44.69.69 0 0 0 0-.13c0-.19-.07-.37-.11-.56a.24.24 0 0 0 0-.08c0-.2-.1-.41-.15-.61a.83.83 0 0 1 0-.15c-.07-.2-.13-.41-.2-.61l-.2-.51a1.12 1.12 0 0 0 0-.13c-.07-.16-.14-.33-.22-.49-.07-.16-.15-.31-.23-.46l-.05-.11-.41-.5a1.63 1.63 0 0 0 1.49-.22zm8.57 7.88a2.89 2.89 0 0 1-.26 1.21 5.26 5.26 0 0 0-.76 1 2.94 2.94 0 0 1-2 .73 3 3 0 1 1 3-3zM57 38.5a3 3 0 1 1 3 3 3 3 0 0 1-3-3zm1 5.85c-1.52 0-3.07.08-4.64.17v-.18a1.06 1.06 0 0 0 0-.19l-.06-.25v-.17l-.09-.25-.06-.15a2.6 2.6 0 0 0-.16-.34 4.86 4.86 0 0 0 1.7-1.46A6.22 6.22 0 0 0 58 44.35zm7.46-3.08a5 5 0 0 0 1.17 1.26 5.22 5.22 0 0 0 .68.43c-.07.12-.12.25-.18.38s0 .08-.05.13l-.1.27a.94.94 0 0 1 0 .16l-.07.25v.38c-1.65-.09-3.29-.15-4.9-.18a6.23 6.23 0 0 0 3.47-3.08zm-1.33-15.81a2.37 2.37 0 0 1 1.26 1.79 5 5 0 0 1-.48 1.75 1.59 1.59 0 0 0 .54 2 1.37 1.37 0 0 0 .2.13h.07l.11.05c-.15.28-.29.57-.43.87a1 1 0 0 0 0 .1l-.15.34a.61.61 0 0 1 0 .12c-.05.15-.11.29-.16.45a11.89 11.89 0 0 0-.35 1.16v.21a6.18 6.18 0 0 0-9-.23c-.09-.38-.21-.76-.34-1.14l-.4-.57v-.11l-.23-.53-.27-.53-.3-.53.22-.14a1.61 1.61 0 0 0 .54-1.86 4.52 4.52 0 0 1-.36-1.5c0-1.65 2.86-2.89 5.42-2.89h.33a8 8 0 0 1 3.78 1.06zm-28.51-7.2c.85-2.41 3-4.69 4.52-4.15a4.06 4.06 0 0 1 1.06.64 1.6 1.6 0 0 0 2.48-1.83 4.33 4.33 0 0 1-.36-1.51c0-1.65 2.86-2.88 5.42-2.88s5.41 1.23 5.41 2.88a4.84 4.84 0 0 1-.47 1.79 1.6 1.6 0 0 0 2.53 1.8 5 5 0 0 1 1.39-.92 2.17 2.17 0 0 1 1.79.38l.1.07a2 2 0 0 1 .25.18l.32.27a2.57 2.57 0 0 1 .33.33c.11.12.21.25.31.38a8.61 8.61 0 0 1 .85 1.35v.05c.08.16.15.31.22.47v.07c.07.16.13.33.19.49l.12.37v.11c0 .09 0 .18.08.27v.12l.06.29v.08c0 .08 0 .25.07.37a.22.22 0 0 0 0 .08v.29a.45.45 0 0 0 0 .11v.26a.41.41 0 0 0 0 .11v.69a13.16 13.16 0 0 0-1.94-.26h-.71a11.29 11.29 0 0 0-5.08 1.14 6.17 6.17 0 0 0-12.26-.53 11 11 0 0 0-2.14-.5H39.75 40a11.76 11.76 0 0 0-1.2-.06h-.95a11.44 11.44 0 0 0-2.7.52 8.28 8.28 0 0 1 .47-3.32zm16.08 4.4a3 3 0 0 1-3 3 2.92 2.92 0 0 1-2-.73 5.32 5.32 0 0 0-.77-1 3 3 0 0 1-.25-1.21 3 3 0 1 1 5.93 0zM30 41.47a1.61 1.61 0 0 0-1.53-1.15h-.08a5.16 5.16 0 0 1-1.71-.15c-1.29-.46-2-3.15-.93-6.07s3.24-4.61 4.52-4.15a3.77 3.77 0 0 1 1.06.64 1.6 1.6 0 0 0 2.48-1.84 4.52 4.52 0 0 1-.36-1.5c0-1.06 1.41-2.22 3.49-2.68h.08l.37-.07h1.67a8.44 8.44 0 0 1 3.53.88 5.06 5.06 0 0 1 .85.58 6 6 0 0 0 .71 1 2.09 2.09 0 0 1 .08.34v.13a4.88 4.88 0 0 1-.47 1.57 1.58 1.58 0 0 0 .54 2 1.09 1.09 0 0 0 .23.14h.08l.16.07h.56a.83.83 0 0 0 .22 0l.22-.07.22-.11.21-.16c.19-.16.38-.32.57-.45a3.74 3.74 0 0 1 .82-.46h.22c.91-.12 2.15.64 3.15 2l.06.08.09.14c.06.08.11.17.16.25l.15.26c.11.21.21.42.31.64l.12.28v.07l.12.33.08.23a8.59 8.59 0 0 1 .58 3.76 2.84 2.84 0 0 1-1.23 2.17l-.12.05h-.15a5.48 5.48 0 0 1-1.5.11h-.22a1.55 1.55 0 0 0-1.17.6.67.67 0 0 0-.09.14.22.22 0 0 0 0 .08l-.06.14v.35a.76.76 0 0 1 0 .15V42a.77.77 0 0 0 0 .15.37.37 0 0 0 0 .11v.14a.36.36 0 0 0 0 .11.52.52 0 0 0 .06.13.37.37 0 0 0 0 .11.44.44 0 0 0 .08.11.36.36 0 0 0 .07.1l.1.1s0 .07.09.09l.09.08.09.06a6.19 6.19 0 0 1 1 .68l.1.09v.11a1.88 1.88 0 0 1 .12.18 1.42 1.42 0 0 1 .08.18v.07c-8.61.63-17.12 1.88-21.91 2.66-.67-1.27-.79-2.49-.25-3.15a4.37 4.37 0 0 1 1.22-.93 1.6 1.6 0 0 0 .97-1.71zm57.44 15.2a6.75 6.75 0 0 1-2-.07 10.64 10.64 0 0 1-3.19-1.66 12.14 12.14 0 0 0-4.73-2.19 12 12 0 0 0-5.15.71 10.94 10.94 0 0 1-3.55.65 10.84 10.84 0 0 1-3.4-1.17 11.94 11.94 0 0 0-5-1.48 12 12 0 0 0-5 1.45A11.15 11.15 0 0 1 52 54.06a10.86 10.86 0 0 1-3.54-.67 12 12 0 0 0-5.15-.74 12.17 12.17 0 0 0-4.75 2.16 10.9 10.9 0 0 1-3.19 1.64 8.11 8.11 0 0 1-2.69 0l-4.46-5.79c4.22-.69 14.1-2.2 23.69-2.82 1.81-.12 3.53-.2 5.15-.25H63c1.7 0 3.51.14 5.4.26 9.68.61 19.46 2.15 23.6 2.79zm6.19-16.5a5.19 5.19 0 0 1-1.72.15 1.6 1.6 0 0 0-.87 3 4.55 4.55 0 0 1 1.22.93c.54.66.42 1.88-.26 3.14-4.74-.77-13.2-2-21.9-2.64a.14.14 0 0 1 0-.07 1.42 1.42 0 0 1 .08-.18 1.88 1.88 0 0 1 .12-.18v-.06h.05a5.21 5.21 0 0 1 1.07-.78h.15l.11-.08.09-.1.09-.09a1 1 0 0 1 .08-.11l.07-.11.06-.12a.54.54 0 0 1 0-.11.5.5 0 0 1 0-.13v-.12a.66.66 0 0 0 0-.14v-.12-.14a.49.49 0 0 0 0-.12.8.8 0 0 0 0-.15.29.29 0 0 0 0-.09 1.17 1.17 0 0 0 0-.11.61.61 0 0 0 0-.12A1432271343802.36 1432271343802.36 0 0 1 72 41l-.08-.1a.81.81 0 0 0-.09-.1l-.08-.07-.12-.09h-.07l-.15-.08a1.48 1.48 0 0 0-.55-.13h-.23a5.48 5.48 0 0 1-1.5-.11h-.15a2.41 2.41 0 0 1-1.28-1.85 7.81 7.81 0 0 1 .3-4.37l.13-.33v-.08l.11-.27v-.05c.1-.21.21-.42.32-.63l.15-.25v-.06l.16-.25a1.3 1.3 0 0 0 .1-.15l.05-.07c1-1.39 2.24-2.16 3.15-2h.25a3.78 3.78 0 0 1 1 .64 1.6 1.6 0 0 0 2.48-1.84 4.52 4.52 0 0 1-.36-1.5v-.13a1.4 1.4 0 0 1 .08-.34 6.61 6.61 0 0 0 .71-1 4.68 4.68 0 0 1 .85-.58 8.4 8.4 0 0 1 3.53-.88h.24a8.62 8.62 0 0 1 1.14.07l.52.08h.08l.41.09.17.05.28.08c1.7.54 2.81 1.56 2.81 2.5a5 5 0 0 1-.3 1.8 1.6 1.6 0 0 0 2.53 1.82A4.9 4.9 0 0 1 90 30a2.4 2.4 0 0 1 2.16.63 7.83 7.83 0 0 1 2.34 3.47c1.03 2.9.36 5.61-.92 6.07z"/><path d="M38.82 44.67a6.17 6.17 0 1 0-6.17-6.17 6.18 6.18 0 0 0 6.17 6.17zm0-9.14a3 3 0 1 1-3 3 3 3 0 0 1 3-3zm42.3-3.2a6.17 6.17 0 1 0 6.17 6.17 6.17 6.17 0 0 0-6.17-6.17zm0 9.13a3 3 0 1 1 3-3 3 3 0 0 1-3 3zm-4.43 41.27a5.55 5.55 0 0 0-4.07-1.66c-3.66 0-7.46 3.16-9 4.61a3.26 3.26 0 0 0-1.77-.53h-3.46a3.27 3.27 0 0 0-1.78.53c-1.57-1.46-5.37-4.58-9-4.61a5.63 5.63 0 0 0-4.08 1.66 4.2 4.2 0 0 0-.88 2.07 26 26 0 0 0 0 12.11 4.21 4.21 0 0 0 .88 2.1 5.61 5.61 0 0 0 4 1.65h.05a10.44 10.44 0 0 0 5-1.59l-1.75 6.26a7.36 7.36 0 0 0 7.1 9.34h4.36a7.36 7.36 0 0 0 7.09-9.34l-1.73-6.24a10.52 10.52 0 0 0 5 1.57 5.57 5.57 0 0 0 4-1.65 4.15 4.15 0 0 0 .89-2.1 26 26 0 0 0 0-12.11 4 4 0 0 0-.85-2.07zm-18.37 5.69a.07.07 0 0 1 .07-.07h3.43a.08.08 0 0 1 .07.07v4.9h-3.5zm-5.9 6.93a9.32 9.32 0 0 1-4.86 2.11 2.34 2.34 0 0 1-1.62-.56c0-.12-.11-.35-.2-.73a22.82 22.82 0 0 1 0-10.62c.09-.37.16-.59.2-.71a2.31 2.31 0 0 1 1.6-.57c2.68 0 6.3 3.13 7.47 4.34l.09.08V93l-.1.1s-.27.28-.72.69a21.72 21.72 0 0 1-1.86 1.56zm13.18 14.48a4.13 4.13 0 0 1-3.31 1.64h-4.36a4.15 4.15 0 0 1-4-5.28l2.8-10.07.18.1a2.52 2.52 0 0 0 .33.14H62.97a3.54 3.54 0 0 0 .52-.25l2.8 10.08a4.13 4.13 0 0 1-.69 3.64zm8.87-13.66c-.1.38-.16.61-.2.73a2.32 2.32 0 0 1-1.62.56c-2.23 0-5.09-2.15-6.68-3.57-.4-.35-.66-.61-.74-.69l-.14-.2v-4.31l.09-.09a21.63 21.63 0 0 1 2.61-2.21 9.21 9.21 0 0 1 4.85-2.12 2.38 2.38 0 0 1 1.6.57c0 .12.1.34.19.71a22.82 22.82 0 0 1 .04 10.62z"/></svg>