<svg xmlns="http://www.w3.org/2000/svg" viewBox="0 0 114 102.74"><defs><style>.cls-1{fill:#5ec6f1;}.cls-2{opacity:0.45;}.cls-3,.cls-4{fill:#fff;}.cls-4{opacity:0.4;}.cls-5{fill:#010101;}.cls-6{fill:#ed1c2b;}.cls-7{fill:#c82027;}.cls-8{fill:#52bceb;}.cls-9{fill:#3a96bf;}.cls-10{fill:#2a6e8f;}.cls-11{fill:#13435a;}.cls-12{fill:#f2684d;}.cls-13{fill:#204387;}.cls-14{fill:#f04f35;}.cls-15{fill:#1f3366;}</style></defs><title>makeup</title><g id="Layer_2" data-name="Layer 2"><g id="Layer_1-2" data-name="Layer 1"><path class="cls-1" d="M34.62,87.55c0,.19-.08.38-.14.58.07-.16.15-.32.21-.48Z"/><path class="cls-1" d="M35.1,82.61c0,1.39-.31,4.93-.31,4.93v.13c0,.19-.08.38-.14.58a8.14,8.14,0,0,1-3.58,5.37,5.84,5.84,0,0,1-1,.41,47.54,47.54,0,0,1-7.41,1.68c-5.79.88-11.45.87-12.34-.13l-.19-.2c-1.8-2-5.54-6.1-5.54-15a56.34,56.34,0,0,1,.43-7.07h0A31.92,31.92,0,0,1,7.54,63.7a4.33,4.33,0,0,1,1.38-1.84,3.32,3.32,0,0,1,.76-.3h.18a27.45,27.45,0,0,1,4.08-.66,32.88,32.88,0,0,1,9.81.88l.45.16c4,1.28,10.59,3.42,9.67,18.06v.21l1,.06A12.31,12.31,0,0,1,35.1,82.61Z"/><g class="cls-2"><path class="cls-3" d="M34.69,87.64c-.06.17-.14.32-.21.48.06-.19.1-.38.14-.58Z"/></g><polygon class="cls-4" points="3.25 68.09 5.53 70.36 5.54 70.37 29.41 94.24 29.46 94.3 30.8 95.64 34.52 91.92 33.79 91.2 33.59 90.99 33.53 90.94 33.43 90.83 7.17 64.58 7.15 64.56 6.29 63.7 3.7 66.29 3.25 68.09"/><path class="cls-4" d="M37,87.91c-.1.51-1.15,1.94-1.3,2.41l-28-28,1.86-1.86Z"/><path class="cls-1" d="M35,26.59a17,17,0,0,1-.15,2.33l-.1,0v.24c0,4.52-.63,7.85-1.86,10.32h0a8.19,8.19,0,0,1-1.66,3.35,10.35,10.35,0,0,1-2.07,2,16.19,16.19,0,0,1-5,2.34l-.39.17a14.08,14.08,0,0,1-2.14.49c-4.22.69-10.78.55-12.54-.45S4.89,39,4.89,29c0-.91,0-1.77.11-2.58a20.64,20.64,0,0,1,2.79-9.1,19.41,19.41,0,0,1,1.75-2.43c.29-.35.56-.65.8-.92l.19-.21a2.84,2.84,0,0,1,2.13-.46h0c3.84-.61,11.79.18,17.33,2C34.41,16.78,35,23,35,26.59Z"/><path class="cls-4" d="M32.83,44.88a14,14,0,0,1-4,3.38l-2-2-.1-.1L5.2,24.69l-.12-.12h0L2.74,22.22l.08-.34a21.18,21.18,0,0,1,.8-2.58c.09-.24.19-.48.29-.71l1.31-1.31L6.95,19l24,24Z"/><path class="cls-4" d="M6.75,15.88,8.61,14,35.37,40.78c-.19.45-1.31,1.79-1.51,2.2Z"/><path class="cls-5" d="M34.62,87.55c0,.19-.08.38-.14.58.07-.16.15-.32.21-.48Z"/><path class="cls-5" d="M34.62,87.55c0,.19-.08.38-.14.58.07-.16.15-.32.21-.48Z"/><path class="cls-5" d="M37.58,80c0-16.74-8.48-19.45-12.43-20.71l-.5-.19a25.92,25.92,0,0,0-6-1,15.09,15.09,0,0,1-.44-3.57,14.42,14.42,0,0,1,.4-3.48,26.44,26.44,0,0,0,6.05-1L25,50a21.7,21.7,0,0,0,4.18-1.7,14,14,0,0,0,4-3.38,15.09,15.09,0,0,0,1.82-2.82c.2-.41.4-.83.58-1.27A30.26,30.26,0,0,0,37.58,29.2v-.07l0-.19a15.54,15.54,0,0,0,.19-2.35c0-7.51-2.48-12.48-7-14a57.25,57.25,0,0,0-15.26-2.48,3.92,3.92,0,0,0-2.2-1.56c-1.15-.16-2,.65-3.1,2.14a4.11,4.11,0,0,0-1.86,1.12l-.2.22a22,22,0,0,0-4.27,6.51c-.1.23-.19.47-.29.71a21.18,21.18,0,0,0-.8,2.58l-.08.34A28.89,28.89,0,0,0,2,29c0,8.82,1.95,18.85,5.67,20.95l.43.2a19.34,19.34,0,0,1,.7,4.42,18.26,18.26,0,0,1-.71,4.51l-.4.19c-1.72,1-3,3.6-4,7l-.11.4c-.1.37-.19.76-.29,1.16a1.84,1.84,0,0,0,0,.24A57.54,57.54,0,0,0,2,80.21c0,10,4.17,14.69,6.14,16.88l.2.24a4,4,0,0,0,1.8,1.11c1.25,1.8,2.14,2.42,3.18,2.27a4.09,4.09,0,0,0,2.29-1.67,57.5,57.5,0,0,0,15.18-2.47c3-1,5-3.46,6.11-7.19a14.46,14.46,0,0,0,.37-1.49,26.54,26.54,0,0,0,.49-5.3,15.7,15.7,0,0,0-.19-2.36ZM4.75,29c0-.91,0-1.76.11-2.57,0-.32.06-.64.1-.95L5,25.06c0-.15,0-.29.06-.43v.11l0-.15a17.07,17.07,0,0,1,.5-2.15c0-.19.11-.38.17-.57.11-.37.23-.72.37-1.07A14.81,14.81,0,0,1,6.93,19s0,0,0,0c.3-.55.58-1,.88-1.5.06-.11.14-.21.21-.32l.28-.39c.16-.22.32-.44.47-.63h0c.31-.39.6-.73.87-1h0l0,0c.31-.35.59-.65.85-.92l.19-.21A4.17,4.17,0,0,1,13,13.29h0c1.88,0,11.32.33,16.45,1.85l.54.17C34.41,16.78,35,23,35,26.59a17,17,0,0,1-.15,2.33l-.1,0v.24c0,.51,0,1,0,1.49,0,.24,0,.48,0,.71,0,.07,0,.14,0,.2,0,.32,0,.65-.06,1s-.07.84-.12,1.23-.08.64-.13,1-.11.67-.17,1-.15.69-.22,1-.1.43-.16.64l-.14.49a5.34,5.34,0,0,1-.17.55c0,.13-.08.26-.13.39a3.06,3.06,0,0,1-.49.69h0c-.08.22-.18.43-.27.63-.18.38-.35.73-.55,1.08s-.43.71-.64,1-.29.41-.44.59l-.1.12,0,0a10.79,10.79,0,0,1-1.4,1.43c-.18.16-.35.3-.53.43s-.44.32-.65.45-.44.27-.65.38a3,3,0,0,1-.38.2l-.58.28,0,0c-.14.07-.3.13-.45.19s-.59.24-.88.34l-.5.18-.86.29-.39.17a14.2,14.2,0,0,1-2.13.49,36.57,36.57,0,0,1-11.28,0l-.32-.08A3.77,3.77,0,0,1,9,47.43C7.21,46.43,4.75,38.94,4.75,29ZM28.44,94.59l-.7.18L26.57,95c-.4.09-.8.18-1.21.25-.8.16-1.62.3-2.44.42a57.9,57.9,0,0,1-6.2.6,32.52,32.52,0,0,1-3.31,0c-1.53-.09-2.62-.33-3-.72l-.19-.2a18.9,18.9,0,0,1-4.67-8c-.17-.58-.32-1.2-.45-1.85,0-.22-.08-.44-.12-.67-.07-.45-.14-.92-.19-1.4a27.57,27.57,0,0,1-.17-3.13c0-1,0-1.88.06-2.79,0-.6.06-1.19.11-1.77,0-.29,0-.57.07-.85.06-.57.11-1.11.19-1.65h0c0-.26.06-.52.1-.78s.07-.51.12-.76.07-.5.12-.74l.06-.32.06-.29c0-.19.07-.39.12-.58l.11-.56c0-.11,0-.22.07-.33s.09-.44.15-.64c.11-.43.21-.84.32-1.22.06-.19.12-.39.18-.57l.17-.53a1.59,1.59,0,0,1,.06-.19c.12-.33.23-.66.35-1,0-.07.06-.15.09-.21a1.55,1.55,0,0,0,.07-.19l.14-.31c.06-.14.13-.27.19-.39a8,8,0,0,1,.55-1,2.8,2.8,0,0,1,.77-.83L9,61.86a3.26,3.26,0,0,1,.77-.3h.15a2.1,2.1,0,0,1,.5-.25c.23-.06.48-.09.75-.14l.4-.06.3,0L12,61l.49,0,.47,0,.36,0,.64,0a32.88,32.88,0,0,1,9.81.88l.45.16c4,1.28,10.59,3.42,9.67,18.06v.21l1,.06a12.31,12.31,0,0,1,.2,2.33c0,.27,0,.55,0,.84a.7.7,0,0,1,0,.14,3.53,3.53,0,0,1,0,.54c0,.34,0,.71-.08,1.08v0c0,.19,0,.38-.06.58-.06.53-.15,1.07-.26,1.6,0,.06.15.13.15.13h0l-.1.09c-.06.17-.14.32-.21.48s-.13.49-.21.73v0a6.46,6.46,0,0,1-.24.71,3,3,0,0,1-.12.31l0,.06,0,0v0c0,.08-.07.18-.12.26s-.19.37-.29.56l0,.09h.48v.13a.33.33,0,0,1-.07.12.11.11,0,0,1,0,.07l-.06.1-.27.4c-.08.12-.18.24-.27.35a3.52,3.52,0,0,1-.31.34l-.31.31h0l0,0,0,0a3.26,3.26,0,0,1-.33.27,2.94,2.94,0,0,1-.27.2,5.82,5.82,0,0,1-.51.32,5.93,5.93,0,0,1-1,.41l-.74.22-.21.06Z"/><path class="cls-6" d="M91.43,41.92V67.13h14.86v-28a3.68,3.68,0,0,0-5-3.45l-7.49,2.79A3.68,3.68,0,0,0,91.43,41.92Z"/><path class="cls-7" d="M98.86,39.16v28h7.43v-28a3.68,3.68,0,0,0-5-3.45l-.06,0A3.68,3.68,0,0,0,98.86,39.16Z"/><rect class="cls-8" x="89.57" y="58.78" width="18.57" height="15.78"/><rect class="cls-9" x="98.86" y="58.78" width="9.28" height="15.78"/><rect class="cls-10" x="86.79" y="68.06" width="23.21" height="30.64"/><rect class="cls-11" x="98.86" y="68.06" width="11.14" height="30.64"/><rect class="cls-8" x="97" y="88.49" width="3.71" height="3.71"/><polygon class="cls-12" points="98.86 98.7 19.94 98.7 44.08 46.7 73.79 46.7 98.86 98.7"/><rect class="cls-13" x="44.08" y="41.13" width="29.71" height="5.57"/><path class="cls-12" d="M79.36,18.53V33.84a7.21,7.21,0,0,1-7.11,7.3H46.17a7.89,7.89,0,0,1-7.66-7.3V18.53l2.79.48V6.08A2.25,2.25,0,0,1,43.49,4h.36a2.09,2.09,0,0,1,2.09,2.09V19.82l3.85.73a12,12,0,0,1,8.46,6.31,1.5,1.5,0,0,0,2.65,0,12,12,0,0,1,8.46-6.31l3.5-.67V6.08A2.09,2.09,0,0,1,75,4h-.42a2,2,0,0,1,2,2v13Z"/><polygon class="cls-14" points="98.86 98.7 58.93 98.7 58.93 46.7 73.79 46.7 98.86 98.7"/><rect class="cls-15" x="58.93" y="41.13" width="14.86" height="5.57"/><path class="cls-14" d="M79.36,18.53V33.84a7.3,7.3,0,0,1-7.3,7.3H58.93V27.65a1.41,1.41,0,0,0,1.46-.79,11.64,11.64,0,0,1,8.16-6.3l3.38-.68V6.08S73.27,4,74.42,4h0c1.15,0,2.15,2.09,2.15,2.09v13Z"/><path class="cls-5" d="M74.42,4a1,1,0,0,1,.17,0l.15,0a2,2,0,0,1,1.83,2v13l1.86-.37.93-.19h0V33.84h0a7.21,7.21,0,0,1-7.11,7.3h1.54v5.57l13,27V68.06h2.79V58.78h1.86V41.92a3.68,3.68,0,0,1,2.4-3.45l7.49-2.79a3.68,3.68,0,0,1,5,3.45V58.78h1.86v9.28H110V98.7H19.94l24.14-52V41.13h2.09a7.89,7.89,0,0,1-7.66-7.3V18.53l2.79.48V6.08A2.25,2.25,0,0,1,43.49,4h.36a2.09,2.09,0,0,1,2.09,2.09V19.82l3.85.73a12,12,0,0,1,8.46,6.31,1.45,1.45,0,0,0,1.13.78,1.4,1.4,0,0,0,1-.78,11.64,11.64,0,0,1,8.16-6.3l3.38-.68V6.08S73.27,4,74.42,4m0-2c-2,0-3.6,2.11-4.17,3a2,2,0,0,0-.31,1.08V18.24l-1.77.36a13.48,13.48,0,0,0-8.85,6.12,14,14,0,0,0-9.14-6.13l-2.23-.42V6.08A4.09,4.09,0,0,0,43.85,2h-.36A4.27,4.27,0,0,0,39.3,5.91q0,.09,0,.18V16.63l-.45-.08-.34,0a2,2,0,0,0-2,2V33.84q0,.09,0,.19a10.17,10.17,0,0,0,5.56,8.15v4.09l-24,51.59a2,2,0,0,0,1.81,2.84H110a2,2,0,0,0,2-2V68.06a2,2,0,0,0-1.86-2V58.78a2,2,0,0,0-1.86-2V39.13a5.68,5.68,0,0,0-7.67-5.33l-7.49,2.79a5.71,5.71,0,0,0-3.7,5.33V56.78a2,2,0,0,0-1.86,2v7.28h-.79a2,2,0,0,0-1.24.43L75.79,46.25V42.4a9.32,9.32,0,0,0,5.57-8.57V18.53a2,2,0,0,0-2.39-2l-.39.08V6.08A4,4,0,0,0,74.95,2h-.22l-.3,0Z"/><path class="cls-3" d="M74.42,2a1.41,1.41,0,0,1,.3,0H75a4,4,0,0,1,3.62,4.05V16.64l.4-.08a2.56,2.56,0,0,1,.39,0,2,2,0,0,1,1.27.45,2,2,0,0,1,.73,1.55V33.84a9.31,9.31,0,0,1-5.57,8.56v3.85l9.76,20.24a2,2,0,0,1,1.24-.43h.78V58.78a2,2,0,0,1,1.86-2V41.92a5.71,5.71,0,0,1,3.7-5.33l7.49-2.78a5.68,5.68,0,0,1,7.67,5.32V56.78a2,2,0,0,1,1.85,2v7.28a2,2,0,0,1,1.86,2V98.7a2,2,0,0,1-2,2H19.94a2,2,0,0,1-1.69-.92,2.16,2.16,0,0,1-.29-.84c-.8.06-1.59.1-2.33.11a4.06,4.06,0,0,1-2.29,1.67l-.29,0c-.92,0-1.76-.66-2.9-2.29a4,4,0,0,1-1.8-1.12l-.2-.24C6.18,94.9,2,90.24,2,80.21A57.91,57.91,0,0,1,3.25,68.09a1.45,1.45,0,0,1,0-.24c.09-.4.19-.79.29-1.16,0-.13.07-.27.11-.4,1-3.42,2.27-6.06,4-7l.4-.2a18.07,18.07,0,0,0,.71-4.51,19.21,19.21,0,0,0-.7-4.42l-.43-.2C4,47.84,2,37.81,2,29a29.13,29.13,0,0,1,.74-6.77l.09-.34a21.89,21.89,0,0,1,.79-2.58c.1-.24.19-.49.29-.72a22.3,22.3,0,0,1,4.27-6.51l.21-.22a4.17,4.17,0,0,1,1.85-1.12c1-1.37,1.8-2.17,2.82-2.17l.29,0a3.92,3.92,0,0,1,2.2,1.56,57.58,57.58,0,0,1,15.26,2.48,9.36,9.36,0,0,1,5.7,6v0A2,2,0,0,1,37.22,17a2,2,0,0,1,1.29-.47l.34,0,.44.07V6.08c0-.06,0-.11,0-.17A4.28,4.28,0,0,1,43.49,2h.36a4.09,4.09,0,0,1,4.09,4.08V18.17l2.22.42a14,14,0,0,1,9.15,6.13,13.47,13.47,0,0,1,8.85-6.12l1.77-.36V6.08A1.94,1.94,0,0,1,70.25,5c.58-.91,2.14-3,4.17-3M33.53,64.67l8.55-18.41V42.17a10.15,10.15,0,0,1-5.1-6,23.69,23.69,0,0,1-1.32,4.59c-.19.45-.38.86-.59,1.27a15.15,15.15,0,0,1-1.82,2.83,14.07,14.07,0,0,1-4,3.38A21.68,21.68,0,0,1,25,50l-.39.14a26,26,0,0,1-6.06,1,14.42,14.42,0,0,0-.4,3.48,15,15,0,0,0,.44,3.57,26.07,26.07,0,0,1,6,1l.5.2a15.68,15.68,0,0,1,8.38,5.38M74.42,0c-2.91,0-4.92,2.47-5.86,3.94a3.92,3.92,0,0,0-.63,2.14V16.61l-.17,0a15.29,15.29,0,0,0-8.48,4.8,15.94,15.94,0,0,0-8.75-4.82l-.6-.11V6.08A6.09,6.09,0,0,0,43.85,0h-.36a6.3,6.3,0,0,0-6.18,5.73s0,.07,0,.11,0,.16,0,.25v8.64a4,4,0,0,0-.44.17,10.51,10.51,0,0,0-5.4-4.17,59.37,59.37,0,0,0-15-2.56A5.07,5.07,0,0,0,13.64,6.6a4.16,4.16,0,0,0-.58,0C11.25,6.56,10,7.76,9,9.07a5.82,5.82,0,0,0-2.05,1.42l-.19.2,0,.05a24.28,24.28,0,0,0-4.62,7.06l-.18.45-.11.28,0,.08A23.79,23.79,0,0,0,.89,21.4l0,.15,0,.15,0,.06A31.31,31.31,0,0,0,0,29,58.32,58.32,0,0,0,1.5,42.46c1.14,4.62,2.77,7.65,4.87,9a14.51,14.51,0,0,1,.43,3.07,14.68,14.68,0,0,1-.43,3.18c-2,1.29-3.45,3.91-4.59,8,0,.15-.09.32-.13.47-.1.37-.2.76-.29,1.16a3.43,3.43,0,0,0-.08.37A59.89,59.89,0,0,0,0,80.21C0,91,4.63,96.17,6.64,98.4l.18.21a5.6,5.6,0,0,0,2.06,1.49c1,1.38,2.34,2.64,4.17,2.64a4.07,4.07,0,0,0,.58,0A5.12,5.12,0,0,0,16.57,101h.11a4,4,0,0,0,3.26,1.68H110a4,4,0,0,0,4-4V68.06a4,4,0,0,0-1.86-3.37V58.78a4,4,0,0,0-1.85-3.38V39.13a7.68,7.68,0,0,0-10.37-7.19l-7.48,2.78a7.71,7.71,0,0,0-5,7.21V55.4a4,4,0,0,0-1.86,3.38v3.15L77.79,45.79V43.63a11.31,11.31,0,0,0,5.57-9.79V18.53a4,4,0,0,0-1.46-3.09,3.9,3.9,0,0,0-1.33-.72V6.08a6,6,0,0,0-5.39-6l-.31,0a3.81,3.81,0,0,0-.46,0ZM25.67,51.85A23.35,23.35,0,0,0,30.17,50a16,16,0,0,0,4.63-3.86A17.21,17.21,0,0,0,36.86,43c.22-.43.44-.89.65-1.39l.13-.31a12,12,0,0,0,2.45,2.09v2.49L33,61.15a19,19,0,0,0-7.14-3.74l-.43-.17-.13,0a24.35,24.35,0,0,0-5-.94,13.52,13.52,0,0,1-.11-1.69A14.27,14.27,0,0,1,20.27,53a23.77,23.77,0,0,0,5-1l0,0,.35-.13Z"/></g></g></svg>