<svg xmlns="http://www.w3.org/2000/svg" viewBox="0 0 116 116"><defs><style>.cls-1{isolation:isolate;}.cls-2{fill:#fff;}.cls-10,.cls-3{fill:#401611;}.cls-4{fill:#010101;}.cls-5{fill:#fcb653;}.cls-6{fill:#ffd764;}.cls-7{fill:#901f1d;}.cls-8{fill:#f15845;}.cls-9{fill:#fee7a2;}.cls-10{mix-blend-mode:soft-light;}</style></defs><title>mazedar</title><g class="cls-1"><g id="Layer_2" data-name="Layer 2"><g id="Layer_1-2" data-name="Layer 1"><path class="cls-2" d="M58,116c-1.38,0-2.72,0-4-.14A58,58,0,0,1,54,.14C55.29,0,56.63,0,58,0a58,58,0,0,1,0,116ZM58,6.57c-1.21,0-2.4,0-3.52.12a51.43,51.43,0,0,0,0,102.62c1.13.08,2.32.12,3.54.12A51.43,51.43,0,0,0,58,6.57Z"/><path class="cls-3" d="M58.17,6.5c-1.19,0-2.37,0-3.54.12a51.5,51.5,0,0,0,0,102.76c1.17.08,2.35.12,3.54.12a51.5,51.5,0,0,0,0-103Z"/><path class="cls-4" d="M58.17,112.36c-1.29,0-2.55,0-3.74-.13a54.36,54.36,0,0,1,0-108.46c1.19-.09,2.45-.13,3.73-.13a54.36,54.36,0,0,1,0,108.72ZM58.17,8c-1.18,0-2.33,0-3.43.12a50,50,0,0,0,0,99.68c1.1.08,2.25.12,3.43.12A50,50,0,0,0,58.17,8Z"/><path class="cls-5" d="M109.5,58A51.5,51.5,0,0,1,58,109.5c-1.19,0-2.37,0-3.54-.12a51.5,51.5,0,0,1,0-102.76c1.17-.08,2.35-.12,3.54-.12A51.5,51.5,0,0,1,109.5,58Z"/><path class="cls-6" d="M102.43,58a51.5,51.5,0,0,1-48,51.38,51.5,51.5,0,0,1,0-102.76A51.5,51.5,0,0,1,102.43,58Z"/><path class="cls-7" d="M79.08,68.8v8.07A20.94,20.94,0,0,1,58.17,97.79h0c-.62,0-1.25,0-1.86-.09h0a20.94,20.94,0,0,1-19-20.84V68.8Z"/><path class="cls-8" d="M74.61,89.78a20.86,20.86,0,0,1-16.45,8h0a20.86,20.86,0,0,1-16.45-8,20.83,20.83,0,0,1,16.45-8h0A20.83,20.83,0,0,1,74.61,89.78Z"/><path class="cls-9" d="M75.32,68.8v4.4a1.82,1.82,0,0,1-2,1.63H43a1.82,1.82,0,0,1-2-1.63V68.8Z"/><path class="cls-2" d="M71.46,68.8v4.4a1.81,1.81,0,0,1-2,1.63H43a1.82,1.82,0,0,1-2-1.63V68.8Z"/><path class="cls-10" d="M79,68.8v8.07A20.94,20.94,0,0,1,58.1,97.79h0c-.62,0-1.25,0-1.86-.09a20.94,20.94,0,0,0,19-20.84V68.8Z"/><g id="GyjXdZ.tif"><path class="cls-3" d="M63.81,50.66h.29c.55,0,1.11.08,1.66.14a11.3,11.3,0,0,1,6.77,3.28,22.33,22.33,0,0,1,2.81,3.58A39.68,39.68,0,0,0,78.51,62,11.24,11.24,0,0,0,88.06,66a5.16,5.16,0,0,0,3.51-1.9,4.56,4.56,0,0,0-1.83-7.12l-.28-.11a.65.65,0,0,1,.29,0,5.45,5.45,0,0,1,4.55,2.36,8.39,8.39,0,0,1-1.89,11.57,14.25,14.25,0,0,1-5,2.19,33.06,33.06,0,0,1-7.36.89l-.5,0h-1.4l-.36,0c-1.55-.12-3.12-.18-4.66-.37a33.17,33.17,0,0,1-7.84-1.92,19.72,19.72,0,0,1-6.62-3.94L58.1,67c-.73.61-1.41,1.24-2.15,1.79a21.37,21.37,0,0,1-5.54,2.86,31.51,31.51,0,0,1-6.15,1.57c-1.51.22-3,.35-4.55.5-.57.06-1.15.07-1.73.1H36.53l-.26,0a39.12,39.12,0,0,1-5.09-.4,20.35,20.35,0,0,1-5.39-1.49,9.31,9.31,0,0,1-4.09-3.23,8.36,8.36,0,0,1-1.12-6.92,6.75,6.75,0,0,1,2.53-3.91,5.23,5.23,0,0,1,3.55-1,.64.64,0,0,1-.18.1,4.49,4.49,0,0,0-2.52,6.16A5,5,0,0,0,28.46,66a11.19,11.19,0,0,0,5.43-1.08,11.07,11.07,0,0,0,3.93-3.13,41.74,41.74,0,0,0,2.94-4.09,21.29,21.29,0,0,1,3.13-3.9,11.34,11.34,0,0,1,6.9-3.05l1.25-.1h.29l.26,0a8.59,8.59,0,0,1,4.82,1.73c.22.17.44.35.66.53l.16-.13a8.58,8.58,0,0,1,4.11-2C62.82,50.74,63.32,50.72,63.81,50.66Z"/></g><path class="cls-3" d="M41,33.14a9.62,9.62,0,0,0-6.21,2.58,9,9,0,0,0-2.58,6.42.26.26,0,0,0,.19.1.27.27,0,0,0,.22-.1,8.65,8.65,0,0,1,2.52-6.2A9.12,9.12,0,0,1,41,33.55a8.4,8.4,0,0,1,8.38,8.19v.41a.26.26,0,0,0,.41,0v-.2A8.8,8.8,0,0,0,41,33.14Z"/><path class="cls-3" d="M32.41,43.79h-.1A1.8,1.8,0,0,1,31,43.07l-.3-.4v-.5a10.64,10.64,0,0,1,3-7.54,11.19,11.19,0,0,1,7.31-3A10.35,10.35,0,0,1,51.34,41.94v.73l-.32.42a1.8,1.8,0,0,1-2.86,0l-.32-.42v-.93A6.87,6.87,0,0,0,41,35.09a7.59,7.59,0,0,0-4.78,2,7.08,7.08,0,0,0-2.06,5.06v.56l-.35.44A1.81,1.81,0,0,1,32.41,43.79Z"/><path class="cls-3" d="M75.32,33.14a9.62,9.62,0,0,0-6.21,2.58,9,9,0,0,0-2.58,6.42.26.26,0,0,0,.19.1.27.27,0,0,0,.22-.1,8.65,8.65,0,0,1,2.52-6.2,9.12,9.12,0,0,1,5.86-2.39,8.4,8.4,0,0,1,8.38,8.19v.41a.26.26,0,0,0,.41,0v-.2A8.8,8.8,0,0,0,75.32,33.14Z"/><path class="cls-3" d="M66.74,43.79h-.1a1.8,1.8,0,0,1-1.34-.72l-.3-.4v-.5a10.64,10.64,0,0,1,3-7.54,11.22,11.22,0,0,1,7.31-3A10.35,10.35,0,0,1,85.66,41.94v.77l-.37.43a1.8,1.8,0,0,1-1.37.65,1.84,1.84,0,0,1-1.44-.7l-.32-.42v-.93a6.87,6.87,0,0,0-6.84-6.64,7.56,7.56,0,0,0-4.78,2,7.06,7.06,0,0,0-2.06,5.06v.61l-.41.45A1.77,1.77,0,0,1,66.74,43.79Z"/></g></g></g></svg>