<svg xmlns="http://www.w3.org/2000/svg" viewBox="0 0 114 114"><defs><style>.cls-1{isolation:isolate;}.cls-2{fill:#f2693f;}.cls-3{fill:#ffecb2;}.cls-4{fill:#ffd864;}.cls-5{fill:#676767;}.cls-6,.cls-7{fill:#010101;}.cls-6{opacity:0.5;mix-blend-mode:overlay;}.cls-8{fill:#fff;}</style></defs><title>news</title><g class="cls-1"><g id="Layer_2" data-name="Layer 2"><g id="Layer_1-2" data-name="Layer 1"><path class="cls-2" d="M109.88,9.4a2.13,2.13,0,0,1-2.12,2.12H6.23A2.12,2.12,0,0,1,4.12,9.4,2.13,2.13,0,0,1,6.23,7.29H107.77A2.12,2.12,0,0,1,109.88,9.4Z"/><path class="cls-2" d="M109.88,104.6a2.13,2.13,0,0,1-2.12,2.12H6.23a2.12,2.12,0,0,1-2.12-2.12,2.13,2.13,0,0,1,2.12-2.12H107.77A2.12,2.12,0,0,1,109.88,104.6Z"/><polygon class="cls-3" points="99.31 4.12 99.31 76.04 90.14 81.33 99.31 86.61 99.31 91.25 96.35 92.96 99.31 94.67 99.31 109.89 14.69 109.89 14.69 36.7 23.5 31.61 14.69 26.53 14.69 4.12 99.31 4.12"/><rect class="cls-4" x="9.4" y="4.12" width="95.19" height="10.58"/><rect class="cls-4" x="9.4" y="99.31" width="95.19" height="10.58"/><rect class="cls-5" x="27.38" y="23.15" width="61.35" height="5.29" rx="2.5" ry="2.5"/><rect class="cls-5" x="27.38" y="39.02" width="61.35" height="5.29" rx="2.5" ry="2.5"/><rect class="cls-5" x="27.38" y="54.88" width="61.35" height="5.29" rx="2.5" ry="2.5"/><rect class="cls-5" x="27.38" y="70.75" width="61.35" height="5.29" rx="2.5" ry="2.5"/><rect class="cls-5" x="27.38" y="86.62" width="61.35" height="5.29" rx="2.5" ry="2.5"/><path class="cls-6" d="M109.88,104.6a2.13,2.13,0,0,1-2.12,2.12H104.6v3.17H57V4.12h47.6V7.29h3.17a2.12,2.12,0,0,1,2.12,2.12,2.13,2.13,0,0,1-2.12,2.12H104.6v3.17H99.31V76l-9.17,5.29,9.17,5.29v4.63l-3,1.71,3,1.71v4.63h5.29v3.17h3.17A2.12,2.12,0,0,1,109.88,104.6Z"/><path class="cls-7" d="M104.6,4.12V7.29h3.17a2.12,2.12,0,0,1,2.12,2.12,2.13,2.13,0,0,1-2.12,2.12H104.6v3.17H99.31V76l-9.17,5.29,9.17,5.29v4.63l-3,1.71,3,1.71v4.63h5.29v3.17h3.17a2.12,2.12,0,0,1,2.12,2.12,2.13,2.13,0,0,1-2.12,2.12H104.6v3.17H9.4v-3.17H6.23a2.12,2.12,0,0,1-2.12-2.12,2.13,2.13,0,0,1,2.12-2.12H9.4V99.31h5.29V36.7l8.81-5.09-8.81-5.09V14.69H9.4V11.52H6.23A2.12,2.12,0,0,1,4.12,9.4,2.13,2.13,0,0,1,6.23,7.29H9.4V4.12H104.6m0-2H9.4a2,2,0,0,0-2,2V5.29H6.23A4.13,4.13,0,0,0,2.12,9.4a4.12,4.12,0,0,0,4.12,4.12H7.4v1.17a2,2,0,0,0,2,2h3.29v9.84a2,2,0,0,0,1,1.73l5.81,3.36L13.69,35a2,2,0,0,0-1,1.73v60.6H9.4a2,2,0,0,0-2,2v1.17H6.23a4.13,4.13,0,0,0-4.12,4.12,4.12,4.12,0,0,0,4.12,4.12H7.4v1.17a2,2,0,0,0,2,2H104.6a2,2,0,0,0,2-2v-1.17h1.17a4.13,4.13,0,0,0,4.12-4.12,4.12,4.12,0,0,0-4.12-4.12H106.6V99.31a2,2,0,0,0-2-2h-3.29V94.68a2,2,0,0,0-1-1.71,2,2,0,0,0,1-1.71V86.62a2,2,0,0,0-1-1.73l-6.17-3.56,6.17-3.56a2,2,0,0,0,1-1.73V16.69h3.29a2,2,0,0,0,2-2V13.52h1.17a4.13,4.13,0,0,0,4.12-4.12,4.12,4.12,0,0,0-4.12-4.12H106.6V4.12a2,2,0,0,0-2-2Z"/><path class="cls-8" d="M104.6,2a2.12,2.12,0,0,1,2.12,2.12V5.17h1.06A4.24,4.24,0,0,1,112,9.4a4.25,4.25,0,0,1-4.23,4.23h-1.06v1.06a2.12,2.12,0,0,1-2.12,2.12h-3.17V76a2.12,2.12,0,0,1-1.06,1.83l-6,3.46,6,3.46a2.12,2.12,0,0,1,1.06,1.83v4.63a2.12,2.12,0,0,1-.87,1.71,2.12,2.12,0,0,1,.87,1.71v2.52h3.17a2.12,2.12,0,0,1,2.12,2.12v1.06h1.06A4.24,4.24,0,0,1,112,104.6a4.25,4.25,0,0,1-4.23,4.23h-1.06v1.06A2.12,2.12,0,0,1,104.6,112H9.4a2.12,2.12,0,0,1-2.12-2.12v-1.06H6.23A4.24,4.24,0,0,1,2,104.6a4.25,4.25,0,0,1,4.23-4.23H7.29V99.31A2.12,2.12,0,0,1,9.4,97.19h3.17V36.7a2.12,2.12,0,0,1,1.06-1.83l5.64-3.26-5.64-3.26a2.12,2.12,0,0,1-1.06-1.83V16.81H9.4a2.12,2.12,0,0,1-2.12-2.12V13.63H6.23A4.24,4.24,0,0,1,2,9.4,4.25,4.25,0,0,1,6.23,5.17H7.29V4.12A2.12,2.12,0,0,1,9.4,2H104.6m0-2H9.4a4.12,4.12,0,0,0-4,3.23A6.13,6.13,0,0,0,1.82,5,6.13,6.13,0,0,0,0,9.4a6.24,6.24,0,0,0,5.38,6.17,4.12,4.12,0,0,0,4,3.23h1.17v7.72a4.13,4.13,0,0,0,2.06,3.56l2.64,1.52-2.64,1.52a4.13,4.13,0,0,0-2.06,3.56V95.19H9.4a4.12,4.12,0,0,0-4,3.23,6.13,6.13,0,0,0-3.56,1.78A6.13,6.13,0,0,0,0,104.6a6.24,6.24,0,0,0,5.38,6.17,4.12,4.12,0,0,0,4,3.23H104.6a4.12,4.12,0,0,0,4-3.23A6.25,6.25,0,0,0,114,104.6a6.24,6.24,0,0,0-5.38-6.17,4.12,4.12,0,0,0-4-3.23h-1.17v-.52A4.11,4.11,0,0,0,103,93a4.11,4.11,0,0,0,.38-1.71V86.62a4.13,4.13,0,0,0-2.06-3.57l-3-1.72,3-1.72A4.13,4.13,0,0,0,103.42,76V18.81h1.17a4.12,4.12,0,0,0,4-3.23A6.25,6.25,0,0,0,114,9.4a6.24,6.24,0,0,0-5.38-6.17,4.12,4.12,0,0,0-4-3.23Z"/></g></g></g></svg>