<svg xmlns="http://www.w3.org/2000/svg" viewBox="0 0 113.7 93"><defs><style>.cls-1{fill:none;stroke:#fff;stroke-linecap:round;stroke-linejoin:round;stroke-width:2px;}.cls-2{fill:#e7eaed;}.cls-3{fill:#ffd074;}.cls-4{fill:#f6b657;}.cls-5{fill:#5d6e7e;}.cls-6{fill:#54626e;}.cls-7{fill:#66cdee;}.cls-8{fill:#33bdde;}.cls-9{fill:#ced4da;}.cls-10{fill:#010101;}.cls-11{fill:#fff;}</style></defs><title>Asset 12</title><g id="Layer_2" data-name="Layer 2"><g id="Layer_1-2" data-name="Layer 1"><path class="cls-1" d="M110,11.76H82.61v-8A2.74,2.74,0,0,0,79.87,1H51.26a2.74,2.74,0,0,0-2.74,2.74v8H25.92v-.07a2.74,2.74,0,0,0-2.74-2.74H19V6.62a2.74,2.74,0,0,0-2.74-2.74h-5.7A2.74,2.74,0,0,0,7.87,6.62V8.95H3.74A2.74,2.74,0,0,0,1,11.69V89.26A2.74,2.74,0,0,0,3.74,92H23.18a2.74,2.74,0,0,0,2.74-2.74v-.07H89.51a1.64,1.64,0,0,0,1.64-1.64H100a1.64,1.64,0,0,0,1.64,1.64H110a2.74,2.74,0,0,0,2.74-2.74V14.5A2.74,2.74,0,0,0,110,11.76Z"/><path class="cls-2" d="M23.34,90.18H4a1.09,1.09,0,0,1-1.09-1.09V11.83A1.09,1.09,0,0,1,4,10.74H23.34a1.09,1.09,0,0,1,1.09,1.09V89.08A1.09,1.09,0,0,1,23.34,90.18Z"/><path class="cls-3" d="M17.41,10.59H9.51v-4A1.09,1.09,0,0,1,10.6,5.53h5.71a1.09,1.09,0,0,1,1.09,1.09Z"/><path class="cls-4" d="M17.4,6.62v4H13.68v-4a1.1,1.1,0,0,0-1.1-1.1h3.73A1.1,1.1,0,0,1,17.4,6.62Z"/><path class="cls-5" d="M110,87.54H25.42a1.09,1.09,0,0,1-1.09-1.09v-72a1.09,1.09,0,0,1,1.09-1.09H110a1.09,1.09,0,0,1,1.09,1.09v72A1.09,1.09,0,0,1,110,87.54Z"/><path class="cls-6" d="M111.05,14.5V86.45a1.1,1.1,0,0,1-1.1,1.1H102.5a1.1,1.1,0,0,0,1.1-1.1V14.5a1.1,1.1,0,0,0-1.1-1.1H110A1.1,1.1,0,0,1,111.05,14.5Z"/><path class="cls-3" d="M102.54,25.44H92.7a3.19,3.19,0,0,1-3.19-3.19v0A3.19,3.19,0,0,1,92.7,19h9.84a3.19,3.19,0,0,1,3.19,3.19v0A3.19,3.19,0,0,1,102.54,25.44Z"/><path class="cls-4" d="M105.73,22.24a3.2,3.2,0,0,1-3.21,3.21H99.3a3.21,3.21,0,0,0,0-6.41h3.23A3.21,3.21,0,0,1,105.73,22.24Z"/><path class="cls-7" d="M81,13.41H50.17V3.73a1.09,1.09,0,0,1,1.09-1.09H79.87A1.09,1.09,0,0,1,81,3.73v9.67Z"/><path class="cls-8" d="M81,3.74v9.67H75.35V3.74a1.1,1.1,0,0,0-1.1-1.1h5.61A1.1,1.1,0,0,1,81,3.74Z"/><path class="cls-9" d="M24.27,11.69V89.26a1.1,1.1,0,0,1-1.1,1.1h-6.3a1.1,1.1,0,0,0,1.1-1.1V11.69a1.1,1.1,0,0,0-1.1-1.1h6.3A1.1,1.1,0,0,1,24.27,11.69Z"/><path class="cls-10" d="M110,11.76H82.61v-8A2.74,2.74,0,0,0,79.87,1H51.26a2.74,2.74,0,0,0-2.74,2.74v8H25.92v-.07A2.74,2.74,0,0,0,23.18,9H19V6.62a2.74,2.74,0,0,0-2.74-2.74h-5.7A2.74,2.74,0,0,0,7.87,6.62V9H3.74A2.74,2.74,0,0,0,1,11.69V89.26A2.74,2.74,0,0,0,3.74,92H23.18a2.74,2.74,0,0,0,2.74-2.74v-.07h83.59a1.64,1.64,0,0,0,0-3.29H26V15h83.43V85.9h-7.73a1.64,1.64,0,0,0,0,3.29H110a2.74,2.74,0,0,0,2.74-2.74V14.5A2.74,2.74,0,0,0,110,11.76ZM11.16,7.17h4.6V9h-4.6ZM22.63,88.71H4.29V12.24H22.63ZM51.81,11.76V4.29H79.32v7.47H51.81Z"/><circle class="cls-11" cx="65.56" cy="50.97" r="23.89"/><path class="cls-9" d="M89.45,51A23.89,23.89,0,0,1,65.56,74.86a23.38,23.38,0,0,1-2.7-.15,23.89,23.89,0,0,0,0-47.47,23.38,23.38,0,0,1,2.7-.15A23.89,23.89,0,0,1,89.45,51Z"/><circle class="cls-7" cx="65.56" cy="50.97" r="15.53"/><path class="cls-8" d="M81.09,51A15.53,15.53,0,0,1,65.56,66.5a15.28,15.28,0,0,1-2.16-.15,15.53,15.53,0,0,0,0-30.76,15.28,15.28,0,0,1,2.16-.15A15.53,15.53,0,0,1,81.09,51Z"/><path class="cls-10" d="M47,35.87a1.64,1.64,0,0,0-2.29.4A25.5,25.5,0,1,0,54.38,28a1.64,1.64,0,0,0,1.44,3,22,22,0,0,1,9.74-2.24,22.24,22.24,0,1,1-18.19,9.43A1.64,1.64,0,0,0,47,35.87Z"/><path class="cls-10" d="M65.56,68.15A17.17,17.17,0,1,0,48.39,51,17.19,17.19,0,0,0,65.56,68.15Zm0-31.06A13.89,13.89,0,1,1,51.68,51,13.9,13.9,0,0,1,65.56,37.09Z"/></g></g></svg>