<svg xmlns="http://www.w3.org/2000/svg" viewBox="0 0 115.39 114"><defs><style>.cls-1,.cls-8{fill:none;stroke-miterlimit:10;}.cls-1{stroke:#fff;stroke-width:2px;}.cls-2{fill:#f16076;}.cls-3{fill:#010101;}.cls-4{fill:#ffcb1a;}.cls-5{opacity:0.1;}.cls-6{fill:#040404;}.cls-7{fill:#020202;}.cls-8{stroke:#010101;stroke-width:3px;}.cls-9{fill:#fff;}</style></defs><title>sangeet</title><g id="Layer_2" data-name="Layer 2"><g id="Layer_1-2" data-name="Layer 1"><path class="cls-1" d="M113.37,46.26H15.21l96.6-17.79a1,1,0,0,0,.82-1.19L108.82,6.11a6.18,6.18,0,0,0-7.12-5.05L6.11,18.78A6.17,6.17,0,0,0,1.06,25.9L4.88,47.11v0a1,1,0,0,0,0,.14v59.48A6.41,6.41,0,0,0,11.11,113h97a6.41,6.41,0,0,0,6.24-6.24V47.28A1,1,0,0,0,113.37,46.26Z"/><path class="cls-2" d="M108.15,112h-97a5.35,5.35,0,0,1-5.22-5.22V47.28H113.37v59.48A5.35,5.35,0,0,1,108.15,112Z"/><path class="cls-3" d="M108.15,113h-97a6.41,6.41,0,0,1-6.24-6.24V47.28a1,1,0,0,1,1-1H113.37a1,1,0,0,1,1,1v59.48A6.41,6.41,0,0,1,108.15,113ZM7.73,49.12v57.64c0,2.23,1.14,3.38,3.38,3.38h97c2.23,0,3.38-1.14,3.38-3.38V49.12Z"/><path class="cls-4" d="M111.63,27.45,107.8,6.24a5.15,5.15,0,0,0-5.91-4.17L6.24,19.8a5.15,5.15,0,0,0-4.17,5.91L5.89,46.93Z"/><path class="cls-3" d="M5.89,48a1,1,0,0,1-1-.84L1.06,25.9a6.17,6.17,0,0,1,5.05-7.11L101.7,1.05a6.18,6.18,0,0,1,7.12,5.05l3.82,21.16a1,1,0,0,1-.82,1.19L6.08,47.94Zm96.73-44.1a4.93,4.93,0,0,0-.6,0L6.42,21.62c-2.17.27-2.82,1.6-2.53,4L7.53,44.92,109.62,25.82,106,6.42C105.73,4.44,104.74,3.86,102.62,3.86Z"/><g class="cls-5"><path class="cls-6" d="M108.5,10.76l-.7-4.52a5.15,5.15,0,0,0-5.91-4.17L6.24,19.8a5.15,5.15,0,0,0-4.17,5.91l.7,3.83Z"/></g><g class="cls-5"><rect class="cls-6" x="5.89" y="47.28" width="107.48" height="9.74"/></g><path class="cls-7" d="M82.13,32.94a3.19,3.19,0,0,1-2-3.62L87.42,6.19a3.19,3.19,0,0,1,3.62-2,3.19,3.19,0,0,1,2,3.62L85.75,31A3.2,3.2,0,0,1,82.13,32.94Z"/><path class="cls-7" d="M52,38a3.09,3.09,0,0,1-1.88-3.5l7-22.35a3.09,3.09,0,0,1,3.5-1.88,3.09,3.09,0,0,1,1.88,3.5l-7,22.35A3.26,3.26,0,0,1,52,38Z"/><path class="cls-7" d="M22.2,43.27a3,3,0,0,1-1.84-3.42L27.2,18a2.89,2.89,0,0,1,3.42-1.84,3,3,0,0,1,1.84,3.42L25.62,41.42A3.18,3.18,0,0,1,22.2,43.27Z"/><path class="cls-8" d="M74.68,65.84a1.08,1.08,0,0,0-.87-.25L53.18,68.85a1.08,1.08,0,0,0-.92,1.07V91.28a7.35,7.35,0,0,0-4.88-1.82,6.53,6.53,0,1,0,0,13,6.81,6.81,0,0,0,7-6.36.13.13,0,0,0,0,0V77.36l18.45-2.91V84.77A7.34,7.34,0,0,0,68,82.95a6.53,6.53,0,1,0,7.05,6.51V66.67a1.08,1.08,0,0,0-.38-.83Zm0,0"/><path class="cls-9" d="M74.68,65.84a1.08,1.08,0,0,0-.87-.25L53.18,68.85a1.08,1.08,0,0,0-.92,1.07V91.28a7.35,7.35,0,0,0-4.88-1.82,6.53,6.53,0,1,0,0,13,6.81,6.81,0,0,0,7-6.36.13.13,0,0,0,0,0V77.36l18.45-2.91V84.77A7.34,7.34,0,0,0,68,82.95a6.53,6.53,0,1,0,7.05,6.51V66.67a1.08,1.08,0,0,0-.38-.83Zm0,0"/></g></g></svg>