<svg xmlns="http://www.w3.org/2000/svg" viewBox="0 0 86.03 115"><defs><style>.cls-1{isolation:isolate;}.cls-2{fill:#010101;}.cls-11,.cls-3{fill:#fff;}.cls-3{stroke:#fff;stroke-miterlimit:10;}.cls-4{fill:#f4b67f;}.cls-5{mix-blend-mode:darken;}.cls-6{fill:#d9a373;}.cls-7{fill:#e64d3c;}.cls-8{fill:#c03b2b;}.cls-9{fill:#5ec6f1;}.cls-10{opacity:0.45;}</style></defs><title>sardarji</title><g class="cls-1"><g id="Layer_2" data-name="Layer 2"><g id="Layer_1-2" data-name="Layer 1"><path class="cls-2" d="M59.38,78.31a9.14,9.14,0,0,1-1.3-.1l-.22,0c-9.36,0-10.81-4.35-11.59-6.69l-.09-.23a13.94,13.94,0,0,1-.56-3.57,8.36,8.36,0,0,0-2.48-.33,8.86,8.86,0,0,0-2.53.35,14,14,0,0,1-.56,3.56l-.1.25c-.77,2.3-2.21,6.66-11.57,6.66l-.22,0a9.1,9.1,0,0,1-1.3.1c-4.13,0-6.85-1.27-7.65-3.58a30.36,30.36,0,0,1-1.41-8.56c-.34-.23-.91-.68-1-1.11s0-.64,1.26-1.45a2,2,0,0,1,.56-1l.13-.1c1.24-1.07,3.85-3.32,9.49-3.32,4.85,0,10.62,1,11.73,2.94a2.39,2.39,0,0,1,.17.38,12,12,0,0,0,3,.47,12.56,12.56,0,0,0,2.93-.46,2.58,2.58,0,0,1,.18-.4c1.11-1.9,6.88-2.93,11.73-2.93,5.62,0,8.24,2.25,9.49,3.33l.12.11a2,2,0,0,1,.57,1c1,.7,1.23,1.06,1.18,1.4s-.59.84-.91,1.07A30.21,30.21,0,0,1,67,74.73C66,77.69,62.3,78.31,59.38,78.31ZM43.14,66.38a8.86,8.86,0,0,1,3.16.52l.29.12v.31a13.78,13.78,0,0,0,.52,3.6l.09.23c.7,2.12,2,6,10.65,6H58l.25,0a8.13,8.13,0,0,0,1.16.09c2.13,0,5.83-.38,6.71-2.91a28.82,28.82,0,0,0,1.36-8.53v-.29l.25-.15a3.4,3.4,0,0,0,.58-.45,6.33,6.33,0,0,0-.8-.59l-.17-.11,0-.19a1.29,1.29,0,0,0-.31-.67l-.12-.11c-1.16-1-3.59-3.09-8.84-3.09-5.57,0-10.2,1.29-10.87,2.44a2,2,0,0,0-.18.44l-.08.26-.26.07a14.19,14.19,0,0,1-3.45.57,13.19,13.19,0,0,1-3.52-.58l-.25-.08-.08-.25a2.06,2.06,0,0,0-.17-.42c-.68-1.16-5.31-2.45-10.87-2.45-5.26,0-7.68,2.08-8.85,3.08l-.13.11a1.28,1.28,0,0,0-.29.63l0,.19-.17.11a6.32,6.32,0,0,0-.88.64,4.38,4.38,0,0,0,.64.47l.26.14v.3a29,29,0,0,0,1.36,8.5c.88,2.53,4.58,2.91,6.71,2.91A8.1,8.1,0,0,0,28,77.23l.25,0h.11c8.64,0,9.94-3.91,10.64-6l.11-.25a13.94,13.94,0,0,0,.51-3.57v-.31l.29-.13A9,9,0,0,1,43.14,66.38Z"/><path class="cls-3" d="M42.89,114.5c-9.33,0-18.59-12.07-23.28-19.27a28.44,28.44,0,0,1-3.92-10.1l-.08-.43a3.7,3.7,0,0,1-.08-.48l0-.11c0-.29-.09-.58-.13-.88a43.28,43.28,0,0,1-.45-6.68c0-.13,0-.27,0-.4-.58-.45-1.45-1.24-2.92-2.64l-.21-.2a40.51,40.51,0,0,1-5.68-6.48C-5.53,50.13,4.38,33.48,5.47,31.75c3.16-10.11,26.65-27.29,27.66-28,9.61-7.21,19.92-.09,20,0a87.34,87.34,0,0,1,14.61,12l.19.19A85.8,85.8,0,0,1,83,36.44l0,.08c2.34,6.48,3,12.61,2,18.21A28.21,28.21,0,0,1,79.57,67a31.78,31.78,0,0,1-7,6.58l-.19.15a10.39,10.39,0,0,1-1.43,1l-.2.1c.25,5-.14,13.54-4.63,20.43C61.47,102.43,52.2,114.5,42.89,114.5Zm-.25-112a13.6,13.6,0,0,0-8.33,2.81C26,11.41,9.57,24.89,7.34,32.45l-.12.26c-.44.68-10.75,16.8.54,33a38.5,38.5,0,0,0,5.41,6.16l.22.21a31.42,31.42,0,0,0,3.07,2.72l.49.3,0,.72c0,.25,0,.5,0,.76A41.18,41.18,0,0,0,17.35,83c0,.29.08.56.12.83l0,.22a2.31,2.31,0,0,0,.05.29l.09.46a26.41,26.41,0,0,0,3.63,9.38c7.6,11.67,15.48,18.36,21.61,18.36s14-6.69,21.62-18.36c4.59-7,4.51-16.32,4.27-20l-.06-.95.95-.11A1.1,1.1,0,0,0,70,73a8.49,8.49,0,0,0,1.09-.77l.35-.27A29.79,29.79,0,0,0,78,65.74a26.21,26.21,0,0,0,5.11-11.37c.95-5.24.3-11-1.91-17.14a83.45,83.45,0,0,0-14.67-20l-.19-.19A85.51,85.51,0,0,0,52,5.36,18.32,18.32,0,0,0,42.64,2.52Z"/><path class="cls-4" d="M16.92,28.82H68.85a.8.8,0,0,1,.8.8V79.55a26.76,26.76,0,0,1-26.76,26.76h0A26.76,26.76,0,0,1,16.12,79.55V29.62a.8.8,0,0,1,.8-.8Z"/><g class="cls-5"><path class="cls-6" d="M69.65,24.64V74.57c0,.47,0,.94,0,1.39-.44.21-.82.22-.92-.27-1-4.89-3.42-9.09-6.21-13.17a136.91,136.91,0,0,0-9.95-12.66q-3.57-4.11-7.36-8c-.73-.76-1.16-1.18-1.16-1.18-4.65,2.66-8.51,6.59-11.91,10.68a105.62,105.62,0,0,0-9.4,13.54Q19.66,70,17,75.39c-.25.5-.47,1.24-.79,1.82a25.74,25.74,0,0,1-.13-2.64V24.64a.8.8,0,0,1,.8-.81H68.85A.8.8,0,0,1,69.65,24.64Z"/></g><path class="cls-2" d="M69.65,72.74v0c-.06-.5-.1-.77-.1-.77s0,.19,0,.28c-.62,5.86-3.78,7.29-6.06,8.72S60.89,85.62,59.65,87s-8.91-3.81-12.34-5a3.23,3.23,0,0,0-4.42,1.86s-1-3-4.42-1.86-11.11,6.38-12.35,5-1.49-4.64-3.81-6.09c-1.6-1-3.64-2-4.91-4.52a10.35,10.35,0,0,1-.77-2.09,14.57,14.57,0,0,1-.4-2.39s0,.28-.1.8-.16,1.72-.19,3c0,.26,0,.52,0,.79a41.22,41.22,0,0,0,.59,7.55,3.47,3.47,0,0,0,.07.42c0,.14.06.27.08.41a27.61,27.61,0,0,0,3.78,9.75c6.21,9.53,14.72,18.82,22.44,18.82s16.23-9.28,22.45-18.82C70.64,86.56,70,75.75,69.65,72.74ZM30,91.17c10.36,1.45,12.88-4.31,12.88-4.31s2.52,5.76,12.87,4.31c0,0,.87,5.23-.33,6.55s-8.37,9.91-10.11,7.29a6,6,0,0,1,.54-7.21c1.41-1.49,2.69-2.32,2.48-3.89a19.26,19.26,0,0,1-5.46.22,19.26,19.26,0,0,1-5.46-.22c-.21,1.57,1.08,2.4,2.48,3.89a6,6,0,0,1,.54,7.21c-1.74,2.61-8.91-6-10.11-7.29S30,91.17,30,91.17Z"/><path class="cls-7" d="M70.28,73.39c-.51.28-1,.36-1.07-.19-1-4.89-3.42-9.09-6.21-13.17A137.63,137.63,0,0,0,53,47.37q-3.57-4.1-7.35-8l-1.15-1.18C39.88,40.84,36,44.78,32.62,48.87a106.58,106.58,0,0,0-9.4,13.54q-3.05,5.12-5.68,10.49a9.06,9.06,0,0,1-1.18,2.37c-.2.19-3.25-2.77-3.53-3A39,39,0,0,1,7.35,66c-11.91-17.07-.51-33.6-.51-33.6C9.61,22.69,34,4.93,34,4.93c8.87-6.65,18.29,0,18.29,0A86,86,0,0,1,66.7,16.73l.19.19A82.62,82.62,0,0,1,81.67,37.07a33.82,33.82,0,0,1,1.93,17.4,26.63,26.63,0,0,1-5.21,11.58,30.37,30.37,0,0,1-6.62,6.27A14.29,14.29,0,0,1,70.28,73.39Z"/><path class="cls-8" d="M31.59,31.55S6.38,50.15,7.35,66l3.39,4.16S5.63,54.46,31.59,31.55Z"/><path class="cls-8" d="M12.21,71.66s3.12-20.41,19.38-33c0,0-13.43,12-17.25,35Z"/><path class="cls-8" d="M44.53,38.18s3.6-2,5-3.95v2S49.25,36.77,44.53,38.18Z"/><path class="cls-8" d="M51.83,40S69.38,54.1,71.13,61.86l1.29-1.94S63,47.07,51.83,40Z"/><path class="cls-8" d="M55.8,38.63s9.7,4,14.87,11l.83-1.57S61.71,38.78,55.8,38.63Z"/><path class="cls-2" d="M80.92,36.91A81.39,81.39,0,0,0,66.5,17.25l-.19-.19a83.89,83.89,0,0,0-14-11.49C52.19,5.51,42.77-1,34,5.58,33,6.28,10.31,22.91,7.5,32.37c-.77,1.17-10.68,17,.54,33.05a38.35,38.35,0,0,0,5.37,6.13l.21.2c2.46,2.34,3.18,2.92,3.55,2.92a.48.48,0,0,0,.33-.18,2.12,2.12,0,0,0,.23-.28q-.22-.57-.47-1.12a3.85,3.85,0,0,1-.23.44c-.34-.26-1.1-.91-2.75-2.49l-.22-.21a37.39,37.39,0,0,1-5.24-6c-11.21-16.07-.6-31.86-.49-32l.07-.14C11,23.58,34.33,6.53,34.57,6.35a13.24,13.24,0,0,1,8.1-2.75,17.52,17.52,0,0,1,9.07,2.77A83.06,83.06,0,0,1,65.63,17.74l.18.19A80.65,80.65,0,0,1,80,37.28,32,32,0,0,1,81.88,53.9a25.4,25.4,0,0,1-5,11,28.92,28.92,0,0,1-6.32,6l-.34.26a8.31,8.31,0,0,1-1.06.75,1.48,1.48,0,0,1-.27.12,4.5,4.5,0,0,1-.6.86l.09.05a1.37,1.37,0,0,0,1.24-.19,9,9,0,0,0,1.2-.85l.29-.22a29.82,29.82,0,0,0,6.53-6.18,26.38,26.38,0,0,0,5.14-11.44A33,33,0,0,0,80.92,36.91Z"/><path class="cls-2" d="M17.17,75.66c-.75,0-1.39-.48-4.23-3.2l-.21-.2A39.46,39.46,0,0,1,7.23,66c-11.3-16.2-1.7-32.34-.63-34C9.67,22.13,32.44,5.48,33.41,4.77c9.34-7,19.35-.08,19.45,0A84.74,84.74,0,0,1,67,16.37l.18.18A82.72,82.72,0,0,1,81.82,36.49l0,.09a34,34,0,0,1,2,17.67,27.38,27.38,0,0,1-5.34,11.87,30.8,30.8,0,0,1-6.75,6.38l-.2.16a10,10,0,0,1-1.38,1,2.3,2.3,0,0,1-2.14.22l-.16-.09-.94-.59.72-1a3.48,3.48,0,0,0,.41-.57l.18-.4.42-.14.1,0a7.9,7.9,0,0,0,.92-.66l.39-.3a27.87,27.87,0,0,0,6.09-5.77A24.41,24.41,0,0,0,80.9,53.72a31,31,0,0,0-1.79-16.05,80.12,80.12,0,0,0-14-19l-.18-.18A82,82,0,0,0,51.2,7.21,16.56,16.56,0,0,0,42.68,4.6a12.28,12.28,0,0,0-7.51,2.55c-.24.18-23.3,17.11-25.8,25.83l-.2.43c-.1.15-10.27,15.46.49,30.88a36.47,36.47,0,0,0,5.1,5.82l.22.21c.76.73,1.32,1.24,1.72,1.61l.58-1.27.9,2q.26.57.49,1.17l.2.51-.33.44a3.14,3.14,0,0,1-.34.41A1.46,1.46,0,0,1,17.17,75.66Z"/><path class="cls-9" d="M69.3,64.78c0,.25-.6.71-.93.92A32.29,32.29,0,0,1,67,74.92c-1,3-5,3.44-7.3,3.44a10.27,10.27,0,0,1-1.43-.13h-.11a16.7,16.7,0,0,1-6.54-1.09A8.36,8.36,0,0,1,49.62,76a6.68,6.68,0,0,1-1.21-1.21,9.85,9.85,0,0,1-1.59-3.28l-.1-.26a8,8,0,0,1-.22-.81,20,20,0,0,1-.34-3.15,8,8,0,0,0-3-.51,8.43,8.43,0,0,0-3.07.54,16,16,0,0,1-.56,4l-.1.22c-.76,2.36-2.16,6.72-11.3,6.72H28a10.27,10.27,0,0,1-1.43.13,14.12,14.12,0,0,1-3.3-.35A7.17,7.17,0,0,1,21,77.1a4.51,4.51,0,0,1-1.25-1.18,3.89,3.89,0,0,1-.5-1,27.05,27.05,0,0,1-.91-3.72h0a32.22,32.22,0,0,1-.5-5.45c-.31-.18-1-.7-1-1s.88-.91,1.21-1.12a1.89,1.89,0,0,1,.47-1l.12-.1c1.23-1.09,3.79-3.39,9.32-3.39a33.41,33.41,0,0,1,5.28.41,15.18,15.18,0,0,1,5.37,1.65,2.57,2.57,0,0,1,.85.8,3.11,3.11,0,0,1,.22.53v0a13.22,13.22,0,0,0,1.6.4h0a9.57,9.57,0,0,0,1.82.19,13.58,13.58,0,0,0,3.36-.58,3.65,3.65,0,0,1,.23-.59c.88-1.57,6-2.84,11.5-2.84a18.42,18.42,0,0,1,2.51.17,12.13,12.13,0,0,1,5.09,1.87,13.66,13.66,0,0,1,1.4,1.06l.33.3.12.11a1.89,1.89,0,0,1,.48,1l.38.26C68.91,64.24,69.32,64.59,69.3,64.78Z"/><g class="cls-10"><path class="cls-11" d="M65.84,61.25,48.41,74.78a9.85,9.85,0,0,1-1.59-3.28l-.1-.26a8,8,0,0,1-.22-.81l14.25-11A12.13,12.13,0,0,1,65.84,61.25Z"/></g><g class="cls-10"><path class="cls-11" d="M68.54,64l-17,13.17A8.36,8.36,0,0,1,49.62,76L67.24,62.32l.33.3.12.11a1.89,1.89,0,0,1,.48,1Z"/></g><g class="cls-10"><path class="cls-11" d="M38.65,61.27,19.78,75.91a3.89,3.89,0,0,1-.5-1,27.05,27.05,0,0,1-.91-3.72h0L33.28,59.62A15.18,15.18,0,0,1,38.65,61.27Z"/></g><g class="cls-10"><path class="cls-11" d="M41.8,63.63,23.29,78A7.17,7.17,0,0,1,21,77.1L39.71,62.6v0a13.22,13.22,0,0,0,1.6.4h0Z"/></g><path class="cls-2" d="M69.3,64.77c0-.25-.76-.82-1.13-1.07a1.92,1.92,0,0,0-.48-1l-.12-.11c-1.23-1.1-3.79-3.4-9.33-3.4S47.63,60.48,46.75,62a2.82,2.82,0,0,0-.23.59,13.41,13.41,0,0,1-3.37.58,12.61,12.61,0,0,1-3.43-.6,2.7,2.7,0,0,0-.22-.56c-.88-1.57-6-2.85-11.49-2.85s-8.1,2.29-9.33,3.39l-.12.1a1.88,1.88,0,0,0-.47.94c-.33.22-1.25.85-1.21,1.12s.67.78,1,1a32.52,32.52,0,0,0,1.41,9.17c1,3,5,3.44,7.3,3.44A10.85,10.85,0,0,0,28,78.22h.11c9.13,0,10.54-4.35,11.3-6.72l.09-.23a15.79,15.79,0,0,0,.56-4,8.43,8.43,0,0,1,3.06-.53,8,8,0,0,1,3,.51,15.77,15.77,0,0,0,.56,4l.09.26c.76,2.37,2.17,6.72,11.3,6.72h.11a10.85,10.85,0,0,0,1.43.12c2.3,0,6.3-.42,7.3-3.44a32.42,32.42,0,0,0,1.41-9.21C68.7,65.48,69.26,65,69.3,64.77ZM38.88,71l-.09.26c-.75,2.36-2,6.25-10.66,6.25H28l0,.06a7.34,7.34,0,0,1-1.38.12c-2.11,0-5.79-.39-6.66-3C18.53,70.53,18.15,64,19,63.22l.12-.11c1.17-1,3.6-3.22,8.88-3.22,5.88,0,10.32,1.44,10.9,2.49C39.6,63.62,39.59,68.87,38.88,71ZM66.32,74.7c-.87,2.61-4.55,3-6.66,3a9.82,9.82,0,0,1-1.38-.09l0-.06h-.14c-8.64,0-9.9-3.89-10.66-6.25l-.09-.23c-.71-2.16-.72-7.43,0-8.66.59-1,5-2.51,10.91-2.51,5.27,0,7.71,2.17,8.87,3.22l.12.11C68.09,64,67.72,70.51,66.32,74.7Z"/><path class="cls-2" d="M59.66,79.34a9.33,9.33,0,0,1-1.39-.11h-.15c-9.88,0-11.48-5-12.25-7.41l-.08-.23A15.49,15.49,0,0,1,45.2,68a8.47,8.47,0,0,0-2.05-.24A8.88,8.88,0,0,0,41,68a15.51,15.51,0,0,1-.57,3.56l-.12.29c-.74,2.33-2.34,7.34-12.22,7.34H28a9.33,9.33,0,0,1-1.39.11c-4.44,0-7.37-1.46-8.25-4.12a33.92,33.92,0,0,1-1.46-9,2.39,2.39,0,0,1-1-1.35c-.09-.61.28-1.14,1.34-1.88A2.45,2.45,0,0,1,17.89,62l.14-.12c1.3-1.16,4-3.62,10-3.62,5.21,0,11.12,1.15,12.36,3.36l.12.23a10.91,10.91,0,0,0,2.66.41,11.39,11.39,0,0,0,2.61-.41,2.64,2.64,0,0,1,.12-.25c1.24-2.2,7.16-3.35,12.36-3.35,5.91,0,8.66,2.47,10,3.65l.13.12a2.48,2.48,0,0,1,.66,1.1c.88.62,1.36,1.15,1.26,1.83h0a2.29,2.29,0,0,1-.92,1.3,33.79,33.79,0,0,1-1.46,9C67,77.87,64.09,79.34,59.66,79.34ZM19.74,63.9c-.43,1-.18,6.56,1.13,10.5.7,2.09,4.23,2.32,5.72,2.32a7.24,7.24,0,0,0,.79,0l.05-.08.7-.06c7.93,0,9-3.35,9.71-5.56l.1-.28c.69-2.13.58-7,.1-7.84-.42-.53-4.16-2-10-2-4.89,0-7.13,2-8.21,3ZM59,76.68c1.57.09,5.6,0,6.35-2.29h0c1.31-3.94,1.56-9.49,1.13-10.49l0,0c-1.09-1-3.33-3-8.22-3-5.88,0-9.62,1.46-10.05,2-.46.83-.58,5.71.12,7.85l.07.17c.73,2.28,1.8,5.63,9.74,5.63H59ZM40.28,63.81a19.65,19.65,0,0,1,.14,2.31,10.93,10.93,0,0,1,2.73-.35,10.55,10.55,0,0,1,2.68.33A19.44,19.44,0,0,1,46,63.81a12.65,12.65,0,0,1-2.82.4A12.27,12.27,0,0,1,40.28,63.81ZM19.67,64h0Zm.08-.1,46.73,0Z"/></g></g></g></svg>