<svg xmlns="http://www.w3.org/2000/svg" viewBox="0 0 111.74 115.72"><defs><style>.cls-1{fill:#fed81a;}.cls-2{fill:#9263a9;}.cls-3{fill:#f9a237;}.cls-4{fill:#4db4dd;}.cls-5{fill:#da5373;}.cls-6{fill:#54c6f2;}.cls-7{fill:#f05b7e;}.cls-8{fill:#895ea0;}.cls-9{fill:#e99831;}.cls-10{fill:#4a4a4a;}.cls-11{fill:#fff;}.cls-12{fill:none;stroke:#a4c4de;stroke-miterlimit:10;stroke-width:0.76px;}</style></defs><title>talkies</title><g id="Layer_2" data-name="Layer 2"><g id="Layer_1-2" data-name="Layer 1"><path class="cls-1" d="M4,22.95H111.74v88a5.77,5.77,0,0,1-5.77,5.77H9.76A5.77,5.77,0,0,1,4,111Z" transform="translate(-2 -1)"/><path class="cls-2" d="M29.93,22.95H2.75a.57.57,0,0,1-.55-.73L10.31,4.61A6.21,6.21,0,0,1,16,1h18Zm0,0" transform="translate(-2 -1)"/><path class="cls-3" d="M85.79,22.95H57.86V1H81.81Zm0,0" transform="translate(-2 -1)"/><path class="cls-4" d="M43.9,50.88a14,14,0,0,1-14-14v-14H57.86v14a14,14,0,0,1-14,14Zm0,0" transform="translate(-2 -1)"/><path class="cls-5" d="M99.76,50.88a14,14,0,0,1-14-14v-14h27.73a.22.22,0,0,1,.21.21V36.91a14,14,0,0,1-14,14Zm0,0" transform="translate(-2 -1)"/><path class="cls-6" d="M57.86,22.95H29.93l4-22H57.86Zm0,0" transform="translate(-2 -1)"/><path class="cls-7" d="M113,22.95H85.79l-4-22h18a6.23,6.23,0,0,1,5.65,3.62l8.11,17.64a.54.54,0,0,1-.52.68Zm0,0" transform="translate(-2 -1)"/><path class="cls-8" d="M16,50.88a14,14,0,0,1-14-14V23.51a.56.56,0,0,1,.56-.56H29.93v14a14,14,0,0,1-14,14Zm0,0" transform="translate(-2 -1)"/><path class="cls-9" d="M71.83,50.88a14,14,0,0,1-14-14v-14H85.79v14a14,14,0,0,1-14,14Zm0,0" transform="translate(-2 -1)"/><rect class="cls-10" x="31.57" y="57.86" width="48.6" height="57.86"/><rect class="cls-6" x="35.77" y="61.85" width="40.17" height="49.88"/><path class="cls-11" d="M62.05,94.78a2,2,0,0,1-2-2v-6a2,2,0,0,1,4,0v6a2,2,0,0,1-2,2Zm0,0" transform="translate(-2 -1)"/><path class="cls-11" d="M53,94.78a2,2,0,0,1-2-2v-6a2,2,0,0,1,4,0v6a2,2,0,0,1-2,2Zm0,0" transform="translate(-2 -1)"/><rect class="cls-10" x="55.28" y="61.85" width="0.59" height="49.88"/><path class="cls-12" d="M57.82,62.75" transform="translate(-2 -1)"/></g></g></svg>