<svg xmlns="http://www.w3.org/2000/svg" viewBox="0 0 119.08 111"><defs><style>.cls-1{fill:#010101;}.cls-2{fill:#f4b67f;}.cls-3{fill:#eeb085;}.cls-4{fill:#e8687d;}.cls-5{fill:#bc4563;}.cls-6{fill:#f08b97;}.cls-7{fill:#f4c4a9;}.cls-8{fill:#262265;}.cls-9{fill:#fff;}.cls-10{fill:#f48895;}.cls-11{fill:#fed81a;}.cls-12{fill:#67308f;}.cls-13{fill:#d1e4f6;}.cls-14{fill:#4d4473;}.cls-15{fill:#82aada;}.cls-16{fill:#a5ceee;}.cls-17{fill:#efc48a;}</style></defs><title>Asset 10</title><g id="Layer_2" data-name="Layer 2"><g id="Layer_1-2" data-name="Layer 1"><path class="cls-1" d="M34,17.7q5.3,6.67,11,13.52,6.22,7.4,12.34,14.26L28.83,60.12a79.14,79.14,0,0,0-4-14.17,79.17,79.17,0,0,0-7.63-15Z"/><path class="cls-2" d="M12.69,35.32a7.86,7.86,0,0,1-.45,2.41c.36.35.22.74.15,1.16a1.31,1.31,0,0,0,.19,1.23c.42.75,6.85,10.17,6.9,10.14l-3.85,2.34L9,41.69a2.45,2.45,0,0,1-1.8-1.16s-1.67-2.75-1.68-2.75A12.5,12.5,0,0,1,4,35.28c-.14-.51.22-1.17.81-1.08S6,35.81,6.41,36.29a13.67,13.67,0,0,1-.95-1.74.76.76,0,0,1,.38-1.13c.77-.16,1.58,1.66,1.89,2.19L6.76,34a1.46,1.46,0,0,1-.25-.64A.66.66,0,0,1,7.73,33l1.15,1.9L9,34.85c-.23.14-.92-1.54-1-1.7-.14-.35-.34-.63-.09-1a.68.68,0,0,1,1.1.07l2.15,3.54s-.24-1.39,1-1.21C12.52,34.65,12.67,34.94,12.69,35.32Z"/><rect class="cls-3" x="66.34" y="56.62" width="5.11" height="27.23" transform="translate(-26.45 45.99) rotate(-31.28)"/><path class="cls-4" d="M58.1,47.35,65,58.77l-4.36,2.65L73.88,83.13,54,95.19,34.85,63.6a24.08,24.08,0,0,1-11.31-3.86c-.27-.16-.51-.33-.76-.5h0l-.53-.37-.66-.49A33.87,33.87,0,0,1,15.89,53l0,0c-.62-.75-.94-1.22-.94-1.22l3.95-2.4.09.14a14.56,14.56,0,0,0,3.28,3.64,9.54,9.54,0,0,0,1.14.77.09.09,0,0,0,0,0A7.3,7.3,0,0,0,28,55a4.75,4.75,0,0,0,.53-.1l.22-.06,0,0a5.62,5.62,0,0,0,3-2.4l3.7-2.29,1.06-.65h0l4.69-2.89L42.37,46l1.71-1a9.67,9.67,0,0,1,1.64-.65c1.66-.55,4.35-1.45,7.2-.67l.3.08.05,0a5,5,0,0,1,.49.17,8.87,8.87,0,0,1,1.85,1l.33.24A11.57,11.57,0,0,1,58.1,47.35Z"/><path class="cls-3" d="M32.85,42.3l5,8.19a3,3,0,1,0,5.1-3.1l-5-8.19Z"/><path class="cls-5" d="M42.14,46.1s2.58,3-.05,5.28l.82,1.34s3.83-2.78.39-7.33Z"/><path class="cls-6" d="M37,49.2s1.48,4,4.71,2.39l.82,1.34s-4.23,2.12-6.68-3Z"/><path class="cls-2" d="M20.7,36.24H22.1a2,2,0,0,1,2,2v0a2,2,0,0,1-2,2H20.7a0,0,0,0,1,0,0v-4A0,0,0,0,1,20.7,36.24Z" transform="matrix(-0.85, 0.52, -0.52, -0.85, 61.39, 59.28)"/><path class="cls-2" d="M38.28,25.56h1.39a2,2,0,0,1,2,2v0a2,2,0,0,1-2,2H38.28a0,0,0,0,1,0,0v-4a0,0,0,0,1,0,0Z" transform="translate(-8.5 24.77) rotate(-31.28)"/><path class="cls-7" d="M20.1,26.14a4.65,4.65,0,0,0-2.17,3.15L17.12,28Z"/><path class="cls-7" d="M35.51,20.2l1.44,2.37a5.7,5.7,0,0,0-7.83-1.91l2.37-1.44a2.92,2.92,0,0,1,4,1Z"/><path class="cls-2" d="M36.95,22.57l4.79,7.88c2.61,4.29,2.31,10.13-1.46,13.65a10.49,10.49,0,0,1-10.55,2.24c-4.61-1.59-6.65-6.29-9-10.17l-2.19-3.61a4.69,4.69,0,0,1,1.57-6.43l9-5.48a5.7,5.7,0,0,1,7.83,1.91Z"/><path class="cls-3" d="M20.1,26.14a4.65,4.65,0,0,0-2.17,3.15L17.12,28Z"/><path class="cls-3" d="M33.39,18.07l1.54,2.53a5.69,5.69,0,0,0-5.81.06Z"/><path class="cls-8" d="M35.42,34.14c.35.69.91,1.06,1.25.82s.32-1,0-1.69-.91-1.06-1.25-.82S35.06,33.44,35.42,34.14Z"/><path class="cls-8" d="M29.23,37.67c.35.69.91,1.06,1.25.82s.32-1,0-1.69-.91-1.06-1.25-.82S28.87,37,29.23,37.67Z"/><path class="cls-9" d="M19.29,30"/><path class="cls-1" d="M39.49,28.1a.29.29,0,0,1,.06.24c-.17.48-2.69.22-4.65-.57a9.93,9.93,0,0,1-3.1-2A20.81,20.81,0,0,1,29,32.57a21.38,21.38,0,0,1-9.14,7.8,27.41,27.41,0,0,0-1-2.93,27.41,27.41,0,0,0-1.47-3.16,11.56,11.56,0,0,1-1.92-8.59C16.6,20,22,17.86,22.83,17.4c3.68-2,12.88-2.5,15.49,6.72A8.78,8.78,0,0,0,38.66,26,12.15,12.15,0,0,0,39.49,28.1Z"/><path class="cls-8" d="M36.53,42.37l.26-.18a4.11,4.11,0,0,0,1.53-2.67.19.19,0,0,0-.38,0,3.79,3.79,0,0,1-1.38,2.4,4.32,4.32,0,0,1-3.49.53.19.19,0,1,0-.07.38A4.88,4.88,0,0,0,36.53,42.37Z"/><path class="cls-10" d="M28.13,41.89c.22.32,1,.28,1.67-.09s1.08-.93.86-1.25-1-.28-1.67.09S27.9,41.57,28.13,41.89Z"/><ellipse class="cls-10" cx="40.01" cy="35.91" rx="1.41" ry="0.75" transform="translate(-10.94 18.74) rotate(-23.29)"/><path class="cls-4" d="M39.08,26.08s-5.7-3.56-11.78-.79-9.24,10.28-9.24,10.28L16.9,33.48a15.37,15.37,0,0,1,2.25-5c.39-.57,4.33-6.1,10.25-6.45,4.18-.24,8.92,2.12,8.92,2.12h0Z"/><path class="cls-11" d="M20.32,27.61a1.76,1.76,0,0,0,1.89.95,2,2,0,0,0,1.38-1.19l.54-1.22a1.78,1.78,0,0,0,2.71-.73l1.19.48a2.5,2.5,0,0,0,1.22.25,1.65,1.65,0,0,0,.47-.08,1.49,1.49,0,0,0,.94-1.89,2.11,2.11,0,0,0-.19-.38,3.12,3.12,0,0,0-.49-.62,3,3,0,0,0,0-.82,2.57,2.57,0,0,0-.07-.39A1.72,1.72,0,0,0,28,21a1.76,1.76,0,0,0-1.29,1.28l-.48,1a1.78,1.78,0,0,0-2.77.9l-1.13-.51a2,2,0,0,0-1.84-.16,1.76,1.76,0,0,0-.94,1.89,2.27,2.27,0,0,0,.17.35,2.58,2.58,0,0,0,.53.64,2.67,2.67,0,0,0,0,.8A2.34,2.34,0,0,0,20.32,27.61Z"/><circle class="cls-4" cx="24.97" cy="24.85" r="1.33" transform="translate(-6.57 9.15) rotate(-18.4)"/><path class="cls-2" d="M102,75.57a43.31,43.31,0,0,1-5.34,15.77l-.1,0c-.51,1.35-.91,2.79-1.44,4.13-1.28,2.44-3.26,3.9-5,3.62A2.83,2.83,0,0,1,89,98.54a4,4,0,0,1-.85-.8,4.49,4.49,0,0,1-.76-1.69,5.19,5.19,0,0,1,1.4-4.19c-1,.25-1.77.12-1.93-.24s.17-.73.42-1c.66-.63,1.54-.42,2.38-.54A4.58,4.58,0,0,0,92,89.05a32.39,32.39,0,0,0,5.53-17.28,30.43,30.43,0,0,0-.94-8l5.53,1.12A43.2,43.2,0,0,1,102,75.57Z"/><path class="cls-2" d="M93.2,16.22c-.68.64-1.44.45-2.36.61a5.13,5.13,0,0,0-2.54,1.24c-.17.15-.37.39-.63.67A53.94,53.94,0,0,0,81.1,27a45.66,45.66,0,0,0-5.66,14.82l-4.51-2a50.24,50.24,0,0,1,4.52-12.67,56.89,56.89,0,0,1,8.39-11.3c.54-1.23.79-3,1.35-4.1,1-2.11,2.41-3.66,4.79-3.76.09,0,0,0,.23,0a2.76,2.76,0,0,1,1,.47c.31.27.55.29.88.8A3.4,3.4,0,0,1,92.93,11a5.64,5.64,0,0,1-1.25,4.07c.47-.16,1.65-.29,1.88.17S93.47,16,93.2,16.22Z"/><path class="cls-12" d="M100.49,58.44s3.79.83,2,12.06l-5.14,3.4L93.79,68Z"/><path class="cls-12" d="M81.86,47.3A7.39,7.39,0,0,1,78.6,45a8.19,8.19,0,0,1-1.3-6.86l-6.4,1A46.92,46.92,0,0,0,70.48,56Z"/><path class="cls-12" d="M64.44,82.39l9.9,5.9A6,6,0,0,0,82,87l19.27-23.43a3.76,3.76,0,0,0-1-5.62L78.6,45a3.76,3.76,0,0,0-5.41,1.82L62,75.09A6,6,0,0,0,64.44,82.39Z"/><path class="cls-2" d="M110.82,35.34h1.27a0,0,0,0,1,0,0v7.83a0,0,0,0,1,0,0h-1.27a3.92,3.92,0,0,1-3.92-3.92v0a3.92,3.92,0,0,1,3.92-3.92Z" transform="translate(183.47 129.03) rotate(-149.21)"/><path class="cls-2" d="M92.68,24.53h1.27a0,0,0,0,1,0,0v7.83a0,0,0,0,1,0,0H92.68a3.92,3.92,0,0,1-3.92-3.92v0A3.92,3.92,0,0,1,92.68,24.53Z" transform="translate(27.44 -42.75) rotate(30.79)"/><path class="cls-2" d="M114,31.66l-8.39,14.07a10.83,10.83,0,0,1-11,5.16l-2.36,4a4,4,0,1,1-6.86-4.1l2.35-3.95A10.86,10.86,0,0,1,87,34.63l8.39-14.07Z"/><path class="cls-1" d="M108.08,32.88a5,5,0,0,1-2,2.19A6.33,6.33,0,0,1,99,33.85a22.34,22.34,0,0,0-2.09-2.37,17.32,17.32,0,0,0-1.74-1.36c-1.46-1-2.06-1-2.21-1.48s.11-1.19,1.82-2.52c0,0-.88-.18-5.09,4.35-.07.08-.2,0-.18-.08.28-1.08,1-4.1.7-4.68,0,0,2.58-14.8,17.74-5.38s1.42,19,1.42,19q-.9.87-1.38.69Q106.83,39.55,108.08,32.88Z"/><path class="cls-9" d="M94,40.68h0a5.24,5.24,0,0,1,5.24,5.24v.86a0,0,0,0,1,0,0H88.8a0,0,0,0,1,0,0v-.86A5.24,5.24,0,0,1,94,40.68Z" transform="translate(152.45 129.43) rotate(-149.21)"/><path class="cls-1" d="M95,37.58l-.15,0a.59.59,0,0,1-.42-.72c.19-.75.27-1.92-.1-2.18-.08-.06-.6-.31-2.32.83a.59.59,0,0,1-.65-1c1.68-1.11,2.88-1.37,3.67-.8,1.17.84.67,3,.56,3.45A.59.59,0,0,1,95,37.58Z"/><path class="cls-1" d="M102.9,42.3l-.15,0a.59.59,0,0,1-.42-.72c.19-.75.27-1.92-.1-2.18-.09-.06-.61-.31-2.32.83a.59.59,0,0,1-.65-1c1.68-1.11,2.88-1.37,3.67-.8,1.17.84.67,3,.56,3.45A.59.59,0,0,1,102.9,42.3Z"/><path class="cls-11" d="M68.5,86.33l-12.44,0a6.43,6.43,0,0,1-6.37-5.44l-5-32.36a4.06,4.06,0,0,1,4-4.69l27.25-.08a4.06,4.06,0,0,1,4,4.67L74.83,80.9A6.43,6.43,0,0,1,68.5,86.33Z"/><path class="cls-2" d="M51.95,16.46h.88a0,0,0,0,1,0,0V25.3a0,0,0,0,1,0,0h-.88a4.42,4.42,0,0,1-4.42-4.42v0A4.42,4.42,0,0,1,51.95,16.46Z" transform="translate(-0.07 0.16) rotate(-0.18)"/><path class="cls-2" d="M75,16.44h.88a0,0,0,0,1,0,0v8.84a0,0,0,0,1,0,0H75a4.42,4.42,0,0,1-4.42-4.42v0A4.42,4.42,0,0,1,75,16.44Z" transform="translate(146.43 41.49) rotate(179.82)"/><path class="cls-2" d="M67,39.71V45a4.43,4.43,0,1,1-8.85,0V39.73a11.76,11.76,0,0,1-8-10.88l-.06-17.71,23.94-.06.05,17.7A11.74,11.74,0,0,1,67,39.71Z"/><path class="cls-1" d="M69.59,16.46a23.71,23.71,0,0,1-3.27,2.75c-.95.66-4.4,3.07-5.16,2.36-1-.95,3.42-6.85,2.83-7.31s-6.88,7.22-8,6.48c-.58-.38.32-2.91,1.88-6.29q-4.26,5.23-5,4.77-.51-.31.63-3.3s-.95.23-3,6.59a.11.11,0,0,1-.21,0c-.22-1.18-.88-4.48-1.46-4.9,0,0-4.25-15.67,14.9-13.39S73.81,22.17,73.81,22.17,72.62,15.29,69.59,16.46Z"/><circle class="cls-1" cx="66.54" cy="24.85" r="1.33" transform="matrix(1, 0, 0, 1, -0.07, 0.19)"/><circle class="cls-1" cx="57.7" cy="24.85" r="1.33" transform="matrix(1, 0, 0, 1, -0.07, 0.17)"/><path class="cls-11" d="M84.63,59,74,58.78l.9-14.91H76.7c3.38,0,7.31,3.33,7.31,6.71Z"/><path class="cls-11" d="M41.25,59l10.65-.2L51,43.87H49.17c-3.38,0-7.31,3.33-7.31,6.71Z"/><circle class="cls-13" cx="81.14" cy="44.76" r="5.31"/><path class="cls-14" d="M81.44,50.88A5.85,5.85,0,1,1,87.29,45,5.86,5.86,0,0,1,81.44,50.88Zm0-10.36a4.5,4.5,0,1,0,4.5,4.5A4.51,4.51,0,0,0,81.44,40.53Z"/><circle class="cls-13" cx="45.76" cy="44.76" r="5.31"/><path class="cls-14" d="M45.58,50.88A5.85,5.85,0,1,1,51.43,45,5.86,5.86,0,0,1,45.58,50.88Zm0-10.36a4.5,4.5,0,1,0,4.5,4.5A4.51,4.51,0,0,0,45.58,40.53Z"/><path class="cls-15" d="M89.85,61.56H81.14V58h8.71a2.44,2.44,0,0,1,1.6,2h0A1.48,1.48,0,0,1,89.85,61.56Z"/><path class="cls-14" d="M89.26,62.45h-9V58h9.16a2.21,2.21,0,0,1,2.2,2.42A2.32,2.32,0,0,1,89.26,62.45Zm-8.12-1.77H89.8a.88.88,0,1,0,0-1.77H81.14Z"/><path class="cls-13" d="M89.85,61.56H81.14V58h8.71a2.44,2.44,0,0,1,1.6,2h0A1.48,1.48,0,0,1,89.85,61.56Z"/><path class="cls-14" d="M52.07,58.91a.67.67,0,0,1-.67-.67c0-.08-.13-8.53-3.39-11a.67.67,0,0,1,.82-1.07C52.6,49,52.74,57.85,52.74,58.23a.67.67,0,0,1-.67.68Z"/><path class="cls-14" d="M74.95,58.91h0a.67.67,0,0,1-.67-.68c0-.37.14-9.19,3.92-12.06A.67.67,0,0,1,79,47.24c-3.25,2.47-3.38,10.91-3.39,11A.67.67,0,0,1,74.95,58.91Z"/><path class="cls-15" d="M38.17,58h9.35v3.54H38.17A1.48,1.48,0,0,1,36.57,60h0A2.44,2.44,0,0,1,38.17,58Z"/><path class="cls-14" d="M47.52,62.45h-9a2.32,2.32,0,0,1-2.36-2A2.21,2.21,0,0,1,38.36,58h9.16ZM38,58.91a.88.88,0,0,0,0,1.77h8.66V58.91Z"/><path class="cls-13" d="M38.17,58h9.35v3.54H38.17A1.48,1.48,0,0,1,36.57,60h0A2.44,2.44,0,0,1,38.17,58Z"/><rect class="cls-16" x="58.14" y="62.45" width="12.38" height="17.69"/><rect class="cls-13" x="58.14" y="62.45" width="9.73" height="17.69"/><path class="cls-14" d="M57.33,60.68V80.14H71.48V60.68ZM69.71,78.37H59.1V62.45H69.71Z"/><path class="cls-16" d="M79.65,65.1l-6.47,0V54.49l6.5,0a4.13,4.13,0,0,1,4.11,4.13V61A4.13,4.13,0,0,1,79.65,65.1Z"/><path class="cls-14" d="M79.8,53.63l-7.51,0V66l7.35,0h.1a4.52,4.52,0,0,0,1.84-.35A5,5,0,0,0,84.68,61V58.52A4.91,4.91,0,0,0,79.8,53.63Zm3.08,7.79a3.21,3.21,0,0,1-3.18,2.8H74.06V55.35l5.49,0a3.38,3.38,0,0,1,3.35,3.37Z"/><path class="cls-14" d="M82.91,58.57v.17a3.38,3.38,0,0,0-3.35-3.37h.15A3.2,3.2,0,0,1,82.91,58.57Z"/><path class="cls-13" d="M77,64.22l-6.45,0V55.37l6.48,0c2.29,0,4.13,1.55,4.13,3.45v1.93C81.14,62.68,79.27,64.22,77,64.22Z"/><path class="cls-13" d="M54.6,65.1l-6.47,0A4.13,4.13,0,0,1,44,61V58.61a4.13,4.13,0,0,1,4.11-4.13l6.5,0Z"/><path class="cls-16" d="M83.9,106.12h-40l4.5-25.47a8.31,8.31,0,0,1,8.13-6.7H71.26a8.3,8.3,0,0,1,8.13,6.7L81,87.83Z"/><path class="cls-13" d="M78.5,105.23H44.82l4.26-24.14a7.77,7.77,0,0,1,7.68-6.26h9.78a8,8,0,0,1,1.11.08,7.9,7.9,0,0,1,6.58,6.18l.13.61,1.47,6.71Z"/><path class="cls-4" d="M74.95,103.67v2.45H52.83v-2.45c0-2.06,1.68-8.49,3.74-8.49H71.2C73.26,95.18,74.95,101.61,74.95,103.67Z"/><path class="cls-14" d="M75.83,107H51.95v-3.46c0-2.49,2-9.25,4.5-9.25H71.33c2.49,0,4.5,6.76,4.5,9.25Zm-22.11-1.77H74.06v-1.44c0-1.64-1.34-7.73-3-7.73H56.7c-1.65,0-3,6.08-3,7.73Z"/><path class="cls-6" d="M70.52,103.48v1.75H53.72v-1.75c0-1.47,1.43-7.42,3.19-7.42H67.33C69.1,96.06,70.52,102,70.52,103.48Z"/><path class="cls-2" d="M94,55.25a1.42,1.42,0,0,1,1.42,1.42V59a1.53,1.53,0,0,1-1.53,1.54H88.36a1.51,1.51,0,0,1-1.4-.95,1.72,1.72,0,0,1,0-3.43,1.53,1.53,0,0,1,1.4-.94Z"/><path class="cls-2" d="M43.3,57.91a1.71,1.71,0,0,1-1.59,1.71,1.51,1.51,0,0,1-1.4.95H34.68a1.42,1.42,0,0,1-1.42-1.42V56.67a1.42,1.42,0,0,1,1.42-1.42H40.3a1.53,1.53,0,0,1,1.4.94A1.72,1.72,0,0,1,43.3,57.91Z"/><path class="cls-14" d="M43.17,58.52V61a5,5,0,0,0,3.1,4.64,4.52,4.52,0,0,0,1.84.35h.1l7.35,0V53.6l-7.51,0A4.91,4.91,0,0,0,43.17,58.52Zm1.77.22a3.38,3.38,0,0,1,3.35-3.37l5.49,0v8.86H48.15A3.21,3.21,0,0,1,45,61.42l0,0Z"/><circle class="cls-17" cx="63.96" cy="60.24" r="10.17"/><path class="cls-14" d="M63.58,71.09A10.87,10.87,0,1,1,74.45,60.22,10.88,10.88,0,0,1,63.58,71.09Zm0-20.22a9.35,9.35,0,1,0,9.35,9.35A9.36,9.36,0,0,0,63.58,50.87Z"/><circle class="cls-9" cx="63.96" cy="60.24" r="6.63"/><path class="cls-14" d="M63.58,67.74a7.52,7.52,0,1,1,7.52-7.52A7.52,7.52,0,0,1,63.58,67.74Zm0-13.51a6,6,0,1,0,6,6A6,6,0,0,0,63.58,54.22Z"/><path class="cls-14" d="M79.89,81.09a8.74,8.74,0,0,0-8.61-7.15H56.64A8.74,8.74,0,0,0,48,81.09L43.17,107H84.75ZM50,82a7.66,7.66,0,0,1,7.53-6.25H70.37A7.66,7.66,0,0,1,77.9,82l4.36,23.26H45.66Z"/><path class="cls-9" d="M58.21,30.6h8a0,0,0,0,1,0,0v1.33a4,4,0,0,1-4,4h0a4,4,0,0,1-4-4V30.6a0,0,0,0,1,0,0Z"/><path class="cls-1" d="M60.14,4a30.37,30.37,0,0,1,3.58.23c13.4,1.59,13,9.74,11.53,14.49a4.34,4.34,0,0,1-1.15,5.64v4.42c0,.4,0,.8-.06,1.19.42-1,.88-1.92,1.39-2.86a56.89,56.89,0,0,1,8.39-11.3c.54-1.23.79-3,1.35-4.1,1-2.11,2.41-3.66,4.79-3.76H90l.18,0a2.76,2.76,0,0,1,1,.47c.31.27.55.29.88.8A3.4,3.4,0,0,1,92.93,11a5.64,5.64,0,0,1-1.25,4.07,3.38,3.38,0,0,1,1-.15c.4,0,.77.08.89.32.23.46-.08.74-.35,1-.68.64-1.44.45-2.36.61a5.13,5.13,0,0,0-2.54,1.24c-.17.15-.37.39-.63.67A53.94,53.94,0,0,0,81.1,27a42.68,42.68,0,0,0-4.8,11.31l1-.15a9,9,0,0,0-.21,3,5.83,5.83,0,0,1,8.39-.32A10.8,10.8,0,0,1,87,34.63l2.12-3.56a3.87,3.87,0,0,1,1.17-5.15.66.66,0,0,0-.06-.21S91.7,17.19,99,17.19c2.33,0,5.26.86,8.92,3.13,10.61,6.59,7.06,13.26,4,16.67a3.9,3.9,0,0,1-.21,3.59h0a3.89,3.89,0,0,1-3.36,1.9,4,4,0,0,1-.75-.07l-2,3.33a10.85,10.85,0,0,1-11,5.16L93,53.56l7.29,4.35a3.7,3.7,0,0,1,1.4,1.51c.93,1.3,1.89,4.28.79,11.09l-.07,0a42.4,42.4,0,0,1-.35,5,43.32,43.32,0,0,1-5.34,15.77l-.1,0c-.51,1.35-.91,2.79-1.44,4.13-1.18,2.24-2.93,3.65-4.54,3.65a2.65,2.65,0,0,1-.43,0A2.83,2.83,0,0,1,89,98.54a4,4,0,0,1-.85-.8,4.49,4.49,0,0,1-.76-1.69,5.19,5.19,0,0,1,1.4-4.19,4.12,4.12,0,0,1-1,.13c-.51,0-.86-.13-1-.37s.17-.73.42-1c.66-.63,1.54-.42,2.38-.54A4.58,4.58,0,0,0,92,89.05a32.78,32.78,0,0,0,5.42-15.2l-.07,0-1.95-3.23L82,87a5.93,5.93,0,0,1-.83.82L84.75,107H43.17l4.25-22.7L34.85,63.6a24.08,24.08,0,0,1-11.31-3.86c-.27-.16-.51-.33-.76-.5h0l-.53-.37-.66-.49A33.87,33.87,0,0,1,15.89,53l0,0c-.62-.75-.94-1.22-.94-1.22l.14-.09L9,41.69a2.45,2.45,0,0,1-1.8-1.16s-1.67-2.75-1.68-2.75h0A12.5,12.5,0,0,1,4,35.28a.84.84,0,0,1,.7-1.09h.11c.41.06.81.78,1.14,1.39-.18-.35-.34-.72-.52-1a.76.76,0,0,1,.38-1.13h.09c.31,0,.61.3.89.67L6.76,34a1.45,1.45,0,0,1-.25-.64.6.6,0,0,1,.65-.63.66.66,0,0,1,.58.31l.77,1.27c-.24-.46-.48-1-.52-1.13-.14-.35-.34-.63-.09-1a.62.62,0,0,1,.51-.25.69.69,0,0,1,.59.32l2.15,3.54s-.21-1.22.81-1.22l.22,0c.36.05.5.34.52.72a7.86,7.86,0,0,1-.45,2.41c.36.35.22.74.15,1.16a1.31,1.31,0,0,0,.19,1.23c.34.6,4.6,6.87,6.25,9.24l0,0,.09.14a14.56,14.56,0,0,0,3.28,3.64,9.54,9.54,0,0,0,1.14.77.09.09,0,0,0,0,0,7.71,7.71,0,0,0,3.86,1.15l.44,0a79,79,0,0,0-2.87-9.1c-.81-2.11-1.67-4.07-2.55-5.91a2,2,0,0,1-.95-.44c-.59.33-1.12.58-1.54.77a27.4,27.4,0,0,0-1-2.93c-.28-.71-.57-1.36-.87-2l-1.11-2h0a11.32,11.32,0,0,1-1.42-7.79C16.6,20,22,17.86,22.83,17.4a11.47,11.47,0,0,1,5.25-1.2,10.84,10.84,0,0,1,5.8,1.58L34,17.7l.27.34a10,10,0,0,1,3.37,4.18q1.51,1.87,3.05,3.75a1.9,1.9,0,0,1,.93,1.13c1.13,1.37,2.25,2.74,3.41,4.12q5.48,6.53,10.9,12.63h2.21V39.73a11.76,11.76,0,0,1-8-10.88V24.91a4.4,4.4,0,0,1-1.27-7.22l-.07-.07S45.13,4,60.14,4M8.88,34.91,9,34.85h0s-.11-.06-.18-.16l.12.2M67,43.82h3.17a47.51,47.51,0,0,1,.73-4.72l.2,0q.43-1.75.93-3.47a11.45,11.45,0,0,1-5,4.12v4.1M6.4,36.28h0A2.93,2.93,0,0,1,6.23,36a2.52,2.52,0,0,0,.17.26M60.14,2h0c-5.24,0-9.08,1.54-11.4,4.57-2.87,3.75-2.41,8.6-2.05,10.62a6.34,6.34,0,0,0-1.16,3.7,6.42,6.42,0,0,0,2.64,5.17v2.8a13.21,13.21,0,0,0,.51,3.6l-2.13-2.52c-.87-1-1.73-2.08-2.58-3.11l-.62-.75a3.74,3.74,0,0,0-.23-.44A4,4,0,0,0,42,24.46l-2.69-3.3a12,12,0,0,0-3.69-4.58l-.09-.12a2,2,0,0,0-1.23-.73,13,13,0,0,0-6.25-1.52,13.42,13.42,0,0,0-6.21,1.44l-.23.12c-4.58,2.25-7.32,5.46-8.12,9.54a13.37,13.37,0,0,0,1.65,9.18l1.06,1.91c.31.65.56,1.22.78,1.78a25.5,25.5,0,0,1,.89,2.72,2,2,0,0,0,2.76,1.31L21,42c.72,1.56,1.36,3.09,2,4.65.73,1.9,1.38,3.84,2,5.8l-.42-.22-.18-.11a7.59,7.59,0,0,1-.9-.61,12.63,12.63,0,0,1-2.82-3.14l-.05-.07a2,2,0,0,0-.28-.36c-1.8-2.58-5.39-7.89-5.94-8.76h0l0-.13a3.41,3.41,0,0,0,0-1.53,7,7,0,0,0,.31-2.34,2.63,2.63,0,0,0-2.23-2.56,3.6,3.6,0,0,0-.5,0l-.42,0-.85-1.39h0a2.7,2.7,0,0,0-2.3-1.28,2.6,2.6,0,0,0-1.95.85,2.65,2.65,0,0,0-1.24.73h0A2.56,2.56,0,0,0,4,32.28a2.7,2.7,0,0,0-1.44,1,2.94,2.94,0,0,0-.49,2.56A7.89,7.89,0,0,0,3.4,38.18c.17.24.33.47.44.64l0,.06,1.64,2.69a4.43,4.43,0,0,0,2.22,1.85L12.94,52a2,2,0,0,0,.34.88c0,.05.38.54,1,1.31l.07.09a35.78,35.78,0,0,0,6,5.69l.22.17.48.35.28.2.26.18.12.08.76.5A26.16,26.16,0,0,0,33.66,65.5L45.32,84.69l-4.11,21.94a2,2,0,0,0,2,2.37H84.75a2,2,0,0,0,2-2.37l-3.4-18.15.21-.25L95.13,74.12l.21.34a31,31,0,0,1-4.83,13.21,2.48,2.48,0,0,1-1.15.45c-.14,0-.32,0-.51,0a4.24,4.24,0,0,0-3,1l0,0A2.88,2.88,0,0,0,85,92.38a2.56,2.56,0,0,0,.67.91,6,6,0,0,0-.25,3.16A6.42,6.42,0,0,0,86.54,99a6,6,0,0,0,1.26,1.19,4.8,4.8,0,0,0,2.09.89,4.61,4.61,0,0,0,.74.06c2.36,0,4.78-1.81,6.31-4.72l.09-.2c.3-.77.56-1.55.81-2.31.15-.45.29-.88.44-1.3a2,2,0,0,0,.16-.24A45.13,45.13,0,0,0,104,75.84a43.81,43.81,0,0,0,.36-4.77,2,2,0,0,0,.05-.24c.94-5.85.58-10-1.06-12.45a5.71,5.71,0,0,0-2.08-2.19L96,53h.31a12.89,12.89,0,0,0,11-6.28l1.36-2.29a5.84,5.84,0,0,0,4.73-2.86,5.91,5.91,0,0,0,.72-4.15A11.47,11.47,0,0,0,117,28.67c-.52-3.7-3.2-7.08-8-10-3.67-2.28-7-3.44-10-3.44a10.07,10.07,0,0,0-3.41.57,2.64,2.64,0,0,0-.29-1.44,2.41,2.41,0,0,0-.67-.81,6.88,6.88,0,0,0,.22-2.89,4.83,4.83,0,0,0-1-2.26l-.14-.2A3.72,3.72,0,0,0,92.61,7l-.07,0a4.52,4.52,0,0,0-1.8-.88l-.1,0A2.17,2.17,0,0,0,90,5.94h-.17c-4.19.2-5.9,3.72-6.46,4.88a14.26,14.26,0,0,0-.84,2.46c-.14.5-.28,1-.43,1.43-1.4,1.55-2.9,3.27-4.36,5.18a6.28,6.28,0,0,0-.38-1.37c1-3.94.65-7.45-1.13-10.19C74.07,5,69.93,3,64,2.24A32.52,32.52,0,0,0,60.14,2ZM78.81,36.82a39.47,39.47,0,0,1,4-8.81,52.4,52.4,0,0,1,6.33-7.89l.27-.3.22-.24a3.13,3.13,0,0,1,1.56-.78l.16,0a14.54,14.54,0,0,0-3,6.15,5.78,5.78,0,0,0-.92,1.17,5.9,5.9,0,0,0-.54,4.81l-1.6,2.69a12.82,12.82,0,0,0-1.53,3.92,7.81,7.81,0,0,0-4.53,0,2,2,0,0,0-.39-.69ZM56.13,41.06h0Z"/><path class="cls-9" d="M60.14,2A32.48,32.48,0,0,1,64,2.24C69.94,3,74.07,5,76.25,8.35c1.78,2.74,2.17,6.25,1.13,10.19a6.48,6.48,0,0,1,.38,1.37c1.45-1.92,3-3.63,4.35-5.18.16-.42.3-.93.44-1.44a14,14,0,0,1,.83-2.46c.57-1.16,2.28-4.68,6.47-4.88H90a2.17,2.17,0,0,1,.62.1l.1,0a4.48,4.48,0,0,1,1.8.87l.08,0a3.86,3.86,0,0,1,1.17,1.17l.14.2a4.84,4.84,0,0,1,1,2.26,7,7,0,0,1-.22,2.89,2.49,2.49,0,0,1,.66.81,2.62,2.62,0,0,1,.29,1.44A9.87,9.87,0,0,1,99,15.19c3,0,6.3,1.15,10,3.43,4.78,3,7.46,6.35,8,10a11.47,11.47,0,0,1-2.83,8.79,5.88,5.88,0,0,1-5.44,7l-1.37,2.29a12.87,12.87,0,0,1-11,6.27H96l5.3,3.16a5.62,5.62,0,0,1,2.08,2.19c1.65,2.41,2,6.6,1.06,12.44a1.84,1.84,0,0,1-.05.25,44,44,0,0,1-.37,4.77,45.16,45.16,0,0,1-5.58,16.5l-.17.24c-.15.42-.29.85-.44,1.3-.25.76-.51,1.54-.81,2.31l-.09.2c-1.53,2.91-4,4.72-6.31,4.72a4.35,4.35,0,0,1-.74-.06,4.74,4.74,0,0,1-2.09-.88A6.2,6.2,0,0,1,86.54,99a6.55,6.55,0,0,1-1.15-2.52,6.08,6.08,0,0,1,.25-3.17,2.48,2.48,0,0,1-.67-.91,2.89,2.89,0,0,1,.85-3.15l0,0a4.24,4.24,0,0,1,3-1l.51,0a2.42,2.42,0,0,0,1.15-.45,31,31,0,0,0,4.83-13.2l-.21-.35L83.53,88.23a2.61,2.61,0,0,1-.22.25l3.41,18.15a2,2,0,0,1-.43,1.65,2,2,0,0,1-1.54.72H43.18a2,2,0,0,1-1.54-.72,2,2,0,0,1-.43-1.65l4.11-21.94L33.67,65.5a26.29,26.29,0,0,1-11.19-4.06l-.76-.5-.12-.08-.26-.18-.28-.2-.48-.35L20.36,60a35.53,35.53,0,0,1-6-5.69l-.07-.09c-.63-.77-1-1.25-1-1.31a2,2,0,0,1-.34-.88L7.73,43.42a4.44,4.44,0,0,1-2.21-1.85L3.88,38.88l0-.06c-.11-.18-.27-.4-.44-.64a7.8,7.8,0,0,1-1.29-2.36,2.94,2.94,0,0,1,.48-2.56,2.68,2.68,0,0,1,1.44-1,2.65,2.65,0,0,1,1.17-.75,2.66,2.66,0,0,1,1.25-.74,2.61,2.61,0,0,1,1.94-.85,2.72,2.72,0,0,1,2.31,1.28h0c.1.15.31.51.85,1.39a2.76,2.76,0,0,1,.42,0,3,3,0,0,1,.5,0,2.62,2.62,0,0,1,2.23,2.56,7.06,7.06,0,0,1-.31,2.34,3.4,3.4,0,0,1,0,1.53l0,.13h0c.55.88,4.14,6.18,5.94,8.76a1.93,1.93,0,0,1,.28.36.35.35,0,0,1,.05.08,12.59,12.59,0,0,0,2.82,3.13,6.24,6.24,0,0,0,.9.61l.18.11.42.23q-.87-3-2-5.81c-.6-1.56-1.24-3.09-2-4.65l-.39.18a2,2,0,0,1-.82.18,2.15,2.15,0,0,1-.86-.19,2,2,0,0,1-1.07-1.3C17.65,40,17.35,39,17,38.16c-.22-.56-.47-1.13-.78-1.78l-1.06-1.9a13.35,13.35,0,0,1-1.65-9.18c.8-4.08,3.54-7.28,8.12-9.54l.23-.12a13.51,13.51,0,0,1,6.21-1.43,13,13,0,0,1,6.25,1.52,2,2,0,0,1,1.23.73l.09.12a11.87,11.87,0,0,1,3.69,4.58L42,24.46a3.79,3.79,0,0,1,1.11,1.18,4.54,4.54,0,0,1,.23.44l.61.74c.85,1,1.71,2.07,2.58,3.11l2.13,2.53a13,13,0,0,1-.51-3.6v-2.8a6.41,6.41,0,0,1-2.64-5.17,6.32,6.32,0,0,1,1.16-3.7c-.36-2-.81-6.87,2-10.62C51.06,3.54,54.9,2,60.14,2M79.2,37.51a7.64,7.64,0,0,1,2.24-.33,7.72,7.72,0,0,1,2.3.34,12.64,12.64,0,0,1,1.53-3.92l1.6-2.69a5.89,5.89,0,0,1,.54-4.81,6.16,6.16,0,0,1,.92-1.17,14.56,14.56,0,0,1,3-6.15l-.16,0a3.12,3.12,0,0,0-1.56.78,2.5,2.5,0,0,0-.22.23,3.65,3.65,0,0,1-.27.3A52.75,52.75,0,0,0,82.8,28a39,39,0,0,0-4,8.81,1.9,1.9,0,0,1,.39.69m6.92,12,1.59-2.66c-.18-.24-.35-.49-.52-.74a5.81,5.81,0,0,1-1.6,3.08l.53.32M60.14,0c-5.9,0-10.27,1.8-13,5.35-3,4-2.89,8.86-2.55,11.4a8.44,8.44,0,0,0-.67,6.68,5.77,5.77,0,0,0-.52-.45L41,20.08a13.85,13.85,0,0,0-4-4.94,4,4,0,0,0-2-1.3,15.13,15.13,0,0,0-7-1.63,15.57,15.57,0,0,0-7.16,1.67l-.08,0-.09,0c-5.17,2.55-8.27,6.24-9.19,10.95A14.3,14.3,0,0,0,11.34,29a4.75,4.75,0,0,0-3-1,4.64,4.64,0,0,0-3,1.1,4.67,4.67,0,0,0-1.27.76A4.67,4.67,0,0,0,3,30.53a4.73,4.73,0,0,0-2,1.52,5,5,0,0,0-.81,4.32,9.48,9.48,0,0,0,1.57,2.95l.09.13.26.37.12.19,1.58,2.6A6.48,6.48,0,0,0,6.34,45L11,52.73A4,4,0,0,0,11.63,54c.07.11.43.61,1.06,1.38l.16.2a37.44,37.44,0,0,0,6.31,6l.19.15.57.42.25.18.27.18.14.09h0l.59.39.2.13a28.6,28.6,0,0,0,11.07,4.24L43.21,85.07l-4,21.19A4,4,0,0,0,43.18,111H84.75a4,4,0,0,0,3.94-4.74L88,102.57a6.46,6.46,0,0,0,1.6.46,6.18,6.18,0,0,0,1,.08c3.11,0,6.2-2.22,8.08-5.79.07-.13.11-.24.16-.34l0-.06c.32-.81.58-1.6.85-2.41l.09-.27.24-.73.07-.11,0-.07A47.15,47.15,0,0,0,106,76.1a45.88,45.88,0,0,0,.38-4.78c0-.07,0-.14,0-.22,1-6.38.59-10.88-1.33-13.76a7.63,7.63,0,0,0-2.77-2.87l-.72-.43a14.82,14.82,0,0,0,7.45-6.27l.87-1.45A7.89,7.89,0,0,0,116.25,38,13.15,13.15,0,0,0,119,28.39c-.61-4.32-3.6-8.18-8.91-11.47-4-2.48-7.69-3.73-11-3.73a12.86,12.86,0,0,0-2,.15q-.11-.2-.24-.39a8.2,8.2,0,0,0,0-2.67A6.88,6.88,0,0,0,95.56,7.2L95.44,7a5.86,5.86,0,0,0-1.7-1.69h0a6.42,6.42,0,0,0-2.44-1.18l-.06,0h0A4.11,4.11,0,0,0,90,3.94h-.27c-3.55.17-6.3,2.18-8.16,6a15.76,15.76,0,0,0-1,2.85c-.09.31-.17.63-.26.91l-.41.45a12.85,12.85,0,0,0-2-6.89C75.4,3.39,70.78,1,64.19.25A34.41,34.41,0,0,0,60.14,0ZM81.49,35.18a35.9,35.9,0,0,1,3-6.12l.08-.14a7.9,7.9,0,0,0,.14,1.68l-1.18,2a15,15,0,0,0-1.24,2.64q-.4,0-.81,0Zm6.26,51.05,3.55-4.32a30.28,30.28,0,0,1-2.2,4.22l-.35,0a9.46,9.46,0,0,0-1,.07Z"/></g></g></svg>